<?xml version="1.0" standalone="no"?>
<!DOCTYPE svg PUBLIC "-//W3C//DTD SVG 1.1//EN" "http://www.w3.org/Graphics/SVG/1.1/DTD/svg11.dtd" >
<svg xmlns="http://www.w3.org/2000/svg" xmlns:xlink="http://www.w3.org/1999/xlink" version="1.1">
<metadata>
Created by FontForge 20170731 at Sun Jan 23 15:08:58 2022
 By Aleksey,,,
Copyright (c) 2022 by Fontastica. All rights reserved.
</metadata>
<defs>
<font id="KrossNeueGrotesk-Italic" horiz-adv-x="1351" vert-adv-y="2048" >
  <font-face 
    font-family="Kross Neue Grotesk"
    font-weight="400"
    font-style="italic"
    font-stretch="normal"
    units-per-em="2048"
    panose-1="0 0 5 0 0 0 0 0 0 0"
    ascent="1638"
    descent="-410"
    x-height="1047"
    cap-height="1423"
    bbox="-397 -559 2773 2015"
    underline-thickness="102"
    underline-position="-307"
    slope="-9"
    unicode-range="U+000D-2265"
  />
<missing-glyph horiz-adv-x="1603" vert-adv-y="2007" 
d="M1530 1430l-227 -1436h-1002l227 1436h1002zM1333 1315h-645l246 -488zM838 713l-226 442l-139 -887zM1356 1155l-363 -442l224 -447zM1143 113l-244 485l-399 -485h643z" />
    <glyph glyph-name="f_f.liga" unicode="ff" horiz-adv-x="1794" vert-adv-y="2007" 
d="M616 903l-151 -954h-146l152 954h-195l23 144h195l24 155q26 166 134 265.5t263 99.5q119 0 203 -66l-86 -133q-40 55 -137 55q-92 0 -153 -58.5t-78 -162.5l-25 -155h618l25 155q26 166 134 265.5t263 99.5q119 0 203 -66l-86 -133q-40 55 -137 55q-92 0 -153.5 -58.5
t-78.5 -162.5l-24 -155h424l-23 -144h-424l-151 -954h-146l152 954h-619z" />
    <glyph glyph-name="f_t.liga" unicode="ft" horiz-adv-x="1800" vert-adv-y="2007" 
d="M1401 -72q-139 0 -212.5 90.5t-51.5 233.5l104 651h-625l-151 -954h-146l152 954h-195l23 144h195l24 155q26 166 134 265.5t263 99.5q119 0 203 -66l-86 -133q-40 55 -137 55q-92 0 -153 -58.5t-78 -162.5l-25 -155h625l53 335h145l-53 -335h389l-22 -144h-390
l-104 -651q-12 -83 27 -131.5t118 -48.5q51 0 96.5 24t98.5 78l68 -117q-129 -129 -289 -129z" />
    <glyph glyph-name="t_t.liga" unicode="tt" horiz-adv-x="1837" vert-adv-y="2007" 
d="M655 -72q-139 0 -212.5 90.5t-51.5 233.5l105 651h-220l23 144h219l53 335h146l-53 -335h636l54 335h145l-53 -335h389l-23 -144h-389l-104 -651q-12 -83 27 -131.5t118 -48.5q51 0 96.5 24t98.5 78l67 -117q-129 -129 -288 -129q-139 0 -212.5 90.5t-51.5 233.5l104 651
h-637l-104 -651q-12 -83 27 -131.5t118 -48.5q51 0 96.5 24t98.5 78l67 -117q-129 -129 -289 -129z" />
    <glyph glyph-name=".notdef" horiz-adv-x="1603" vert-adv-y="2007" 
d="M1530 1430l-227 -1436h-1002l227 1436h1002zM1333 1315h-645l246 -488zM838 713l-226 442l-139 -887zM1356 1155l-363 -442l224 -447zM1143 113l-244 485l-399 -485h643z" />
    <glyph glyph-name=".null" horiz-adv-x="0" vert-adv-y="0" 
 />
    <glyph glyph-name="nonmarkingreturn" horiz-adv-x="682" 
 />
    <glyph glyph-name="NULL" horiz-adv-x="122" vert-adv-y="2007" 
 />
    <glyph glyph-name="NULL" horiz-adv-x="122" vert-adv-y="2007" 
 />
    <glyph glyph-name="CR" unicode="&#xd;" horiz-adv-x="122" vert-adv-y="2007" 
 />
    <glyph glyph-name="space" unicode=" " horiz-adv-x="655" vert-adv-y="2007" 
 />
    <glyph glyph-name="exclam" unicode="!" horiz-adv-x="634" vert-adv-y="2007" 
d="M616 1423l-176 -1108h-145l176 1108h145zM309 -55q-43 0 -68.5 29.5t-19.5 70.5q7 41 42.5 70.5t76.5 29.5q42 0 67.5 -29.5t18.5 -70.5q-6 -41 -40 -70.5t-77 -29.5z" />
    <glyph glyph-name="quotedbl" unicode="&#x22;" horiz-adv-x="636" vert-adv-y="2007" 
d="M504 1423l-101 -630h-145l100 630h146zM729 1423l-100 -630h-146l101 630h145z" />
    <glyph glyph-name="numbersign" unicode="#" horiz-adv-x="1484" vert-adv-y="2007" 
d="M508 334l-162 -385h-151l161 385h-225l57 143h226l168 397h-228l66 144h221l168 405h152l-168 -405h399l168 405h151l-168 -405h228l-66 -144h-221l-168 -397h225l-57 -143h-225l-162 -385h-152l162 385h-399zM1133 874h-400l-168 -397h400z" />
    <glyph glyph-name="dollar" unicode="$" horiz-adv-x="1296" vert-adv-y="2007" 
d="M727 -14l-39 -242h-145l41 250q-200 25 -305.5 148.5t-79.5 303.5l153 43q-29 -135 39.5 -229.5t214.5 -120.5l78 500l-86 20q-304 76 -264 336q25 159 153 265.5t316 123.5l39 244h145l-39 -248q178 -23 272.5 -135t71.5 -274l-145 -43q20 121 -39.5 202t-183.5 103
l-76 -479l94 -23q49 -11 87.5 -24t83.5 -40.5t72.5 -62.5t41 -91.5t2.5 -127.5q-28 -169 -164.5 -277t-337.5 -122zM668 801l41 -10l71 446q-124 -13 -203 -77t-94 -163q-12 -80 29 -123.5t156 -72.5zM891 586l-66 16l-75 -469q135 11 223.5 77.5t105.5 172.5q12 86 -30 132
t-158 71z" />
    <glyph glyph-name="percent" unicode="%" horiz-adv-x="1884" vert-adv-y="2007" 
d="M625 702q-158 0 -252.5 107.5t-69.5 261.5q25 158 152 265.5t288 107.5q163 0 255 -106.5t67 -266.5q-25 -155 -152.5 -262t-287.5 -107zM1798 1423l-1358 -1474h-174l1358 1474h174zM647 844q101 0 182.5 66t96.5 161q15 98 -44.5 167t-160.5 69t-183.5 -69t-97.5 -167
q-15 -94 46 -160.5t161 -66.5zM1358 -72q-158 0 -252.5 107.5t-69.5 261.5q25 158 152 265.5t289 107.5q163 0 254.5 -106.5t66.5 -266.5q-25 -155 -152.5 -262t-287.5 -107zM1380 70q101 0 182.5 66t96.5 161q15 98 -44.5 166.5t-160.5 68.5t-183 -68.5t-97 -166.5
q-15 -94 45.5 -160.5t160.5 -66.5z" />
    <glyph glyph-name="ampersand" unicode="&#x26;" horiz-adv-x="1601" vert-adv-y="2007" 
d="M1292 256l262 -236l-104 -112l-254 231q-106 -101 -240.5 -156t-279.5 -55q-232 0 -357 120.5t-94 313.5q20 129 107 239.5t219 178.5q-77 132 -57 273q28 172 159.5 281.5t311.5 109.5q183 0 278 -113t72 -305l-148 -43q23 156 -35 238t-192 82q-117 0 -199.5 -68.5
t-99.5 -179.5q-10 -61 2.5 -114.5t57 -115t100.5 -119t157 -149.5l234 -211q68 115 92 258l19 125h143l-19 -125q-32 -200 -135 -348zM698 70q112 0 215.5 40.5t180.5 114.5l-240 224q-153 136 -223 221q-232 -105 -262 -308q-22 -133 67.5 -212.5t261.5 -79.5z" />
    <glyph glyph-name="quotesingle" unicode="'" horiz-adv-x="411" vert-adv-y="2007" 
d="M504 1423l-101 -630h-145l100 630h146z" />
    <glyph glyph-name="parenleft" unicode="(" horiz-adv-x="817" vert-adv-y="2007" 
d="M664 -139l-119 -101q-187 191 -257 419t-26 505q87 553 580 924l80 -107q-225 -173 -348.5 -370.5t-163.5 -446.5q-40 -250 22 -450t232 -373z" />
    <glyph glyph-name="parenright" unicode=")" horiz-adv-x="817" vert-adv-y="2007" 
d="M195 -240l-86 101q226 173 351 373t165 450q40 249 -21.5 446t-232.5 371l112 107q377 -371 289 -924q-44 -278 -186.5 -505.5t-390.5 -418.5z" />
    <glyph glyph-name="asterisk" unicode="*" horiz-adv-x="954" vert-adv-y="2007" 
d="M709 1008l-43 -273h-144l43 273l-258 -134l-59 119l264 140l-221 137l96 119l217 -134l43 271h144l-43 -271l258 134l59 -119l-262 -137l219 -140l-96 -119z" />
    <glyph glyph-name="plus" unicode="+" horiz-adv-x="1310" vert-adv-y="2007" 
d="M815 553l-65 -410h-144l66 410h-410l23 143h409l66 410h143l-65 -410h409l-22 -143h-410z" />
    <glyph glyph-name="comma" unicode="," horiz-adv-x="466" vert-adv-y="2007" 
d="M397 244l-268 -566h-145l274 631h150z" />
    <glyph glyph-name="hyphen" unicode="-" horiz-adv-x="1019" vert-adv-y="2007" 
d="M981 594l-23 -143h-753l22 143h754z" />
    <glyph glyph-name="period" unicode="." horiz-adv-x="471" vert-adv-y="2007" 
d="M227 -55q-43 0 -68.5 29.5t-19.5 70.5q7 41 42.5 70.5t76.5 29.5q42 0 67.5 -29.5t18.5 -70.5q-6 -41 -40 -70.5t-77 -29.5z" />
    <glyph glyph-name="slash" unicode="/" horiz-adv-x="774" vert-adv-y="2007" 
d="M1022 1567l-903 -1766h-150l903 1766h150z" />
    <glyph glyph-name="zero" unicode="0" horiz-adv-x="1462" vert-adv-y="2007" 
d="M719 -72q-176 0 -297 95t-168.5 267.5t-11.5 395.5q54 338 253 548t466 210q176 0 297 -95t168.5 -267.5t11.5 -395.5q-54 -338 -253 -548t-466 -210zM743 74q203 0 353.5 168t193.5 444q44 278 -52.5 446t-299.5 168t-354 -168t-195 -446q-28 -183 6 -322t124 -214.5
t224 -75.5z" />
    <glyph glyph-name="one" unicode="1" horiz-adv-x="808" vert-adv-y="2007" 
d="M901 1423l-233 -1474h-148l201 1272l-432 -240l26 174l494 268h92z" />
    <glyph glyph-name="two" unicode="2" horiz-adv-x="1282" vert-adv-y="2007" 
d="M1163 92l-22 -143h-1016l16 100l609 475q109 82 168.5 132t110.5 105.5t74.5 106.5t33.5 115q23 145 -56.5 231t-234.5 86q-174 0 -288.5 -112.5t-123.5 -296.5l-149 18q28 235 190.5 385t392.5 150q218 0 332 -127.5t82 -333.5q-11 -70 -38.5 -133t-60.5 -111.5
t-95 -108.5t-113.5 -103t-143.5 -115l-415 -320h747z" />
    <glyph glyph-name="three" unicode="3" horiz-adv-x="1310" vert-adv-y="2007" 
d="M664 -72q-248 0 -373.5 151.5t-81.5 397.5l151 29q-43 -198 46.5 -316t281.5 -118q163 0 272.5 82.5t131.5 220.5q20 124 -62.5 194t-249.5 70h-231l22 141h230q149 0 246 65.5t114 178.5q20 126 -59.5 201t-233.5 75q-177 0 -291.5 -107t-134.5 -292l-143 29
q32 229 196.5 371.5t397.5 142.5q215 0 330 -116.5t84 -303.5q-15 -99 -73 -178.5t-151 -128.5q192 -105 154 -340q-31 -199 -190.5 -324t-382.5 -125z" />
    <glyph glyph-name="four" unicode="4" horiz-adv-x="1470" vert-adv-y="2007" 
d="M1133 332l-62 -383h-147l61 383h-799l19 125l983 966h117l-150 -948h258l-22 -143h-258zM1008 475l108 684l-696 -684h588z" />
    <glyph glyph-name="five" unicode="5" horiz-adv-x="1308" vert-adv-y="2007" 
d="M653 -72q-248 0 -371.5 154.5t-72.5 400.5l158 29q-54 -196 32.5 -318t278.5 -122q167 0 279 86.5t135 232.5q23 144 -51 215.5t-246 71.5h-461l166 745h858l-23 -143h-721l-100 -459h307q232 0 340 -112t76 -318t-194.5 -334.5t-389.5 -128.5z" />
    <glyph glyph-name="six" unicode="6" horiz-adv-x="1345" vert-adv-y="2007" 
d="M690 -72q-272 0 -391.5 184t-65.5 521q60 382 248 596.5t463 214.5q184 0 294 -100t112 -269l-150 -28q1 120 -72.5 186.5t-207.5 66.5q-88 0 -164 -31t-131.5 -83t-100.5 -124.5t-74 -150.5t-49 -166q87 90 205.5 140.5t243.5 50.5q224 0 345 -140.5t87 -361.5
q-35 -222 -201 -364t-391 -142zM715 74q161 0 278.5 100t143.5 260q25 158 -62 257.5t-248 99.5q-166 0 -291.5 -103t-150.5 -260q-25 -154 69 -254t261 -100z" />
    <glyph glyph-name="seven" unicode="7" horiz-adv-x="1271" vert-adv-y="2007" 
d="M1350 1337l-842 -1388h-162l813 1331h-823l22 143h1006z" />
    <glyph glyph-name="eight" unicode="8" horiz-adv-x="1349" vert-adv-y="2007" 
d="M666 -72q-244 0 -375.5 116.5t-102.5 307.5q20 123 97 215.5t202 145.5q-93 51 -132.5 136t-20.5 195q28 181 185 290.5t388 109.5q226 0 347.5 -110t93.5 -290q-19 -110 -85.5 -195t-172.5 -136q107 -51 154.5 -144.5t27.5 -216.5q-29 -190 -196.5 -307t-409.5 -117z
M801 786q163 0 272.5 70.5t128.5 187.5q19 116 -67.5 186t-249.5 70q-165 0 -276 -70t-130 -186q-20 -115 69 -186.5t253 -71.5zM688 76q176 0 294 75.5t138 200.5q20 126 -73 202.5t-269 76.5q-177 0 -297.5 -77t-140.5 -202q-20 -124 75.5 -200t272.5 -76z" />
    <glyph glyph-name="nine" unicode="9" horiz-adv-x="1345" vert-adv-y="2007" 
d="M618 -72q-184 0 -293 100t-112 269l149 29q-1 -120 74 -187t209 -67q88 0 164 31t131 83t99.5 125t73 150t48.5 166q-87 -90 -205 -140.5t-243 -50.5q-224 0 -344.5 140.5t-85.5 361.5q35 223 200 364.5t389 141.5q272 0 391.5 -184t65.5 -521q-60 -382 -248 -596.5
t-463 -214.5zM735 582q166 0 292 103t151 259q25 154 -69 254t-261 100q-161 0 -278 -100t-142 -260q-26 -158 59.5 -257t247.5 -99z" />
    <glyph glyph-name="colon" unicode=":" horiz-adv-x="471" vert-adv-y="2007" 
d="M354 748q-43 0 -68 29.5t-18 70.5q6 41 41 70.5t76 29.5t67.5 -29.5t20.5 -70.5q-8 -42 -42.5 -71t-76.5 -29zM227 -55q-43 0 -68.5 29.5t-19.5 70.5q7 41 42.5 70.5t76.5 29.5q42 0 67.5 -29.5t18.5 -70.5q-6 -41 -40 -70.5t-77 -29.5z" />
    <glyph glyph-name="semicolon" unicode=";" horiz-adv-x="516" vert-adv-y="2007" 
d="M399 748q-43 0 -68 29.5t-18 70.5q6 41 41 70.5t76 29.5t67.5 -29.5t20.5 -70.5q-8 -42 -42.5 -71t-76.5 -29zM397 244l-268 -566h-145l274 631h150z" />
    <glyph glyph-name="less" unicode="&#x3c;" horiz-adv-x="991" vert-adv-y="2007" 
d="M399 625l551 -297l-24 -160l-762 414l14 86l893 413l-27 -159z" />
    <glyph glyph-name="equal" unicode="=" horiz-adv-x="1310" vert-adv-y="2007" 
d="M1280 901l-23 -143h-962l22 143h963zM1221 532l-23 -143h-962l22 143h963z" />
    <glyph glyph-name="greater" unicode="&#x3e;" horiz-adv-x="991" vert-adv-y="2007" 
d="M1026 668l-14 -86l-893 -414l24 160l645 297l-550 297l26 159z" />
    <glyph glyph-name="question" unicode="?" horiz-adv-x="1167" vert-adv-y="2007" 
d="M725 524l-35 -209h-147l55 347h74q157 0 274 91.5t139 229.5q23 145 -56 231t-234 86q-172 0 -287 -115t-125 -300l-147 16q22 238 185.5 390.5t395.5 152.5q218 0 332 -127.5t82 -333.5q-29 -182 -170 -309.5t-336 -149.5zM559 -55q-43 0 -68.5 29.5t-19.5 70.5
q7 41 42.5 70.5t76.5 29.5q42 0 67.5 -29.5t18.5 -70.5q-6 -41 -40 -70.5t-77 -29.5z" />
    <glyph glyph-name="at" unicode="@" horiz-adv-x="2119" vert-adv-y="2007" 
d="M987 -285q-179 0 -327.5 67t-244.5 182.5t-137 276.5t-12 341q38 244 185 441.5t368 309t473 111.5q187 0 341 -65t252.5 -177t141 -269.5t13.5 -336.5q-37 -231 -153 -367.5t-277 -136.5q-90 0 -151.5 40.5t-78.5 111.5q-72 -66 -162 -102t-182 -36q-193 0 -300.5 132.5
t-76.5 332.5q32 201 181.5 334t343.5 133q178 0 284 -118l17 98h143l-108 -680q-8 -51 21 -80t89 -29q95 0 166.5 100t97.5 269q24 151 -10.5 282.5t-116.5 224.5t-211 146.5t-286 53.5q-211 0 -396 -93t-307 -258t-155 -370q-32 -202 35 -368.5t215 -261.5t346 -95
q138 0 290 43t226 104l59 -127q-98 -71 -268 -117.5t-328 -46.5zM1061 246q132 0 230.5 91t121.5 236q23 141 -47.5 231.5t-202.5 90.5q-135 0 -236 -90.5t-124 -231.5q-22 -143 50.5 -235t207.5 -92z" />
    <glyph glyph-name="A" unicode="A" horiz-adv-x="1675" vert-adv-y="2007" 
d="M504 350l-250 -401h-160l920 1474h98l453 -1474h-160l-123 401h-778zM1235 494l-209 692l-430 -692h639z" />
    <glyph glyph-name="B" unicode="B" horiz-adv-x="1417" vert-adv-y="2007" 
d="M815 -51h-690l233 1474h639q212 0 320 -106t80 -287q-17 -101 -72 -186.5t-137 -136.5q91 -47 131.5 -136.5t21.5 -205.5q-29 -183 -176.5 -299.5t-349.5 -116.5zM975 1280h-492l-82 -514h537q126 0 211.5 71t105.5 193q19 119 -54.5 184.5t-225.5 65.5zM915 623h-536
l-84 -531h543q141 0 239 75t117 198q19 118 -57 188t-222 70z" />
    <glyph glyph-name="C" unicode="C" horiz-adv-x="1703" vert-adv-y="2007" 
d="M874 -72q-208 0 -365 100.5t-228.5 274.5t-38.5 383t160.5 383t316.5 274.5t397 100.5q247 0 415.5 -123t209.5 -334l-144 -57q-29 170 -165 270t-338 100q-167 0 -319.5 -81t-255.5 -222.5t-130 -310.5t31 -310.5t185 -222.5t294 -81q202 0 367.5 98.5t251.5 269.5
l129 -51q-108 -213 -317 -337t-456 -124z" />
    <glyph glyph-name="D" unicode="D" horiz-adv-x="1538" vert-adv-y="2007" 
d="M580 -51h-455l233 1474h455q367 0 559.5 -203t140.5 -534q-35 -219 -163 -386.5t-328 -259t-442 -91.5zM788 1280h-305l-188 -1188h305q304 0 513.5 162.5t252.5 431.5t-115.5 431.5t-462.5 162.5z" />
    <glyph glyph-name="E" unicode="E" horiz-adv-x="1331" vert-adv-y="2007" 
d="M1212 92l-22 -143h-1065l233 1474h1065l-22 -143h-918l-82 -518h856l-22 -144h-856l-84 -526h917z" />
    <glyph glyph-name="F" unicode="F" horiz-adv-x="1310" vert-adv-y="2007" 
d="M379 618l-107 -669h-147l233 1474h1045l-23 -143h-897l-82 -518h836l-23 -144h-835z" />
    <glyph glyph-name="G" unicode="G" horiz-adv-x="1748" vert-adv-y="2007" 
d="M872 -72q-207 0 -363.5 100.5t-228 274.5t-38.5 383t160.5 383t316 274.5t395.5 100.5q250 0 417.5 -123.5t207.5 -337.5l-144 -53q-31 172 -165.5 271t-337.5 99q-168 0 -319.5 -80.5t-254 -222t-129.5 -311.5q-20 -128 9 -242t96.5 -195.5t172.5 -129t230 -47.5
q232 0 418.5 151.5t249.5 390.5h-721l22 144h871l-13 -72q-35 -214 -157 -387.5t-305 -272t-390 -98.5z" />
    <glyph glyph-name="H" unicode="H" horiz-adv-x="1452" vert-adv-y="2007" 
d="M379 621l-107 -672h-147l233 1474h148l-105 -659h891l105 659h147l-233 -1474h-148l107 672h-891z" />
    <glyph glyph-name="I" unicode="I" horiz-adv-x="413" vert-adv-y="2007" 
d="M506 1423l-234 -1474h-147l233 1474h148z" />
    <glyph glyph-name="J" unicode="J" horiz-adv-x="1325" vert-adv-y="2007" 
d="M647 -72q-223 0 -346 145t-100 378l151 45q-26 -192 61.5 -307t258.5 -115q173 0 297.5 120t156.5 318l144 911h147l-143 -911q-41 -259 -215.5 -421.5t-411.5 -162.5z" />
    <glyph glyph-name="K" unicode="K" horiz-adv-x="1521" vert-adv-y="2007" 
d="M377 610l-105 -661h-147l233 1474h148l-105 -661l928 661h225l-1028 -739l854 -735h-235z" />
    <glyph glyph-name="L" unicode="L" horiz-adv-x="1280" vert-adv-y="2007" 
d="M1161 92l-22 -143h-1014l233 1474h148l-211 -1331h866z" />
    <glyph glyph-name="M" unicode="M" horiz-adv-x="1800" vert-adv-y="2007" 
d="M446 1057l-176 -1108h-145l233 1474h123l447 -1251l841 1251h123l-233 -1474h-146l177 1108l-746 -1108h-104z" />
    <glyph glyph-name="N" unicode="N" horiz-adv-x="1492" vert-adv-y="2007" 
d="M463 1151l-191 -1202h-147l233 1474h121l768 -1202l191 1202h147l-233 -1474h-121z" />
    <glyph glyph-name="O" unicode="O" horiz-adv-x="1759" vert-adv-y="2007" 
d="M868 -72q-207 0 -362.5 100t-226 274t-37.5 384q33 209 160 383t314.5 274.5t393.5 100.5q154 0 283 -59.5t212.5 -160.5t119 -241.5t10.5 -296.5t-105.5 -296.5t-196 -242t-263.5 -160.5t-302 -59zM893 72q166 0 315.5 81t250.5 222t128 311q27 169 -29.5 310.5
t-181 222.5t-289.5 81q-167 0 -317.5 -81t-252 -222t-128.5 -311t30 -311t182 -222t292 -81z" />
    <glyph glyph-name="P" unicode="P" horiz-adv-x="1374" vert-adv-y="2007" 
d="M367 539l-95 -590h-147l233 1474h611q218 0 338.5 -124t89.5 -318t-190.5 -318t-377.5 -124h-462zM946 1280h-463l-94 -598h463q156 0 265.5 82.5t131.5 216.5q22 133 -62 216t-241 83z" />
    <glyph glyph-name="Q" unicode="Q" horiz-adv-x="1779" vert-adv-y="2007" 
d="M1356 86l264 -385l-127 -94l-274 399q-162 -78 -351 -78q-207 0 -362.5 100t-226 274t-37.5 384q33 209 160 383t314.5 274.5t393.5 100.5q154 0 283 -59.5t212.5 -160.5t119 -241.5t10.5 -296.5q-28 -177 -127.5 -334t-251.5 -266zM893 72q166 0 315.5 81t250.5 222
t128 311q27 169 -29.5 310.5t-181 222.5t-289.5 81q-167 0 -317.5 -81t-252 -222t-128.5 -311t30 -311t182 -222t292 -81z" />
    <glyph glyph-name="R" unicode="R" horiz-adv-x="1435" vert-adv-y="2007" 
d="M379 621l-107 -672h-147l233 1474h664q206 0 314 -110t79 -291t-171.5 -291t-348.5 -110h-39l500 -672h-199l-493 672h-285zM999 1280h-516l-82 -516h517q141 0 236 70t114 188t-54.5 188t-214.5 70z" />
    <glyph glyph-name="S" unicode="S" horiz-adv-x="1384" vert-adv-y="2007" 
d="M715 -72q-257 0 -400 138t-118 362l159 37q-35 -175 72 -284t313 -109q173 0 284.5 76t133.5 208q15 100 -30 149t-181 81l-315 80q-326 83 -283 360q31 186 189 302t381 116q224 0 352 -121t117 -324l-146 -47q11 163 -82 255.5t-266 92.5q-157 0 -265 -75.5
t-128 -198.5q-14 -91 32.5 -142t170.5 -79l290 -76q29 -6 53.5 -13t54 -17.5t52.5 -23t48.5 -29.5t42.5 -37t34.5 -46t23.5 -56.5t10 -68t-5 -80.5q-31 -195 -194 -312.5t-400 -117.5z" />
    <glyph glyph-name="T" unicode="T" horiz-adv-x="1540" vert-adv-y="2007" 
d="M1049 1280l-211 -1331h-152l211 1331h-561l22 143h1274l-22 -143h-561z" />
    <glyph glyph-name="U" unicode="U" horiz-adv-x="1474" vert-adv-y="2007" 
d="M725 -72q-270 0 -408 181.5t-92 474.5l133 839h148l-133 -839q-37 -231 66.5 -370.5t310.5 -139.5t353 139t183 371l133 839h148l-133 -839q-46 -293 -242.5 -474.5t-466.5 -181.5z" />
    <glyph glyph-name="V" unicode="V" horiz-adv-x="1622" vert-adv-y="2007" 
d="M1741 1423l-883 -1474h-110l-416 1474h155l355 -1228l743 1228h156z" />
    <glyph glyph-name="W" unicode="W" horiz-adv-x="2199" vert-adv-y="2007" 
d="M1282 1145l-586 -1196h-112l-246 1474h156l196 -1179l576 1179h118l203 -1179l570 1179h155l-713 -1474h-112z" />
    <glyph glyph-name="X" unicode="X" horiz-adv-x="1499" vert-adv-y="2007" 
d="M842 575l-584 -626h-184l688 741l-434 733h184l367 -614l559 614h184l-670 -733l457 -741h-184z" />
    <glyph glyph-name="Y" unicode="Y" horiz-adv-x="1597" vert-adv-y="2007" 
d="M952 504l-88 -555h-147l88 555l-494 919h178l412 -774l658 774h178z" />
    <glyph glyph-name="Z" unicode="Z" horiz-adv-x="1384" vert-adv-y="2007" 
d="M1266 92l-23 -143h-1118l14 94l1096 1237h-870l22 143h1090l-15 -92l-1097 -1239h901z" />
    <glyph glyph-name="bracketleft" unicode="[" horiz-adv-x="894" vert-adv-y="2007" 
d="M729 -76l-22 -143h-517l283 1786h516l-22 -144h-369l-238 -1499h369z" />
    <glyph glyph-name="backslash" unicode="\" horiz-adv-x="774" vert-adv-y="2007" 
d="M397 1567l346 -1766h-149l-346 1766h149z" />
    <glyph glyph-name="bracketright" unicode="]" horiz-adv-x="894" vert-adv-y="2007" 
d="M918 1567l-283 -1786h-516l22 143h369l238 1499h-369l22 144h517z" />
    <glyph glyph-name="asciicircum" unicode="^" horiz-adv-x="827" vert-adv-y="2007" 
d="M608 1231l-260 -297h-176l426 489h82l270 -489h-176z" />
    <glyph glyph-name="underscore" unicode="_" horiz-adv-x="1085" vert-adv-y="2007" 
d="M1024 -63l-23 -144h-983l23 144h983z" />
    <glyph glyph-name="grave" unicode="`" vert-adv-y="2007" 
d="M1010 1927l202 -381h-168l-206 381h172z" />
    <glyph glyph-name="a" unicode="a" horiz-adv-x="1382" vert-adv-y="2007" 
d="M680 -72q-160 0 -276 73t-167 203.5t-26 293.5q40 247 224 408t427 161q121 0 220.5 -46t162.5 -132l25 158h145l-174 -1098h-145l24 157q-90 -86 -204.5 -132t-235.5 -46zM705 72q175 0 312 122.5t165 303.5q29 181 -70 303.5t-274 122.5q-181 0 -316 -120t-166 -306
q-29 -186 69 -306t280 -120z" />
    <glyph glyph-name="b" unicode="b" horiz-adv-x="1382" vert-adv-y="2007" 
d="M678 -72q-121 0 -220.5 46t-162.5 132l-25 -157h-145l250 1577h145l-100 -637q90 86 204.5 132t235.5 46q160 0 276 -73t166.5 -203t24.5 -293q-38 -247 -222 -408.5t-427 -161.5zM702 72q181 0 316 120t164 306q31 186 -66.5 306t-279.5 120q-175 0 -313 -122.5
t-167 -303.5q-28 -181 71.5 -303.5t274.5 -122.5z" />
    <glyph glyph-name="c" unicode="c" horiz-adv-x="1320" vert-adv-y="2007" 
d="M678 -72q-241 0 -373 162t-94 408q25 159 119.5 289.5t234.5 205t295 74.5q203 0 326.5 -108t140.5 -300l-139 -49q-14 153 -104 233.5t-248 80.5q-175 0 -313 -122.5t-167 -303.5q-29 -184 69 -305t277 -121q158 0 273 80t178 233l123 -49q-78 -192 -236.5 -300
t-361.5 -108z" />
    <glyph glyph-name="d" unicode="d" horiz-adv-x="1382" vert-adv-y="2007" 
d="M680 -72q-160 0 -276 73t-167 203.5t-26 293.5q40 247 224 408t427 161q121 0 220.5 -46t162.5 -132l101 637h145l-250 -1577h-145l24 157q-90 -86 -204.5 -132t-235.5 -46zM705 72q175 0 312 122.5t165 303.5q29 181 -70 303.5t-274 122.5q-181 0 -316 -120t-166 -306
q-29 -186 69 -306t280 -120z" />
    <glyph glyph-name="e" unicode="e" horiz-adv-x="1359" vert-adv-y="2007" 
d="M672 -72q-152 0 -266.5 75t-166.5 205t-28 286q25 161 120.5 292.5t237.5 206t301 74.5q227 0 350 -150t91 -389l-13 -71h-948q-11 -166 87 -275.5t259 -109.5q158 0 273 80t178 233l123 -49q-78 -192 -236.5 -300t-361.5 -108zM383 600h784q0 149 -87 236.5t-234 87.5
q-149 0 -277.5 -90.5t-185.5 -233.5z" />
    <glyph glyph-name="f" unicode="f" horiz-adv-x="1030" vert-adv-y="2007" 
d="M616 903l-151 -954h-146l152 954h-195l23 144h195l24 155q26 166 134 265.5t263 99.5q120 0 203 -64l-86 -133q-41 53 -137 53q-92 0 -153 -58.5t-78 -162.5l-25 -155h424l-23 -144h-424z" />
    <glyph glyph-name="g" unicode="g" horiz-adv-x="1349" vert-adv-y="2007" 
d="M629 -440q-219 0 -346.5 97.5t-149.5 283.5l148 53q15 -148 106 -219.5t264 -71.5q169 0 285.5 98t144.5 262l17 101q-86 -76 -194.5 -118t-219.5 -42q-156 0 -271 69t-167 190.5t-29 273.5q37 229 217 378.5t418 149.5q112 0 206 -41.5t156 -116.5l23 140h145l-155 -984
q-37 -225 -202 -364t-396 -139zM707 147q166 0 294 111.5t154 278.5q28 166 -65.5 275.5t-260.5 109.5q-178 0 -308.5 -108t-158.5 -277q-26 -171 70.5 -280.5t274.5 -109.5z" />
    <glyph glyph-name="h" unicode="h" horiz-adv-x="1253" vert-adv-y="2007" 
d="M360 518l-90 -569h-145l250 1577h145l-98 -623q84 79 192 121.5t224 42.5q202 0 305 -132.5t69 -348.5l-100 -637h-145l100 637q25 155 -42.5 246.5t-205.5 91.5q-181 0 -305.5 -110t-153.5 -296z" />
    <glyph glyph-name="i" unicode="i" horiz-adv-x="471" vert-adv-y="2007" 
d="M426 1200q-43 0 -68 29.5t-18 70.5q6 41 41 71t76 30t67.5 -30t20.5 -71q-8 -42 -42.5 -71t-76.5 -29zM475 1047l-174 -1098h-145l174 1098h145z" />
    <glyph glyph-name="j" unicode="j" horiz-adv-x="485" vert-adv-y="2007" 
d="M440 1200q-43 0 -68 29.5t-18 70.5q6 41 41 71t76 30t67.5 -30t20.5 -71q-8 -42 -42.5 -71t-76.5 -29zM-4 -420q-111 0 -178 70l88 129q25 -30 49 -42.5t59 -12.5q57 0 93 30.5t45 87.5l190 1205h145l-190 -1205q-19 -117 -102 -189.5t-199 -72.5z" />
    <glyph glyph-name="k" unicode="k" horiz-adv-x="1374" vert-adv-y="2007" 
d="M348 436l-78 -487h-145l250 1577h145l-149 -942h12l698 463h246l-817 -539l721 -559h-254z" />
    <glyph glyph-name="l" unicode="l" horiz-adv-x="411" vert-adv-y="2007" 
d="M520 1526l-250 -1577h-145l250 1577h145z" />
    <glyph glyph-name="m" unicode="m" horiz-adv-x="1890" vert-adv-y="2007" 
d="M365 539l-95 -590h-145l174 1098h145l-18 -121q154 141 354 141q118 0 204.5 -52.5t121.5 -144.5q78 94 187 145.5t229 51.5q180 0 275 -111t67 -288l-115 -719h-145l114 719q19 117 -43 186.5t-184 69.5q-151 0 -256 -104t-133 -281l-94 -590h-146l115 719
q19 117 -43 186.5t-182 69.5q-149 0 -254 -105t-133 -280z" />
    <glyph glyph-name="n" unicode="n" horiz-adv-x="1253" vert-adv-y="2007" 
d="M360 518l-90 -569h-145l174 1098h145l-22 -144q84 79 192 121.5t224 42.5q202 0 305 -132.5t69 -348.5l-100 -637h-145l100 637q25 155 -42.5 246.5t-205.5 91.5q-181 0 -305.5 -110t-153.5 -296z" />
    <glyph glyph-name="o" unicode="o" horiz-adv-x="1402" vert-adv-y="2007" 
d="M688 -72q-160 0 -278 74.5t-170.5 205.5t-26.5 292q25 160 119.5 290t236 203.5t301.5 73.5q244 0 381 -162t99 -405q-40 -244 -229.5 -408t-432.5 -164zM713 72q183 0 322.5 121.5t168.5 306.5q29 184 -72 304t-286 120q-183 0 -321 -120t-167 -304t72 -306t283 -122z
" />
    <glyph glyph-name="p" unicode="p" horiz-adv-x="1382" vert-adv-y="2007" 
d="M295 106l-80 -505h-145l229 1446h145l-24 -158q90 86 204.5 132t235.5 46q160 0 276 -73t166.5 -203t24.5 -293q-38 -247 -222 -408.5t-427 -161.5q-121 0 -220.5 46t-162.5 132zM702 72q181 0 316 120t164 306q31 186 -66.5 306t-279.5 120q-175 0 -313 -122.5
t-167 -303.5q-28 -181 71.5 -303.5t274.5 -122.5z" />
    <glyph glyph-name="q" unicode="q" horiz-adv-x="1382" vert-adv-y="2007" 
d="M1415 1047l-229 -1446h-146l80 505q-90 -86 -204.5 -132t-235.5 -46q-160 0 -276 73t-167 203.5t-26 293.5q40 247 224 408t427 161q121 0 220.5 -46t162.5 -132l25 158h145zM705 72q175 0 312 122.5t165 303.5q29 181 -70 303.5t-274 122.5q-181 0 -316 -120t-166 -306
q-29 -186 69 -306t280 -120z" />
    <glyph glyph-name="r" unicode="r" horiz-adv-x="931" vert-adv-y="2007" 
d="M360 518l-90 -569h-145l174 1098h145l-22 -144q84 79 192 121.5t224 42.5q78 0 137 -20l-57 -138q-44 15 -99 15q-181 0 -305.5 -110t-153.5 -296z" />
    <glyph glyph-name="s" unicode="s" horiz-adv-x="1157" vert-adv-y="2007" 
d="M594 -72q-209 0 -323.5 104.5t-92.5 276.5l148 27q-29 -118 51 -192t239 -74q128 0 209.5 50t94.5 138q9 61 -24.5 94t-127.5 56l-248 57q-136 31 -193 98.5t-40 179.5q23 145 149 234.5t305 89.5q175 0 278 -91t103 -249l-147 -33q7 107 -61.5 168.5t-196.5 61.5
q-117 0 -194 -49.5t-91 -131.5q-9 -58 24.5 -89.5t127.5 -53.5l233 -53q42 -10 74 -21t71.5 -33.5t63.5 -52t36 -76.5t3 -106q-23 -149 -153 -239.5t-318 -90.5z" />
    <glyph glyph-name="t" unicode="t" horiz-adv-x="1054" vert-adv-y="2007" 
d="M655 -72q-139 0 -212.5 90.5t-51.5 233.5l105 651h-220l23 144h219l53 335h146l-53 -335h389l-23 -144h-389l-104 -651q-12 -83 27 -131.5t118 -48.5q96 0 195 102l67 -117q-129 -129 -289 -129z" />
    <glyph glyph-name="u" unicode="u" horiz-adv-x="1253" vert-adv-y="2007" 
d="M573 -72q-202 0 -305 133t-69 349l100 637h145l-100 -637q-25 -155 42.5 -246.5t205.5 -91.5q182 0 306 109.5t153 295.5l90 570h145l-174 -1098h-145l22 143q-85 -79 -192.5 -121.5t-223.5 -42.5z" />
    <glyph glyph-name="v" unicode="v" horiz-adv-x="1357" vert-adv-y="2007" 
d="M1421 1047l-694 -1098h-113l-346 1098h164l275 -877l550 877h164z" />
    <glyph glyph-name="w" unicode="w" horiz-adv-x="1802" vert-adv-y="2007" 
d="M1022 768l-420 -825h-123l-200 1106h155l152 -830l426 828h110l164 -828l414 830h155l-548 -1106h-123z" />
    <glyph glyph-name="x" unicode="x" horiz-adv-x="1277" vert-adv-y="2007" 
d="M700 389l-444 -440h-193l558 549l-383 549h192l305 -441l445 441h192l-559 -549l385 -549h-192z" />
    <glyph glyph-name="y" unicode="y" horiz-adv-x="1374" vert-adv-y="2007" 
d="M1438 1047l-926 -1446h-160l256 399l-340 1047h164l283 -879l563 879h160z" />
    <glyph glyph-name="z" unicode="z" horiz-adv-x="1206" vert-adv-y="2007" 
d="M1087 92l-22 -143h-940l16 106l836 848h-678l23 144h899l-17 -107l-835 -848h718z" />
    <glyph glyph-name="braceleft" unicode="{" horiz-adv-x="1013" vert-adv-y="2007" 
d="M848 -76l-23 -143h-176q-133 0 -202.5 84t-49.5 219l58 358q12 74 -21.5 117t-103.5 43h-80l22 143h80q70 0 117 43t59 117l58 359q22 135 117.5 219t228.5 84h176l-23 -144h-176q-71 0 -118.5 -43t-57.5 -116l-57 -359q-22 -144 -133 -231q81 -85 59 -232l-57 -358
q-11 -74 23 -117t104 -43h176z" />
    <glyph glyph-name="bar" unicode="|" horiz-adv-x="598" vert-adv-y="2007" 
d="M621 1567l-279 -1766h-147l278 1766h148z" />
    <glyph glyph-name="braceright" unicode="}" horiz-adv-x="1013" vert-adv-y="2007" 
d="M295 -219h-176l22 143h176q71 0 119 43.5t58 116.5l57 358q10 69 45 130t88 102q-81 84 -59 231l57 359q11 74 -23 116.5t-104 42.5h-176l22 144h177q134 0 203.5 -84t47.5 -219l-57 -359q-12 -74 22.5 -117t104.5 -43h80l-23 -143h-79q-70 0 -118.5 -43t-60.5 -117
l-57 -358q-20 -135 -116 -219t-230 -84z" />
    <glyph glyph-name="asciitilde" unicode="~" horiz-adv-x="1048" vert-adv-y="2007" 
d="M784 446q-46 0 -91 18.5t-67.5 36t-58.5 48.5q-41 39 -68.5 56.5t-62.5 17.5q-59 0 -89 -45t-21 -123h-160q3 136 85.5 224.5t207.5 88.5q37 0 69 -8.5t60.5 -26.5t44.5 -31t41 -36q29 -27 45 -39.5t40 -23.5t48 -11q58 0 87.5 45t23.5 127h157q-3 -136 -86 -227
t-205 -91z" />
    <glyph glyph-name="exclamdown" unicode="&#xa1;" horiz-adv-x="634" vert-adv-y="2007" 
d="M455 866q-42 0 -67.5 30t-18.5 71q6 41 40.5 70.5t77.5 29.5q42 0 67 -29t19 -71q-8 -41 -42.5 -71t-75.5 -30zM502 696l-176 -1108h-146l176 1108h146z" />
    <glyph glyph-name="cent" unicode="&#xa2;" horiz-adv-x="1300" vert-adv-y="2007" 
d="M735 -70l-41 -247h-145l41 251q-205 28 -314 185.5t-75 378.5q35 218 194 376t373 187l45 280h145l-45 -278q167 -19 273.5 -122t109.5 -251l-147 -57q7 107 -64.5 186.5t-193.5 98.5l-133 -842q127 15 222.5 89.5t121.5 178.5l129 -53q-49 -146 -185.5 -245t-310.5 -116
zM612 78l133 840q-151 -29 -262 -146t-137 -274q-25 -161 48 -276.5t218 -143.5z" />
    <glyph glyph-name="sterling" unicode="&#xa3;" horiz-adv-x="1449" vert-adv-y="2007" 
d="M1331 92l-22 -143h-1164l21 127l176 10l76 487h-174l22 144h174l41 252q34 211 190 343t371 132q228 0 342.5 -144t63.5 -368l-158 -37q51 183 -23.5 293t-248.5 110q-154 0 -260 -89.5t-129 -239.5l-41 -252h608l-22 -144h-609l-76 -481h842z" />
    <glyph glyph-name="yen" unicode="&#xa5;" horiz-adv-x="1433" vert-adv-y="2007" 
d="M829 252l-47 -303h-147l47 303h-426l25 143h426l14 103h-426l24 143h357l-404 782h177l376 -741l611 741h176l-649 -782h356l-25 -143h-426l-14 -103h426l-25 -143h-426z" />
    <glyph glyph-name="section" unicode="&#xa7;" horiz-adv-x="1202" vert-adv-y="2007" 
d="M543 -338q-223 0 -330.5 120.5t-58.5 317.5l153 47q-49 -164 17.5 -253t238.5 -89q121 0 202 53.5t95 141.5q9 57 -16.5 95.5t-95.5 72.5l-320 158q-133 66 -185.5 139.5t-37.5 173.5q15 91 64 164.5t126 120.5q-50 78 -33 182q23 151 152.5 244.5t312.5 93.5
q207 0 310.5 -120.5t60.5 -315.5l-158 -50q51 159 -11.5 250.5t-221.5 91.5q-123 0 -203.5 -52.5t-93.5 -141.5q-9 -55 16.5 -93.5t96.5 -74.5l317 -158q134 -66 186 -139.5t37 -173.5q-13 -91 -62.5 -164.5t-127.5 -120.5q52 -80 35 -182q-25 -151 -153.5 -244.5
t-311.5 -93.5zM868 279q128 56 148 184q9 59 -25.5 100t-132.5 88l-319 156q-18 7 -29 18l-8 2q-127 -52 -148 -184q-9 -59 24.5 -100t131.5 -88l319 -156q13 -4 31 -18q2 0 4.5 -1t3.5 -1z" />
    <glyph glyph-name="dieresis" unicode="&#xa8;" vert-adv-y="2007" 
d="M748 1624q-43 0 -69 29.5t-20 70.5q8 41 43 71t76 30q42 0 67.5 -30t18.5 -71q-6 -41 -39.5 -70.5t-76.5 -29.5zM1116 1624q-43 0 -68.5 29.5t-19.5 70.5q8 41 43 71t76 30q42 0 67.5 -30t18.5 -71q-6 -41 -40 -70.5t-77 -29.5z" />
    <glyph glyph-name="copyright" unicode="&#xa9;" horiz-adv-x="1748" vert-adv-y="2007" 
d="M862 -72q-158 0 -289 58.5t-215 158.5t-120 240t-11 297q25 159 106 300t198 242.5t266.5 160.5t306.5 59t288 -59t215.5 -160.5t120.5 -242.5t11 -300q-34 -210 -160.5 -383t-316 -272t-400.5 -99zM887 72q171 0 323 80t254 220.5t129 311.5q20 129 -8.5 244t-96.5 197
t-173.5 130t-233.5 48q-170 0 -323 -81t-255.5 -223.5t-129.5 -314.5q-27 -171 31 -311.5t185 -220.5t298 -80zM930 246q-187 0 -291.5 125.5t-75.5 314.5q29 187 173.5 311.5t332.5 124.5q163 0 265 -100.5t85 -245.5l-141 -39q12 100 -56 171t-175 71q-124 0 -220 -83.5
t-116 -209.5q-20 -128 48.5 -212.5t192.5 -84.5q108 0 199.5 72.5t110.5 173.5l129 -43q-40 -149 -172 -247.5t-289 -98.5z" />
    <glyph glyph-name="ordfeminine" unicode="&#xaa;" horiz-adv-x="1019" vert-adv-y="2007" 
d="M510 -14q-162 0 -246.5 105.5t-60.5 262.5q25 157 143 263t281 106q98 0 173 -47t109 -129l27 162h49l-113 -709h-49l27 162q-62 -82 -152 -129t-188 -47zM518 35q134 0 237 93t124 226q22 131 -52.5 225.5t-208.5 94.5q-138 0 -240 -92t-124 -228q-21 -136 52 -227.5
t212 -91.5z" />
    <glyph glyph-name="guillemotleft" unicode="&#xab;" horiz-adv-x="854" vert-adv-y="2007" 
d="M309 537l246 -416h-180l-240 416l373 415h180zM616 537l246 -416h-180l-240 416l373 415h180z" />
    <glyph glyph-name="registered" unicode="&#xae;" horiz-adv-x="1146" vert-adv-y="2007" 
d="M657 530q-124 0 -218 60t-137 163.5t-23 227.5q31 192 181.5 322.5t340.5 130.5q125 0 219 -59.5t137 -163.5t23 -230q-31 -189 -182.5 -320t-340.5 -131zM842 920l125 -140q78 84 96 201q23 144 -57.5 241t-223.5 97q-142 0 -253 -96.5t-134 -241.5q-23 -142 57.5 -238
t223.5 -96q149 0 264 105h-115l-131 147h-45l-24 -147h-115l76 481h207q86 0 131 -45.5t34 -120.5q-9 -49 -39.5 -87t-76.5 -60zM774 1128h-92l-18 -124h90q35 0 60 17.5t30 45.5q3 28 -15.5 44.5t-54.5 16.5z" />
    <glyph glyph-name="macron" unicode="&#xaf;" vert-adv-y="2007" 
d="M1190 1305l-23 -138h-614l22 138h615z" />
    <glyph glyph-name="degree" unicode="&#xb0;" horiz-adv-x="935" vert-adv-y="2007" 
d="M606 864q-125 0 -198 84t-54 205q20 125 118.5 208t225.5 83q126 0 197 -83.5t51 -207.5q-19 -122 -117.5 -205.5t-222.5 -83.5zM629 1006q63 0 114 43t60 104q11 65 -26 108.5t-101 43.5t-115.5 -44.5t-62.5 -107.5q-9 -62 29 -104.5t102 -42.5z" />
    <glyph glyph-name="plusminus" unicode="&#xb1;" horiz-adv-x="1310" vert-adv-y="2007" 
d="M823 604l-61 -389h-144l62 389h-410l23 144h409l62 389h143l-61 -389h409l-22 -144h-410zM1151 92l-23 -143h-962l22 143h963z" />
    <glyph glyph-name="uni00B2" unicode="&#xb2;" horiz-adv-x="708" vert-adv-y="2007" 
d="M594 39l-6 -39h-467l4 27l291 225l65 49q56 47 89.5 89t41.5 95q12 77 -31 122.5t-122 45.5q-85 0 -144 -50.5t-73 -133.5l-2 -12l-41 6v8q19 98 92 160.5t174 62.5q98 0 150.5 -56.5t37.5 -152.5q-18 -114 -143 -209q-31 -27 -70 -55l-235 -182h389z" />
    <glyph glyph-name="uni00B3" unicode="&#xb3;" horiz-adv-x="722" vert-adv-y="2007" 
d="M369 -10q-107 0 -165 63.5t-46 167.5v8l43 9l-2 -13q-11 -90 36.5 -143t139.5 -53q83 0 143 42.5t72 118.5q11 72 -36 108t-128 36h-96l6 39h96q73 0 128 34t65 99q11 70 -33.5 108.5t-122.5 38.5q-85 0 -144.5 -48t-74.5 -130l-4 -10l-41 6l2 10q22 97 95.5 155
t174.5 58q93 0 148 -49t41 -139q-9 -54 -43 -92t-86 -58q113 -41 96 -163q-14 -95 -89 -149t-175 -54z" />
    <glyph glyph-name="acute" unicode="&#xb4;" vert-adv-y="2007" 
d="M1280 1927l-326 -381h-168l322 381h172z" />
    <glyph glyph-name="paragraph" unicode="&#xb6;" horiz-adv-x="1198" vert-adv-y="2007" 
d="M954 1423l-233 -1474h-148l97 612h-52q-211 0 -325.5 123t-83.5 315q32 197 170.5 310.5t347.5 113.5h227zM1198 1423l-233 -1474h-148l234 1474h147z" />
    <glyph glyph-name="periodcentered" unicode="&#xb7;" horiz-adv-x="471" vert-adv-y="2007" 
d="M307 449q-43 0 -68.5 29.5t-19.5 70.5q7 41 42.5 70.5t76.5 29.5q42 0 67.5 -29.5t18.5 -70.5q-6 -41 -40 -70.5t-77 -29.5z" />
    <glyph glyph-name="cedilla" unicode="&#xb8;" vert-adv-y="2007" 
d="M745 -541q-93 0 -140.5 56.5t-33.5 150.5q10 67 51.5 123.5t137.5 136.5l24 129h146l-33 -180q-105 -89 -140.5 -129.5t-41.5 -79.5q-5 -35 6 -49t45 -14q20 0 57 12l76 18l23 -131q-82 -27 -114.5 -35t-62.5 -8z" />
    <glyph glyph-name="uni00B9" unicode="&#xb9;" horiz-adv-x="477" vert-adv-y="2007" 
d="M465 684l-109 -684h-43l99 627l-209 -115l6 47l229 125h27z" />
    <glyph glyph-name="ordmasculine" unicode="&#xba;" horiz-adv-x="1034" vert-adv-y="2007" 
d="M514 -14q-161 0 -247.5 107t-61.5 263q23 155 144.5 261t281.5 106q161 0 249 -105.5t64 -261.5q-25 -157 -146.5 -263.5t-283.5 -106.5zM522 35q140 0 245.5 92.5t127.5 228.5q20 135 -56.5 226.5t-215.5 91.5q-138 0 -242.5 -91.5t-124.5 -226.5q-22 -137 52.5 -229
t213.5 -92z" />
    <glyph glyph-name="guillemotright" unicode="&#xbb;" horiz-adv-x="854" vert-adv-y="2007" 
d="M580 537l-371 -416h-180l377 416l-244 415h180zM887 537l-371 -416h-180l377 416l-244 415h180z" />
    <glyph glyph-name="questiondown" unicode="&#xbf;" horiz-adv-x="1167" vert-adv-y="2007" 
d="M737 866q-42 0 -67.5 30t-18.5 71q6 41 41 70.5t78 29.5q42 0 67 -29t19 -71q-8 -41 -43 -71t-76 -30zM512 -432q-218 0 -333 127.5t-83 333.5q29 182 170.5 309t337.5 149l33 209h147l-55 -346h-74q-157 0 -274 -91.5t-139 -229.5q-23 -144 57 -231t236 -87
q172 0 286 115.5t123 300.5l150 -16q-11 -117 -60.5 -218t-126 -172.5t-179 -112t-216.5 -40.5z" />
    <glyph glyph-name="Agrave" unicode="&#xc0;" horiz-adv-x="1552" vert-adv-y="2007" 
d="M1010 1927l202 -381h-168l-206 381h172zM504 350l-250 -401h-160l920 1474h98l453 -1474h-160l-123 401h-778zM1235 494l-209 692l-430 -692h639z" />
    <glyph glyph-name="Aacute" unicode="&#xc1;" horiz-adv-x="1552" vert-adv-y="2007" 
d="M1280 1927l-326 -381h-168l322 381h172zM504 350l-250 -401h-160l920 1474h98l453 -1474h-160l-123 401h-778zM1235 494l-209 692l-430 -692h639z" />
    <glyph glyph-name="Acircumflex" unicode="&#xc2;" horiz-adv-x="1552" vert-adv-y="2007" 
d="M1116 1761l-227 -215h-184l397 379h82l278 -379h-184zM504 350l-250 -401h-160l920 1474h98l453 -1474h-160l-123 401h-778zM1235 494l-209 692l-430 -692h639z" />
    <glyph glyph-name="Atilde" unicode="&#xc3;" horiz-adv-x="1552" vert-adv-y="2007" 
d="M1178 1556q-34 0 -66.5 13t-49 25.5t-40.5 33.5q-20 19 -28 25.5t-21 13t-27 6.5q-61 0 -55 -110h-150q-2 106 63.5 179t162.5 73q34 0 66 -13.5t46.5 -24.5t40.5 -34q29 -26 44.5 -35.5t35.5 -9.5q28 0 40.5 27t12.5 87h146q2 -108 -62 -182t-159 -74zM504 350
l-250 -401h-160l920 1474h98l453 -1474h-160l-123 401h-778zM1235 494l-209 692l-430 -692h639z" />
    <glyph glyph-name="Adieresis" unicode="&#xc4;" horiz-adv-x="1552" vert-adv-y="2007" 
d="M909 1614q-43 0 -68.5 29.5t-19.5 70.5q8 41 43 71t76 30q42 0 67.5 -30t18.5 -71q-6 -41 -40 -70.5t-77 -29.5zM1278 1614q-43 0 -68.5 29.5t-19.5 70.5q8 41 43 71t76 30q42 0 67.5 -30t18.5 -71q-6 -41 -40 -70.5t-77 -29.5zM504 350l-250 -401h-160l920 1474h98
l453 -1474h-160l-123 401h-778zM1235 494l-209 692l-430 -692h639z" />
    <glyph glyph-name="Aring" unicode="&#xc5;" horiz-adv-x="1552" vert-adv-y="2007" 
d="M1081 1536q-95 0 -153 66.5t-43 160.5t94 161t174 67t152.5 -67t42.5 -161t-93.5 -160.5t-173.5 -66.5zM1102 1675q38 0 69 25.5t37 62.5t-17 62.5t-61 25.5t-69 -25.5t-37 -62.5t17 -62.5t61 -25.5zM504 350l-250 -401h-160l920 1474h98l453 -1474h-160l-123 401h-778z
M1235 494l-209 692l-430 -692h639z" />
    <glyph glyph-name="AE" unicode="&#xc6;" horiz-adv-x="1966" vert-adv-y="2007" 
d="M504 350l-250 -401h-160l920 1474h1063l-23 -143h-917l-82 -518h856l-23 -144h-856l-84 -526h918l-23 -143h-1065l64 401h-338zM864 494l92 581l-360 -581h268z" />
    <glyph glyph-name="Ccedilla" unicode="&#xc7;" horiz-adv-x="1703" vert-adv-y="2007" 
d="M745 -541q-93 0 -140.5 56.5t-33.5 150.5q10 67 51.5 123.5t137.5 136.5l4 11q-134 20 -242.5 87t-177 165.5t-96.5 227.5t-6 269q33 209 160.5 383t316.5 274.5t397 100.5q247 0 415.5 -123t209.5 -334l-144 -57q-29 170 -165 270t-338 100q-167 0 -319.5 -81
t-255.5 -222.5t-130 -310.5t31 -310.5t185 -222.5t294 -81q202 0 367.5 98.5t251.5 269.5l129 -51q-104 -206 -299 -327.5t-441 -133.5l-10 -53q-105 -89 -140.5 -129.5t-41.5 -79.5q-5 -35 6 -49t45 -14q20 0 57 12l76 18l23 -131q-82 -27 -114.5 -35t-62.5 -8z" />
    <glyph glyph-name="Egrave" unicode="&#xc8;" horiz-adv-x="1208" vert-adv-y="2007" 
d="M1010 1927l202 -381h-168l-206 381h172zM1212 92l-22 -143h-1065l233 1474h1065l-22 -143h-918l-82 -518h856l-22 -144h-856l-84 -526h917z" />
    <glyph glyph-name="Eacute" unicode="&#xc9;" horiz-adv-x="1208" vert-adv-y="2007" 
d="M1280 1927l-326 -381h-168l322 381h172zM1212 92l-22 -143h-1065l233 1474h1065l-22 -143h-918l-82 -518h856l-22 -144h-856l-84 -526h917z" />
    <glyph glyph-name="Ecircumflex" unicode="&#xca;" horiz-adv-x="1208" vert-adv-y="2007" 
d="M965 1761l-228 -215h-184l397 379h82l279 -379h-185zM1212 92l-22 -143h-1065l233 1474h1065l-22 -143h-918l-82 -518h856l-22 -144h-856l-84 -526h917z" />
    <glyph glyph-name="Edieresis" unicode="&#xcb;" horiz-adv-x="1208" vert-adv-y="2007" 
d="M748 1624q-43 0 -69 29.5t-20 70.5q8 41 43 71t76 30q42 0 67.5 -30t18.5 -71q-6 -41 -39.5 -70.5t-76.5 -29.5zM1116 1624q-43 0 -68.5 29.5t-19.5 70.5q8 41 43 71t76 30q42 0 67.5 -30t18.5 -71q-6 -41 -40 -70.5t-77 -29.5zM1212 92l-22 -143h-1065l233 1474h1065
l-22 -143h-918l-82 -518h856l-22 -144h-856l-84 -526h917z" />
    <glyph glyph-name="Igrave" unicode="&#xcc;" horiz-adv-x="290" vert-adv-y="2007" 
d="M463 1903l203 -381h-168l-207 381h172zM506 1423l-234 -1474h-147l233 1474h148z" />
    <glyph glyph-name="Iacute" unicode="&#xcd;" horiz-adv-x="290" vert-adv-y="2007" 
d="M782 1927l-325 -381h-168l321 381h172zM506 1423l-234 -1474h-147l233 1474h148z" />
    <glyph glyph-name="Icircumflex" unicode="&#xce;" horiz-adv-x="290" vert-adv-y="2007" 
d="M485 1761l-227 -215h-184l397 379h82l278 -379h-184zM506 1423l-234 -1474h-147l233 1474h148z" />
    <glyph glyph-name="Idieresis" unicode="&#xcf;" horiz-adv-x="290" vert-adv-y="2007" 
d="M283 1634q-43 0 -68.5 30t-19.5 71q8 41 42.5 70.5t75.5 29.5q42 0 67.5 -29.5t18.5 -70.5q-6 -42 -40 -71.5t-76 -29.5zM651 1634q-43 0 -68.5 30t-19.5 71q7 41 42.5 70.5t76.5 29.5q42 0 67.5 -29.5t18.5 -70.5q-6 -41 -40 -71t-77 -30zM506 1423l-234 -1474h-147
l233 1474h148z" />
    <glyph glyph-name="Ntilde" unicode="&#xd1;" horiz-adv-x="1370" vert-adv-y="2007" 
d="M1042 1546q-34 0 -66.5 13t-48 25t-40.5 34q-20 19 -28 25.5t-21 13t-27 6.5q-61 0 -55 -111h-150q-2 106 63 179t162 73q34 0 66 -13t47.5 -24.5t40.5 -33.5q29 -26 44.5 -35.5t35.5 -9.5q28 0 40.5 27t12.5 87h146q2 -107 -62.5 -181.5t-159.5 -74.5zM463 1151
l-191 -1202h-147l233 1474h121l768 -1202l191 1202h147l-233 -1474h-121z" />
    <glyph glyph-name="Ograve" unicode="&#xd2;" horiz-adv-x="1636" vert-adv-y="2007" 
d="M1139 1927l202 -381h-167l-207 381h172zM868 -72q-207 0 -362.5 100t-226 274t-37.5 384q33 209 160 383t314.5 274.5t393.5 100.5q154 0 283 -59.5t212.5 -160.5t119 -241.5t10.5 -296.5t-105.5 -296.5t-196 -242t-263.5 -160.5t-302 -59zM893 72q166 0 315.5 81
t250.5 222t128 311q27 169 -29.5 310.5t-181 222.5t-289.5 81q-167 0 -317.5 -81t-252 -222t-128.5 -311t30 -311t182 -222t292 -81z" />
    <glyph glyph-name="Oacute" unicode="&#xd3;" horiz-adv-x="1636" vert-adv-y="2007" 
d="M1372 1925l-325 -381h-168l321 381h172zM868 -72q-207 0 -362.5 100t-226 274t-37.5 384q33 209 160 383t314.5 274.5t393.5 100.5q154 0 283 -59.5t212.5 -160.5t119 -241.5t10.5 -296.5t-105.5 -296.5t-196 -242t-263.5 -160.5t-302 -59zM893 72q166 0 315.5 81
t250.5 222t128 311q27 169 -29.5 310.5t-181 222.5t-289.5 81q-167 0 -317.5 -81t-252 -222t-128.5 -311t30 -311t182 -222t292 -81z" />
    <glyph glyph-name="Ocircumflex" unicode="&#xd4;" horiz-adv-x="1636" vert-adv-y="2007" 
d="M1159 1761l-227 -215h-184l397 379h82l278 -379h-184zM868 -72q-207 0 -362.5 100t-226 274t-37.5 384q33 209 160 383t314.5 274.5t393.5 100.5q154 0 283 -59.5t212.5 -160.5t119 -241.5t10.5 -296.5t-105.5 -296.5t-196 -242t-263.5 -160.5t-302 -59zM893 72
q166 0 315.5 81t250.5 222t128 311q27 169 -29.5 310.5t-181 222.5t-289.5 81q-167 0 -317.5 -81t-252 -222t-128.5 -311t30 -311t182 -222t292 -81z" />
    <glyph glyph-name="Otilde" unicode="&#xd5;" horiz-adv-x="1636" vert-adv-y="2007" 
d="M1253 1546q-34 0 -66.5 13t-48 25t-40.5 34q-20 19 -28 25.5t-21 13t-27 6.5q-61 0 -55 -111h-150q-2 106 63 179t162 73q34 0 66 -13t47.5 -24.5t40.5 -33.5q29 -26 44.5 -35.5t35.5 -9.5q28 0 40.5 27t12.5 87h146q2 -107 -62.5 -181.5t-159.5 -74.5zM868 -72
q-207 0 -362.5 100t-226 274t-37.5 384q33 209 160 383t314.5 274.5t393.5 100.5q154 0 283 -59.5t212.5 -160.5t119 -241.5t10.5 -296.5t-105.5 -296.5t-196 -242t-263.5 -160.5t-302 -59zM893 72q166 0 315.5 81t250.5 222t128 311q27 169 -29.5 310.5t-181 222.5
t-289.5 81q-167 0 -317.5 -81t-252 -222t-128.5 -311t30 -311t182 -222t292 -81z" />
    <glyph glyph-name="Odieresis" unicode="&#xd6;" horiz-adv-x="1636" vert-adv-y="2007" 
d="M950 1604q-43 0 -68.5 29.5t-19.5 70.5q7 41 42.5 70.5t76.5 29.5q42 0 67.5 -29.5t18.5 -70.5q-6 -41 -40 -70.5t-77 -29.5zM1319 1604q-43 0 -68.5 29.5t-19.5 70.5q7 41 42.5 70.5t76.5 29.5q42 0 67.5 -29.5t18.5 -70.5q-6 -41 -40 -70.5t-77 -29.5zM868 -72
q-207 0 -362.5 100t-226 274t-37.5 384q33 209 160 383t314.5 274.5t393.5 100.5q154 0 283 -59.5t212.5 -160.5t119 -241.5t10.5 -296.5t-105.5 -296.5t-196 -242t-263.5 -160.5t-302 -59zM893 72q166 0 315.5 81t250.5 222t128 311q27 169 -29.5 310.5t-181 222.5
t-289.5 81q-167 0 -317.5 -81t-252 -222t-128.5 -311t30 -311t182 -222t292 -81z" />
    <glyph glyph-name="multiply" unicode="&#xd7;" horiz-adv-x="1118" vert-adv-y="2007" 
d="M897 219l-256 303l-350 -303l-86 103l350 303l-254 303l119 102l254 -303l352 303l86 -102l-352 -303l256 -303z" />
    <glyph glyph-name="Oslash" unicode="&#xd8;" horiz-adv-x="1759" vert-adv-y="2007" 
d="M1479 1569l-93 -180q194 -86 290.5 -275.5t58.5 -427.5q-25 -156 -105.5 -296.5t-196 -242t-263.5 -160.5t-302 -59q-111 0 -213 31l-80 -156h-149l106 209q-167 95 -246 274.5t-44 399.5q33 209 160 383t314.5 274.5t393.5 100.5q81 0 147 -14l72 139h150zM389 686
q-27 -172 31.5 -313.5t183.5 -220.5l584 1140q-44 8 -101 8q-167 0 -317.5 -81t-252 -222t-128.5 -311zM1587 686q30 191 -44.5 343t-225.5 222l-592 -1155q77 -24 168 -24q166 0 315.5 81t250.5 222t128 311z" />
    <glyph glyph-name="Ugrave" unicode="&#xd9;" vert-adv-y="2007" 
d="M1010 1927l202 -381h-168l-206 381h172zM725 -72q-270 0 -408 181.5t-92 474.5l133 839h148l-133 -839q-37 -231 66.5 -370.5t310.5 -139.5t353 139t183 371l133 839h148l-133 -839q-46 -293 -242.5 -474.5t-466.5 -181.5z" />
    <glyph glyph-name="Uacute" unicode="&#xda;" vert-adv-y="2007" 
d="M1280 1927l-326 -381h-168l322 381h172zM725 -72q-270 0 -408 181.5t-92 474.5l133 839h148l-133 -839q-37 -231 66.5 -370.5t310.5 -139.5t353 139t183 371l133 839h148l-133 -839q-46 -293 -242.5 -474.5t-466.5 -181.5z" />
    <glyph glyph-name="Ucircumflex" unicode="&#xdb;" vert-adv-y="2007" 
d="M1016 1761l-228 -215h-184l397 379h82l279 -379h-184zM725 -72q-270 0 -408 181.5t-92 474.5l133 839h148l-133 -839q-37 -231 66.5 -370.5t310.5 -139.5t353 139t183 371l133 839h148l-133 -839q-46 -293 -242.5 -474.5t-466.5 -181.5z" />
    <glyph glyph-name="Udieresis" unicode="&#xdc;" vert-adv-y="2007" 
d="M805 1634q-43 0 -68.5 30t-19.5 71q7 41 42.5 70.5t76.5 29.5q42 0 67.5 -29.5t18.5 -70.5q-6 -41 -40 -71t-77 -30zM1174 1634q-43 0 -69 30t-20 71q7 41 42.5 70.5t76.5 29.5q42 0 67.5 -29.5t18.5 -70.5q-6 -42 -40 -71.5t-76 -29.5zM725 -72q-270 0 -408 181.5
t-92 474.5l133 839h148l-133 -839q-37 -231 66.5 -370.5t310.5 -139.5t353 139t183 371l133 839h148l-133 -839q-46 -293 -242.5 -474.5t-466.5 -181.5z" />
    <glyph glyph-name="Yacute" unicode="&#xdd;" horiz-adv-x="1474" vert-adv-y="2007" 
d="M1280 1927l-326 -381h-168l322 381h172zM952 504l-88 -555h-147l88 555l-494 919h178l412 -774l658 774h178z" />
    <glyph glyph-name="germandbls" unicode="&#xdf;" horiz-adv-x="1310" vert-adv-y="1597" 
d="M463 1014l-240 -1516h-145l227 1473q44 215 205 344t383 129q215 0 330 -116.5t84 -303.5q-15 -99 -73 -178.5t-151 -128.5q192 -105 154 -340q-34 -212 -209 -338t-416 -111l25 146q181 -15 305.5 67.5t149.5 233.5q20 124 -62.5 194t-249.5 70h-231l22 141h230
q149 0 246 65.5t114 178.5q20 126 -59.5 201t-233.5 75q-145 0 -253 -76.5t-152 -209.5z" />
    <glyph glyph-name="agrave" unicode="&#xe0;" horiz-adv-x="1259" vert-adv-y="2007" 
d="M950 1559l203 -381h-168l-207 381h172zM680 -72q-160 0 -276 73t-167 203.5t-26 293.5q40 247 224 408t427 161q121 0 220.5 -46t162.5 -132l25 158h145l-174 -1098h-145l24 157q-90 -86 -204.5 -132t-235.5 -46zM705 72q175 0 312 122.5t165 303.5q29 181 -70 303.5
t-274 122.5q-181 0 -316 -120t-166 -306q-29 -186 69 -306t280 -120z" />
    <glyph glyph-name="aacute" unicode="&#xe1;" horiz-adv-x="1259" vert-adv-y="2007" 
d="M1231 1559l-326 -381h-168l322 381h172zM680 -72q-160 0 -276 73t-167 203.5t-26 293.5q40 247 224 408t427 161q121 0 220.5 -46t162.5 -132l25 158h145l-174 -1098h-145l24 157q-90 -86 -204.5 -132t-235.5 -46zM705 72q175 0 312 122.5t165 303.5q29 181 -70 303.5
t-274 122.5q-181 0 -316 -120t-166 -306q-29 -186 69 -306t280 -120z" />
    <glyph glyph-name="acircumflex" unicode="&#xe2;" horiz-adv-x="1259" vert-adv-y="2007" 
d="M913 1395l-227 -215h-184l397 379h82l279 -379h-185zM680 -72q-160 0 -276 73t-167 203.5t-26 293.5q40 247 224 408t427 161q121 0 220.5 -46t162.5 -132l25 158h145l-174 -1098h-145l24 157q-90 -86 -204.5 -132t-235.5 -46zM705 72q175 0 312 122.5t165 303.5
q29 181 -70 303.5t-274 122.5q-181 0 -316 -120t-166 -306q-29 -186 69 -306t280 -120z" />
    <glyph glyph-name="atilde" unicode="&#xe3;" horiz-adv-x="1259" vert-adv-y="2007" 
d="M1008 1188q-34 0 -66.5 13t-49 25.5t-40.5 33.5q-20 19 -28 25.5t-21 13t-27 6.5q-61 0 -55 -111h-150q-2 106 63.5 179t162.5 73q34 0 66 -13.5t46.5 -24.5t40.5 -34q29 -26 44.5 -35.5t35.5 -9.5q53 0 53 115h146q2 -108 -62 -182t-159 -74zM680 -72q-160 0 -276 73
t-167 203.5t-26 293.5q40 247 224 408t427 161q121 0 220.5 -46t162.5 -132l25 158h145l-174 -1098h-145l24 157q-90 -86 -204.5 -132t-235.5 -46zM705 72q175 0 312 122.5t165 303.5q29 181 -70 303.5t-274 122.5q-181 0 -316 -120t-166 -306q-29 -186 69 -306t280 -120z
" />
    <glyph glyph-name="adieresis" unicode="&#xe4;" horiz-adv-x="1259" vert-adv-y="2007" 
d="M694 1178q-43 0 -68.5 29.5t-19.5 70.5q7 41 42.5 70.5t76.5 29.5q42 0 67.5 -29.5t18.5 -70.5q-6 -41 -40 -70.5t-77 -29.5zM1063 1178q-43 0 -68.5 29.5t-19.5 70.5q7 41 42.5 70.5t76.5 29.5q42 0 67.5 -29.5t18.5 -70.5q-6 -41 -40 -70.5t-77 -29.5zM680 -72
q-160 0 -276 73t-167 203.5t-26 293.5q40 247 224 408t427 161q121 0 220.5 -46t162.5 -132l25 158h145l-174 -1098h-145l24 157q-90 -86 -204.5 -132t-235.5 -46zM705 72q175 0 312 122.5t165 303.5q29 181 -70 303.5t-274 122.5q-181 0 -316 -120t-166 -306
q-29 -186 69 -306t280 -120z" />
    <glyph glyph-name="aring" unicode="&#xe5;" horiz-adv-x="1259" vert-adv-y="2007" 
d="M879 1178q-96 0 -154 66.5t-43 160.5t94 160.5t174 66.5t152.5 -66.5t42.5 -160.5t-93 -160.5t-173 -66.5zM899 1317q38 0 69.5 25.5t37.5 62.5t-17 62.5t-61 25.5t-69.5 -25.5t-37.5 -62.5t17 -62.5t61 -25.5zM680 -72q-160 0 -276 73t-167 203.5t-26 293.5
q40 247 224 408t427 161q121 0 220.5 -46t162.5 -132l25 158h145l-174 -1098h-145l24 157q-90 -86 -204.5 -132t-235.5 -46zM705 72q175 0 312 122.5t165 303.5q29 181 -70 303.5t-274 122.5q-181 0 -316 -120t-166 -306q-29 -186 69 -306t280 -120z" />
    <glyph glyph-name="ae" unicode="&#xe6;" horiz-adv-x="2304" vert-adv-y="2007" 
d="M680 -72q-160 0 -276 73t-167 203.5t-26 293.5q40 247 224 408t427 161q121 0 220.5 -46t162.5 -132l25 158h145l-26 -162q93 87 211 134.5t239 47.5q229 0 353.5 -150.5t86.5 -388.5l-12 -71h-946v-11q-17 -102 26.5 -189t128.5 -136t189 -49q158 0 273 80t178 233
l122 -49q-78 -192 -236.5 -300t-361.5 -108q-115 0 -212 46.5t-162 131.5l-25 -157h-145l24 157q-90 -86 -204.5 -132t-235.5 -46zM705 72q181 0 315.5 120t163.5 306q31 186 -66.5 306t-279.5 120q-181 0 -316 -120t-166 -306q-29 -186 69 -306t280 -120zM1352 600h784
q0 149 -87 236.5t-234 87.5q-149 0 -277.5 -90.5t-185.5 -233.5z" />
    <glyph glyph-name="ccedilla" unicode="&#xe7;" horiz-adv-x="1320" vert-adv-y="2007" 
d="M580 -559q-94 0 -141.5 56.5t-32.5 150.5q11 68 50.5 122.5t139.5 137.5l6 24q-207 28 -316.5 185t-74.5 381q25 159 119.5 289.5t234.5 205t295 74.5q203 0 326.5 -108t140.5 -300l-139 -49q-14 153 -104 233.5t-248 80.5q-175 0 -313 -122.5t-167 -303.5
q-29 -184 69 -305t277 -121q158 0 273 80t178 233l123 -49q-72 -178 -213.5 -284.5t-325.5 -121.5h11l-17 -73q-105 -89 -140.5 -129.5t-41.5 -79.5q-6 -35 5.5 -49.5t45.5 -14.5q13 0 57 13l74 18l23 -131q-83 -28 -114 -35.5t-60 -7.5z" />
    <glyph glyph-name="egrave" unicode="&#xe8;" horiz-adv-x="1236" vert-adv-y="2007" 
d="M881 1559l202 -381h-168l-206 381h172zM672 -72q-152 0 -266.5 75t-166.5 205t-28 286q25 161 120.5 292.5t237.5 206t301 74.5q227 0 350 -150t91 -389l-13 -71h-948q-11 -166 87 -275.5t259 -109.5q158 0 273 80t178 233l123 -49q-78 -192 -236.5 -300t-361.5 -108z
M383 600h784q0 149 -87 236.5t-234 87.5q-149 0 -277.5 -90.5t-185.5 -233.5z" />
    <glyph glyph-name="eacute" unicode="&#xe9;" horiz-adv-x="1236" vert-adv-y="2007" 
d="M1143 1559l-326 -381h-168l322 381h172zM672 -72q-152 0 -266.5 75t-166.5 205t-28 286q25 161 120.5 292.5t237.5 206t301 74.5q227 0 350 -150t91 -389l-13 -71h-948q-11 -166 87 -275.5t259 -109.5q158 0 273 80t178 233l123 -49q-78 -192 -236.5 -300t-361.5 -108z
M383 600h784q0 149 -87 236.5t-234 87.5q-149 0 -277.5 -90.5t-185.5 -233.5z" />
    <glyph glyph-name="ecircumflex" unicode="&#xea;" horiz-adv-x="1236" vert-adv-y="2007" 
d="M899 1393l-227 -215h-185l398 378h82l278 -378h-184zM672 -72q-152 0 -266.5 75t-166.5 205t-28 286q25 161 120.5 292.5t237.5 206t301 74.5q227 0 350 -150t91 -389l-13 -71h-948q-11 -166 87 -275.5t259 -109.5q158 0 273 80t178 233l123 -49q-78 -192 -236.5 -300
t-361.5 -108zM383 600h784q0 149 -87 236.5t-234 87.5q-149 0 -277.5 -90.5t-185.5 -233.5z" />
    <glyph glyph-name="edieresis" unicode="&#xeb;" horiz-adv-x="1236" vert-adv-y="2007" 
d="M694 1188q-43 0 -68.5 29.5t-19.5 70.5q8 41 43 71t76 30q42 0 67.5 -30t18.5 -71q-6 -41 -40 -70.5t-77 -29.5zM1063 1188q-43 0 -68.5 29.5t-19.5 70.5q8 41 43 71t76 30q42 0 67.5 -30t18.5 -71q-6 -41 -40 -70.5t-77 -29.5zM672 -72q-152 0 -266.5 75t-166.5 205
t-28 286q25 161 120.5 292.5t237.5 206t301 74.5q227 0 350 -150t91 -389l-13 -71h-948q-11 -166 87 -275.5t259 -109.5q158 0 273 80t178 233l123 -49q-78 -192 -236.5 -300t-361.5 -108zM383 600h784q0 149 -87 236.5t-234 87.5q-149 0 -277.5 -90.5t-185.5 -233.5z" />
    <glyph glyph-name="igrave" unicode="&#xec;" horiz-adv-x="348" vert-adv-y="2007" 
d="M438 1569l203 -381h-168l-207 381h172zM475 1047l-174 -1098h-145l174 1098h145z" />
    <glyph glyph-name="iacute" unicode="&#xed;" horiz-adv-x="348" vert-adv-y="2007" 
d="M666 1559l-326 -381h-168l322 381h172zM475 1047l-174 -1098h-145l174 1098h145z" />
    <glyph glyph-name="icircumflex" unicode="&#xee;" horiz-adv-x="348" vert-adv-y="2007" 
d="M461 1409l-228 -215h-184l397 379h82l279 -379h-184zM475 1047l-174 -1098h-145l174 1098h145z" />
    <glyph glyph-name="idieresis" unicode="&#xef;" horiz-adv-x="348" vert-adv-y="2007" 
d="M240 1178q-43 0 -68.5 29.5t-19.5 70.5q8 41 42.5 70.5t75.5 29.5q42 0 67.5 -29.5t18.5 -70.5q-6 -41 -39.5 -70.5t-76.5 -29.5zM608 1178q-43 0 -68.5 29.5t-19.5 70.5q7 41 42.5 70.5t76.5 29.5q42 0 67.5 -29.5t18.5 -70.5q-6 -41 -40 -70.5t-77 -29.5zM475 1047
l-174 -1098h-145l174 1098h145z" />
    <glyph glyph-name="ntilde" unicode="&#xf1;" horiz-adv-x="1130" vert-adv-y="2007" 
d="M942 1188q-34 0 -66.5 13t-49 25.5t-40.5 33.5q-21 20 -28 26t-20 12.5t-27 6.5q-62 0 -56 -111h-149q-2 106 63 179t162 73q34 0 66.5 -13.5t47.5 -25t40 -33.5q29 -26 44.5 -35.5t35.5 -9.5q53 0 53 115h145q2 -108 -62 -182t-159 -74zM360 518l-90 -569h-145l174 1098
h145l-22 -144q84 79 192 121.5t224 42.5q202 0 305 -132.5t69 -348.5l-100 -637h-145l100 637q25 155 -42.5 246.5t-205.5 91.5q-181 0 -305.5 -110t-153.5 -296z" />
    <glyph glyph-name="ograve" unicode="&#xf2;" horiz-adv-x="1280" vert-adv-y="2007" 
d="M901 1559l203 -381h-168l-207 381h172zM688 -72q-160 0 -278 74.5t-170.5 205.5t-26.5 292q25 160 119.5 290t236 203.5t301.5 73.5q244 0 381 -162t99 -405q-40 -244 -229.5 -408t-432.5 -164zM713 72q183 0 322.5 121.5t168.5 306.5q29 184 -72 304t-286 120
q-183 0 -321 -120t-167 -304t72 -306t283 -122z" />
    <glyph glyph-name="oacute" unicode="&#xf3;" horiz-adv-x="1280" vert-adv-y="2007" 
d="M1165 1559l-325 -381h-168l321 381h172zM688 -72q-160 0 -278 74.5t-170.5 205.5t-26.5 292q25 160 119.5 290t236 203.5t301.5 73.5q244 0 381 -162t99 -405q-40 -244 -229.5 -408t-432.5 -164zM713 72q183 0 322.5 121.5t168.5 306.5q29 184 -72 304t-286 120
q-183 0 -321 -120t-167 -304t72 -306t283 -122z" />
    <glyph glyph-name="ocircumflex" unicode="&#xf4;" horiz-adv-x="1280" vert-adv-y="2007" 
d="M922 1393l-228 -215h-184l397 378h82l279 -378h-185zM688 -72q-160 0 -278 74.5t-170.5 205.5t-26.5 292q25 160 119.5 290t236 203.5t301.5 73.5q244 0 381 -162t99 -405q-40 -244 -229.5 -408t-432.5 -164zM713 72q183 0 322.5 121.5t168.5 306.5q29 184 -72 304
t-286 120q-183 0 -321 -120t-167 -304t72 -306t283 -122z" />
    <glyph glyph-name="otilde" unicode="&#xf5;" horiz-adv-x="1280" vert-adv-y="2007" 
d="M971 1171q-34 0 -66.5 13t-49 25.5t-40.5 33.5q-20 19 -28 25.5t-21 13t-27 6.5q-61 0 -55 -110h-149q-2 106 63 179t162 73q34 0 66 -13.5t46.5 -24.5t40.5 -34q29 -26 44.5 -35.5t35.5 -9.5q54 0 54 114h145q2 -108 -62 -182t-159 -74zM688 -72q-160 0 -278 74.5
t-170.5 205.5t-26.5 292q25 160 119.5 290t236 203.5t301.5 73.5q244 0 381 -162t99 -405q-40 -244 -229.5 -408t-432.5 -164zM713 72q183 0 322.5 121.5t168.5 306.5q29 184 -72 304t-286 120q-183 0 -321 -120t-167 -304t72 -306t283 -122z" />
    <glyph glyph-name="odieresis" unicode="&#xf6;" horiz-adv-x="1280" vert-adv-y="2007" 
d="M705 1171q-43 0 -69 30t-20 71q7 41 42.5 70.5t76.5 29.5q42 0 67.5 -29.5t18.5 -70.5q-6 -42 -40 -71.5t-76 -29.5zM1073 1171q-43 0 -68.5 30t-19.5 71q7 41 42.5 70.5t76.5 29.5q42 0 67.5 -29.5t18.5 -70.5q-6 -41 -40 -71t-77 -30zM688 -72q-160 0 -278 74.5
t-170.5 205.5t-26.5 292q25 160 119.5 290t236 203.5t301.5 73.5q244 0 381 -162t99 -405q-40 -244 -229.5 -408t-432.5 -164zM713 72q183 0 322.5 121.5t168.5 306.5q29 184 -72 304t-286 120q-183 0 -321 -120t-167 -304t72 -306t283 -122z" />
    <glyph glyph-name="divide" unicode="&#xf7;" horiz-adv-x="1310" vert-adv-y="2007" 
d="M799 901q-43 0 -68.5 29.5t-19.5 70.5q8 41 42.5 71t75.5 30q42 0 67.5 -30t18.5 -71q-6 -41 -39.5 -70.5t-76.5 -29.5zM1247 696l-22 -143h-963l23 143h962zM678 147q-42 0 -67 29.5t-19 71.5q6 41 41.5 70.5t77.5 29.5q41 0 66.5 -29.5t19.5 -70.5t-41 -71t-78 -30z
" />
    <glyph glyph-name="oslash" unicode="&#xf8;" horiz-adv-x="1402" vert-adv-y="2007" 
d="M547 -53l-133 -266h-150l164 317q-127 70 -184 204.5t-31 297.5q25 160 119.5 290t236 203.5t301.5 73.5q27 0 101 -8l198 387h150l-219 -426q143 -68 210.5 -207.5t39.5 -312.5q-40 -244 -229.5 -408t-432.5 -164q-70 0 -141 19zM494 133l407 789q-7 0 -26 1t-29 1
q-183 0 -321 -120t-167 -304q-20 -119 16 -215t120 -152zM713 72q183 0 322.5 121.5t168.5 306.5q20 130 -26 231t-148 152l-412 -801q45 -10 95 -10z" />
    <glyph glyph-name="ugrave" unicode="&#xf9;" horiz-adv-x="1130" vert-adv-y="2007" 
d="M827 1559l203 -381h-168l-207 381h172zM573 -72q-202 0 -305 133t-69 349l100 637h145l-100 -637q-25 -155 42.5 -246.5t205.5 -91.5q182 0 306 109.5t153 295.5l90 570h145l-174 -1098h-145l22 143q-85 -79 -192.5 -121.5t-223.5 -42.5z" />
    <glyph glyph-name="uacute" unicode="&#xfa;" horiz-adv-x="1130" vert-adv-y="2007" 
d="M1038 1559l-325 -381h-168l321 381h172zM573 -72q-202 0 -305 133t-69 349l100 637h145l-100 -637q-25 -155 42.5 -246.5t205.5 -91.5q182 0 306 109.5t153 295.5l90 570h145l-174 -1098h-145l22 143q-85 -79 -192.5 -121.5t-223.5 -42.5z" />
    <glyph glyph-name="ucircumflex" unicode="&#xfb;" horiz-adv-x="1130" vert-adv-y="2007" 
d="M815 1395l-227 -215h-185l398 379h82l278 -379h-184zM573 -72q-202 0 -305 133t-69 349l100 637h145l-100 -637q-25 -155 42.5 -246.5t205.5 -91.5q182 0 306 109.5t153 295.5l90 570h145l-174 -1098h-145l22 143q-85 -79 -192.5 -121.5t-223.5 -42.5z" />
    <glyph glyph-name="udieresis" unicode="&#xfc;" horiz-adv-x="1130" vert-adv-y="2007" 
d="M631 1186q-43 0 -68.5 29.5t-19.5 70.5q7 41 42.5 70.5t76.5 29.5q42 0 67.5 -29.5t18.5 -70.5q-6 -41 -40 -70.5t-77 -29.5zM999 1186q-43 0 -68.5 29.5t-19.5 70.5q7 41 42.5 70.5t76.5 29.5q42 0 67.5 -29.5t18.5 -70.5q-6 -41 -40 -70.5t-77 -29.5zM573 -72
q-202 0 -305 133t-69 349l100 637h145l-100 -637q-25 -155 42.5 -246.5t205.5 -91.5q182 0 306 109.5t153 295.5l90 570h145l-174 -1098h-145l22 143q-85 -79 -192.5 -121.5t-223.5 -42.5z" />
    <glyph glyph-name="yacute" unicode="&#xfd;" horiz-adv-x="1251" vert-adv-y="2007" 
d="M1153 1569l-326 -381h-168l322 381h172zM1438 1047l-926 -1446h-160l256 399l-340 1047h164l283 -879l563 879h160z" />
    <glyph glyph-name="ydieresis" unicode="&#xff;" horiz-adv-x="1251" vert-adv-y="2007" 
d="M692 1180q-43 0 -68.5 29.5t-19.5 70.5q7 41 42.5 70.5t76.5 29.5q42 0 67.5 -29.5t18.5 -70.5q-6 -41 -40 -70.5t-77 -29.5zM1061 1180q-43 0 -68.5 29.5t-19.5 70.5q7 41 42.5 70.5t76.5 29.5q42 0 67.5 -29.5t18.5 -70.5q-6 -41 -40 -70.5t-77 -29.5zM1438 1047
l-926 -1446h-160l256 399l-340 1047h164l283 -879l563 879h160z" />
    <glyph glyph-name="Cacute" unicode="&#x106;" horiz-adv-x="1581" vert-adv-y="2007" 
d="M1280 1927l-326 -381h-168l322 381h172zM874 -72q-208 0 -365 100.5t-228.5 274.5t-38.5 383t160.5 383t316.5 274.5t397 100.5q247 0 415.5 -123t209.5 -334l-144 -57q-29 170 -165 270t-338 100q-167 0 -319.5 -81t-255.5 -222.5t-130 -310.5t31 -310.5t185 -222.5
t294 -81q202 0 367.5 98.5t251.5 269.5l129 -51q-108 -213 -317 -337t-456 -124z" />
    <glyph glyph-name="cacute" unicode="&#x107;" horiz-adv-x="1198" vert-adv-y="2007" 
d="M1124 1559l-325 -381h-168l321 381h172zM678 -72q-241 0 -373 162t-94 408q25 159 119.5 289.5t234.5 205t295 74.5q203 0 326.5 -108t140.5 -300l-139 -49q-14 153 -104 233.5t-248 80.5q-175 0 -313 -122.5t-167 -303.5q-29 -184 69 -305t277 -121q158 0 273 80
t178 233l123 -49q-78 -192 -236.5 -300t-361.5 -108z" />
    <glyph glyph-name="Ccircumflex" unicode="&#x108;" horiz-adv-x="1581" vert-adv-y="2007" 
d="M1130 1761l-227 -215h-184l397 379h82l279 -379h-185zM874 -72q-208 0 -365 100.5t-228.5 274.5t-38.5 383t160.5 383t316.5 274.5t397 100.5q247 0 415.5 -123t209.5 -334l-144 -57q-29 170 -165 270t-338 100q-167 0 -319.5 -81t-255.5 -222.5t-130 -310.5t31 -310.5
t185 -222.5t294 -81q202 0 367.5 98.5t251.5 269.5l129 -51q-108 -213 -317 -337t-456 -124z" />
    <glyph glyph-name="ccircumflex" unicode="&#x109;" horiz-adv-x="1198" vert-adv-y="2007" 
d="M881 1393l-228 -215h-184l397 378h82l279 -378h-185zM678 -72q-241 0 -373 162t-94 408q25 159 119.5 289.5t234.5 205t295 74.5q203 0 326.5 -108t140.5 -300l-139 -49q-14 153 -104 233.5t-248 80.5q-175 0 -313 -122.5t-167 -303.5q-29 -184 69 -305t277 -121
q158 0 273 80t178 233l123 -49q-78 -192 -236.5 -300t-361.5 -108z" />
    <glyph glyph-name="Cdotaccent" unicode="&#x10a;" horiz-adv-x="1581" vert-adv-y="2007" 
d="M1102 1577q-43 0 -68 29.5t-18 70.5q6 41 41 71t76 30t67.5 -30t20.5 -71q-8 -42 -42.5 -71t-76.5 -29zM874 -72q-208 0 -365 100.5t-228.5 274.5t-38.5 383t160.5 383t316.5 274.5t397 100.5q247 0 415.5 -123t209.5 -334l-144 -57q-29 170 -165 270t-338 100
q-167 0 -319.5 -81t-255.5 -222.5t-130 -310.5t31 -310.5t185 -222.5t294 -81q202 0 367.5 98.5t251.5 269.5l129 -51q-108 -213 -317 -337t-456 -124z" />
    <glyph glyph-name="cdotaccent" unicode="&#x10b;" horiz-adv-x="1198" vert-adv-y="2007" 
d="M846 1178q-43 0 -68 29.5t-18 70.5q6 41 41 70.5t76 29.5t67.5 -29.5t20.5 -70.5q-8 -42 -42.5 -71t-76.5 -29zM678 -72q-241 0 -373 162t-94 408q25 159 119.5 289.5t234.5 205t295 74.5q203 0 326.5 -108t140.5 -300l-139 -49q-14 153 -104 233.5t-248 80.5
q-175 0 -313 -122.5t-167 -303.5q-29 -184 69 -305t277 -121q158 0 273 80t178 233l123 -49q-78 -192 -236.5 -300t-361.5 -108z" />
    <glyph glyph-name="Ccaron" unicode="&#x10c;" horiz-adv-x="1581" vert-adv-y="2007" 
d="M1569 1913l-398 -379h-81l-279 379h184l160 -215l229 215h185zM874 -72q-208 0 -365 100.5t-228.5 274.5t-38.5 383t160.5 383t316.5 274.5t397 100.5q247 0 415.5 -123t209.5 -334l-144 -57q-29 170 -165 270t-338 100q-167 0 -319.5 -81t-255.5 -222.5t-130 -310.5
t31 -310.5t185 -222.5t294 -81q202 0 367.5 98.5t251.5 269.5l129 -51q-108 -213 -317 -337t-456 -124z" />
    <glyph glyph-name="ccaron" unicode="&#x10d;" horiz-adv-x="1198" vert-adv-y="2007" 
d="M1286 1556l-397 -378h-82l-279 378h185l159 -215l230 215h184zM678 -72q-241 0 -373 162t-94 408q25 159 119.5 289.5t234.5 205t295 74.5q203 0 326.5 -108t140.5 -300l-139 -49q-14 153 -104 233.5t-248 80.5q-175 0 -313 -122.5t-167 -303.5q-29 -184 69 -305
t277 -121q158 0 273 80t178 233l123 -49q-78 -192 -236.5 -300t-361.5 -108z" />
    <glyph glyph-name="Ecaron" unicode="&#x11a;" horiz-adv-x="1208" vert-adv-y="2007" 
d="M1346 1925l-398 -379h-82l-278 379h184l160 -215l229 215h185zM1212 92l-22 -143h-1065l233 1474h1065l-22 -143h-918l-82 -518h856l-22 -144h-856l-84 -526h917z" />
    <glyph glyph-name="ecaron" unicode="&#x11b;" horiz-adv-x="1236" vert-adv-y="2007" 
d="M1307 1567l-398 -379h-82l-278 379h184l160 -215l229 215h185zM672 -72q-152 0 -266.5 75t-166.5 205t-28 286q25 161 120.5 292.5t237.5 206t301 74.5q227 0 350 -150t91 -389l-13 -71h-948q-11 -166 87 -275.5t259 -109.5q158 0 273 80t178 233l123 -49
q-78 -192 -236.5 -300t-361.5 -108zM383 600h784q0 149 -87 236.5t-234 87.5q-149 0 -277.5 -90.5t-185.5 -233.5z" />
    <glyph glyph-name="Itilde" unicode="&#x128;" horiz-adv-x="290" vert-adv-y="2007" 
d="M604 1546q-34 0 -66.5 13t-48 25t-40.5 34q-20 19 -28 25.5t-21 13t-27 6.5q-62 0 -56 -111h-149q-2 106 63 179t162 73q34 0 66 -13t47.5 -24.5t40.5 -33.5q29 -26 44.5 -35.5t35.5 -9.5q28 0 40.5 27t12.5 87h145q2 -108 -62 -182t-159 -74zM506 1423l-234 -1474h-147
l233 1474h148z" />
    <glyph glyph-name="itilde" unicode="&#x129;" horiz-adv-x="348" vert-adv-y="2007" 
d="M549 1169q-34 0 -66.5 13t-49 25.5t-40.5 33.5q-20 19 -28 25.5t-21 13t-27 6.5q-61 0 -55 -110h-149q-2 106 63 178.5t162 72.5q34 0 66 -13t47.5 -24.5t40.5 -33.5q21 -19 29.5 -25.5t22 -13t27.5 -6.5q54 0 54 114h145q2 -108 -62 -182t-159 -74zM475 1047l-174 -1098
h-145l174 1098h145z" />
    <glyph glyph-name="dotlessi" unicode="&#x131;" horiz-adv-x="471" vert-adv-y="2007" 
d="M475 1047l-174 -1098h-145l174 1098h145z" />
    <glyph glyph-name="Nacute" unicode="&#x143;" horiz-adv-x="1370" vert-adv-y="2007" 
d="M1280 1927l-326 -381h-168l322 381h172zM463 1151l-191 -1202h-147l233 1474h121l768 -1202l191 1202h147l-233 -1474h-121z" />
    <glyph glyph-name="nacute" unicode="&#x144;" horiz-adv-x="1130" vert-adv-y="2007" 
d="M1090 1559l-326 -381h-168l322 381h172zM360 518l-90 -569h-145l174 1098h145l-22 -144q84 79 192 121.5t224 42.5q202 0 305 -132.5t69 -348.5l-100 -637h-145l100 637q25 155 -42.5 246.5t-205.5 91.5q-181 0 -305.5 -110t-153.5 -296z" />
    <glyph glyph-name="OE" unicode="&#x152;" horiz-adv-x="2684" vert-adv-y="2007" 
d="M868 -72q-207 0 -362.5 100t-226 274t-37.5 384q33 209 160 383t314.5 274.5t393.5 100.5q180 0 324.5 -79t226.5 -220l47 299h1065l-23 -144h-917l-82 -518h856l-24 -143h-857l-81 -526h917l-22 -144h-1065l41 258q-127 -140 -298 -219.5t-350 -79.5zM893 72
q166 0 315.5 81t250.5 222t128 311q27 169 -29.5 310.5t-181 222.5t-289.5 81q-167 0 -317.5 -81t-252 -222t-128.5 -311t30 -311t182 -222t292 -81z" />
    <glyph glyph-name="oe" unicode="&#x153;" horiz-adv-x="2293" vert-adv-y="2007" 
d="M2300 528l-12 -71h-949v-4q-10 -164 88.5 -272.5t258.5 -108.5q158 0 272.5 80t177.5 233l123 -49q-78 -192 -236.5 -300t-361.5 -108q-147 0 -264 76.5t-168 204.5v2q-93 -131 -236.5 -207t-304.5 -76q-160 0 -278 74.5t-170.5 205.5t-26.5 292q25 160 119.5 290
t236 203.5t301.5 73.5q161 0 279 -75.5t172 -205.5q95 130 240 205.5t299 75.5q227 0 349.5 -150t90.5 -389zM713 72q183 0 322.5 121.5t168.5 306.5q29 184 -72 304t-286 120q-183 0 -321 -120t-167 -304t72 -306t283 -122zM1835 924q-149 0 -277.5 -90.5t-185.5 -233.5
h785q0 149 -87.5 236.5t-234.5 87.5z" />
    <glyph glyph-name="Racute" unicode="&#x154;" horiz-adv-x="1312" vert-adv-y="2007" 
d="M1241 1927l-326 -381h-167l321 381h172zM379 621l-107 -672h-147l233 1474h664q206 0 314 -110t79 -291t-171.5 -291t-348.5 -110h-39l500 -672h-199l-493 672h-285zM999 1280h-516l-82 -516h517q141 0 236 70t114 188t-54.5 188t-214.5 70z" />
    <glyph glyph-name="racute" unicode="&#x155;" horiz-adv-x="804" vert-adv-y="2007" 
d="M893 1559l-326 -381h-168l322 381h172zM360 518l-90 -569h-145l174 1098h145l-22 -144q84 79 192 121.5t224 42.5q78 0 137 -20l-57 -138q-44 15 -99 15q-181 0 -305.5 -110t-153.5 -296z" />
    <glyph glyph-name="Rcaron" unicode="&#x158;" horiz-adv-x="1312" vert-adv-y="2007" 
d="M1346 1925l-398 -379h-82l-278 379h184l160 -215l229 215h185zM379 621l-107 -672h-147l233 1474h664q206 0 314 -110t79 -291t-171.5 -291t-348.5 -110h-39l500 -672h-199l-493 672h-285zM999 1280h-516l-82 -516h517q141 0 236 70t114 188t-54.5 188t-214.5 70z" />
    <glyph glyph-name="rcaron" unicode="&#x159;" horiz-adv-x="804" vert-adv-y="2007" 
d="M1083 1561l-397 -379h-82l-278 379h184l160 -215l229 215h184zM360 518l-90 -569h-145l174 1098h145l-22 -144q84 79 192 121.5t224 42.5q78 0 137 -20l-57 -138q-44 15 -99 15q-181 0 -305.5 -110t-153.5 -296z" />
    <glyph glyph-name="Sacute" unicode="&#x15a;" horiz-adv-x="1261" vert-adv-y="2007" 
d="M1280 1927l-326 -381h-168l322 381h172zM715 -72q-257 0 -400 138t-118 362l159 37q-35 -175 72 -284t313 -109q173 0 284.5 76t133.5 208q15 100 -30 149t-181 81l-315 80q-326 83 -283 360q31 186 189 302t381 116q224 0 352 -121t117 -324l-146 -47q11 163 -82 255.5
t-266 92.5q-157 0 -265 -75.5t-128 -198.5q-14 -91 32.5 -142t170.5 -79l290 -76q29 -6 53.5 -13t54 -17.5t52.5 -23t48.5 -29.5t42.5 -37t34.5 -46t23.5 -56.5t10 -68t-5 -80.5q-31 -195 -194 -312.5t-400 -117.5z" />
    <glyph glyph-name="sacute" unicode="&#x15b;" horiz-adv-x="1034" vert-adv-y="2007" 
d="M1044 1563l-325 -381h-168l321 381h172zM594 -72q-209 0 -323.5 104.5t-92.5 276.5l148 27q-29 -118 51 -192t239 -74q128 0 209.5 50t94.5 138q9 61 -24.5 94t-127.5 56l-248 57q-136 31 -193 98.5t-40 179.5q23 145 149 234.5t305 89.5q175 0 278 -91t103 -249
l-147 -33q7 107 -61.5 168.5t-196.5 61.5q-117 0 -194 -49.5t-91 -131.5q-9 -58 24.5 -89.5t127.5 -53.5l233 -53q42 -10 74 -21t71.5 -33.5t63.5 -52t36 -76.5t3 -106q-23 -149 -153 -239.5t-318 -90.5z" />
    <glyph glyph-name="Scircumflex" unicode="&#x15c;" horiz-adv-x="1261" vert-adv-y="2007" 
d="M965 1761l-228 -215h-184l397 379h82l279 -379h-185zM715 -72q-257 0 -400 138t-118 362l159 37q-35 -175 72 -284t313 -109q173 0 284.5 76t133.5 208q15 100 -30 149t-181 81l-315 80q-326 83 -283 360q31 186 189 302t381 116q224 0 352 -121t117 -324l-146 -47
q11 163 -82 255.5t-266 92.5q-157 0 -265 -75.5t-128 -198.5q-14 -91 32.5 -142t170.5 -79l290 -76q29 -6 53.5 -13t54 -17.5t52.5 -23t48.5 -29.5t42.5 -37t34.5 -46t23.5 -56.5t10 -68t-5 -80.5q-31 -195 -194 -312.5t-400 -117.5z" />
    <glyph glyph-name="scircumflex" unicode="&#x15d;" horiz-adv-x="1034" vert-adv-y="2007" 
d="M799 1393l-228 -215h-184l397 378h82l279 -378h-184zM594 -72q-209 0 -323.5 104.5t-92.5 276.5l148 27q-29 -118 51 -192t239 -74q128 0 209.5 50t94.5 138q9 61 -24.5 94t-127.5 56l-248 57q-136 31 -193 98.5t-40 179.5q23 145 149 234.5t305 89.5q175 0 278 -91
t103 -249l-147 -33q7 107 -61.5 168.5t-196.5 61.5q-117 0 -194 -49.5t-91 -131.5q-9 -58 24.5 -89.5t127.5 -53.5l233 -53q42 -10 74 -21t71.5 -33.5t63.5 -52t36 -76.5t3 -106q-23 -149 -153 -239.5t-318 -90.5z" />
    <glyph glyph-name="Scedilla" unicode="&#x15e;" horiz-adv-x="1384" vert-adv-y="2007" 
d="M633 -541q-93 0 -140.5 56.5t-33.5 150.5q10 67 51 123.5t137 136.5l2 4q-227 19 -351 155t-101 343l159 37q-35 -175 72 -284t313 -109q173 0 284.5 76t133.5 208q15 100 -30 149t-181 81l-315 80q-326 83 -283 360q31 186 189 302t381 116q224 0 352 -121t117 -324
l-146 -47q11 163 -82 255.5t-266 92.5q-157 0 -265 -75.5t-128 -198.5q-14 -91 32.5 -142t170.5 -79l290 -76q29 -6 53.5 -13t54 -17.5t52.5 -23t48.5 -29.5t42.5 -37t34.5 -46t23.5 -56.5t10 -68t-5 -80.5q-28 -176 -166 -291t-346 -137l-13 -55q-105 -89 -140.5 -129.5
t-41.5 -79.5q-5 -35 6 -49t45 -14q21 0 58 12l75 18l23 -131q-82 -27 -114 -35t-62 -8z" />
    <glyph glyph-name="scedilla" unicode="&#x15f;" horiz-adv-x="1157" vert-adv-y="2007" 
d="M520 -541q-93 0 -140.5 56.5t-33.5 150.5q10 67 51.5 123.5t137.5 136.5l2 4q-185 15 -282 117.5t-77 261.5l156 56q-44 -129 35 -212t247 -83q128 0 209.5 50t94.5 138q9 61 -24.5 94t-127.5 56l-248 57q-136 31 -193 98.5t-40 179.5q23 145 149 234.5t305 89.5
q175 0 278 -91t103 -249l-151 -57q19 118 -49.5 186t-204.5 68q-117 0 -194 -49.5t-91 -131.5q-9 -58 24.5 -89.5t127.5 -53.5l233 -53q42 -10 74 -21t71.5 -33.5t63.5 -52t36 -76.5t3 -106q-20 -129 -123 -216.5t-258 -107.5l-14 -61q-103 -85 -139 -126t-42 -81
q-5 -35 6.5 -49t45.5 -14q19 0 57 12l76 18l22 -131q-82 -27 -114 -35t-62 -8z" />
    <glyph glyph-name="Scaron" unicode="&#x160;" horiz-adv-x="1261" vert-adv-y="2007" 
d="M1376 1925l-397 -379h-82l-279 379h185l160 -215l229 215h184zM715 -72q-257 0 -400 138t-118 362l159 37q-35 -175 72 -284t313 -109q173 0 284.5 76t133.5 208q15 100 -30 149t-181 81l-315 80q-326 83 -283 360q31 186 189 302t381 116q224 0 352 -121t117 -324
l-146 -47q11 163 -82 255.5t-266 92.5q-157 0 -265 -75.5t-128 -198.5q-14 -91 32.5 -142t170.5 -79l290 -76q29 -6 53.5 -13t54 -17.5t52.5 -23t48.5 -29.5t42.5 -37t34.5 -46t23.5 -56.5t10 -68t-5 -80.5q-31 -195 -194 -312.5t-400 -117.5z" />
    <glyph glyph-name="scaron" unicode="&#x161;" horiz-adv-x="1034" vert-adv-y="2007" 
d="M1208 1573l-397 -379h-82l-278 379h184l160 -215l229 215h184zM594 -72q-209 0 -323.5 104.5t-92.5 276.5l148 27q-29 -118 51 -192t239 -74q128 0 209.5 50t94.5 138q9 61 -24.5 94t-127.5 56l-248 57q-136 31 -193 98.5t-40 179.5q23 145 149 234.5t305 89.5
q175 0 278 -91t103 -249l-147 -33q7 107 -61.5 168.5t-196.5 61.5q-117 0 -194 -49.5t-91 -131.5q-9 -58 24.5 -89.5t127.5 -53.5l233 -53q42 -10 74 -21t71.5 -33.5t63.5 -52t36 -76.5t3 -106q-23 -149 -153 -239.5t-318 -90.5z" />
    <glyph glyph-name="Utilde" unicode="&#x168;" vert-adv-y="2007" 
d="M1042 1546q-34 0 -66.5 13t-48 25t-40.5 34q-20 19 -28 25.5t-21 13t-27 6.5q-61 0 -55 -111h-150q-2 106 63 179t162 73q34 0 66 -13t47.5 -24.5t40.5 -33.5q29 -26 44.5 -35.5t35.5 -9.5q28 0 40.5 27t12.5 87h146q2 -107 -62.5 -181.5t-159.5 -74.5zM725 -72
q-270 0 -408 181.5t-92 474.5l133 839h148l-133 -839q-37 -231 66.5 -370.5t310.5 -139.5t353 139t183 371l133 839h148l-133 -839q-46 -293 -242.5 -474.5t-466.5 -181.5z" />
    <glyph glyph-name="utilde" unicode="&#x169;" horiz-adv-x="1130" vert-adv-y="2007" 
d="M897 1176q-34 0 -66.5 12.5t-49 25t-40.5 33.5q-21 20 -28 26t-20 12.5t-27 6.5q-62 0 -56 -110h-149q-2 106 63 179t162 73q34 0 66.5 -13.5t47.5 -25t40 -33.5q29 -26 44.5 -35.5t35.5 -9.5q53 0 53 115h145q2 -108 -62 -182t-159 -74zM573 -72q-202 0 -305 133
t-69 349l100 637h145l-100 -637q-25 -155 42.5 -246.5t205.5 -91.5q182 0 306 109.5t153 295.5l90 570h145l-174 -1098h-145l22 143q-85 -79 -192.5 -121.5t-223.5 -42.5z" />
    <glyph glyph-name="Uring" unicode="&#x16e;" vert-adv-y="2007" 
d="M985 1561q-96 0 -154 66.5t-43 160.5t94.5 160.5t174.5 66.5t152 -66.5t42 -160.5t-93 -160.5t-173 -66.5zM1006 1700q38 0 69 25.5t37 62.5t-17 62.5t-61 25.5t-69 -25.5t-37 -62.5t17 -62.5t61 -25.5zM725 -72q-270 0 -408 181.5t-92 474.5l133 839h148l-133 -839
q-37 -231 66.5 -370.5t310.5 -139.5t353 139t183 371l133 839h148l-133 -839q-46 -293 -242.5 -474.5t-466.5 -181.5z" />
    <glyph glyph-name="uring" unicode="&#x16f;" horiz-adv-x="1130" vert-adv-y="2007" 
d="M817 1194q-95 0 -153 66.5t-43 160.5t94 161t174 67t152 -67t42 -161t-93 -160.5t-173 -66.5zM838 1333q38 0 69 25.5t37 62.5t-17 62.5t-61 25.5t-69 -25.5t-37 -62.5t17 -62.5t61 -25.5zM573 -72q-202 0 -305 133t-69 349l100 637h145l-100 -637q-25 -155 42.5 -246.5
t205.5 -91.5q182 0 306 109.5t153 295.5l90 570h145l-174 -1098h-145l22 143q-85 -79 -192.5 -121.5t-223.5 -42.5z" />
    <glyph glyph-name="Wcircumflex" unicode="&#x174;" horiz-adv-x="2076" vert-adv-y="2007" 
d="M1356 1761l-228 -215h-184l397 379h82l279 -379h-184zM1282 1145l-586 -1196h-112l-246 1474h156l196 -1179l576 1179h118l203 -1179l570 1179h155l-713 -1474h-112z" />
    <glyph glyph-name="wcircumflex" unicode="&#x175;" horiz-adv-x="1679" vert-adv-y="2007" 
d="M1124 1427l-227 -215h-184l397 379h82l278 -379h-184zM1022 768l-420 -825h-123l-200 1106h155l152 -830l426 828h110l164 -828l414 830h155l-548 -1106h-123z" />
    <glyph glyph-name="Ycircumflex" unicode="&#x176;" horiz-adv-x="1474" vert-adv-y="2007" 
d="M1077 1761l-227 -215h-184l397 379h82l278 -379h-184zM952 504l-88 -555h-147l88 555l-494 919h178l412 -774l658 774h178z" />
    <glyph glyph-name="ycircumflex" unicode="&#x177;" horiz-adv-x="1251" vert-adv-y="2007" 
d="M909 1397l-227 -215h-184l397 379h82l278 -379h-184zM1438 1047l-926 -1446h-160l256 399l-340 1047h164l283 -879l563 879h160z" />
    <glyph glyph-name="Ydieresis" unicode="&#x178;" horiz-adv-x="1474" vert-adv-y="2007" 
d="M874 1636q-43 0 -68.5 30t-19.5 71q7 41 42.5 70.5t76.5 29.5q42 0 67.5 -29.5t18.5 -70.5q-6 -41 -40 -71t-77 -30zM1243 1636q-43 0 -68.5 30t-19.5 71q7 41 42.5 70.5t76.5 29.5q42 0 67.5 -29.5t18.5 -70.5q-6 -41 -40 -71t-77 -30zM952 504l-88 -555h-147l88 555
l-494 919h178l412 -774l658 774h178z" />
    <glyph glyph-name="Zacute" unicode="&#x179;" horiz-adv-x="1261" vert-adv-y="2007" 
d="M1237 1927l-326 -381h-168l322 381h172zM1266 92l-23 -143h-1118l14 94l1096 1237h-870l22 143h1090l-15 -92l-1097 -1239h901z" />
    <glyph glyph-name="zacute" unicode="&#x17a;" horiz-adv-x="1083" vert-adv-y="2007" 
d="M1026 1559l-326 -381h-168l322 381h172zM1087 92l-22 -143h-940l16 106l836 848h-678l23 144h899l-17 -107l-835 -848h718z" />
    <glyph glyph-name="Zcaron" unicode="&#x17d;" horiz-adv-x="1261" vert-adv-y="2007" 
d="M1346 1925l-398 -379h-82l-278 379h184l160 -215l229 215h185zM1266 92l-23 -143h-1118l14 94l1096 1237h-870l22 143h1090l-15 -92l-1097 -1239h901z" />
    <glyph glyph-name="zcaron" unicode="&#x17e;" horiz-adv-x="1083" vert-adv-y="2007" 
d="M1229 1554l-398 -378h-81l-279 378h184l160 -215l229 215h185zM1087 92l-22 -143h-940l16 106l836 848h-678l23 144h899l-17 -107l-835 -848h718z" />
    <glyph glyph-name="florin" unicode="&#x192;" horiz-adv-x="1181" vert-adv-y="2007" 
d="M27 -389q-124 0 -181 92l111 129q14 -43 35 -60.5t59 -17.5q57 0 103.5 37t66.5 98l248 725h-268l22 144h297l107 323q57 167 183 265t284 98q174 0 262 -137l-119 -109q-28 54 -68 78t-104 24q-101 0 -179 -62.5t-118 -176.5l-102 -303h444l-23 -144h-473l-249 -745
q-41 -116 -134.5 -187t-203.5 -71z" />
    <glyph glyph-name="circumflex" unicode="&#x2c6;" vert-adv-y="2007" 
d="M965 1761l-228 -215h-184l397 379h82l279 -379h-185z" />
    <glyph glyph-name="caron" unicode="&#x2c7;" vert-adv-y="2007" 
d="M1346 1925l-398 -379h-82l-278 379h184l160 -215l229 215h185z" />
    <glyph glyph-name="breve" unicode="&#x2d8;" vert-adv-y="2007" 
d="M850 1098q-146 0 -217 100.5t-27 245.5h142q-34 -87 2.5 -147t121.5 -60t141 60t50 147h141q-1 -145 -104.5 -245.5t-249.5 -100.5z" />
    <glyph glyph-name="dotaccent" unicode="&#x2d9;" vert-adv-y="2007" 
d="M926 1577q-43 0 -68 29.5t-18 70.5q6 41 40.5 71t75.5 30t67.5 -30t20.5 -71q-8 -42 -42 -71t-76 -29z" />
    <glyph glyph-name="ring" unicode="&#x2da;" vert-adv-y="2007" 
d="M922 1546q-95 0 -153.5 67t-43.5 161t94 160.5t174 66.5t152.5 -66.5t42.5 -160.5t-93 -161t-173 -67zM942 1686q38 0 69.5 25.5t37.5 62.5t-17 62.5t-61 25.5t-69.5 -25.5t-37.5 -62.5t17 -62.5t61 -25.5z" />
    <glyph glyph-name="ogonek" unicode="&#x2db;" vert-adv-y="2007" 
d="M594 -440q-94 0 -141.5 56.5t-32.5 150.5q12 74 60.5 135.5t176.5 165.5l150 -41q-147 -117 -192 -165t-52 -95q-6 -35 5.5 -49.5t45.5 -14.5q18 0 58 12l73 19l23 -131q-83 -28 -114 -35.5t-60 -7.5z" />
    <glyph glyph-name="tilde" unicode="&#x2dc;" vert-adv-y="2007" 
d="M1042 1546q-34 0 -66.5 13t-48 25t-40.5 34q-20 19 -28 25.5t-21 13t-27 6.5q-61 0 -55 -111h-150q-2 106 63 179t162 73q34 0 66 -13t47.5 -24.5t40.5 -33.5q29 -26 44.5 -35.5t35.5 -9.5q28 0 40.5 27t12.5 87h146q2 -107 -62.5 -181.5t-159.5 -74.5z" />
    <glyph glyph-name="hungarumlaut" unicode="&#x2dd;" vert-adv-y="2007" 
d="M1108 1925l-336 -379h-166l318 379h184zM1352 1925l-330 -379h-166l315 379h181z" />
    <glyph glyph-name="Wgrave" unicode="&#x1e80;" horiz-adv-x="2076" vert-adv-y="2007" 
d="M1364 1958l203 -381h-168l-207 381h172zM1282 1145l-586 -1196h-112l-246 1474h156l196 -1179l576 1179h118l203 -1179l570 1179h155l-713 -1474h-112z" />
    <glyph glyph-name="wgrave" unicode="&#x1e81;" horiz-adv-x="1679" vert-adv-y="2007" 
d="M1110 1599l203 -380h-168l-207 380h172zM1022 768l-420 -825h-123l-200 1106h155l152 -830l426 828h110l164 -828l414 830h155l-548 -1106h-123z" />
    <glyph glyph-name="Wacute" unicode="&#x1e82;" horiz-adv-x="2076" vert-adv-y="2007" 
d="M1626 1958l-326 -381h-167l321 381h172zM1282 1145l-586 -1196h-112l-246 1474h156l196 -1179l576 1179h118l203 -1179l570 1179h155l-713 -1474h-112z" />
    <glyph glyph-name="wacute" unicode="&#x1e83;" horiz-adv-x="1679" vert-adv-y="2007" 
d="M1364 1556l-326 -380h-168l322 380h172zM1022 768l-420 -825h-123l-200 1106h155l152 -830l426 828h110l164 -828l414 830h155l-548 -1106h-123z" />
    <glyph glyph-name="Wdieresis" unicode="&#x1e84;" horiz-adv-x="2076" vert-adv-y="2007" 
d="M1169 1593q-43 0 -68.5 30t-19.5 71q7 41 42.5 70.5t76.5 29.5q42 0 67.5 -29.5t18.5 -70.5q-6 -41 -40 -71t-77 -30zM1538 1593q-43 0 -68.5 30t-19.5 71q7 41 42.5 70.5t76.5 29.5q42 0 67.5 -29.5t18.5 -70.5q-6 -41 -40 -71t-77 -30zM1282 1145l-586 -1196h-112
l-246 1474h156l196 -1179l576 1179h118l203 -1179l570 1179h155l-713 -1474h-112z" />
    <glyph glyph-name="wdieresis" unicode="&#x1e85;" horiz-adv-x="1679" vert-adv-y="2007" 
d="M911 1223q-43 0 -68.5 29.5t-19.5 70.5q7 41 42.5 70.5t76.5 29.5q42 0 67.5 -29.5t18.5 -70.5q-6 -41 -40 -70.5t-77 -29.5zM1280 1223q-43 0 -68.5 29.5t-19.5 70.5q7 41 42.5 70.5t76.5 29.5q42 0 67.5 -29.5t18.5 -70.5q-6 -41 -40 -70.5t-77 -29.5zM1022 768
l-420 -825h-123l-200 1106h155l152 -830l426 828h110l164 -828l414 830h155l-548 -1106h-123z" />
    <glyph glyph-name="endash" unicode="&#x2013;" horiz-adv-x="1392" vert-adv-y="2007" 
d="M1354 594l-23 -143h-1126l22 143h1127z" />
    <glyph glyph-name="emdash" unicode="&#x2014;" horiz-adv-x="2252" vert-adv-y="2007" 
d="M2214 594l-23 -143h-1986l22 143h1987z" />
    <glyph glyph-name="quoteleft" unicode="&#x2018;" horiz-adv-x="569" vert-adv-y="2007" 
d="M678 1423l-275 -630h-149l10 65l268 565h146z" />
    <glyph glyph-name="quoteright" unicode="&#x2019;" horiz-adv-x="569" vert-adv-y="2007" 
d="M655 1358l-268 -565h-145l274 630h150z" />
    <glyph glyph-name="quotesinglbase" unicode="&#x201a;" horiz-adv-x="569" vert-adv-y="2007" 
d="M479 244l-268 -566h-145l274 631h149z" />
    <glyph glyph-name="quotedblleft" unicode="&#x201c;" horiz-adv-x="856" vert-adv-y="2007" 
d="M678 1423l-275 -630h-149l10 65l268 565h146zM965 1423l-275 -630h-149l10 65l268 565h146z" />
    <glyph glyph-name="quotedblright" unicode="&#x201d;" horiz-adv-x="856" vert-adv-y="2007" 
d="M655 1358l-268 -565h-145l274 630h150zM942 1358l-268 -565h-146l275 630h149z" />
    <glyph glyph-name="quotedblbase" unicode="&#x201e;" horiz-adv-x="856" vert-adv-y="2007" 
d="M479 244l-268 -566h-145l274 631h149zM766 244l-268 -566h-146l275 631h149z" />
    <glyph glyph-name="dagger" unicode="&#x2020;" horiz-adv-x="757" vert-adv-y="2007" 
d="M647 1237l-78 -481h-143l78 481h-225l22 145h225l29 185h143l-28 -185h225l-23 -145h-225z" />
    <glyph glyph-name="daggerdbl" unicode="&#x2021;" horiz-adv-x="757" vert-adv-y="2007" 
d="M600 940l-31 -184h-143l31 184h-226l23 145h225l25 152h-225l22 145h225l29 185h143l-28 -185h225l-23 -145h-225l-24 -152h225l-23 -145h-225z" />
    <glyph glyph-name="bullet" unicode="&#x2022;" horiz-adv-x="886" vert-adv-y="2007" 
d="M481 250q-132 0 -207 85.5t-55 213.5q20 124 125.5 212.5t233.5 88.5q129 0 205.5 -88t56.5 -213q-20 -127 -123.5 -213t-235.5 -86z" />
    <glyph glyph-name="ellipsis" unicode="&#x2026;" horiz-adv-x="1167" vert-adv-y="2007" 
d="M227 -55q-43 0 -68.5 29.5t-19.5 70.5q7 41 42.5 70.5t76.5 29.5q42 0 67.5 -29.5t18.5 -70.5q-6 -41 -40 -70.5t-77 -29.5zM575 -55q-43 0 -68.5 29.5t-19.5 70.5q7 41 42.5 70.5t76.5 29.5q42 0 67.5 -29.5t18.5 -70.5q-6 -41 -40 -70.5t-77 -29.5zM924 -55
q-43 0 -68.5 29.5t-19.5 70.5q8 41 42.5 70.5t75.5 29.5q42 0 67.5 -29.5t18.5 -70.5q-6 -41 -39.5 -70.5t-76.5 -29.5z" />
    <glyph glyph-name="perthousand" unicode="&#x2030;" horiz-adv-x="2662" vert-adv-y="2007" 
d="M625 702q-158 0 -252.5 107.5t-69.5 261.5q25 158 152 265.5t288 107.5q163 0 255 -106.5t67 -266.5q-25 -155 -152.5 -262t-287.5 -107zM1802 1423l-1358 -1474h-174l1358 1474h174zM647 844q101 0 182.5 66t96.5 161q15 98 -44.5 167t-160.5 69t-183.5 -69t-97.5 -167
q-15 -94 46 -160.5t161 -66.5zM1358 -72q-158 0 -252.5 107.5t-69.5 261.5q25 158 152 265.5t289 107.5q163 0 254.5 -106.5t66.5 -266.5q-25 -155 -152.5 -262t-287.5 -107zM2136 -72q-158 0 -252 107.5t-69 261.5q25 158 152 265.5t288 107.5q163 0 254.5 -106.5
t66.5 -266.5q-25 -155 -152.5 -262t-287.5 -107zM1380 70q101 0 182.5 66t96.5 161q15 98 -44.5 166.5t-160.5 68.5t-183 -68.5t-97 -166.5q-15 -94 45.5 -160.5t160.5 -66.5zM2159 70q101 0 182 66t96 161q15 98 -44.5 166.5t-160.5 68.5t-183 -68.5t-97 -166.5
q-15 -94 46 -160.5t161 -66.5z" />
    <glyph glyph-name="guilsinglleft" unicode="&#x2039;" horiz-adv-x="546" vert-adv-y="2007" 
d="M309 537l246 -416h-180l-240 416l373 415h180z" />
    <glyph glyph-name="guilsinglright" unicode="&#x203a;" horiz-adv-x="546" vert-adv-y="2007" 
d="M580 537l-371 -416h-180l377 416l-244 415h180z" />
    <glyph glyph-name="fraction" unicode="&#x2044;" horiz-adv-x="520" vert-adv-y="2007" 
d="M1135 1423l-1358 -1474h-174l1358 1474h174z" />
    <glyph glyph-name="Euro" unicode="&#x20ac;" horiz-adv-x="1769" vert-adv-y="2007" 
d="M1044 -70q-211 0 -339.5 137t-143.5 377h-266l22 144h244q1 9 5 43.5t7 54.5q3 23 9 43l6 33h-242l23 143h260q89 251 264.5 395t390.5 144q216 0 347 -148.5t134 -396.5l-145 -51q-1 213 -96.5 332.5t-261.5 119.5q-154 0 -282.5 -104t-201.5 -291h619l-66 -143h-596
l-4 -31q-6 -15 -10 -45q-8 -56 -10 -98h546l-57 -144h-489q19 -175 112.5 -272.5t243.5 -97.5q167 0 299 116.5t201 325.5l135 -43q-83 -249 -261.5 -396t-396.5 -147z" />
    <glyph glyph-name="uni2116" unicode="&#x2116;" horiz-adv-x="2674" vert-adv-y="2007" 
d="M2163 655q-164 0 -260 115t-70 281q26 165 158 279t297 114q166 0 260.5 -113t66.5 -280q-26 -169 -155.5 -282.5t-296.5 -113.5zM555 1151l-190 -1202h-148l234 1474h120l768 -1202l191 1202h147l-233 -1474h-121zM2185 799q104 0 186 72.5t99 179.5q17 106 -42 177.5
t-163 71.5q-101 0 -184.5 -72.5t-100.5 -176.5q-17 -106 42.5 -179t162.5 -73zM2515 547l-23 -144h-741l23 144h741z" />
    <glyph glyph-name="uni2117" unicode="&#x2117;" horiz-adv-x="1748" vert-adv-y="2007" 
d="M862 -72q-158 0 -289 58.5t-215 158.5t-120 240t-11 297q25 159 106 300t198 242.5t266.5 160.5t306.5 59t288 -59t215.5 -160.5t120.5 -242.5t11 -300q-34 -210 -160.5 -383t-316 -272t-400.5 -99zM887 72q171 0 323 80t254 220.5t129 311.5q20 129 -8.5 244t-96.5 197
t-173.5 130t-233.5 48q-170 0 -323 -81t-255.5 -223.5t-129.5 -314.5q-27 -171 31 -311.5t185 -220.5t298 -80zM803 516l-45 -283h-144l140 877h362q148 0 226.5 -82.5t58.5 -214.5q-22 -132 -126.5 -214.5t-252.5 -82.5h-219zM1094 973h-220l-49 -320h219q87 0 144 43
t69 117q11 74 -32.5 117t-130.5 43z" />
    <glyph glyph-name="trademark" unicode="&#x2122;" horiz-adv-x="1419" vert-adv-y="2007" 
d="M641 1286l-78 -498h-143l78 498h-203l22 137h670l150 -407l276 407h119l-100 -635h-142l45 289l-190 -284h-92l-101 284l-45 -289h-141l78 498h-203z" />
    <glyph glyph-name="minus" unicode="&#x2212;" horiz-adv-x="1310" vert-adv-y="2007" 
d="M1247 696l-22 -143h-963l23 143h962z" />
    <glyph glyph-name="approxequal" unicode="&#x2248;" horiz-adv-x="1310" vert-adv-y="2007" 
d="M999 684q-51 0 -101 13.5t-74 25t-66 35.5q-35 20 -56.5 30.5t-56 19.5t-72.5 9q-61 0 -122.5 -23.5t-83.5 -54.5l-70 31l14 90q46 44 126 72.5t159 28.5q49 0 97.5 -13t74 -25.5t66.5 -35.5q42 -22 60.5 -31.5t54 -19t73.5 -9.5q42 0 89.5 14t79 35.5t30.5 41.5l59 -11
l-25 -151q-51 -32 -121.5 -52t-134.5 -20zM944 336q-51 0 -101 13.5t-74.5 25.5t-66.5 35q-36 21 -57 31t-55 19t-72 9q-61 0 -123 -23.5t-84 -54.5l-69 31l14 90q46 44 125.5 72t159.5 28q49 0 97 -13t74 -25t66 -35q41 -22 60.5 -31.5t55 -19t73.5 -9.5q42 0 89 14
t78.5 35t30.5 41l60 -10l-23 -151q-53 -32 -123.5 -52t-134.5 -20z" />
    <glyph glyph-name="notequal" unicode="&#x2260;" horiz-adv-x="1310" vert-adv-y="2007" 
d="M635 389l-186 -225h-177l187 225h-223l22 143h320l186 226h-469l22 143h566l186 225h176l-186 -225h221l-23 -143h-317l-186 -226h467l-23 -143h-563z" />
    <glyph glyph-name="lessequal" unicode="&#x2264;" horiz-adv-x="970" vert-adv-y="2007" 
d="M948 434l-47 -291h-799l23 144h770l-725 331l14 95l863 344l-27 -160l-584 -231z" />
    <glyph glyph-name="greaterequal" unicode="&#x2265;" horiz-adv-x="970" vert-adv-y="2007" 
d="M936 287l-23 -144h-798l47 291l581 232l-510 231l27 160l752 -344l-15 -95l-831 -331h770z" />
    <glyph glyph-name="_Fontastica" horiz-adv-x="1615" vert-adv-y="2007" 
d="M391 535v-349h-201q-3 0 -4.5 2t-1.5 4v3v1206h906v-178h-699v-502h699v-186h-699zM1432 1401v-1215h-906v189h699v493h-699v193h699v340h207zM371 -2q-31 0 -51.5 20t-20.5 52q0 30 20.5 49.5t51.5 19.5t52 -19.5t21 -49.5q0 -31 -20.5 -51.5t-52.5 -20.5zM918 -2
q-33 0 -62 22l14 29q6 -7 21.5 -13.5t26.5 -6.5q4 0 9 1l5 1q4 4 4 8q0 6 -4 8q-10 7 -23 10q-10 2 -24 9q-8 0 -15 10q-6 9 -6 20q0 21 16.5 32t37.5 11q27 0 55 -14l-15 -29q-22 15 -40 15q-17 0 -17 -11q0 -8 25 -16q17 -3 24 -8q6 -2 17 -13q6 -9 6 -22
q0 -20 -16.5 -31.5t-38.5 -11.5zM1233 -2q-29 0 -49.5 20.5t-20.5 51.5q0 30 20.5 49.5t51.5 19.5q35 0 53 -24l-20 -25q-13 19 -33 19q-15 0 -26 -10.5t-11 -30.5q0 -13 4 -19q12 -18 33 -18q19 0 33 14l22 -20q-31 -27 -57 -27zM225 49v-47h-35v135h101v-28h-66v-31h60
v-29h-60zM496 82v-80h-35v135h31l63 -82l-2 82h35v-135h-31zM676 109v-107h-33v107h-41v28h117v-28h-43zM750 25l-11 -23h-34l57 135h35l57 -135h-37l-10 23h-57zM1055 109v-107h-37v107h-39v28h115v-28h-39zM1145 137v-135h-35v135h35zM1333 25l-8 -23h-37l58 135h36
l58 -135h-39l-8 23h-60zM371 29q16 0 26.5 12t10.5 27q0 5 -5 20q-9 21 -30 21q-17 0 -28 -11.5t-11 -27.5q0 -15 11 -28t26 -13zM797 51l-17 49l-20 -49h37zM1382 51l-18 49l-18 -49h36z" />
    <glyph glyph-name="_VendorID" horiz-adv-x="1273" vert-adv-y="2007" 
d="M860 791q-106 0 -172 55t-55 131h76q-17 -44 29.5 -80.5t121.5 -36.5q63 0 107.5 27t44.5 67q0 70 -160 95q-205 30 -205 155q0 69 59.5 113.5t147.5 44.5q98 0 161.5 -53t51.5 -125h-76q19 41 -24 73.5t-113 32.5q-58 0 -96.5 -24t-38.5 -60q0 -66 143 -88
q108 -15 164.5 -57t56.5 -107q0 -70 -63.5 -116.5t-159.5 -46.5zM588 1040h-332v-237h-72v547h424v-70h-352v-168h332v-72zM1083 311q0 -71 -63 -117.5t-160 -46.5q-104 0 -170.5 54.5t-56.5 130.5h76q-17 -43 29.5 -78t121.5 -35q63 0 107.5 26t44.5 64q0 73 -156 97
q-102 13 -155.5 53t-53.5 102q0 69 59.5 113.5t149.5 44.5q98 0 160.5 -53t50.5 -125h-76q19 40 -24 73t-111 33q-57 0 -97 -24.5t-40 -59.5q0 -32 36.5 -54.5t104.5 -31.5q223 -35 223 -166zM608 637h-352v-168h332v-72h-332v-239h-72v549h424v-70zM465 117q-2 -2 -2 -4v-2
h12v-11h-12v-37h-12v37h-7v9l7 2v4q0 7 6 10q0 4 10 4t14 -2l-4 -10q-4 2 -8 2t-4 -2zM774 129q6 0 6 -6v-6h-6q-8 0 -8 6t8 6zM600 121h8v-10h15v-11h-15v-22q0 -1 1 -2t1 -2h4h9v-11q-2 0 -6 -1t-7 -1q-2 0 -12 5q-4 4 -4 12v22h-4v6l6 5zM735 121h8v-10h15v-11h-15v-22
q0 -2 2 -4h13v-11q-1 0 -6 -1t-7 -1q-7 0 -12 5q-2 2 -2 12v22h-8v6l8 5zM653 113q3 0 15 -4q4 -8 4 -15v-31h-10l-3 5q-1 0 -6 -5q-2 -2 -10 -2l-10 5q-4 4 -4 12q0 7 6 10q4 4 16 4h6v2q0 8 -6 8q-4 0 -12 -4l-6 11q12 4 20 4zM858 113q6 0 14 -4q7 -7 7 -15v-31h-11l-2 5
l-6 -5q-2 -2 -8 -2q-2 0 -12 5q-4 2 -4 12q0 7 6 10q2 4 16 4h8v2q0 8 -8 8q-2 0 -14 -4l-4 11q12 4 18 4zM1083 109q7 -7 7 -15v-31h-15v29q0 4 -2 6q0 2 -6 2l-6 -2q-2 -2 -2 -12v-23h-15v29q0 2 -2 6q0 2 -4 2q-6 0 -8 -2q0 -2 -1 -6t-1 -8v-21h-12v48h10l2 -7q2 5 4 5
q4 2 10 2q12 0 15 -7h2q0 5 4 5l4 2h4q10 0 12 -2zM248 90l6 21h12l-12 -48h-16l-5 17l-4 20l-8 -37h-14l-14 48h14l4 -21l4 -16v8l2 6l4 23h17l4 -23q2 -2 2 -4v-4v-2v-4l2 8q0 1 1 4t1 4zM322 90l6 21h14l-16 -48h-13l-4 17l-4 20l-10 -37h-12l-15 48h13l6 -21q0 -3 1 -8
t1 -8l2 8v6l6 23h14l6 -23v-8q2 0 2 -2v-4q0 5 3 8v8zM397 90l6 21h13l-13 -48h-14l-4 17l-4 20h-2l-10 -37h-13l-12 48h12l4 -21q0 -3 1 -8t1 -8h3q0 6 2 8v6l4 23h16l4 -23q0 -1 1 -2t1 -2v-4v-2q2 -2 2 -4v8q0 1 1 4t1 4zM516 109q7 -7 8 -9q0 -2 1 -6.5t1 -7.5
q0 -9 -6 -18q-7 -7 -18 -7q-3 0 -13 5l-8 8v12q0 14 4 20q10 5 17 5q10 0 14 -2zM575 106q7 -4 7 -12v-31h-15v29v6q-2 2 -8 2q-4 0 -6 -2q-2 -4 -2 -14v-21h-14v48h10l2 -7q5 5 6 5q2 2 8 2q9 0 12 -5zM707 100h-7q-6 0 -6 -2t2 -2l11 -4l8 -4q0 -2 4 -6v-4q0 -8 -4 -12
q-10 -5 -17 -5q-6 0 -8 2q-5 0 -8 3v10q4 -2 8 -2q2 -2 8 -2q9 0 9 4v4h-5q-1 0 -3.5 1t-4.5 1l-6 4q-4 4 -4 6q-2 2 -2 6q0 8 6 11q2 2 14 2q13 0 17 -2l-4 -11q-2 2 -8 2zM780 63h-12v48h12v-48zM815 100q-10 0 -10 -14q0 -12 10 -12h6q2 0 6 4v-12q-3 -3 -6 -3
q-2 -2 -8 -2q-22 0 -22 25q0 11 6 20q10 5 18 5q10 0 14 -2l-4 -11q-1 0 -3 1t-3 1h-4zM938 100q-10 0 -10 -14q0 -12 10 -12h6q2 0 6 4v-12q-3 -3 -6 -3q-2 -2 -8 -2q-23 0 -23 25q0 9 7 20q10 5 18 5t14 -2l-4 -11q-1 0 -3 1t-3 1h-4zM993 109q9 -4 11 -9q2 -4 2 -14
q0 -9 -9 -18q-7 -7 -16 -7q-5 0 -10 5q-8 4 -8 8q-5 10 -5 12q0 9 7 20q10 5 16 5q10 0 12 -2zM510 76q2 4 2 10q0 8 -2 12q-2 2 -8 2t-6 -2q-2 -4 -2 -12q0 -6 2 -10q0 -2 6 -2t8 2zM989 76q2 4 2 10q0 8 -2 12q0 2 -8 2q-4 0 -6 -2q-2 -4 -2 -12q0 -6 2 -10q2 -2 6 -2
q8 0 8 2zM657 80v4h-2q-2 0 -5.5 -1t-4.5 -1q-2 0 -2 -4q0 -6 6 -6l6 2zM866 80v4h-6q-2 0 -4.5 -1t-3.5 -1q-2 0 -2 -4q0 -6 6 -6q1 0 3 1t3 1zM434 74q2 0 2 -6q0 -3 -2 -5l-4 -2q-4 0 -8 2v5v6q4 2 8 2t4 -2zM897 76q4 0 6 -2t2 -6q-2 -3 -2 -5q-2 -2 -6 -2t-4 2l-2 5
q0 6 2 6q0 2 4 2z" />
    </font>
</defs>
</svg>
