<?xml version="1.0" standalone="no"?>
<!DOCTYPE svg PUBLIC "-//W3C//DTD SVG 1.1//EN" "http://www.w3.org/Graphics/SVG/1.1/DTD/svg11.dtd" >
<svg xmlns="http://www.w3.org/2000/svg" xmlns:xlink="http://www.w3.org/1999/xlink" version="1.1">
<metadata>
Created by FontForge 20170731 at Sun Jan 23 15:08:56 2022
 By Aleksey,,,
Copyright (c) 2022 by Fontastica. All rights reserved.
</metadata>
<defs>
<font id="KrossNeueGrotesk-BookItalic" horiz-adv-x="1339" vert-adv-y="2048" >
  <font-face 
    font-family="Kross Neue Grotesk Book"
    font-weight="400"
    font-style="italic"
    font-stretch="normal"
    units-per-em="2048"
    panose-1="0 0 5 0 0 0 0 0 0 0"
    ascent="1638"
    descent="-410"
    x-height="1036"
    cap-height="1413"
    bbox="-381 -549 2755 2005"
    underline-thickness="102"
    underline-position="-307"
    slope="-9"
    unicode-range="U+000D-2265"
  />
<missing-glyph horiz-adv-x="1583" vert-adv-y="2007" 
d="M1516 1430l-228 -1436h-993l227 1436h994zM1364 1343h-719l275 -542zM1376 1214l-409 -501l250 -504h4l159 1005h-4zM592 1210h-4l-160 -999h4l412 502zM1163 84l-270 539l-447 -539h717z" />
    <glyph glyph-name="f_f.liga" unicode="ff" horiz-adv-x="1781" vert-adv-y="2007" 
d="M602 913l-151 -954h-125l151 954h-194l18 123h195l26 166q26 162 130.5 258t254.5 96q116 0 193 -57l-74 -113q-45 48 -135 48q-97 0 -162 -61.5t-82 -170.5l-26 -166h639l26 166q26 162 130.5 258t254.5 96q116 0 193 -57l-74 -113q-45 48 -135 48q-97 0 -162 -61.5
t-82 -170.5l-27 -166h424l-18 -123h-424l-152 -954h-124l151 954h-639z" />
    <glyph glyph-name="f_t.liga" unicode="ft" horiz-adv-x="1787" vert-adv-y="2007" 
d="M1397 -61q-135 0 -206.5 87t-49.5 226l106 661h-645l-151 -954h-125l151 954h-194l18 123h195l26 166q26 162 130.5 258t254.5 96q116 0 193 -57l-74 -113q-45 48 -135 48q-97 0 -162 -61.5t-82 -170.5l-26 -166h645l53 336h125l-53 -336h389l-19 -123h-389l-106 -661
q-13 -88 28.5 -139.5t124.5 -51.5q95 0 195 97l57 -101q-124 -118 -274 -118z" />
    <glyph glyph-name="t_t.liga" unicode="tt" horiz-adv-x="1824" vert-adv-y="2007" 
d="M651 -61q-135 0 -206.5 87t-49.5 226l107 661h-219l18 123h219l53 336h125l-53 -336h658l53 336h125l-54 -336h390l-19 -123h-389l-106 -661q-13 -88 28.5 -139.5t124.5 -51.5q95 0 195 97l57 -101q-124 -118 -274 -118q-135 0 -206.5 87t-49.5 226l106 661h-657
l-107 -661q-13 -88 29 -139.5t125 -51.5q94 0 194 97l58 -101q-124 -118 -275 -118z" />
    <glyph glyph-name=".notdef" horiz-adv-x="1583" vert-adv-y="2007" 
d="M1516 1430l-228 -1436h-993l227 1436h994zM1364 1343h-719l275 -542zM1376 1214l-409 -501l250 -504h4l159 1005h-4zM592 1210h-4l-160 -999h4l412 502zM1163 84l-270 539l-447 -539h717z" />
    <glyph glyph-name=".null" horiz-adv-x="0" vert-adv-y="0" 
 />
    <glyph glyph-name="nonmarkingreturn" horiz-adv-x="682" 
 />
    <glyph glyph-name="NULL" horiz-adv-x="110" vert-adv-y="2007" 
 />
    <glyph glyph-name="NULL" horiz-adv-x="110" vert-adv-y="2007" 
 />
    <glyph glyph-name="CR" unicode="&#xd;" horiz-adv-x="110" vert-adv-y="2007" 
 />
    <glyph glyph-name="space" unicode=" " horiz-adv-x="643" vert-adv-y="2007" 
 />
    <glyph glyph-name="exclam" unicode="!" horiz-adv-x="622" vert-adv-y="2007" 
d="M598 1413l-172 -1087h-125l172 1087h125zM305 -45q-38 0 -61 26t-19 64q6 37 37.5 63.5t69.5 26.5t61 -26.5t17 -63.5q-4 -38 -35 -64t-70 -26z" />
    <glyph glyph-name="quotedbl" unicode="&#x22;" horiz-adv-x="624" vert-adv-y="2007" 
d="M485 1413l-96 -610h-125l96 610h125zM711 1413l-97 -610h-125l97 610h125z" />
    <glyph glyph-name="numbersign" unicode="#" horiz-adv-x="1472" vert-adv-y="2007" 
d="M496 344l-162 -385h-131l162 385h-226l49 123h226l174 418h-226l58 123h221l168 405h131l-168 -405h420l168 405h131l-168 -405h225l-57 -123h-221l-174 -418h225l-49 -123h-225l-162 -385h-131l161 385h-419zM1139 885h-420l-174 -418h420z" />
    <glyph glyph-name="dollar" unicode="$" horiz-adv-x="1284" vert-adv-y="2007" 
d="M713 -4l-39 -242h-125l39 248q-196 22 -302.5 141t-84.5 295l133 37q-26 -137 49 -231t225 -117l82 520l-94 23q-298 73 -258 325q25 158 153 261.5t314 117.5l39 244h125l-39 -246q174 -20 270.5 -128t77.5 -265l-125 -37q17 122 -49 203t-195 100l-78 -500l101 -24
q48 -11 86 -24t81.5 -39.5t70 -60.5t40 -89t2.5 -123q-26 -167 -162.5 -272.5t-336.5 -116.5zM657 791l54 -13l75 471q-132 -12 -217 -79t-102 -173q-12 -84 29.5 -130t160.5 -76zM889 596l-78 18l-78 -491q143 8 237 78t113 182q13 89 -31 138t-163 75z" />
    <glyph glyph-name="percent" unicode="%" horiz-adv-x="1871" vert-adv-y="2007" 
d="M621 713q-154 0 -246.5 104.5t-67.5 253.5q25 154 147.5 258.5t280.5 104.5q160 0 249.5 -104t64.5 -259q-25 -151 -149 -254.5t-279 -103.5zM1769 1413l-1337 -1454h-149l1337 1454h149zM639 834q106 0 191 69t100 168q15 103 -46.5 174.5t-166.5 71.5
q-106 0 -192 -72.5t-101 -173.5q-15 -98 48 -167.5t167 -69.5zM1354 -61q-154 0 -245.5 104.5t-68.5 253.5q25 154 147.5 258t280.5 104q160 0 249.5 -103.5t64.5 -258.5q-25 -151 -149 -254.5t-279 -103.5zM1374 59q106 0 190 69t99 169q17 103 -45 174.5t-168 71.5
t-192 -72.5t-101 -173.5q-15 -98 49 -168t168 -70z" />
    <glyph glyph-name="ampersand" unicode="&#x26;" horiz-adv-x="1589" vert-adv-y="2007" 
d="M1274 254l258 -236l-88 -96l-254 232q-103 -103 -237.5 -159t-280.5 -56q-228 0 -351 116.5t-92 306.5q20 128 107.5 238t222.5 176q-82 133 -61 277q28 169 155.5 275t302.5 106q177 0 270 -108t74 -292l-126 -37q20 153 -41.5 234.5t-196.5 81.5q-122 0 -208 -71.5
t-103 -186.5q-10 -62 3 -117t58 -118t101 -120.5t157 -150.5l242 -219q79 127 102 274l19 115h123l-19 -115q-30 -192 -137 -350zM692 59q116 0 223 44t189 124l-250 230q-140 122 -225 225q-242 -106 -277 -320q-22 -137 70.5 -220t269.5 -83z" />
    <glyph glyph-name="quotesingle" unicode="'" horiz-adv-x="399" vert-adv-y="2007" 
d="M485 1413l-96 -610h-125l96 610h125z" />
    <glyph glyph-name="parenleft" unicode="(" horiz-adv-x="804" vert-adv-y="2007" 
d="M643 -139l-100 -86q-183 188 -251.5 411.5t-25.5 497.5q43 275 183 499t385 410l67 -92q-222 -171 -345 -369.5t-163 -447.5q-40 -251 20.5 -450.5t229.5 -372.5z" />
    <glyph glyph-name="parenright" unicode=")" horiz-adv-x="804" vert-adv-y="2007" 
d="M193 -225l-76 86q224 173 348 372.5t164 450.5q40 248 -21 446.5t-229 370.5l96 92q186 -186 255 -409.5t26 -499.5q-43 -273 -182 -497t-381 -412z" />
    <glyph glyph-name="asterisk" unicode="*" horiz-adv-x="942" vert-adv-y="2007" 
d="M694 1026l-43 -281h-123l43 281l-264 -137l-53 100l272 144l-225 141l82 100l223 -137l43 279h123l-43 -279l264 137l54 -100l-271 -141l223 -144l-81 -100z" />
    <glyph glyph-name="plus" unicode="+" horiz-adv-x="1298" vert-adv-y="2007" 
d="M801 563l-66 -409h-123l66 409h-410l19 123h409l66 410h123l-66 -410h410l-19 -123h-409z" />
    <glyph glyph-name="comma" unicode="," horiz-adv-x="454" vert-adv-y="2007" 
d="M381 246l-264 -557h-123l264 610h131z" />
    <glyph glyph-name="hyphen" unicode="-" horiz-adv-x="1007" vert-adv-y="2007" 
d="M963 584l-19 -123h-733l18 123h734z" />
    <glyph glyph-name="period" unicode="." horiz-adv-x="458" vert-adv-y="2007" 
d="M223 -45q-38 0 -61 26t-19 64q6 37 37.5 63.5t69.5 26.5t61 -26.5t17 -63.5q-4 -38 -35 -64t-70 -26z" />
    <glyph glyph-name="slash" unicode="/" horiz-adv-x="761" vert-adv-y="2007" 
d="M999 1556l-895 -1744h-127l895 1744h127z" />
    <glyph glyph-name="zero" unicode="0" horiz-adv-x="1449" vert-adv-y="2007" 
d="M715 -61q-130 0 -231 54t-161 152.5t-82.5 236t5.5 304.5q53 333 248.5 540.5t457.5 207.5q173 0 292 -94t165.5 -264t11.5 -390t-135.5 -390.5t-249 -263.5t-321.5 -93zM735 63q207 0 361 171t198 452q44 282 -55.5 453.5t-306.5 171.5t-361 -171.5t-198 -453.5
q-44 -281 55.5 -452t306.5 -171z" />
    <glyph glyph-name="one" unicode="1" horiz-adv-x="796" vert-adv-y="2007" 
d="M883 1413l-230 -1454h-127l203 1280l-434 -240l24 150l484 264h80z" />
    <glyph glyph-name="two" unicode="2" horiz-adv-x="1269" vert-adv-y="2007" 
d="M1145 82l-19 -123h-995l12 86l605 471q109 82 169 132.5t112 107.5t76.5 109t35.5 118q23 149 -59 238.5t-242 89.5q-175 0 -292 -112.5t-130 -295.5l-127 15q29 229 187.5 372.5t381.5 143.5q214 0 326 -125t80 -326q-11 -69 -37.5 -130t-59.5 -109.5t-93.5 -107
t-113 -102t-143.5 -114.5l-438 -338h764z" />
    <glyph glyph-name="three" unicode="3" horiz-adv-x="1298" vert-adv-y="2007" 
d="M659 -61q-241 0 -364.5 146t-83.5 384l131 25q-40 -197 52.5 -315t285.5 -118q166 0 279.5 85.5t136.5 228.5q20 129 -64 201.5t-256 72.5h-221l20 121h220q153 0 252 68.5t118 185.5q22 130 -61 208.5t-242 78.5q-177 0 -294 -107t-140 -291l-123 25q34 223 194 359.5
t386 136.5q211 0 322.5 -113.5t82.5 -296.5q-15 -101 -76.5 -181t-158.5 -126q100 -47 142.5 -134t23.5 -206q-31 -195 -186.5 -316.5t-375.5 -121.5z" />
    <glyph glyph-name="four" unicode="4" horiz-adv-x="1458" vert-adv-y="2007" 
d="M1116 342l-59 -383h-127l59 383h-799l19 111l975 960h102l-149 -948h258l-21 -123h-258zM1010 465l114 723l-735 -723h621z" />
    <glyph glyph-name="five" unicode="5" horiz-adv-x="1296" vert-adv-y="2007" 
d="M649 -61q-241 0 -362 149t-74 387l133 25q-49 -196 41 -317.5t283 -121.5q171 0 287 89.5t139 240.5q23 148 -53 222.5t-252 74.5h-451l162 725h837l-18 -123h-721l-104 -479h317q227 0 333.5 -109.5t74.5 -310.5q-32 -202 -190.5 -327t-381.5 -125z" />
    <glyph glyph-name="six" unicode="6" horiz-adv-x="1333" vert-adv-y="2007" 
d="M686 -61q-268 0 -384.5 181t-63.5 513q60 378 244 589.5t454 211.5q178 0 284.5 -94.5t112.5 -256.5l-129 -24q-1 118 -78.5 185t-212.5 67q-94 0 -174 -34.5t-137 -91t-103 -136t-74.5 -161.5t-47.5 -175q85 100 209 156.5t258 56.5q220 0 338 -137.5t84 -354.5
q-35 -218 -197 -356.5t-383 -138.5zM707 63q165 0 286.5 104t147.5 267q25 163 -63.5 265t-254.5 102q-170 0 -299 -106t-155 -267q-25 -158 71.5 -261.5t266.5 -103.5z" />
    <glyph glyph-name="seven" unicode="7" horiz-adv-x="1259" vert-adv-y="2007" 
d="M1335 1339l-837 -1380h-140l813 1331h-829l18 123h986z" />
    <glyph glyph-name="eight" unicode="8" horiz-adv-x="1337" vert-adv-y="2007" 
d="M662 -61q-240 0 -369 113.5t-100 299.5q20 124 101 217.5t212 143.5q-99 48 -143 133t-25 198q28 177 181.5 283.5t379.5 106.5q221 0 340.5 -107.5t91.5 -282.5q-19 -114 -88.5 -199t-183.5 -132q114 -47 165 -141.5t31 -219.5q-29 -186 -192.5 -299.5t-400.5 -113.5z
M793 776q167 0 280 73t133 195q19 120 -70.5 193.5t-256.5 73.5q-170 0 -283.5 -73.5t-132.5 -193.5q-22 -120 69.5 -194t260.5 -74zM680 66q181 0 302.5 78.5t141.5 207.5q22 131 -73.5 210t-276.5 79t-304.5 -80t-145.5 -209q-20 -129 77.5 -207.5t278.5 -78.5z" />
    <glyph glyph-name="nine" unicode="9" horiz-adv-x="1333" vert-adv-y="2007" 
d="M614 -61q-178 0 -284.5 94t-112.5 256l129 24q1 -118 78.5 -185t212.5 -67q94 0 174 34.5t137.5 91t103.5 136t74.5 161.5t47.5 175q-85 -100 -208.5 -156.5t-256.5 -56.5q-220 0 -338.5 138t-83.5 354q34 219 195 357.5t382 138.5q268 0 385 -181.5t64 -513.5
q-60 -378 -244.5 -589t-454.5 -211zM727 571q170 0 299.5 106t155.5 267q25 158 -71.5 261.5t-266.5 103.5q-166 0 -286.5 -104t-145.5 -267q-26 -163 61.5 -265t253.5 -102z" />
    <glyph glyph-name="colon" unicode=":" horiz-adv-x="458" vert-adv-y="2007" 
d="M350 758q-38 0 -61 26t-17 64q4 37 36.5 63.5t70.5 26.5t60.5 -26.5t17.5 -63.5q-6 -38 -37 -64t-70 -26zM223 -45q-38 0 -61 26t-19 64q6 37 37.5 63.5t69.5 26.5t61 -26.5t17 -63.5q-4 -38 -35 -64t-70 -26z" />
    <glyph glyph-name="semicolon" unicode=";" horiz-adv-x="503" vert-adv-y="2007" 
d="M395 758q-38 0 -61 26t-17 64q4 37 36.5 63.5t70.5 26.5t60.5 -26.5t17.5 -63.5q-6 -38 -37 -64t-70 -26zM381 246l-264 -557h-123l264 610h131z" />
    <glyph glyph-name="less" unicode="&#x3c;" horiz-adv-x="978" vert-adv-y="2007" 
d="M371 625l563 -303l-23 -138l-743 404l12 74l871 403l-21 -137z" />
    <glyph glyph-name="equal" unicode="=" horiz-adv-x="1298" vert-adv-y="2007" 
d="M1262 891l-21 -123h-942l20 123h943zM1202 522l-18 -123h-942l18 123h942z" />
    <glyph glyph-name="greater" unicode="&#x3e;" horiz-adv-x="978" vert-adv-y="2007" 
d="M1008 662l-13 -74l-870 -404l22 138l658 303l-561 303l20 137z" />
    <glyph glyph-name="question" unicode="?" horiz-adv-x="1155" vert-adv-y="2007" 
d="M709 532l-33 -206h-127l51 325h64q160 0 281.5 94.5t144.5 237.5q23 149 -59.5 238.5t-242.5 89.5q-173 0 -290.5 -115t-130.5 -299l-127 14q25 230 184 376.5t385 146.5q214 0 325.5 -125t79.5 -326q-29 -180 -169.5 -305.5t-335.5 -145.5zM555 -45q-38 0 -61 26t-19 64
q6 37 37.5 63.5t69.5 26.5t60.5 -26.5t16.5 -63.5q-4 -38 -34.5 -64t-69.5 -26z" />
    <glyph glyph-name="at" unicode="@" horiz-adv-x="2107" vert-adv-y="2007" 
d="M983 -274q-177 0 -324 66.5t-241.5 180t-135 272.5t-12.5 337q38 241 182.5 436t363.5 305.5t468 110.5q247 0 429 -108.5t264.5 -300.5t45.5 -429q-35 -226 -148 -360t-269 -134q-93 0 -153.5 43t-72.5 117q-72 -68 -162.5 -106.5t-185.5 -38.5q-189 0 -294 129.5
t-74 324.5q31 196 178 326.5t336 130.5q92 0 167 -35t123 -98l19 113h123l-107 -670q-9 -55 23.5 -87t95.5 -32q99 0 173.5 102.5t102.5 276.5q33 204 -37 368t-226 256.5t-369 92.5q-214 0 -401.5 -94t-311.5 -261.5t-158 -375.5q-33 -205 35 -374t218 -265.5t351 -96.5
q134 0 283.5 41t230.5 101l50 -109q-98 -67 -263 -111t-317 -44zM1053 236q136 0 238.5 94.5t125.5 242.5q23 145 -49.5 238.5t-208.5 93.5q-139 0 -244.5 -93.5t-128.5 -238.5q-23 -147 52.5 -242t214.5 -95z" />
    <glyph glyph-name="A" unicode="A" horiz-adv-x="1662" vert-adv-y="2007" 
d="M494 360l-250 -401h-138l906 1454h86l446 -1454h-137l-123 401h-790zM1243 483l-219 727l-453 -727h672z" />
    <glyph glyph-name="B" unicode="B" horiz-adv-x="1404" vert-adv-y="2007" 
d="M811 -41h-680l229 1454h629q207 0 313 -103t78 -280q-17 -105 -76.5 -191.5t-146.5 -133.5q98 -43 142.5 -132.5t25.5 -207.5q-28 -180 -171.5 -293t-342.5 -113zM971 1290h-502l-86 -534h547q130 0 220 74.5t110 199.5q19 123 -57 191.5t-232 68.5zM911 633h-546
l-89 -551h553q146 0 247.5 77.5t121.5 205.5q20 122 -58 195t-229 73z" />
    <glyph glyph-name="C" unicode="C" horiz-adv-x="1691" vert-adv-y="2007" 
d="M870 -61q-153 0 -281.5 58.5t-211.5 158t-119 238t-12 292.5t104 292.5t195 238.5t262.5 158.5t300.5 58.5q240 0 406 -118.5t210 -322.5l-125 -49q-32 169 -170.5 268t-341.5 99q-170 0 -324.5 -82.5t-258.5 -226.5t-131 -316q-20 -129 9.5 -245t98.5 -199t175.5 -132
t234.5 -49q202 0 369.5 98.5t255.5 268.5l112 -45q-110 -205 -314 -324.5t-444 -119.5z" />
    <glyph glyph-name="D" unicode="D" horiz-adv-x="1525" vert-adv-y="2007" 
d="M575 -41h-444l229 1454h445q239 0 408.5 -90.5t244 -255.5t39.5 -381q-53 -327 -306.5 -527t-615.5 -200zM784 1290h-315l-193 -1208h316q309 0 522 165t256 439t-117 439t-469 165z" />
    <glyph glyph-name="E" unicode="E" horiz-adv-x="1318" vert-adv-y="2007" 
d="M1194 82l-18 -123h-1045l229 1454h1045l-19 -123h-917l-86 -538h856l-18 -123h-856l-89 -547h918z" />
    <glyph glyph-name="F" unicode="F" horiz-adv-x="1298" vert-adv-y="2007" 
d="M365 629l-107 -670h-127l229 1454h1024l-18 -123h-897l-86 -538h836l-19 -123h-835z" />
    <glyph glyph-name="G" unicode="G" horiz-adv-x="1736" vert-adv-y="2007" 
d="M868 -61q-153 0 -281.5 58.5t-211 158t-118 238t-11.5 292.5q33 206 158 378t311 271t391 99q243 0 408 -119t206 -326l-123 -45q-34 170 -171 268.5t-341 98.5q-170 0 -324 -82.5t-257.5 -226t-130.5 -316.5q-20 -129 9.5 -245t98 -199t174.5 -132t234 -49
q239 0 429.5 158t250.5 406h-721l20 123h850l-10 -62q-34 -212 -154.5 -383t-301 -267.5t-384.5 -96.5z" />
    <glyph glyph-name="H" unicode="H" horiz-adv-x="1439" vert-adv-y="2007" 
d="M365 631l-107 -672h-127l229 1454h127l-104 -659h911l105 659h127l-230 -1454h-127l107 672h-911z" />
    <glyph glyph-name="I" unicode="I" horiz-adv-x="401" vert-adv-y="2007" 
d="M487 1413l-229 -1454h-127l229 1454h127z" />
    <glyph glyph-name="J" unicode="J" horiz-adv-x="1312" vert-adv-y="2007" 
d="M643 -61q-217 0 -338 138.5t-102 364.5l131 39q-22 -190 68 -304t262 -114q178 0 306 123t160 326l142 901h127l-142 -901q-41 -255 -211.5 -414t-402.5 -159z" />
    <glyph glyph-name="K" unicode="K" horiz-adv-x="1488" vert-adv-y="2007" 
d="M362 625l-104 -666h-127l229 1454h127l-104 -665h8l934 665h193l-1014 -729l842 -725h-201l-774 666h-9z" />
    <glyph glyph-name="L" unicode="L" horiz-adv-x="1267" vert-adv-y="2007" 
d="M1143 82l-19 -123h-993l229 1454h127l-211 -1331h867z" />
    <glyph glyph-name="M" unicode="M" horiz-adv-x="1787" vert-adv-y="2007" 
d="M436 1096l-180 -1137h-125l229 1454h107l453 -1263l847 1263h107l-229 -1454h-125l180 1137l-766 -1137h-92z" />
    <glyph glyph-name="N" unicode="N" horiz-adv-x="1480" vert-adv-y="2007" 
d="M451 1180l-193 -1221h-127l229 1454h107l780 -1220l193 1220h127l-230 -1454h-106z" />
    <glyph glyph-name="O" unicode="O" horiz-adv-x="1746" vert-adv-y="2007" 
d="M864 -61q-153 0 -280 58t-209.5 157.5t-117.5 238t-11 293.5q33 206 157.5 378t309.5 271t389 99q152 0 279 -58.5t209 -158.5t117 -238.5t11 -292.5q-32 -207 -157 -378.5t-309.5 -270t-387.5 -98.5zM885 61q126 0 246.5 49t214.5 132t159.5 199t85.5 245
q27 172 -31 316t-185 226.5t-294 82.5q-169 0 -322.5 -82.5t-256 -226t-129.5 -316.5t30.5 -316.5t185 -226t296.5 -82.5z" />
    <glyph glyph-name="P" unicode="P" horiz-adv-x="1361" vert-adv-y="2007" 
d="M350 549l-92 -590h-127l229 1454h601q214 0 332 -121t87 -311t-187 -311t-370 -121h-473zM942 1290h-473l-98 -618h473q161 0 274 86t135 223t-64 223t-247 86z" />
    <glyph glyph-name="Q" unicode="Q" horiz-adv-x="1767" vert-adv-y="2007" 
d="M1335 88l264 -385l-108 -82l-274 397q-165 -79 -353 -79q-153 0 -280 58t-209.5 157.5t-117.5 238t-11 293.5q33 206 157.5 378t309.5 271t389 99q152 0 279 -58.5t209 -158.5t117 -238.5t11 -292.5q-28 -178 -128.5 -335t-254.5 -263zM885 61q126 0 246.5 49t214.5 132
t159.5 199t85.5 245q27 172 -31 316t-185 226.5t-294 82.5q-169 0 -322.5 -82.5t-256 -226t-129.5 -316.5t30.5 -316.5t185 -226t296.5 -82.5z" />
    <glyph glyph-name="R" unicode="R" horiz-adv-x="1423" vert-adv-y="2007" 
d="M365 631l-107 -672h-127l229 1454h654q201 0 307 -107t78 -284t-167.5 -284t-340.5 -107h-62l500 -672h-172l-493 672h-299zM995 1290h-526l-86 -536h526q146 0 244.5 72.5t118.5 195.5t-55 195.5t-222 72.5z" />
    <glyph glyph-name="S" unicode="S" horiz-adv-x="1372" vert-adv-y="2007" 
d="M711 -61q-249 0 -390.5 132.5t-121.5 348.5l139 33q-31 -174 79 -283t316 -109q177 0 292 79t138 216q15 103 -31 154.5t-186 85.5l-315 80q-321 80 -277 350q29 182 183.5 295t373.5 113q217 0 343 -116t120 -312l-127 -39q8 160 -87.5 252t-270.5 92
q-161 0 -272.5 -78.5t-131.5 -206.5q-14 -96 34 -149t175 -82l293 -76q54 -12 95.5 -26.5t88.5 -43t75.5 -65t42.5 -95t3 -131.5q-31 -190 -190 -304.5t-391 -114.5z" />
    <glyph glyph-name="T" unicode="T" horiz-adv-x="1527" vert-adv-y="2007" 
d="M1034 1290l-211 -1331h-131l211 1331h-561l18 123h1254l-19 -123h-561z" />
    <glyph glyph-name="U" unicode="U" horiz-adv-x="1462" vert-adv-y="2007" 
d="M721 -61q-175 0 -297.5 80.5t-173.5 227.5t-21 337l131 829h127l-131 -829q-37 -236 68 -378.5t317 -142.5t362 142.5t187 378.5l131 829h127l-131 -829q-46 -289 -238 -467t-458 -178z" />
    <glyph glyph-name="V" unicode="V" horiz-adv-x="1609" vert-adv-y="2007" 
d="M1716 1413l-868 -1454h-98l-410 1454h133l358 -1243l752 1243h133z" />
    <glyph glyph-name="W" unicode="W" horiz-adv-x="2187" vert-adv-y="2007" 
d="M1280 1180l-596 -1221h-96l-244 1454h133l201 -1204l588 1204h102l207 -1204l582 1204h133l-703 -1454h-96z" />
    <glyph glyph-name="X" unicode="X" horiz-adv-x="1486" vert-adv-y="2007" 
d="M838 592l-588 -633h-160l678 731l-428 723h160l368 -620l566 620h159l-659 -723l450 -731h-159z" />
    <glyph glyph-name="Y" unicode="Y" horiz-adv-x="1585" vert-adv-y="2007" 
d="M936 508l-86 -549h-127l86 549l-485 905h151l418 -782l663 782h152z" />
    <glyph glyph-name="Z" unicode="Z" horiz-adv-x="1372" vert-adv-y="2007" 
d="M1247 82l-18 -123h-1098l12 80l1108 1251h-880l18 123h1069l-12 -78l-1110 -1253h911z" />
    <glyph glyph-name="bracketleft" unicode="[" horiz-adv-x="882" vert-adv-y="2007" 
d="M711 -86l-19 -123h-495l278 1765h496l-19 -122h-368l-242 -1520h369z" />
    <glyph glyph-name="backslash" unicode="\" horiz-adv-x="761" vert-adv-y="2007" 
d="M381 1556l342 -1744h-127l-342 1744h127z" />
    <glyph glyph-name="bracketright" unicode="]" horiz-adv-x="882" vert-adv-y="2007" 
d="M899 1556l-278 -1765h-496l18 123h369l242 1520h-369l18 122h496z" />
    <glyph glyph-name="asciicircum" unicode="^" horiz-adv-x="815" vert-adv-y="2007" 
d="M606 1249l-268 -305h-150l408 469h70l260 -469h-150z" />
    <glyph glyph-name="underscore" unicode="_" horiz-adv-x="1073" vert-adv-y="2007" 
d="M1006 -74l-19 -123h-962l18 123h963z" />
    <glyph glyph-name="grave" unicode="`" vert-adv-y="2007" 
d="M995 1917l191 -361h-142l-194 361h145z" />
    <glyph glyph-name="a" unicode="a" horiz-adv-x="1370" vert-adv-y="2007" 
d="M676 -61q-117 0 -212.5 42t-156.5 115.5t-86 177.5t-6 224q40 243 220.5 401t418.5 158q125 0 227 -51t164 -144l27 174h125l-170 -1077h-125l26 174q-89 -92 -207.5 -143t-244.5 -51zM696 61q180 0 320.5 125.5t169.5 311.5q31 186 -70.5 311t-281.5 125
q-185 0 -324 -123t-170 -313q-29 -191 71.5 -314t284.5 -123z" />
    <glyph glyph-name="b" unicode="b" horiz-adv-x="1370" vert-adv-y="2007" 
d="M674 -61q-126 0 -227.5 50.5t-163.5 143.5l-27 -174h-125l246 1557h125l-103 -654q89 92 208 143.5t245 51.5q117 0 212.5 -42t156 -115.5t85.5 -177.5t5 -224q-25 -160 -116 -288t-227.5 -199.5t-293.5 -71.5zM694 61q185 0 324 123.5t168 313.5q31 190 -69.5 313
t-285.5 123q-180 0 -320 -125t-171 -311q-29 -186 72.5 -311.5t281.5 -125.5z" />
    <glyph glyph-name="c" unicode="c" horiz-adv-x="1308" vert-adv-y="2007" 
d="M668 -61q-153 2 -265 74.5t-162 200t-26 284.5q25 155 117 283t229.5 202t290.5 74q195 -3 313 -105.5t138 -285.5l-119 -41q-15 150 -106 228.5t-249 80.5q-178 0 -318 -125t-171 -311q-29 -189 70 -312.5t282 -124.5q157 2 273 81t180 229l104 -41
q-78 -185 -230 -287.5t-351 -103.5z" />
    <glyph glyph-name="d" unicode="d" horiz-adv-x="1370" vert-adv-y="2007" 
d="M676 -61q-117 0 -212.5 42t-156.5 115.5t-86 177.5t-6 224q40 243 220.5 401t418.5 158q125 0 227 -51t164 -144l103 654h125l-246 -1557h-125l26 174q-89 -92 -207.5 -143t-244.5 -51zM696 61q180 0 320.5 125.5t169.5 311.5q31 186 -70.5 311t-281.5 125
q-185 0 -324 -123t-170 -313q-29 -191 71.5 -314t284.5 -123z" />
    <glyph glyph-name="e" unicode="e" horiz-adv-x="1347" vert-adv-y="2007" 
d="M668 -61q-149 0 -262 73.5t-164 201t-27 280.5q25 157 119 286.5t233.5 203t294.5 73.5q223 0 343 -147t89 -382l-10 -61h-948q-17 -173 84 -289.5t268 -116.5q158 0 275 79.5t182 230.5l104 -41q-78 -186 -231 -288.5t-350 -102.5zM365 590h809q2 157 -88 250.5
t-244 93.5q-156 0 -289.5 -96.5t-187.5 -247.5z" />
    <glyph glyph-name="f" unicode="f" horiz-adv-x="1017" vert-adv-y="2007" 
d="M602 913l-151 -954h-125l151 954h-194l18 123h195l26 166q26 162 130.5 258t254.5 96q116 0 193 -57l-74 -113q-45 48 -135 48q-97 0 -162 -61.5t-82 -170.5l-26 -166h423l-18 -123h-424z" />
    <glyph glyph-name="g" unicode="g" horiz-adv-x="1337" vert-adv-y="2007" 
d="M625 -430q-213 0 -337 93t-149 271l125 46q19 -146 112 -216.5t267 -70.5q172 0 292.5 100.5t149.5 269.5l21 127q-87 -84 -197.5 -130t-228.5 -46q-233 0 -363.5 148.5t-95.5 374.5q37 224 213.5 371t411.5 147q118 0 213.5 -45.5t154.5 -128.5l25 155h125l-154 -973
q-37 -221 -198 -357t-387 -136zM700 137q170 0 301.5 114t157.5 286q28 170 -67 282.5t-267 112.5q-182 0 -316.5 -111t-162.5 -284q-28 -175 72 -287.5t282 -112.5z" />
    <glyph glyph-name="h" unicode="h" horiz-adv-x="1241" vert-adv-y="2007" 
d="M344 518l-88 -559h-125l246 1557h125l-101 -639q85 87 195.5 133.5t232.5 46.5q198 0 299.5 -130t67.5 -341l-98 -627h-125l98 627q26 159 -44 253.5t-212 94.5q-185 0 -312.5 -113t-158.5 -303z" />
    <glyph glyph-name="i" unicode="i" horiz-adv-x="458" vert-adv-y="2007" 
d="M422 1210q-38 0 -61 26t-17 64q4 37 36.5 64t70.5 27t60 -27t17 -64q-6 -38 -37 -64t-69 -26zM457 1036l-170 -1077h-125l170 1077h125z" />
    <glyph glyph-name="j" unicode="j" horiz-adv-x="473" vert-adv-y="2007" 
d="M436 1210q-38 0 -61 26t-17 64q4 37 36.5 64t70.5 27t60.5 -27t17.5 -64q-6 -38 -37 -64t-70 -26zM-10 -410q-98 0 -166 62l76 110q43 -49 106 -49q61 0 100 33.5t50 95.5l188 1194h125l-188 -1194q-19 -112 -100 -182t-191 -70z" />
    <glyph glyph-name="k" unicode="k" horiz-adv-x="1353" vert-adv-y="2007" 
d="M334 451l-78 -492h-125l246 1557h125l-150 -943h27l698 463h215l-807 -528l721 -549h-229l-635 492h-8z" />
    <glyph glyph-name="l" unicode="l" horiz-adv-x="399" vert-adv-y="2007" 
d="M502 1516l-246 -1557h-125l246 1557h125z" />
    <glyph glyph-name="m" unicode="m" horiz-adv-x="1878" vert-adv-y="2007" 
d="M348 539l-92 -580h-125l170 1077h125l-23 -139q73 76 169.5 118t199.5 42q121 0 207 -55t117 -152q77 99 185.5 153t231.5 54q175 0 268.5 -108t65.5 -281l-112 -709h-125l112 709q19 121 -45 193.5t-190 72.5q-155 0 -264.5 -107.5t-137.5 -287.5l-92 -580h-125l113 709
q19 121 -44.5 193.5t-188.5 72.5q-154 0 -263 -107.5t-137 -287.5z" />
    <glyph glyph-name="n" unicode="n" horiz-adv-x="1241" vert-adv-y="2007" 
d="M344 518l-88 -559h-125l170 1077h125l-25 -159q85 87 195.5 133.5t232.5 46.5q198 0 299.5 -130t67.5 -341l-98 -627h-125l98 627q26 159 -44 253.5t-212 94.5q-185 0 -312.5 -113t-158.5 -303z" />
    <glyph glyph-name="o" unicode="o" horiz-adv-x="1390" vert-adv-y="2007" 
d="M684 -61q-156 0 -272 73t-168 202t-27 286q24 156 117 284t232.5 200.5t295.5 72.5q157 0 273.5 -72t169 -200t28.5 -285q-25 -157 -118.5 -286t-233.5 -202t-297 -73zM705 61q187 0 329.5 125t173.5 314q29 189 -74 311.5t-292 122.5q-187 0 -329 -123t-171 -311
q-31 -189 73 -314t290 -125z" />
    <glyph glyph-name="p" unicode="p" horiz-adv-x="1370" vert-adv-y="2007" 
d="M283 133l-82 -522h-125l225 1425h125l-27 -174q89 92 208 143.5t245 51.5q117 0 212.5 -42t156 -115.5t85.5 -177.5t5 -224q-25 -160 -116 -288t-227.5 -199.5t-293.5 -71.5q-126 0 -227.5 50.5t-163.5 143.5zM694 61q185 0 324 123.5t168 313.5q31 190 -69.5 313
t-285.5 123q-180 0 -320 -125t-171 -311q-29 -186 72.5 -311.5t281.5 -125.5z" />
    <glyph glyph-name="q" unicode="q" horiz-adv-x="1370" vert-adv-y="2007" 
d="M1397 1036l-226 -1425h-124l81 522q-89 -92 -207.5 -143t-244.5 -51q-117 0 -212.5 42t-156.5 115.5t-86 177.5t-6 224q40 243 220.5 401t418.5 158q125 0 227 -51t164 -144l27 174h125zM696 61q180 0 320.5 125.5t169.5 311.5q31 186 -70.5 311t-281.5 125
q-185 0 -324 -123t-170 -313q-29 -191 71.5 -314t284.5 -123z" />
    <glyph glyph-name="r" unicode="r" horiz-adv-x="919" vert-adv-y="2007" 
d="M344 518l-88 -559h-125l170 1077h125l-25 -159q85 87 195.5 133.5t232.5 46.5q59 0 125 -17l-49 -118q-41 12 -90 12q-185 0 -312.5 -113t-158.5 -303z" />
    <glyph glyph-name="s" unicode="s" horiz-adv-x="1144" vert-adv-y="2007" 
d="M590 -61q-203 0 -315 99.5t-95 264.5l127 27q-26 -120 58.5 -195.5t244.5 -75.5q132 0 215.5 53.5t98.5 145.5q10 66 -25.5 101.5t-134.5 58.5l-246 57q-133 31 -188.5 96t-38.5 172q23 140 146 227t296 87q169 0 269 -86.5t104 -237.5l-129 -28q6 107 -64.5 168
t-199.5 61q-121 0 -202 -52.5t-95 -138.5q-9 -63 26 -96.5t133 -56.5l232 -53q41 -10 73 -20.5t70 -32.5t61 -50t35 -73.5t3 -102.5q-23 -144 -149.5 -231.5t-309.5 -87.5z" />
    <glyph glyph-name="t" unicode="t" horiz-adv-x="1042" vert-adv-y="2007" 
d="M651 -61q-135 0 -206.5 87t-49.5 226l107 661h-219l18 123h219l53 336h125l-53 -336h389l-18 -123h-389l-107 -661q-13 -88 29 -139.5t125 -51.5q94 0 194 97l58 -101q-124 -118 -275 -118z" />
    <glyph glyph-name="u" unicode="u" horiz-adv-x="1241" vert-adv-y="2007" 
d="M569 -61q-198 0 -299 130t-67 341l98 626h125l-98 -626q-26 -159 44 -254t212 -95q185 0 312.5 113t158.5 303l88 559h125l-170 -1077h-125l24 160q-85 -87 -195.5 -133.5t-232.5 -46.5z" />
    <glyph glyph-name="v" unicode="v" horiz-adv-x="1345" vert-adv-y="2007" 
d="M1397 1036l-680 -1077h-101l-340 1077h142l278 -891l559 891h142z" />
    <glyph glyph-name="w" unicode="w" horiz-adv-x="1789" vert-adv-y="2007" 
d="M1022 799l-434 -846h-107l-196 1085h133l157 -850l437 848h94l170 -848l424 850h133l-541 -1085h-106z" />
    <glyph glyph-name="x" unicode="x" horiz-adv-x="1265" vert-adv-y="2007" 
d="M696 406l-448 -447h-166l547 539l-377 538h166l309 -446l449 446h165l-548 -538l378 -539h-165z" />
    <glyph glyph-name="y" unicode="y" horiz-adv-x="1361" vert-adv-y="2007" 
d="M1413 1036l-911 -1425h-137l249 389l-338 1036h142l287 -893l571 893h137z" />
    <glyph glyph-name="z" unicode="z" horiz-adv-x="1193" vert-adv-y="2007" 
d="M1069 82l-18 -123h-920l14 92l850 862h-690l19 123h878l-14 -92l-850 -862h731z" />
    <glyph glyph-name="braceleft" unicode="{" horiz-adv-x="1001" vert-adv-y="2007" 
d="M829 -86l-18 -123h-166q-129 0 -196.5 81t-47.5 212l58 358q12 78 -24.5 124t-110.5 46h-70l20 123h70q74 0 125 46t63 124l58 359q20 130 112.5 211t221.5 81h166l-19 -122h-166q-74 0 -125 -46t-63 -124l-58 -359q-22 -147 -139 -231q88 -82 66 -232l-58 -358
q-12 -78 25 -124t111 -46h165z" />
    <glyph glyph-name="bar" unicode="|" horiz-adv-x="585" vert-adv-y="2007" 
d="M602 1556l-276 -1744h-127l276 1744h127z" />
    <glyph glyph-name="braceright" unicode="}" horiz-adv-x="1001" vert-adv-y="2007" 
d="M291 -209h-166l18 123h166q74 0 125.5 46t63.5 124l57 358q10 70 46.5 131t92.5 101q-87 81 -65 231l57 359q12 78 -24.5 124t-110.5 46h-166l18 122h166q129 0 196.5 -81t47.5 -211l-57 -359q-12 -78 24.5 -124t110.5 -46h70l-21 -123h-70q-74 0 -125 -46t-63 -124
l-57 -358q-20 -131 -112.5 -212t-221.5 -81z" />
    <glyph glyph-name="asciitilde" unicode="~" horiz-adv-x="1036" vert-adv-y="2007" 
d="M778 457q-34 0 -64.5 8t-58.5 26t-44 30.5t-42 35.5q-31 28 -46 40.5t-40 24t-51 11.5q-62 0 -95.5 -46t-27.5 -122h-139q6 129 86 211t197 82q44 0 85 -16.5t61.5 -32t54.5 -45.5l4.5 -4.5t3.5 -2.5q30 -27 45.5 -39.5t40.5 -24t51 -11.5q60 0 93 45.5t30 126.5h137
q-6 -129 -85.5 -213t-195.5 -84z" />
    <glyph glyph-name="exclamdown" unicode="&#xa1;" horiz-adv-x="622" vert-adv-y="2007" 
d="M451 877q-38 0 -61 26.5t-17 63.5q6 38 37 64t69 26t61 -26t17 -64q-6 -37 -37 -63.5t-69 -26.5zM483 686l-172 -1087h-125l172 1087h125z" />
    <glyph glyph-name="cent" unicode="&#xa2;" horiz-adv-x="1288" vert-adv-y="2007" 
d="M719 -59l-39 -248h-125l41 250q-207 25 -316 180t-75 375q35 216 194.5 372.5t370.5 182.5l45 278h125l-43 -276q165 -17 271 -116t112 -243l-127 -49q3 110 -74 189t-202 94l-138 -867q131 14 231.5 88t129.5 179l112 -45q-51 -141 -186.5 -236t-306.5 -108zM614 66
l138 864q-159 -26 -277.5 -147t-144.5 -285q-26 -168 52.5 -287.5t231.5 -144.5z" />
    <glyph glyph-name="sterling" unicode="&#xa3;" horiz-adv-x="1437" vert-adv-y="2007" 
d="M1313 82l-19 -123h-1142l16 107l176 10l80 508h-174l20 123h174l41 262q32 207 185 336t364 129q221 0 333.5 -138.5t66.5 -355.5l-136 -31q46 181 -32 290.5t-252 109.5q-158 0 -267.5 -93t-134.5 -247l-41 -262h609l-21 -123h-608l-80 -502h842z" />
    <glyph glyph-name="yen" unicode="&#xa5;" horiz-adv-x="1421" vert-adv-y="2007" 
d="M815 262l-47 -303h-127l47 303h-426l21 123h426l18 123h-426l21 123h364l-403 782h151l381 -749l619 749h151l-649 -782h364l-20 -123h-426l-18 -123h426l-21 -123h-426z" />
    <glyph glyph-name="section" unicode="&#xa7;" horiz-adv-x="1189" vert-adv-y="2007" 
d="M539 -328q-217 0 -322 115t-61 305l131 41q-43 -162 27 -250t241 -88q126 0 210 56t99 149q9 60 -17.5 101.5t-98.5 76.5l-320 158q-131 65 -182.5 136t-36.5 167q15 91 66.5 164.5t130.5 118.5q-57 75 -39 184q23 146 148.5 237t303.5 91q201 0 302 -115.5t63 -302.5
l-135 -43q43 157 -23 247.5t-225 90.5q-126 0 -210 -55.5t-97 -149.5q-9 -58 17.5 -99t98.5 -79l320 -158q130 -64 181 -135t36 -168q-13 -91 -65 -164.5t-132 -118.5q59 -77 41 -184q-23 -146 -148.5 -237t-303.5 -91zM858 266q141 57 162 197q9 62 -26.5 106t-135.5 93
l-319 155q-8 3 -31 17l-10 6q-139 -56 -160 -197q-11 -62 24.5 -106t135.5 -93l319 -155q15 -5 31 -17q8 -4 10 -6z" />
    <glyph glyph-name="dieresis" unicode="&#xa8;" vert-adv-y="2007" 
d="M741 1634q-38 0 -60.5 26t-16.5 64q6 37 37 64t69 27t61 -27t17 -64q-6 -38 -37 -64t-70 -26zM1110 1634q-38 0 -61 26t-17 64q6 37 37.5 64t69.5 27t61 -27t17 -64q-6 -38 -37 -64t-70 -26z" />
    <glyph glyph-name="copyright" unicode="&#xa9;" horiz-adv-x="1736" vert-adv-y="2007" 
d="M858 -61q-208 0 -363.5 97.5t-226 268t-37.5 377.5q34 209 159 381.5t311.5 271.5t394.5 99q156 0 285 -58.5t212 -158.5t118.5 -239.5t10.5 -295.5q-34 -207 -158.5 -377.5t-311 -268t-394.5 -97.5zM879 61q173 0 328.5 82t259 224.5t130.5 316.5q27 176 -31 320
t-187 226.5t-302 82.5t-329 -82.5t-260.5 -227t-131.5 -319.5q-27 -174 31.5 -316.5t188.5 -224.5t303 -82zM926 256q-183 0 -285.5 123t-73.5 307q29 183 170 304.5t324 121.5q156 0 256 -95t88 -233l-121 -32q6 99 -65 168t-179 69q-129 0 -226.5 -86t-119.5 -217
q-22 -132 49.5 -219.5t200.5 -87.5q108 0 201.5 70.5t118.5 171.5l108 -37q-40 -141 -167.5 -234.5t-278.5 -93.5z" />
    <glyph glyph-name="ordfeminine" unicode="&#xaa;" horiz-adv-x="1007" vert-adv-y="2007" 
d="M504 -14q-162 0 -246.5 105.5t-60.5 262.5q25 157 143 263t281 106q98 0 173 -47t109 -129l27 162h49l-113 -709h-49l27 162q-62 -82 -152 -129t-188 -47zM512 35q134 0 236.5 93t123.5 226q22 131 -52 225.5t-208 94.5q-138 0 -240 -92t-124 -228q-21 -136 52 -227.5
t212 -91.5z" />
    <glyph glyph-name="guillemotleft" unicode="&#xab;" horiz-adv-x="841" vert-adv-y="2007" 
d="M291 537l239 -406h-153l-236 406l365 405h153zM598 537l240 -406h-154l-235 406l364 405h154z" />
    <glyph glyph-name="registered" unicode="&#xae;" horiz-adv-x="1134" vert-adv-y="2007" 
d="M651 530q-93 0 -171 35.5t-128.5 95.5t-72.5 143.5t-7 176.5q31 192 181.5 322.5t341.5 130.5q125 0 219 -59.5t137 -163.5t23 -230q-31 -189 -182.5 -320t-340.5 -131zM836 920l125 -140q78 84 96 201q23 144 -57.5 241t-223.5 97q-142 0 -253 -96.5t-134 -241.5
q-23 -142 57.5 -238t223.5 -96q149 0 264 105h-115l-131 147h-45l-25 -147h-114l76 481h206q86 0 131.5 -45.5t34.5 -120.5q-9 -49 -39.5 -87t-76.5 -60zM768 1128h-92l-19 -124h91q35 0 60 17.5t30 45.5q3 28 -15.5 44.5t-54.5 16.5z" />
    <glyph glyph-name="macron" unicode="&#xaf;" vert-adv-y="2007" 
d="M1171 1294l-18 -116h-594l19 116h593z" />
    <glyph glyph-name="degree" unicode="&#xb0;" horiz-adv-x="923" vert-adv-y="2007" 
d="M602 874q-120 0 -191.5 81t-52.5 198q20 120 114.5 200.5t217.5 80.5q122 0 191 -80.5t49 -200.5q-19 -117 -113.5 -198t-214.5 -81zM621 995q67 0 121 46t65 112q11 69 -27.5 115.5t-107.5 46.5q-68 0 -124.5 -47.5t-66.5 -114.5q-10 -66 31 -112t109 -46z" />
    <glyph glyph-name="plusminus" unicode="&#xb1;" horiz-adv-x="1298" vert-adv-y="2007" 
d="M809 614l-64 -389h-122l63 389h-410l19 123h410l61 389h123l-62 -389h410l-18 -123h-410zM1133 82l-19 -123h-942l18 123h943z" />
    <glyph glyph-name="uni00B2" unicode="&#xb2;" horiz-adv-x="696" vert-adv-y="2007" 
d="M588 39l-6 -39h-467l4 27l291 225l65 49q56 47 89.5 89t41.5 95q12 77 -31 122.5t-122 45.5q-85 0 -144 -50.5t-73 -133.5l-3 -12l-40 6v8q19 98 92 160.5t174 62.5q98 0 150.5 -56.5t37.5 -152.5q-18 -114 -143 -209q-31 -27 -70 -55l-235 -182h389z" />
    <glyph glyph-name="uni00B3" unicode="&#xb3;" horiz-adv-x="710" vert-adv-y="2007" 
d="M362 -10q-107 0 -164.5 63.5t-45.5 167.5v8l43 9l-2 -13q-11 -90 36.5 -143t139.5 -53q83 0 143 42.5t72 118.5q11 72 -36 108t-128 36h-96l6 39h96q73 0 127.5 34t64.5 99q12 70 -33 108.5t-122 38.5q-85 0 -144.5 -48t-74.5 -130l-4 -10l-41 6l2 10q22 97 95.5 155
t174.5 58q93 0 147.5 -49t40.5 -139q-9 -54 -43 -92t-86 -58q114 -41 97 -163q-14 -95 -89.5 -149t-175.5 -54z" />
    <glyph glyph-name="acute" unicode="&#xb4;" vert-adv-y="2007" 
d="M1251 1917l-309 -361h-141l305 361h145z" />
    <glyph glyph-name="paragraph" unicode="&#xb6;" horiz-adv-x="1185" vert-adv-y="2007" 
d="M936 1413l-229 -1454h-127l96 612h-62q-206 0 -318 119.5t-83 308.5q31 192 166.5 303t339.5 111h217zM1180 1413l-230 -1454h-127l230 1454h127z" />
    <glyph glyph-name="periodcentered" unicode="&#xb7;" horiz-adv-x="458" vert-adv-y="2007" 
d="M301 459q-38 0 -61 26t-17 64q6 37 37.5 63.5t69.5 26.5t61 -26.5t17 -63.5q-6 -38 -37 -64t-70 -26z" />
    <glyph glyph-name="cedilla" unicode="&#xb8;" vert-adv-y="2007" 
d="M741 -530q-89 0 -134.5 53.5t-31.5 142.5q10 64 51 119t138 137l22 123h125l-28 -166q-106 -89 -142.5 -130.5t-42.5 -82.5q-6 -39 8 -56.5t52 -17.5q18 0 59 13q50 13 68 16l18 -113q-115 -38 -162 -38z" />
    <glyph glyph-name="uni00B9" unicode="&#xb9;" horiz-adv-x="464" vert-adv-y="2007" 
d="M459 684l-109 -684h-43l99 627l-209 -115l6 47l229 125h27z" />
    <glyph glyph-name="ordmasculine" unicode="&#xba;" horiz-adv-x="1021" vert-adv-y="2007" 
d="M508 -14q-161 0 -247.5 107t-61.5 263q23 155 144.5 261t281.5 106q161 0 249 -105.5t64 -261.5q-25 -157 -146.5 -263.5t-283.5 -106.5zM516 35q140 0 245.5 92.5t127.5 228.5q20 135 -56.5 226.5t-216.5 91.5q-138 0 -242 -91.5t-124 -226.5q-22 -137 52.5 -229
t213.5 -92z" />
    <glyph glyph-name="guillemotright" unicode="&#xbb;" horiz-adv-x="841" vert-adv-y="2007" 
d="M561 537l-362 -406h-154l367 406l-238 405h154zM868 537l-362 -406h-154l367 406l-238 405h154z" />
    <glyph glyph-name="questiondown" unicode="&#xbf;" horiz-adv-x="1155" vert-adv-y="2007" 
d="M733 877q-38 0 -61 26.5t-17 63.5q6 38 37 64t70 26q38 0 61 -26t17 -64q-6 -37 -37.5 -63.5t-69.5 -26.5zM506 -422q-214 0 -326 125t-80 326q29 180 170 305t336 145l33 207h127l-51 -326h-64q-160 0 -281.5 -94.5t-144.5 -236.5q-23 -149 59 -238.5t242 -89.5
q174 0 291.5 115t130.5 299l127 -15q-25 -230 -184 -376t-385 -146z" />
    <glyph glyph-name="Agrave" unicode="&#xc0;" horiz-adv-x="1552" vert-adv-y="2007" 
d="M995 1917l191 -361h-142l-194 361h145zM494 360l-250 -401h-138l906 1454h86l446 -1454h-137l-123 401h-790zM1243 483l-219 727l-453 -727h672z" />
    <glyph glyph-name="Aacute" unicode="&#xc1;" horiz-adv-x="1552" vert-adv-y="2007" 
d="M1251 1917l-309 -361h-141l305 361h145zM494 360l-250 -401h-138l906 1454h86l446 -1454h-137l-123 401h-790zM1243 483l-219 727l-453 -727h672z" />
    <glyph glyph-name="Acircumflex" unicode="&#xc2;" horiz-adv-x="1552" vert-adv-y="2007" 
d="M1112 1776l-233 -220h-158l377 359h73l263 -359h-158zM494 360l-250 -401h-138l906 1454h86l446 -1454h-137l-123 401h-790zM1243 483l-219 727l-453 -727h672z" />
    <glyph glyph-name="Atilde" unicode="&#xc3;" horiz-adv-x="1552" vert-adv-y="2007" 
d="M1171 1567q-74 0 -147 69q-19 18 -29 26t-24.5 14.5t-30.5 6.5q-69 0 -66 -110h-129q1 99 62 165t151 66q75 0 148 -69q21 -18 30.5 -26t24.5 -14.5t31 -6.5q65 0 68 114h124q-3 -100 -64 -167.5t-149 -67.5zM494 360l-250 -401h-138l906 1454h86l446 -1454h-137
l-123 401h-790zM1243 483l-219 727l-453 -727h672z" />
    <glyph glyph-name="Adieresis" unicode="&#xc4;" horiz-adv-x="1552" vert-adv-y="2007" 
d="M903 1624q-38 0 -61 26t-17 64q6 37 37.5 63.5t69.5 26.5t61 -26.5t17 -63.5q-6 -38 -37 -64t-70 -26zM1272 1624q-38 0 -61 26t-17 64q6 37 37 63.5t69 26.5t61 -26.5t17 -63.5q-6 -38 -37 -64t-69 -26zM494 360l-250 -401h-138l906 1454h86l446 -1454h-137l-123 401
h-790zM1243 483l-219 727l-453 -727h672z" />
    <glyph glyph-name="Aring" unicode="&#xc5;" horiz-adv-x="1552" vert-adv-y="2007" 
d="M1075 1546q-92 0 -146 63.5t-40 153.5q14 89 89 153t167 64t146 -63.5t40 -153.5q-14 -89 -89 -153t-167 -64zM1096 1665q42 0 76 29t40 69t-19 69.5t-67 29.5t-77 -29.5t-41 -69.5t19.5 -69t68.5 -29zM494 360l-250 -401h-138l906 1454h86l446 -1454h-137l-123 401h-790
zM1243 483l-219 727l-453 -727h672z" />
    <glyph glyph-name="AE" unicode="&#xc6;" horiz-adv-x="1953" vert-adv-y="2007" 
d="M494 360l-250 -401h-138l906 1454h1046l-18 -123h-918l-86 -538h856l-18 -123h-856l-88 -547h917l-18 -123h-1045l64 401h-354zM866 483l103 641l-398 -641h295z" />
    <glyph glyph-name="Ccedilla" unicode="&#xc7;" horiz-adv-x="1691" vert-adv-y="2007" 
d="M741 -530q-89 0 -134.5 53.5t-31.5 142.5q10 64 51 119t138 137l6 23q-178 25 -308 129.5t-187.5 265t-28.5 346.5q24 154 104 292.5t195 238.5t262.5 158.5t300.5 58.5q240 0 406 -118.5t210 -322.5l-125 -49q-32 169 -170.5 268t-341.5 99q-170 0 -324.5 -82.5
t-258.5 -226.5t-131 -316q-20 -129 9.5 -245t98.5 -199t175.5 -132t234.5 -49q202 0 369.5 98.5t255.5 268.5l112 -45q-106 -201 -299.5 -318t-435.5 -126l-10 -60q-106 -89 -142.5 -130.5t-42.5 -82.5q-6 -39 8 -56.5t52 -17.5q18 0 59 13q50 13 68 16l18 -113
q-115 -38 -162 -38z" />
    <glyph glyph-name="Egrave" unicode="&#xc8;" horiz-adv-x="1208" vert-adv-y="2007" 
d="M995 1917l191 -361h-142l-194 361h145zM1194 82l-18 -123h-1045l229 1454h1045l-19 -123h-917l-86 -538h856l-18 -123h-856l-89 -547h918z" />
    <glyph glyph-name="Eacute" unicode="&#xc9;" horiz-adv-x="1208" vert-adv-y="2007" 
d="M1251 1917l-309 -361h-141l305 361h145zM1194 82l-18 -123h-1045l229 1454h1045l-19 -123h-917l-86 -538h856l-18 -123h-856l-89 -547h918z" />
    <glyph glyph-name="Ecircumflex" unicode="&#xca;" horiz-adv-x="1208" vert-adv-y="2007" 
d="M961 1776l-234 -220h-158l377 359h74l262 -359h-158zM1194 82l-18 -123h-1045l229 1454h1045l-19 -123h-917l-86 -538h856l-18 -123h-856l-89 -547h918z" />
    <glyph glyph-name="Edieresis" unicode="&#xcb;" horiz-adv-x="1208" vert-adv-y="2007" 
d="M741 1634q-38 0 -60.5 26t-16.5 64q6 37 37 64t69 27t61 -27t17 -64q-6 -38 -37 -64t-70 -26zM1110 1634q-38 0 -61 26t-17 64q6 37 37.5 64t69.5 27t61 -27t17 -64q-6 -38 -37 -64t-70 -26zM1194 82l-18 -123h-1045l229 1454h1045l-19 -123h-917l-86 -538h856l-18 -123
h-856l-89 -547h918z" />
    <glyph glyph-name="Igrave" unicode="&#xcc;" horiz-adv-x="290" vert-adv-y="2007" 
d="M449 1892l190 -360h-141l-195 360h146zM487 1413l-229 -1454h-127l229 1454h127z" />
    <glyph glyph-name="Iacute" unicode="&#xcd;" horiz-adv-x="290" vert-adv-y="2007" 
d="M754 1917l-310 -361h-141l305 361h146zM487 1413l-229 -1454h-127l229 1454h127z" />
    <glyph glyph-name="Icircumflex" unicode="&#xce;" horiz-adv-x="290" vert-adv-y="2007" 
d="M481 1776l-233 -220h-158l377 359h74l262 -359h-158zM487 1413l-229 -1454h-127l229 1454h127z" />
    <glyph glyph-name="Idieresis" unicode="&#xcf;" horiz-adv-x="290" vert-adv-y="2007" 
d="M276 1645q-38 0 -60.5 26t-16.5 64q6 37 37 63.5t69 26.5t61 -26.5t17 -63.5q-6 -38 -37 -64t-70 -26zM645 1645q-38 0 -61 26t-17 64q6 37 37.5 63.5t69.5 26.5t61 -26.5t17 -63.5q-6 -38 -37 -64t-70 -26zM487 1413l-229 -1454h-127l229 1454h127z" />
    <glyph glyph-name="Ntilde" unicode="&#xd1;" horiz-adv-x="1370" vert-adv-y="2007" 
d="M1036 1556q-32 0 -62.5 12.5t-46.5 24.5t-38 33q-19 18 -29 26t-24.5 14.5t-30.5 6.5q-69 0 -66 -110h-129q1 99 62 165t151 66q32 0 62.5 -12t47 -25t38.5 -33q21 -18 30.5 -26t24.5 -14.5t31 -6.5q64 0 67 115h125q-3 -100 -64 -168t-149 -68zM451 1180l-193 -1221
h-127l229 1454h107l780 -1220l193 1220h127l-230 -1454h-106z" />
    <glyph glyph-name="Ograve" unicode="&#xd2;" horiz-adv-x="1636" vert-adv-y="2007" 
d="M1124 1917l191 -361h-141l-195 361h145zM864 -61q-153 0 -280 58t-209.5 157.5t-117.5 238t-11 293.5q33 206 157.5 378t309.5 271t389 99q152 0 279 -58.5t209 -158.5t117 -238.5t11 -292.5q-32 -207 -157 -378.5t-309.5 -270t-387.5 -98.5zM885 61q126 0 246.5 49
t214.5 132t159.5 199t85.5 245q27 172 -31 316t-185 226.5t-294 82.5q-169 0 -322.5 -82.5t-256 -226t-129.5 -316.5t30.5 -316.5t185 -226t296.5 -82.5z" />
    <glyph glyph-name="Oacute" unicode="&#xd3;" horiz-adv-x="1636" vert-adv-y="2007" 
d="M1343 1915l-309 -361h-141l305 361h145zM864 -61q-153 0 -280 58t-209.5 157.5t-117.5 238t-11 293.5q33 206 157.5 378t309.5 271t389 99q152 0 279 -58.5t209 -158.5t117 -238.5t11 -292.5q-32 -207 -157 -378.5t-309.5 -270t-387.5 -98.5zM885 61q126 0 246.5 49
t214.5 132t159.5 199t85.5 245q27 172 -31 316t-185 226.5t-294 82.5q-169 0 -322.5 -82.5t-256 -226t-129.5 -316.5t30.5 -316.5t185 -226t296.5 -82.5z" />
    <glyph glyph-name="Ocircumflex" unicode="&#xd4;" horiz-adv-x="1636" vert-adv-y="2007" 
d="M1155 1776l-233 -220h-158l377 359h73l263 -359h-158zM864 -61q-153 0 -280 58t-209.5 157.5t-117.5 238t-11 293.5q33 206 157.5 378t309.5 271t389 99q152 0 279 -58.5t209 -158.5t117 -238.5t11 -292.5q-32 -207 -157 -378.5t-309.5 -270t-387.5 -98.5zM885 61
q126 0 246.5 49t214.5 132t159.5 199t85.5 245q27 172 -31 316t-185 226.5t-294 82.5q-169 0 -322.5 -82.5t-256 -226t-129.5 -316.5t30.5 -316.5t185 -226t296.5 -82.5z" />
    <glyph glyph-name="Otilde" unicode="&#xd5;" horiz-adv-x="1636" vert-adv-y="2007" 
d="M1247 1556q-32 0 -62.5 12.5t-46.5 24.5t-38 33q-19 18 -29 26t-24.5 14.5t-30.5 6.5q-69 0 -66 -110h-129q1 99 62 165t151 66q32 0 62.5 -12t47 -25t38.5 -33q21 -18 30.5 -26t24.5 -14.5t31 -6.5q64 0 67 115h125q-3 -100 -64 -168t-149 -68zM864 -61q-153 0 -280 58
t-209.5 157.5t-117.5 238t-11 293.5q33 206 157.5 378t309.5 271t389 99q152 0 279 -58.5t209 -158.5t117 -238.5t11 -292.5q-32 -207 -157 -378.5t-309.5 -270t-387.5 -98.5zM885 61q126 0 246.5 49t214.5 132t159.5 199t85.5 245q27 172 -31 316t-185 226.5t-294 82.5
q-169 0 -322.5 -82.5t-256 -226t-129.5 -316.5t30.5 -316.5t185 -226t296.5 -82.5z" />
    <glyph glyph-name="Odieresis" unicode="&#xd6;" horiz-adv-x="1636" vert-adv-y="2007" 
d="M944 1614q-38 0 -61 26t-17 64q6 37 37.5 63.5t69.5 26.5t61 -26.5t17 -63.5q-6 -38 -37 -64t-70 -26zM1313 1614q-38 0 -61 26t-17 64q6 37 37 63.5t69 26.5t61 -26.5t17 -63.5q-6 -38 -37 -64t-69 -26zM864 -61q-153 0 -280 58t-209.5 157.5t-117.5 238t-11 293.5
q33 206 157.5 378t309.5 271t389 99q152 0 279 -58.5t209 -158.5t117 -238.5t11 -292.5q-32 -207 -157 -378.5t-309.5 -270t-387.5 -98.5zM885 61q126 0 246.5 49t214.5 132t159.5 199t85.5 245q27 172 -31 316t-185 226.5t-294 82.5q-169 0 -322.5 -82.5t-256 -226
t-129.5 -316.5t30.5 -316.5t185 -226t296.5 -82.5z" />
    <glyph glyph-name="multiply" unicode="&#xd7;" horiz-adv-x="1105" vert-adv-y="2007" 
d="M893 233l-256 304l-350 -304l-74 89l350 303l-254 303l103 88l254 -303l352 303l74 -88l-353 -303l256 -303z" />
    <glyph glyph-name="Oslash" unicode="&#xd8;" horiz-adv-x="1746" vert-adv-y="2007" 
d="M1456 1559l-90 -177q194 -83 291 -271t61 -425q-32 -207 -157 -378.5t-309.5 -270t-387.5 -98.5q-120 0 -221 34l-82 -159h-127l105 204q-167 94 -247.5 272t-45.5 396q33 206 157.5 378t309.5 271t389 99q72 0 155 -17l72 142h127zM373 686q-27 -179 34.5 -324.5
t192.5 -224.5l596 1163q-68 11 -115 11q-169 0 -322.5 -82.5t-256 -226t-129.5 -316.5zM1591 686q30 197 -48.5 353.5t-235.5 226.5l-605 -1176q89 -29 183 -29q126 0 246.5 49t214.5 132t159.5 199t85.5 245z" />
    <glyph glyph-name="Ugrave" unicode="&#xd9;" horiz-adv-x="1351" vert-adv-y="2007" 
d="M995 1917l191 -361h-142l-194 361h145zM721 -61q-175 0 -297.5 80.5t-173.5 227.5t-21 337l131 829h127l-131 -829q-37 -236 68 -378.5t317 -142.5t362 142.5t187 378.5l131 829h127l-131 -829q-46 -289 -238 -467t-458 -178z" />
    <glyph glyph-name="Uacute" unicode="&#xda;" horiz-adv-x="1351" vert-adv-y="2007" 
d="M1251 1917l-309 -361h-141l305 361h145zM721 -61q-175 0 -297.5 80.5t-173.5 227.5t-21 337l131 829h127l-131 -829q-37 -236 68 -378.5t317 -142.5t362 142.5t187 378.5l131 829h127l-131 -829q-46 -289 -238 -467t-458 -178z" />
    <glyph glyph-name="Ucircumflex" unicode="&#xdb;" horiz-adv-x="1351" vert-adv-y="2007" 
d="M1012 1776l-234 -220h-157l376 359h74l262 -359h-157zM721 -61q-175 0 -297.5 80.5t-173.5 227.5t-21 337l131 829h127l-131 -829q-37 -236 68 -378.5t317 -142.5t362 142.5t187 378.5l131 829h127l-131 -829q-46 -289 -238 -467t-458 -178z" />
    <glyph glyph-name="Udieresis" unicode="&#xdc;" horiz-adv-x="1351" vert-adv-y="2007" 
d="M799 1645q-38 0 -61 26t-17 64q6 37 37 63.5t69 26.5t61 -26.5t17 -63.5q-6 -38 -37 -64t-69 -26zM1167 1645q-38 0 -60.5 26t-16.5 64q6 37 37 63.5t69 26.5t61 -26.5t17 -63.5q-6 -38 -37 -64t-70 -26zM721 -61q-175 0 -297.5 80.5t-173.5 227.5t-21 337l131 829h127
l-131 -829q-37 -236 68 -378.5t317 -142.5t362 142.5t187 378.5l131 829h127l-131 -829q-46 -289 -238 -467t-458 -178z" />
    <glyph glyph-name="Yacute" unicode="&#xdd;" horiz-adv-x="1474" vert-adv-y="2007" 
d="M1251 1917l-309 -361h-141l305 361h145zM936 508l-86 -549h-127l86 549l-485 905h151l418 -782l663 782h152z" />
    <glyph glyph-name="germandbls" unicode="&#xdf;" horiz-adv-x="1298" vert-adv-y="1597" 
d="M446 1014l-237 -1506h-125l225 1463q44 210 201.5 336.5t374.5 126.5q211 0 322.5 -113.5t82.5 -296.5q-15 -101 -76.5 -181t-158.5 -126q100 -47 142.5 -134t23.5 -206q-32 -205 -201 -327.5t-402 -110.5l21 124q182 -12 307 73.5t150 238.5q20 129 -64 201.5t-256 72.5
h-221l20 121h220q153 0 252 68.5t118 185.5q22 130 -61 208.5t-242 78.5q-148 0 -258.5 -79t-157.5 -218z" />
    <glyph glyph-name="agrave" unicode="&#xe0;" horiz-adv-x="1259" vert-adv-y="2007" 
d="M936 1548l190 -360h-141l-194 360h145zM676 -61q-117 0 -212.5 42t-156.5 115.5t-86 177.5t-6 224q40 243 220.5 401t418.5 158q125 0 227 -51t164 -144l27 174h125l-170 -1077h-125l26 174q-89 -92 -207.5 -143t-244.5 -51zM696 61q180 0 320.5 125.5t169.5 311.5
q31 186 -70.5 311t-281.5 125q-185 0 -324 -123t-170 -313q-29 -191 71.5 -314t284.5 -123z" />
    <glyph glyph-name="aacute" unicode="&#xe1;" horiz-adv-x="1259" vert-adv-y="2007" 
d="M1202 1548l-309 -360h-141l305 360h145zM676 -61q-117 0 -212.5 42t-156.5 115.5t-86 177.5t-6 224q40 243 220.5 401t418.5 158q125 0 227 -51t164 -144l27 174h125l-170 -1077h-125l26 174q-89 -92 -207.5 -143t-244.5 -51zM696 61q180 0 320.5 125.5t169.5 311.5
q31 186 -70.5 311t-281.5 125q-185 0 -324 -123t-170 -313q-29 -191 71.5 -314t284.5 -123z" />
    <glyph glyph-name="acircumflex" unicode="&#xe2;" horiz-adv-x="1259" vert-adv-y="2007" 
d="M909 1409l-233 -219h-158l377 358h74l262 -358h-158zM676 -61q-117 0 -212.5 42t-156.5 115.5t-86 177.5t-6 224q40 243 220.5 401t418.5 158q125 0 227 -51t164 -144l27 174h125l-170 -1077h-125l26 174q-89 -92 -207.5 -143t-244.5 -51zM696 61q180 0 320.5 125.5
t169.5 311.5q31 186 -70.5 311t-281.5 125q-185 0 -324 -123t-170 -313q-29 -191 71.5 -314t284.5 -123z" />
    <glyph glyph-name="atilde" unicode="&#xe3;" horiz-adv-x="1259" vert-adv-y="2007" 
d="M1001 1198q-32 0 -62.5 12.5t-46.5 24.5t-38 33q-19 18 -29 26t-24.5 14.5t-30.5 6.5q-68 0 -65 -111h-130q1 100 62.5 166t150.5 66q32 0 62.5 -12t47 -25t38.5 -33q21 -18 30.5 -26t24.5 -14.5t31 -6.5q65 0 68 115h124q-3 -100 -64 -168t-149 -68zM676 -61
q-117 0 -212.5 42t-156.5 115.5t-86 177.5t-6 224q40 243 220.5 401t418.5 158q125 0 227 -51t164 -144l27 174h125l-170 -1077h-125l26 174q-89 -92 -207.5 -143t-244.5 -51zM696 61q180 0 320.5 125.5t169.5 311.5q31 186 -70.5 311t-281.5 125q-185 0 -324 -123
t-170 -313q-29 -191 71.5 -314t284.5 -123z" />
    <glyph glyph-name="adieresis" unicode="&#xe4;" horiz-adv-x="1259" vert-adv-y="2007" 
d="M688 1188q-38 0 -61 26t-17 64q6 37 37.5 63.5t69.5 26.5t61 -26.5t17 -63.5q-6 -38 -37 -64t-70 -26zM1057 1188q-38 0 -61 26t-17 64q6 37 37 63.5t69 26.5t61 -26.5t17 -63.5q-6 -38 -37 -64t-69 -26zM676 -61q-117 0 -212.5 42t-156.5 115.5t-86 177.5t-6 224
q40 243 220.5 401t418.5 158q125 0 227 -51t164 -144l27 174h125l-170 -1077h-125l26 174q-89 -92 -207.5 -143t-244.5 -51zM696 61q180 0 320.5 125.5t169.5 311.5q31 186 -70.5 311t-281.5 125q-185 0 -324 -123t-170 -313q-29 -191 71.5 -314t284.5 -123z" />
    <glyph glyph-name="aring" unicode="&#xe5;" horiz-adv-x="1259" vert-adv-y="2007" 
d="M872 1188q-92 0 -146 63.5t-40 153.5q14 89 89 153t167 64t146 -63.5t40 -153.5q-14 -89 -89 -153t-167 -64zM893 1307q42 0 76.5 29t40.5 69t-19 69t-67 29q-43 0 -78 -29t-41 -69t19.5 -69t68.5 -29zM676 -61q-117 0 -212.5 42t-156.5 115.5t-86 177.5t-6 224
q40 243 220.5 401t418.5 158q125 0 227 -51t164 -144l27 174h125l-170 -1077h-125l26 174q-89 -92 -207.5 -143t-244.5 -51zM696 61q180 0 320.5 125.5t169.5 311.5q31 186 -70.5 311t-281.5 125q-185 0 -324 -123t-170 -313q-29 -191 71.5 -314t284.5 -123z" />
    <glyph glyph-name="ae" unicode="&#xe6;" horiz-adv-x="2291" vert-adv-y="2007" 
d="M676 -61q-117 0 -212.5 42t-156.5 115.5t-86 177.5t-6 224q40 243 220.5 401t418.5 158q125 0 227 -51t164 -144l27 174h125l-29 -178q94 94 215.5 146.5t247.5 52.5q223 0 343 -147t89 -382l-10 -61h-946l-2 -21q-12 -163 89.5 -274t262.5 -111q158 0 275 79.5
t182 230.5l104 -41q-78 -185 -231.5 -288t-350.5 -103q-120 0 -221 51t-162 143l-26 -174h-125l26 174q-89 -92 -207.5 -143t-244.5 -51zM696 61q169 0 307.5 115t176.5 285l4 33q4 24 8 36q15 174 -87 289t-271 115q-185 0 -324 -123t-170 -313q-29 -191 71.5 -314
t284.5 -123zM1333 590h809q2 157 -88 250.5t-244 93.5q-156 0 -289.5 -96.5t-187.5 -247.5z" />
    <glyph glyph-name="ccedilla" unicode="&#xe7;" horiz-adv-x="1308" vert-adv-y="2007" 
d="M575 -549q-89 0 -134 54t-31 143q9 64 48.5 117.5t141.5 138.5l8 39q-208 25 -318 178.5t-75 376.5q25 155 117 283t229.5 202t290.5 74q195 -3 313 -105.5t138 -285.5l-119 -41q-15 150 -106 228.5t-249 80.5q-178 0 -318 -125t-171 -311q-29 -189 70 -312.5t282 -124.5
q157 2 273 81t180 229l104 -41q-72 -172 -210 -274t-320 -115h12l-16 -80q-105 -88 -141 -130t-42 -83q-6 -39 8 -56.5t52 -17.5q18 0 59 12q42 12 66 17l20 -113q-118 -39 -162 -39z" />
    <glyph glyph-name="egrave" unicode="&#xe8;" horiz-adv-x="1236" vert-adv-y="2007" 
d="M866 1548l191 -360h-142l-194 360h145zM668 -61q-149 0 -262 73.5t-164 201t-27 280.5q25 157 119 286.5t233.5 203t294.5 73.5q223 0 343 -147t89 -382l-10 -61h-948q-17 -173 84 -289.5t268 -116.5q158 0 275 79.5t182 230.5l104 -41q-78 -186 -231 -288.5t-350 -102.5
zM365 590h809q2 157 -88 250.5t-244 93.5q-156 0 -289.5 -96.5t-187.5 -247.5z" />
    <glyph glyph-name="eacute" unicode="&#xe9;" horiz-adv-x="1236" vert-adv-y="2007" 
d="M1114 1548l-309 -360h-141l305 360h145zM668 -61q-149 0 -262 73.5t-164 201t-27 280.5q25 157 119 286.5t233.5 203t294.5 73.5q223 0 343 -147t89 -382l-10 -61h-948q-17 -173 84 -289.5t268 -116.5q158 0 275 79.5t182 230.5l104 -41q-78 -186 -231 -288.5
t-350 -102.5zM365 590h809q2 157 -88 250.5t-244 93.5q-156 0 -289.5 -96.5t-187.5 -247.5z" />
    <glyph glyph-name="ecircumflex" unicode="&#xea;" horiz-adv-x="1236" vert-adv-y="2007" 
d="M895 1407l-233 -219h-158l377 358h73l263 -358h-158zM668 -61q-149 0 -262 73.5t-164 201t-27 280.5q25 157 119 286.5t233.5 203t294.5 73.5q223 0 343 -147t89 -382l-10 -61h-948q-17 -173 84 -289.5t268 -116.5q158 0 275 79.5t182 230.5l104 -41
q-78 -186 -231 -288.5t-350 -102.5zM365 590h809q2 157 -88 250.5t-244 93.5q-156 0 -289.5 -96.5t-187.5 -247.5z" />
    <glyph glyph-name="edieresis" unicode="&#xeb;" horiz-adv-x="1236" vert-adv-y="2007" 
d="M688 1198q-38 0 -61 26t-17 64q6 37 37.5 63.5t69.5 26.5t61 -26.5t17 -63.5q-6 -38 -37 -64t-70 -26zM1057 1198q-38 0 -61 26t-17 64q6 37 37 63.5t69 26.5t61 -26.5t17 -63.5q-6 -38 -37 -64t-69 -26zM668 -61q-149 0 -262 73.5t-164 201t-27 280.5q25 157 119 286.5
t233.5 203t294.5 73.5q223 0 343 -147t89 -382l-10 -61h-948q-17 -173 84 -289.5t268 -116.5q158 0 275 79.5t182 230.5l104 -41q-78 -186 -231 -288.5t-350 -102.5zM365 590h809q2 157 -88 250.5t-244 93.5q-156 0 -289.5 -96.5t-187.5 -247.5z" />
    <glyph glyph-name="igrave" unicode="&#xec;" horiz-adv-x="348" vert-adv-y="2007" 
d="M424 1559l190 -361h-141l-194 361h145zM457 1036l-170 -1077h-125l170 1077h125z" />
    <glyph glyph-name="iacute" unicode="&#xed;" horiz-adv-x="348" vert-adv-y="2007" 
d="M637 1548l-309 -360h-142l306 360h145zM457 1036l-170 -1077h-125l170 1077h125z" />
    <glyph glyph-name="icircumflex" unicode="&#xee;" horiz-adv-x="348" vert-adv-y="2007" 
d="M457 1423l-234 -219h-157l376 359h74l262 -359h-157zM457 1036l-170 -1077h-125l170 1077h125z" />
    <glyph glyph-name="idieresis" unicode="&#xef;" horiz-adv-x="348" vert-adv-y="2007" 
d="M233 1188q-38 0 -60.5 26t-16.5 64q6 37 37 63.5t69 26.5t61 -26.5t17 -63.5q-6 -38 -37 -64t-70 -26zM602 1188q-38 0 -61 26t-17 64q6 37 37.5 63.5t69.5 26.5t61 -26.5t17 -63.5q-6 -38 -37 -64t-70 -26zM457 1036l-170 -1077h-125l170 1077h125z" />
    <glyph glyph-name="ntilde" unicode="&#xf1;" horiz-adv-x="1130" vert-adv-y="2007" 
d="M936 1198q-32 0 -62.5 12t-47 25t-38.5 33q-20 18 -29 26t-23.5 14.5t-30.5 6.5q-69 0 -66 -111h-129q1 100 62.5 166t150.5 66q32 0 62.5 -12.5t46.5 -24.5t38 -33q21 -18 30.5 -26t24.5 -14.5t31 -6.5q65 0 68 115h125q-3 -100 -64 -168t-149 -68zM344 518l-88 -559
h-125l170 1077h125l-25 -159q85 87 195.5 133.5t232.5 46.5q198 0 299.5 -130t67.5 -341l-98 -627h-125l98 627q26 159 -44 253.5t-212 94.5q-185 0 -312.5 -113t-158.5 -303z" />
    <glyph glyph-name="ograve" unicode="&#xf2;" horiz-adv-x="1280" vert-adv-y="2007" 
d="M887 1548l190 -360h-141l-195 360h146zM684 -61q-156 0 -272 73t-168 202t-27 286q24 156 117 284t232.5 200.5t295.5 72.5q157 0 273.5 -72t169 -200t28.5 -285q-25 -157 -118.5 -286t-233.5 -202t-297 -73zM705 61q187 0 329.5 125t173.5 314q29 189 -74 311.5
t-292 122.5q-187 0 -329 -123t-171 -311q-31 -189 73 -314t290 -125z" />
    <glyph glyph-name="oacute" unicode="&#xf3;" horiz-adv-x="1280" vert-adv-y="2007" 
d="M1137 1548l-310 -360h-141l305 360h146zM684 -61q-156 0 -272 73t-168 202t-27 286q24 156 117 284t232.5 200.5t295.5 72.5q157 0 273.5 -72t169 -200t28.5 -285q-25 -157 -118.5 -286t-233.5 -202t-297 -73zM705 61q187 0 329.5 125t173.5 314q29 189 -74 311.5
t-292 122.5q-187 0 -329 -123t-171 -311q-31 -189 73 -314t290 -125z" />
    <glyph glyph-name="ocircumflex" unicode="&#xf4;" horiz-adv-x="1280" vert-adv-y="2007" 
d="M918 1407l-234 -219h-158l377 358h74l262 -358h-158zM684 -61q-156 0 -272 73t-168 202t-27 286q24 156 117 284t232.5 200.5t295.5 72.5q157 0 273.5 -72t169 -200t28.5 -285q-25 -157 -118.5 -286t-233.5 -202t-297 -73zM705 61q187 0 329.5 125t173.5 314
q29 189 -74 311.5t-292 122.5q-187 0 -329 -123t-171 -311q-31 -189 73 -314t290 -125z" />
    <glyph glyph-name="otilde" unicode="&#xf5;" horiz-adv-x="1280" vert-adv-y="2007" 
d="M965 1182q-75 0 -148 69q-19 18 -29 26t-24.5 14.5t-30.5 6.5q-68 0 -65 -110h-129q1 99 62 165t151 66q74 0 147 -69q21 -18 30.5 -26t24.5 -14.5t31 -6.5q65 0 68 114h125q-3 -100 -64 -167.5t-149 -67.5zM684 -61q-156 0 -272 73t-168 202t-27 286q24 156 117 284
t232.5 200.5t295.5 72.5q157 0 273.5 -72t169 -200t28.5 -285q-25 -157 -118.5 -286t-233.5 -202t-297 -73zM705 61q187 0 329.5 125t173.5 314q29 189 -74 311.5t-292 122.5q-187 0 -329 -123t-171 -311q-31 -189 73 -314t290 -125z" />
    <glyph glyph-name="odieresis" unicode="&#xf6;" horiz-adv-x="1280" vert-adv-y="2007" 
d="M698 1182q-38 0 -60.5 26t-16.5 64q6 37 37 63.5t69 26.5t61 -26.5t17 -63.5q-6 -38 -37 -64t-70 -26zM1067 1182q-38 0 -61 26t-17 64q6 37 37.5 63.5t69.5 26.5t61 -26.5t17 -63.5q-6 -38 -37 -64t-70 -26zM684 -61q-156 0 -272 73t-168 202t-27 286q24 156 117 284
t232.5 200.5t295.5 72.5q157 0 273.5 -72t169 -200t28.5 -285q-25 -157 -118.5 -286t-233.5 -202t-297 -73zM705 61q187 0 329.5 125t173.5 314q29 189 -74 311.5t-292 122.5q-187 0 -329 -123t-171 -311q-31 -189 73 -314t290 -125z" />
    <glyph glyph-name="divide" unicode="&#xf7;" horiz-adv-x="1298" vert-adv-y="2007" 
d="M793 911q-38 0 -61 26t-17 64q6 37 37 64t69 27t61 -27t17 -64q-6 -38 -37 -64t-69 -26zM1229 686l-19 -123h-942l19 123h942zM674 158q-38 0 -61 26t-17 64q6 37 37 63.5t69 26.5t61 -26.5t17 -63.5q-6 -38 -37 -64t-69 -26z" />
    <glyph glyph-name="oslash" unicode="&#xf8;" horiz-adv-x="1390" vert-adv-y="2007" 
d="M537 -41l-136 -268h-127l160 311q-127 69 -185 202t-32 296q24 156 117 284t232.5 200.5t295.5 72.5q45 0 107 -10l200 389h127l-217 -422q145 -65 213.5 -203t40.5 -311q-25 -157 -118.5 -286t-233.5 -202t-297 -73q-80 0 -147 20zM492 119l419 811q-40 4 -69 4
q-187 0 -329 -123t-171 -311q-20 -124 19.5 -224.5t130.5 -156.5zM705 61q187 0 329.5 125t173.5 314q22 135 -28.5 240.5t-159.5 156.5l-422 -821q50 -15 107 -15z" />
    <glyph glyph-name="ugrave" unicode="&#xf9;" horiz-adv-x="1130" vert-adv-y="2007" 
d="M813 1548l191 -360h-142l-194 360h145zM569 -61q-198 0 -299 130t-67 341l98 626h125l-98 -626q-26 -159 44 -254t212 -95q185 0 312.5 113t158.5 303l88 559h125l-170 -1077h-125l24 160q-85 -87 -195.5 -133.5t-232.5 -46.5z" />
    <glyph glyph-name="uacute" unicode="&#xfa;" horiz-adv-x="1130" vert-adv-y="2007" 
d="M1010 1548l-310 -360h-141l305 360h146zM569 -61q-198 0 -299 130t-67 341l98 626h125l-98 -626q-26 -159 44 -254t212 -95q185 0 312.5 113t158.5 303l88 559h125l-170 -1077h-125l24 160q-85 -87 -195.5 -133.5t-232.5 -46.5z" />
    <glyph glyph-name="ucircumflex" unicode="&#xfb;" horiz-adv-x="1130" vert-adv-y="2007" 
d="M811 1409l-233 -219h-158l377 358h73l263 -358h-158zM569 -61q-198 0 -299 130t-67 341l98 626h125l-98 -626q-26 -159 44 -254t212 -95q185 0 312.5 113t158.5 303l88 559h125l-170 -1077h-125l24 160q-85 -87 -195.5 -133.5t-232.5 -46.5z" />
    <glyph glyph-name="udieresis" unicode="&#xfc;" horiz-adv-x="1130" vert-adv-y="2007" 
d="M625 1196q-38 0 -61 26t-17 64q6 37 37 63.5t69 26.5t61 -26.5t17 -63.5q-6 -38 -37 -64t-69 -26zM993 1196q-38 0 -61 26t-17 64q6 37 37.5 63.5t69.5 26.5t61 -26.5t17 -63.5q-6 -38 -37 -64t-70 -26zM569 -61q-198 0 -299 130t-67 341l98 626h125l-98 -626
q-26 -159 44 -254t212 -95q185 0 312.5 113t158.5 303l88 559h125l-170 -1077h-125l24 160q-85 -87 -195.5 -133.5t-232.5 -46.5z" />
    <glyph glyph-name="yacute" unicode="&#xfd;" horiz-adv-x="1251" vert-adv-y="2007" 
d="M1124 1559l-309 -361h-141l305 361h145zM1413 1036l-911 -1425h-137l249 389l-338 1036h142l287 -893l571 893h137z" />
    <glyph glyph-name="ydieresis" unicode="&#xff;" horiz-adv-x="1251" vert-adv-y="2007" 
d="M686 1190q-38 0 -61 26t-17 64q6 37 37.5 63.5t69.5 26.5t61 -26.5t17 -63.5q-6 -38 -37 -64t-70 -26zM1055 1190q-38 0 -61 26t-17 64q6 37 37 63.5t69 26.5t61 -26.5t17 -63.5q-6 -38 -37 -64t-69 -26zM1413 1036l-911 -1425h-137l249 389l-338 1036h142l287 -893
l571 893h137z" />
    <glyph glyph-name="Cacute" unicode="&#x106;" horiz-adv-x="1581" vert-adv-y="2007" 
d="M1251 1917l-309 -361h-141l305 361h145zM870 -61q-153 0 -281.5 58.5t-211.5 158t-119 238t-12 292.5t104 292.5t195 238.5t262.5 158.5t300.5 58.5q240 0 406 -118.5t210 -322.5l-125 -49q-32 169 -170.5 268t-341.5 99q-170 0 -324.5 -82.5t-258.5 -226.5t-131 -316
q-20 -129 9.5 -245t98.5 -199t175.5 -132t234.5 -49q202 0 369.5 98.5t255.5 268.5l112 -45q-110 -205 -314 -324.5t-444 -119.5z" />
    <glyph glyph-name="cacute" unicode="&#x107;" horiz-adv-x="1198" vert-adv-y="2007" 
d="M1096 1548l-310 -360h-141l305 360h146zM668 -61q-153 2 -265 74.5t-162 200t-26 284.5q25 155 117 283t229.5 202t290.5 74q195 -3 313 -105.5t138 -285.5l-119 -41q-15 150 -106 228.5t-249 80.5q-178 0 -318 -125t-171 -311q-29 -189 70 -312.5t282 -124.5
q157 2 273 81t180 229l104 -41q-78 -185 -230 -287.5t-351 -103.5z" />
    <glyph glyph-name="Ccircumflex" unicode="&#x108;" horiz-adv-x="1581" vert-adv-y="2007" 
d="M1126 1776l-233 -220h-158l377 359h74l262 -359h-158zM870 -61q-153 0 -281.5 58.5t-211.5 158t-119 238t-12 292.5t104 292.5t195 238.5t262.5 158.5t300.5 58.5q240 0 406 -118.5t210 -322.5l-125 -49q-32 169 -170.5 268t-341.5 99q-170 0 -324.5 -82.5t-258.5 -226.5
t-131 -316q-20 -129 9.5 -245t98.5 -199t175.5 -132t234.5 -49q202 0 369.5 98.5t255.5 268.5l112 -45q-110 -205 -314 -324.5t-444 -119.5z" />
    <glyph glyph-name="ccircumflex" unicode="&#x109;" horiz-adv-x="1198" vert-adv-y="2007" 
d="M877 1407l-234 -219h-158l377 358h74l262 -358h-158zM668 -61q-153 2 -265 74.5t-162 200t-26 284.5q25 155 117 283t229.5 202t290.5 74q195 -3 313 -105.5t138 -285.5l-119 -41q-15 150 -106 228.5t-249 80.5q-178 0 -318 -125t-171 -311q-29 -189 70 -312.5
t282 -124.5q157 2 273 81t180 229l104 -41q-78 -185 -230 -287.5t-351 -103.5z" />
    <glyph glyph-name="Cdotaccent" unicode="&#x10a;" horiz-adv-x="1581" vert-adv-y="2007" 
d="M1098 1587q-38 0 -61 26t-17 64q6 37 37 63.5t69 26.5t61 -26.5t17 -63.5q-6 -38 -37 -64t-69 -26zM870 -61q-153 0 -281.5 58.5t-211.5 158t-119 238t-12 292.5t104 292.5t195 238.5t262.5 158.5t300.5 58.5q240 0 406 -118.5t210 -322.5l-125 -49q-32 169 -170.5 268
t-341.5 99q-170 0 -324.5 -82.5t-258.5 -226.5t-131 -316q-20 -129 9.5 -245t98.5 -199t175.5 -132t234.5 -49q202 0 369.5 98.5t255.5 268.5l112 -45q-110 -205 -314 -324.5t-444 -119.5z" />
    <glyph glyph-name="cdotaccent" unicode="&#x10b;" horiz-adv-x="1198" vert-adv-y="2007" 
d="M842 1188q-38 0 -61 26t-17 64q6 37 37 63.5t69 26.5t61 -26.5t17 -63.5q-6 -38 -37 -64t-69 -26zM668 -61q-153 2 -265 74.5t-162 200t-26 284.5q25 155 117 283t229.5 202t290.5 74q195 -3 313 -105.5t138 -285.5l-119 -41q-15 150 -106 228.5t-249 80.5
q-178 0 -318 -125t-171 -311q-29 -189 70 -312.5t282 -124.5q157 2 273 81t180 229l104 -41q-78 -185 -230 -287.5t-351 -103.5z" />
    <glyph glyph-name="Ccaron" unicode="&#x10c;" horiz-adv-x="1581" vert-adv-y="2007" 
d="M1538 1903l-377 -359h-74l-262 359h158l164 -220l233 220h158zM870 -61q-153 0 -281.5 58.5t-211.5 158t-119 238t-12 292.5t104 292.5t195 238.5t262.5 158.5t300.5 58.5q240 0 406 -118.5t210 -322.5l-125 -49q-32 169 -170.5 268t-341.5 99q-170 0 -324.5 -82.5
t-258.5 -226.5t-131 -316q-20 -129 9.5 -245t98.5 -199t175.5 -132t234.5 -49q202 0 369.5 98.5t255.5 268.5l112 -45q-110 -205 -314 -324.5t-444 -119.5z" />
    <glyph glyph-name="ccaron" unicode="&#x10d;" horiz-adv-x="1198" vert-adv-y="2007" 
d="M1255 1546l-376 -358h-74l-262 358h157l164 -219l234 219h157zM668 -61q-153 2 -265 74.5t-162 200t-26 284.5q25 155 117 283t229.5 202t290.5 74q195 -3 313 -105.5t138 -285.5l-119 -41q-15 150 -106 228.5t-249 80.5q-178 0 -318 -125t-171 -311q-29 -189 70 -312.5
t282 -124.5q157 2 273 81t180 229l104 -41q-78 -185 -230 -287.5t-351 -103.5z" />
    <glyph glyph-name="Ecaron" unicode="&#x11a;" horiz-adv-x="1208" vert-adv-y="2007" 
d="M1315 1915l-377 -359h-74l-262 359h158l164 -219l233 219h158zM1194 82l-18 -123h-1045l229 1454h1045l-19 -123h-917l-86 -538h856l-18 -123h-856l-89 -547h918z" />
    <glyph glyph-name="ecaron" unicode="&#x11b;" horiz-adv-x="1236" vert-adv-y="2007" 
d="M1276 1556l-377 -358h-74l-262 358h158l164 -219l233 219h158zM668 -61q-149 0 -262 73.5t-164 201t-27 280.5q25 157 119 286.5t233.5 203t294.5 73.5q223 0 343 -147t89 -382l-10 -61h-948q-17 -173 84 -289.5t268 -116.5q158 0 275 79.5t182 230.5l104 -41
q-78 -186 -231 -288.5t-350 -102.5zM365 590h809q2 157 -88 250.5t-244 93.5q-156 0 -289.5 -96.5t-187.5 -247.5z" />
    <glyph glyph-name="Itilde" unicode="&#x128;" horiz-adv-x="290" vert-adv-y="2007" 
d="M598 1556q-32 0 -62.5 12.5t-46.5 24.5t-38 33q-19 18 -29 26t-24.5 14.5t-30.5 6.5q-69 0 -66 -110h-129q1 99 62 165t151 66q32 0 62.5 -12.5t46.5 -24.5t38 -33q21 -18 30.5 -26t24.5 -14.5t31 -6.5q65 0 68 115h125q-3 -100 -64 -168t-149 -68zM487 1413l-229 -1454
h-127l229 1454h127z" />
    <glyph glyph-name="itilde" unicode="&#x129;" horiz-adv-x="348" vert-adv-y="2007" 
d="M543 1180q-75 0 -148 69q-19 18 -29 26t-24.5 14.5t-30.5 6.5q-68 0 -65 -110h-129q1 99 62 165t151 66q74 0 147 -69q22 -20 31 -27t24 -14t31 -7q65 0 68 115h125q-3 -100 -64 -167.5t-149 -67.5zM457 1036l-170 -1077h-125l170 1077h125z" />
    <glyph glyph-name="dotlessi" unicode="&#x131;" horiz-adv-x="458" vert-adv-y="2007" 
d="M457 1036l-170 -1077h-125l170 1077h125z" />
    <glyph glyph-name="Nacute" unicode="&#x143;" horiz-adv-x="1370" vert-adv-y="2007" 
d="M1251 1917l-309 -361h-141l305 361h145zM451 1180l-193 -1221h-127l229 1454h107l780 -1220l193 1220h127l-230 -1454h-106z" />
    <glyph glyph-name="nacute" unicode="&#x144;" horiz-adv-x="1130" vert-adv-y="2007" 
d="M1061 1548l-309 -360h-142l305 360h146zM344 518l-88 -559h-125l170 1077h125l-25 -159q85 87 195.5 133.5t232.5 46.5q198 0 299.5 -130t67.5 -341l-98 -627h-125l98 627q26 159 -44 253.5t-212 94.5q-185 0 -312.5 -113t-158.5 -303z" />
    <glyph glyph-name="OE" unicode="&#x152;" horiz-adv-x="2672" vert-adv-y="2007" 
d="M864 -61q-153 0 -280 58t-209.5 157.5t-117.5 238t-11 293.5q33 206 157.5 378t309.5 271t389 99q186 0 334 -85.5t223 -236.5l51 322h1045l-21 -123h-917l-84 -539h856l-21 -123h-856l-86 -547h918l-21 -122h-1044l45 280q-123 -150 -299 -235.5t-361 -85.5zM885 61
q126 0 246.5 49t214.5 132t159.5 199t85.5 245q27 172 -31 316t-185 226.5t-294 82.5q-169 0 -322.5 -82.5t-256 -226t-129.5 -316.5t30.5 -316.5t185 -226t296.5 -82.5z" />
    <glyph glyph-name="oe" unicode="&#x153;" horiz-adv-x="2281" vert-adv-y="2007" 
d="M684 -61q-156 0 -272 73t-168 202t-27 286q24 156 117 284t232.5 200.5t295.5 72.5q162 0 282 -78t167 -213q92 134 238 212.5t302 78.5q223 0 343.5 -147t89.5 -382l-11 -61h-948v-4q-17 -171 84.5 -286.5t267.5 -115.5q158 0 275 79.5t182 230.5l104 -41
q-78 -186 -231 -288.5t-350 -102.5q-151 0 -267.5 79t-162.5 211q-94 -135 -238.5 -212.5t-304.5 -77.5zM705 61q178 0 316.5 113.5t178.5 288.5l4 31q4 24 8 36q15 179 -88.5 291.5t-281.5 112.5q-187 0 -329 -123t-171 -311q-31 -189 73 -314t290 -125zM1354 590h809
q2 157 -88 250.5t-244 93.5q-156 0 -289.5 -96.5t-187.5 -247.5z" />
    <glyph glyph-name="Racute" unicode="&#x154;" horiz-adv-x="1312" vert-adv-y="2007" 
d="M1212 1917l-309 -361h-141l305 361h145zM365 631l-107 -672h-127l229 1454h654q201 0 307 -107t78 -284t-167.5 -284t-340.5 -107h-62l500 -672h-172l-493 672h-299zM995 1290h-526l-86 -536h526q146 0 244.5 72.5t118.5 195.5t-55 195.5t-222 72.5z" />
    <glyph glyph-name="racute" unicode="&#x155;" horiz-adv-x="804" vert-adv-y="2007" 
d="M864 1548l-309 -360h-141l305 360h145zM344 518l-88 -559h-125l170 1077h125l-25 -159q85 87 195.5 133.5t232.5 46.5q59 0 125 -17l-49 -118q-41 12 -90 12q-185 0 -312.5 -113t-158.5 -303z" />
    <glyph glyph-name="Rcaron" unicode="&#x158;" horiz-adv-x="1312" vert-adv-y="2007" 
d="M1315 1915l-377 -359h-74l-262 359h158l164 -219l233 219h158zM365 631l-107 -672h-127l229 1454h654q201 0 307 -107t78 -284t-167.5 -284t-340.5 -107h-62l500 -672h-172l-493 672h-299zM995 1290h-526l-86 -536h526q146 0 244.5 72.5t118.5 195.5t-55 195.5t-222 72.5
z" />
    <glyph glyph-name="rcaron" unicode="&#x159;" horiz-adv-x="804" vert-adv-y="2007" 
d="M1053 1550l-377 -358h-74l-262 358h158l164 -219l233 219h158zM344 518l-88 -559h-125l170 1077h125l-25 -159q85 87 195.5 133.5t232.5 46.5q59 0 125 -17l-49 -118q-41 12 -90 12q-185 0 -312.5 -113t-158.5 -303z" />
    <glyph glyph-name="Sacute" unicode="&#x15a;" horiz-adv-x="1261" vert-adv-y="2007" 
d="M1251 1917l-309 -361h-141l305 361h145zM711 -61q-249 0 -390.5 132.5t-121.5 348.5l139 33q-31 -174 79 -283t316 -109q177 0 292 79t138 216q15 103 -31 154.5t-186 85.5l-315 80q-321 80 -277 350q29 182 183.5 295t373.5 113q217 0 343 -116t120 -312l-127 -39
q8 160 -87.5 252t-270.5 92q-161 0 -272.5 -78.5t-131.5 -206.5q-14 -96 34 -149t175 -82l293 -76q54 -12 95.5 -26.5t88.5 -43t75.5 -65t42.5 -95t3 -131.5q-31 -190 -190 -304.5t-391 -114.5z" />
    <glyph glyph-name="sacute" unicode="&#x15b;" horiz-adv-x="1034" vert-adv-y="2007" 
d="M1016 1552l-309 -360h-142l305 360h146zM590 -61q-203 0 -315 99.5t-95 264.5l127 27q-26 -120 58.5 -195.5t244.5 -75.5q132 0 215.5 53.5t98.5 145.5q10 66 -25.5 101.5t-134.5 58.5l-246 57q-133 31 -188.5 96t-38.5 172q23 140 146 227t296 87q169 0 269 -86.5
t104 -237.5l-129 -28q6 107 -64.5 168t-199.5 61q-121 0 -202 -52.5t-95 -138.5q-9 -63 26 -96.5t133 -56.5l232 -53q41 -10 73 -20.5t70 -32.5t61 -50t35 -73.5t3 -102.5q-23 -144 -149.5 -231.5t-309.5 -87.5z" />
    <glyph glyph-name="Scircumflex" unicode="&#x15c;" horiz-adv-x="1261" vert-adv-y="2007" 
d="M961 1776l-234 -220h-158l377 359h74l262 -359h-158zM711 -61q-249 0 -390.5 132.5t-121.5 348.5l139 33q-31 -174 79 -283t316 -109q177 0 292 79t138 216q15 103 -31 154.5t-186 85.5l-315 80q-321 80 -277 350q29 182 183.5 295t373.5 113q217 0 343 -116t120 -312
l-127 -39q8 160 -87.5 252t-270.5 92q-161 0 -272.5 -78.5t-131.5 -206.5q-14 -96 34 -149t175 -82l293 -76q54 -12 95.5 -26.5t88.5 -43t75.5 -65t42.5 -95t3 -131.5q-31 -190 -190 -304.5t-391 -114.5z" />
    <glyph glyph-name="scircumflex" unicode="&#x15d;" horiz-adv-x="1034" vert-adv-y="2007" 
d="M795 1407l-234 -219h-158l377 358h74l262 -358h-158zM590 -61q-203 0 -315 99.5t-95 264.5l127 27q-26 -120 58.5 -195.5t244.5 -75.5q132 0 215.5 53.5t98.5 145.5q10 66 -25.5 101.5t-134.5 58.5l-246 57q-133 31 -188.5 96t-38.5 172q23 140 146 227t296 87
q169 0 269 -86.5t104 -237.5l-129 -28q6 107 -64.5 168t-199.5 61q-121 0 -202 -52.5t-95 -138.5q-9 -63 26 -96.5t133 -56.5l232 -53q41 -10 73 -20.5t70 -32.5t61 -50t35 -73.5t3 -102.5q-23 -144 -149.5 -231.5t-309.5 -87.5z" />
    <glyph glyph-name="Scedilla" unicode="&#x15e;" horiz-adv-x="1372" vert-adv-y="2007" 
d="M629 -530q-89 0 -134.5 53.5t-31.5 142.5q10 64 50.5 119t137.5 137l4 19q-226 15 -350.5 146t-105.5 333l139 33q-31 -174 79 -283t316 -109q177 0 292 79t138 216q15 103 -31 154.5t-186 85.5l-315 80q-321 80 -277 350q29 182 183.5 295t373.5 113q217 0 343 -116
t120 -312l-127 -39q8 160 -87.5 252t-270.5 92q-161 0 -272.5 -78.5t-131.5 -206.5q-14 -96 34 -149t175 -82l293 -76q54 -12 95.5 -26.5t88.5 -43t75.5 -65t42.5 -95t3 -131.5q-28 -174 -166 -286t-346 -131l-10 -62q-105 -89 -141.5 -130.5t-42.5 -82.5q-6 -39 7.5 -56.5
t51.5 -17.5q19 0 60 13q54 13 67 16l19 -113q-115 -38 -162 -38z" />
    <glyph glyph-name="scedilla" unicode="&#x15f;" horiz-adv-x="1144" vert-adv-y="2007" 
d="M516 -530q-89 0 -134.5 53.5t-31.5 142.5q10 64 51 119t138 137l4 19q-182 12 -280 109.5t-83 252.5l133 45q-37 -127 47 -208t250 -81q132 0 215.5 53.5t98.5 145.5q10 66 -25.5 101.5t-134.5 58.5l-246 57q-132 29 -188 95t-39 173q23 140 146 227t296 87
q169 0 269 -86.5t104 -237.5l-129 -49q12 117 -58.5 183.5t-205.5 66.5q-121 0 -202 -52.5t-95 -138.5q-9 -63 26 -96.5t133 -56.5l232 -53q41 -10 73 -20.5t70 -32.5t61 -50t35 -73.5t3 -102.5q-20 -127 -123 -211.5t-256 -103.5l-17 -66q-99 -82 -136 -125t-44 -86
q-6 -39 7.5 -56.5t51.5 -17.5q19 0 60 13q54 13 67 16l19 -113q-115 -38 -162 -38z" />
    <glyph glyph-name="Scaron" unicode="&#x160;" horiz-adv-x="1261" vert-adv-y="2007" 
d="M1346 1915l-377 -359h-74l-262 359h158l163 -219l234 219h158zM711 -61q-249 0 -390.5 132.5t-121.5 348.5l139 33q-31 -174 79 -283t316 -109q177 0 292 79t138 216q15 103 -31 154.5t-186 85.5l-315 80q-321 80 -277 350q29 182 183.5 295t373.5 113q217 0 343 -116
t120 -312l-127 -39q8 160 -87.5 252t-270.5 92q-161 0 -272.5 -78.5t-131.5 -206.5q-14 -96 34 -149t175 -82l293 -76q54 -12 95.5 -26.5t88.5 -43t75.5 -65t42.5 -95t3 -131.5q-31 -190 -190 -304.5t-391 -114.5z" />
    <glyph glyph-name="scaron" unicode="&#x161;" horiz-adv-x="1034" vert-adv-y="2007" 
d="M1178 1563l-377 -359h-74l-262 359h158l163 -220l234 220h158zM590 -61q-203 0 -315 99.5t-95 264.5l127 27q-26 -120 58.5 -195.5t244.5 -75.5q132 0 215.5 53.5t98.5 145.5q10 66 -25.5 101.5t-134.5 58.5l-246 57q-133 31 -188.5 96t-38.5 172q23 140 146 227t296 87
q169 0 269 -86.5t104 -237.5l-129 -28q6 107 -64.5 168t-199.5 61q-121 0 -202 -52.5t-95 -138.5q-9 -63 26 -96.5t133 -56.5l232 -53q41 -10 73 -20.5t70 -32.5t61 -50t35 -73.5t3 -102.5q-23 -144 -149.5 -231.5t-309.5 -87.5z" />
    <glyph glyph-name="Utilde" unicode="&#x168;" horiz-adv-x="1351" vert-adv-y="2007" 
d="M1036 1556q-32 0 -62.5 12.5t-46.5 24.5t-38 33q-19 18 -29 26t-24.5 14.5t-30.5 6.5q-69 0 -66 -110h-129q1 99 62 165t151 66q32 0 62.5 -12t47 -25t38.5 -33q21 -18 30.5 -26t24.5 -14.5t31 -6.5q64 0 67 115h125q-3 -100 -64 -168t-149 -68zM721 -61
q-175 0 -297.5 80.5t-173.5 227.5t-21 337l131 829h127l-131 -829q-37 -236 68 -378.5t317 -142.5t362 142.5t187 378.5l131 829h127l-131 -829q-46 -289 -238 -467t-458 -178z" />
    <glyph glyph-name="utilde" unicode="&#x169;" horiz-adv-x="1130" vert-adv-y="2007" 
d="M891 1186q-75 0 -148 69q-20 18 -29.5 26t-24 15t-30.5 7q-68 0 -65 -111h-129q1 99 62 165t151 66q74 0 147 -69q21 -18 30.5 -26t24.5 -14.5t31 -6.5q65 0 68 114h125q-3 -100 -64 -167.5t-149 -67.5zM569 -61q-198 0 -299 130t-67 341l98 626h125l-98 -626
q-26 -159 44 -254t212 -95q185 0 312.5 113t158.5 303l88 559h125l-170 -1077h-125l24 160q-85 -87 -195.5 -133.5t-232.5 -46.5z" />
    <glyph glyph-name="Uring" unicode="&#x16e;" horiz-adv-x="1351" vert-adv-y="2007" 
d="M979 1571q-92 0 -146 63.5t-40 153.5q14 89 89 153t167 64t146 -63.5t40 -153.5q-14 -89 -89 -153t-167 -64zM999 1690q42 0 76.5 29t40.5 69t-19 69t-67 29q-43 0 -78 -29t-41 -69t19.5 -69t68.5 -29zM721 -61q-175 0 -297.5 80.5t-173.5 227.5t-21 337l131 829h127
l-131 -829q-37 -236 68 -378.5t317 -142.5t362 142.5t187 378.5l131 829h127l-131 -829q-46 -289 -238 -467t-458 -178z" />
    <glyph glyph-name="uring" unicode="&#x16f;" horiz-adv-x="1130" vert-adv-y="2007" 
d="M811 1204q-92 0 -146 63.5t-40 153.5q14 89 89 153t167 64t146 -63.5t40 -153.5q-14 -89 -89 -153t-167 -64zM831 1323q42 0 76.5 29t40.5 69t-19 69.5t-67 29.5q-43 0 -78 -29.5t-41 -69.5t19.5 -69t68.5 -29zM569 -61q-198 0 -299 130t-67 341l98 626h125l-98 -626
q-26 -159 44 -254t212 -95q185 0 312.5 113t158.5 303l88 559h125l-170 -1077h-125l24 160q-85 -87 -195.5 -133.5t-232.5 -46.5z" />
    <glyph glyph-name="Wcircumflex" unicode="&#x174;" horiz-adv-x="2076" vert-adv-y="2007" 
d="M1352 1776l-234 -220h-157l376 359h74l262 -359h-157zM1280 1180l-596 -1221h-96l-244 1454h133l201 -1204l588 1204h102l207 -1204l582 1204h133l-703 -1454h-96z" />
    <glyph glyph-name="wcircumflex" unicode="&#x175;" horiz-adv-x="1679" vert-adv-y="2007" 
d="M1120 1442l-233 -219h-158l377 358h74l262 -358h-158zM1022 799l-434 -846h-107l-196 1085h133l157 -850l437 848h94l170 -848l424 850h133l-541 -1085h-106z" />
    <glyph glyph-name="Ycircumflex" unicode="&#x176;" horiz-adv-x="1474" vert-adv-y="2007" 
d="M1073 1776l-233 -220h-158l377 359h74l262 -359h-158zM936 508l-86 -549h-127l86 549l-485 905h151l418 -782l663 782h152z" />
    <glyph glyph-name="ycircumflex" unicode="&#x177;" horiz-adv-x="1251" vert-adv-y="2007" 
d="M905 1411l-233 -219h-158l377 358h74l262 -358h-158zM1413 1036l-911 -1425h-137l249 389l-338 1036h142l287 -893l571 893h137z" />
    <glyph glyph-name="Ydieresis" unicode="&#x178;" horiz-adv-x="1474" vert-adv-y="2007" 
d="M868 1647q-38 0 -60.5 26t-16.5 64q6 37 37 63.5t69 26.5t61 -26.5t17 -63.5q-6 -38 -37 -64t-70 -26zM1237 1647q-38 0 -61 26t-17 64q6 37 37.5 63.5t69.5 26.5t60.5 -26.5t16.5 -63.5q-6 -38 -37 -64t-69 -26zM936 508l-86 -549h-127l86 549l-485 905h151l418 -782
l663 782h152z" />
    <glyph glyph-name="Zacute" unicode="&#x179;" horiz-adv-x="1261" vert-adv-y="2007" 
d="M1208 1917l-309 -361h-141l305 361h145zM1247 82l-18 -123h-1098l12 80l1108 1251h-880l18 123h1069l-12 -78l-1110 -1253h911z" />
    <glyph glyph-name="zacute" unicode="&#x17a;" horiz-adv-x="1083" vert-adv-y="2007" 
d="M997 1548l-309 -360h-141l305 360h145zM1069 82l-18 -123h-920l14 92l850 862h-690l19 123h878l-14 -92l-850 -862h731z" />
    <glyph glyph-name="Zcaron" unicode="&#x17d;" horiz-adv-x="1261" vert-adv-y="2007" 
d="M1315 1915l-377 -359h-74l-262 359h158l164 -219l233 219h158zM1247 82l-18 -123h-1098l12 80l1108 1251h-880l18 123h1069l-12 -78l-1110 -1253h911z" />
    <glyph glyph-name="zcaron" unicode="&#x17e;" horiz-adv-x="1083" vert-adv-y="2007" 
d="M1198 1544l-377 -358h-73l-263 358h158l164 -219l233 219h158zM1069 82l-18 -123h-920l14 92l850 862h-690l19 123h878l-14 -92l-850 -862h731z" />
    <glyph glyph-name="florin" unicode="&#x192;" horiz-adv-x="1169" vert-adv-y="2007" 
d="M23 -379q-112 0 -170 82l92 109q15 -36 37.5 -52t60.5 -16q62 0 112 39.5t70 103.5l250 738h-270l20 123h295l109 331q57 164 179.5 259.5t276.5 95.5q169 0 250 -127l-100 -93q-54 97 -176 97q-106 0 -186.5 -65.5t-120.5 -182.5l-107 -315h447l-21 -123h-471l-252 -754
q-40 -113 -129 -181.5t-196 -68.5z" />
    <glyph glyph-name="circumflex" unicode="&#x2c6;" vert-adv-y="2007" 
d="M961 1776l-234 -220h-158l377 359h74l262 -359h-158z" />
    <glyph glyph-name="caron" unicode="&#x2c7;" vert-adv-y="2007" 
d="M1315 1915l-377 -359h-74l-262 359h158l164 -219l233 219h158z" />
    <glyph glyph-name="breve" unicode="&#x2d8;" vert-adv-y="2007" 
d="M846 1108q-138 0 -208 94t-32 232h121q-29 -89 10.5 -148t126.5 -59t145.5 59t57.5 148h121q-4 -137 -103.5 -231.5t-238.5 -94.5z" />
    <glyph glyph-name="dotaccent" unicode="&#x2d9;" vert-adv-y="2007" 
d="M922 1587q-38 0 -61 26t-17 64q6 37 37 63.5t69 26.5t61 -26.5t17 -63.5q-6 -38 -37 -64t-69 -26z" />
    <glyph glyph-name="ring" unicode="&#x2da;" vert-adv-y="2007" 
d="M915 1556q-92 0 -146 64t-40 154q14 89 89 153t167 64t146 -63.5t40 -153.5q-14 -89 -89 -153.5t-167 -64.5zM936 1675q42 0 76.5 29.5t40.5 69.5t-19 69t-67 29q-43 0 -78 -29t-41 -69t20 -69.5t68 -29.5z" />
    <glyph glyph-name="ogonek" unicode="&#x2db;" vert-adv-y="2007" 
d="M590 -430q-89 0 -134.5 54t-31.5 143q10 70 57 128.5t170 159.5l129 -35q-138 -109 -182 -156.5t-51 -96.5q-6 -39 7.5 -56.5t51.5 -17.5q22 0 60 12q59 15 65 16l21 -112q-118 -39 -162 -39z" />
    <glyph glyph-name="tilde" unicode="&#x2dc;" vert-adv-y="2007" 
d="M1036 1556q-32 0 -62.5 12.5t-46.5 24.5t-38 33q-19 18 -29 26t-24.5 14.5t-30.5 6.5q-69 0 -66 -110h-129q1 99 62 165t151 66q32 0 62.5 -12t47 -25t38.5 -33q21 -18 30.5 -26t24.5 -14.5t31 -6.5q64 0 67 115h125q-3 -100 -64 -168t-149 -68z" />
    <glyph glyph-name="hungarumlaut" unicode="&#x2dd;" vert-adv-y="2007" 
d="M1079 1915l-319 -359h-142l304 359h157zM1323 1915l-313 -359h-142l301 359h154z" />
    <glyph glyph-name="Wgrave" unicode="&#x1e80;" horiz-adv-x="2076" vert-adv-y="2007" 
d="M1350 1948l190 -361h-141l-195 361h146zM1280 1180l-596 -1221h-96l-244 1454h133l201 -1204l588 1204h102l207 -1204l582 1204h133l-703 -1454h-96z" />
    <glyph glyph-name="wgrave" unicode="&#x1e81;" horiz-adv-x="1679" vert-adv-y="2007" 
d="M1096 1589l190 -360h-141l-195 360h146zM1022 799l-434 -846h-107l-196 1085h133l157 -850l437 848h94l170 -848l424 850h133l-541 -1085h-106z" />
    <glyph glyph-name="Wacute" unicode="&#x1e82;" horiz-adv-x="2076" vert-adv-y="2007" 
d="M1597 1948l-309 -361h-141l305 361h145zM1280 1180l-596 -1221h-96l-244 1454h133l201 -1204l588 1204h102l207 -1204l582 1204h133l-703 -1454h-96z" />
    <glyph glyph-name="wacute" unicode="&#x1e83;" horiz-adv-x="1679" vert-adv-y="2007" 
d="M1335 1546l-309 -360h-141l305 360h145zM1022 799l-434 -846h-107l-196 1085h133l157 -850l437 848h94l170 -848l424 850h133l-541 -1085h-106z" />
    <glyph glyph-name="Wdieresis" unicode="&#x1e84;" horiz-adv-x="2076" vert-adv-y="2007" 
d="M1163 1604q-38 0 -61 26t-17 64q6 37 37.5 63.5t69.5 26.5t61 -26.5t17 -63.5q-6 -38 -37 -64t-70 -26zM1532 1604q-38 0 -61 26t-17 64q6 37 37.5 63.5t69.5 26.5t60.5 -26.5t16.5 -63.5q-6 -38 -37 -64t-69 -26zM1280 1180l-596 -1221h-96l-244 1454h133l201 -1204
l588 1204h102l207 -1204l582 1204h133l-703 -1454h-96z" />
    <glyph glyph-name="wdieresis" unicode="&#x1e85;" horiz-adv-x="1679" vert-adv-y="2007" 
d="M905 1233q-38 0 -61 26t-17 64q6 37 37.5 63.5t69.5 26.5t61 -26.5t17 -63.5q-6 -38 -37 -64t-70 -26zM1274 1233q-38 0 -61 26t-17 64q6 37 37.5 63.5t69.5 26.5t60.5 -26.5t16.5 -63.5q-6 -38 -37 -64t-69 -26zM1022 799l-434 -846h-107l-196 1085h133l157 -850
l437 848h94l170 -848l424 850h133l-541 -1085h-106z" />
    <glyph glyph-name="endash" unicode="&#x2013;" horiz-adv-x="1380" vert-adv-y="2007" 
d="M1335 584l-18 -123h-1106l18 123h1106z" />
    <glyph glyph-name="emdash" unicode="&#x2014;" horiz-adv-x="2240" vert-adv-y="2007" 
d="M2195 584l-18 -123h-1966l18 123h1966z" />
    <glyph glyph-name="quoteleft" unicode="&#x2018;" horiz-adv-x="557" vert-adv-y="2007" 
d="M655 1413l-264 -610h-131l8 53l264 557h123z" />
    <glyph glyph-name="quoteright" unicode="&#x2019;" horiz-adv-x="557" vert-adv-y="2007" 
d="M639 1360l-264 -557h-123l264 610h131z" />
    <glyph glyph-name="quotesinglbase" unicode="&#x201a;" horiz-adv-x="557" vert-adv-y="2007" 
d="M463 246l-264 -557h-123l264 610h131z" />
    <glyph glyph-name="quotedblleft" unicode="&#x201c;" horiz-adv-x="843" vert-adv-y="2007" 
d="M655 1413l-264 -610h-131l8 53l264 557h123zM942 1413l-264 -610h-131l8 53l264 557h123z" />
    <glyph glyph-name="quotedblright" unicode="&#x201d;" horiz-adv-x="843" vert-adv-y="2007" 
d="M639 1360l-264 -557h-123l264 610h131zM926 1360l-264 -557h-123l264 610h131z" />
    <glyph glyph-name="quotedblbase" unicode="&#x201e;" horiz-adv-x="843" vert-adv-y="2007" 
d="M463 246l-264 -557h-123l264 610h131zM750 246l-265 -557h-123l265 610h131z" />
    <glyph glyph-name="dagger" unicode="&#x2020;" horiz-adv-x="745" vert-adv-y="2007" 
d="M631 1247l-76 -481h-123l76 481h-225l20 125h225l29 184h123l-29 -184h226l-21 -125h-225z" />
    <glyph glyph-name="daggerdbl" unicode="&#x2021;" horiz-adv-x="745" vert-adv-y="2007" 
d="M584 950l-29 -184h-123l29 184h-225l20 125h225l27 172h-225l20 125h225l29 184h123l-29 -184h226l-21 -125h-225l-27 -172h225l-20 -125h-225z" />
    <glyph glyph-name="bullet" unicode="&#x2022;" horiz-adv-x="874" vert-adv-y="2007" 
d="M477 260q-128 0 -200.5 82.5t-53.5 206.5q20 120 121 205.5t225 85.5q125 0 199.5 -85.5t54.5 -205.5q-19 -123 -118 -206t-228 -83z" />
    <glyph glyph-name="ellipsis" unicode="&#x2026;" horiz-adv-x="1155" vert-adv-y="2007" 
d="M223 -45q-38 0 -61 26t-19 64q6 37 37.5 63.5t69.5 26.5t61 -26.5t17 -63.5q-4 -38 -35 -64t-70 -26zM571 -45q-38 0 -61 26t-18 64q6 37 37 63.5t69 26.5t61 -26.5t17 -63.5q-4 -38 -35 -64t-70 -26zM920 -45q-38 0 -61 26t-19 64q6 37 37 63.5t69 26.5t61 -26.5
t17 -63.5q-4 -38 -34.5 -64t-69.5 -26z" />
    <glyph glyph-name="perthousand" unicode="&#x2030;" horiz-adv-x="2650" vert-adv-y="2007" 
d="M621 713q-154 0 -246.5 104.5t-67.5 253.5q25 154 147.5 258.5t280.5 104.5q160 0 249.5 -104t64.5 -259q-25 -151 -149 -254.5t-279 -103.5zM1774 1413l-1338 -1454h-149l1337 1454h150zM639 834q106 0 191 69t100 168q15 103 -46.5 174.5t-166.5 71.5
q-106 0 -192 -72.5t-101 -173.5q-15 -98 48 -167.5t167 -69.5zM1354 -61q-154 0 -245.5 104.5t-68.5 253.5q25 154 147.5 258t280.5 104q160 0 249.5 -103.5t64.5 -258.5q-25 -151 -149 -254.5t-279 -103.5zM2132 -61q-154 0 -245 104.5t-68 253.5q25 154 147.5 258
t280.5 104q160 0 249 -103.5t64 -258.5q-25 -151 -149 -254.5t-279 -103.5zM1374 59q106 0 190 69t99 169q17 103 -45 174.5t-168 71.5t-192 -72.5t-101 -173.5q-15 -98 49 -168t168 -70zM2152 59q106 0 190 69t99 169q17 103 -45 174.5t-168 71.5t-192 -72.5t-101 -173.5
q-15 -98 49 -168t168 -70z" />
    <glyph glyph-name="guilsinglleft" unicode="&#x2039;" horiz-adv-x="534" vert-adv-y="2007" 
d="M291 537l239 -406h-153l-236 406l365 405h153z" />
    <glyph glyph-name="guilsinglright" unicode="&#x203a;" horiz-adv-x="534" vert-adv-y="2007" 
d="M561 537l-362 -406h-154l367 406l-238 405h154z" />
    <glyph glyph-name="fraction" unicode="&#x2044;" horiz-adv-x="507" vert-adv-y="2007" 
d="M1106 1413l-1337 -1454h-150l1337 1454h150z" />
    <glyph glyph-name="Euro" unicode="&#x20ac;" horiz-adv-x="1757" vert-adv-y="2007" 
d="M1038 -59q-209 0 -335 137t-138 377h-264l21 123h245q0 33 11 108q4 26 16 86h-242l19 123h258q88 251 260.5 395t386.5 144q211 0 339.5 -144t131.5 -385l-123 -43q-4 211 -102.5 330t-266.5 119q-161 0 -292 -110t-205 -306h616l-55 -123h-598q-2 -13 -8 -42t-8 -44
q-9 -78 -11 -108h545l-51 -123h-494q15 -184 111.5 -288t253.5 -104q168 0 302 116t206 325l114 -37q-83 -243 -256.5 -384.5t-386.5 -141.5z" />
    <glyph glyph-name="uni2116" unicode="&#x2116;" horiz-adv-x="2662" vert-adv-y="2007" 
d="M2157 666q-160 0 -253 111.5t-67 273.5q26 161 154 272t288 111q163 0 254.5 -110t65.5 -273q-26 -164 -152.5 -274.5t-289.5 -110.5zM543 1180l-193 -1221h-127l230 1454h106l780 -1220l193 1220h127l-229 -1454h-107zM2177 788q109 0 194.5 75.5t102.5 187.5
q19 110 -43.5 185t-171.5 75q-106 0 -192 -75.5t-103 -184.5q-17 -110 45 -186.5t168 -76.5zM2497 537l-19 -123h-721l19 123h721z" />
    <glyph glyph-name="uni2117" unicode="&#x2117;" horiz-adv-x="1736" vert-adv-y="2007" 
d="M858 -61q-208 0 -363.5 97.5t-226 268t-37.5 377.5q34 209 159 381.5t311.5 271.5t394.5 99q156 0 285 -58.5t212 -158.5t118.5 -239.5t10.5 -295.5q-34 -207 -158.5 -377.5t-311 -268t-394.5 -97.5zM879 61q173 0 328.5 82t259 224.5t130.5 316.5q27 176 -31 320
t-187 226.5t-302 82.5t-329 -82.5t-260.5 -227t-131.5 -319.5q-27 -174 31.5 -316.5t188.5 -224.5t303 -82zM788 526l-45 -282h-122l135 856h352q143 0 219.5 -80t56.5 -207q-20 -128 -122 -207.5t-244 -79.5h-230zM1090 983h-230l-53 -340h229q91 0 152.5 46t73.5 124
t-34.5 124t-137.5 46z" />
    <glyph glyph-name="trademark" unicode="&#x2122;" horiz-adv-x="1406" vert-adv-y="2007" 
d="M627 1296l-78 -497h-123l78 497h-203l18 117h529l-19 -117h-202zM942 1118l-49 -319h-121l96 614h105l153 -420l285 420h102l-96 -614h-121l50 319l-211 -315h-80z" />
    <glyph glyph-name="minus" unicode="&#x2212;" horiz-adv-x="1298" vert-adv-y="2007" 
d="M1229 686l-19 -123h-942l19 123h942z" />
    <glyph glyph-name="approxequal" unicode="&#x2248;" horiz-adv-x="1298" vert-adv-y="2007" 
d="M995 694q-50 0 -99 13t-72.5 24t-67.5 35q-34 20 -56 31t-57 20.5t-74 9.5q-60 0 -122 -21.5t-89 -53.5l-57 24l12 80q44 41 121.5 67.5t153.5 26.5q48 0 95 -12t73 -24.5t65 -34.5q43 -23 61.5 -32t56 -19.5t75.5 -10.5q65 0 131 28t78 60l41 -6l-23 -137
q-51 -31 -118.5 -49.5t-127.5 -18.5zM940 346q-51 0 -99.5 13t-73 24.5t-67.5 34.5q-35 21 -56 31.5t-56 20t-74 9.5q-59 0 -120.5 -22t-90.5 -54l-57 25l12 80q46 41 123.5 67.5t153.5 26.5q48 0 95 -12.5t72.5 -25t63.5 -34.5q42 -22 61 -31.5t56 -19.5t75 -10
q65 0 131 28t78 60l41 -6l-22 -137q-51 -31 -118.5 -49.5t-127.5 -18.5z" />
    <glyph glyph-name="notequal" unicode="&#x2260;" horiz-adv-x="1298" vert-adv-y="2007" 
d="M625 399l-189 -225h-151l188 225h-231l18 123h315l201 246h-477l20 123h562l186 225h152l-187 -225h230l-21 -123h-313l-201 -246h475l-18 -123h-559z" />
    <glyph glyph-name="lessequal" unicode="&#x2264;" horiz-adv-x="958" vert-adv-y="2007" 
d="M403 666l527 -238l-23 -137l-733 334l14 82l838 333l-20 -137zM905 276l-18 -122h-778l18 122h778z" />
    <glyph glyph-name="greaterequal" unicode="&#x2265;" horiz-adv-x="958" vert-adv-y="2007" 
d="M995 707l-14 -82l-840 -334l23 137l600 238l-524 237l20 137zM918 276l-19 -122h-778l18 122h779z" />
    <glyph glyph-name="_Fontastica" horiz-adv-x="1603" vert-adv-y="2007" 
d="M385 535v-349h-201q-3 0 -4.5 2t-1.5 4v3v1206h905v-178h-698v-502h698v-186h-698zM1425 1401v-1215h-905v189h699v493h-699v193h699v340h206zM365 -2q-31 0 -51.5 20t-20.5 52q0 30 20.5 49.5t51.5 19.5t52 -19.5t21 -49.5q0 -31 -20.5 -51.5t-52.5 -20.5zM911 -2
q-32 0 -61 22l14 29q6 -7 21 -13.5t26 -6.5q3 0 9 1l6 1q4 4 4 8q0 6 -4 8q-10 7 -23 10q-10 2 -24 9q-8 0 -15 10q-6 9 -6 20q0 21 16 32t37 11q28 0 56 -14l-15 -29q-22 15 -41 15q-16 0 -16 -11q0 -8 25 -16q17 -3 24 -8q6 -2 17 -13q6 -9 6 -22q0 -20 -17 -31.5
t-39 -11.5zM1227 -2q-29 0 -49.5 20.5t-20.5 51.5q0 30 20.5 49.5t51.5 19.5q35 0 53 -24l-20 -25q-13 19 -33 19q-15 0 -26 -10.5t-11 -30.5q0 -13 4 -19q12 -18 33 -18q19 0 33 14l22 -20q-31 -27 -57 -27zM219 49v-47h-35v135h101v-28h-66v-31h60v-29h-60zM489 82v-80
h-34v135h30l64 -82l-2 82h35v-135h-31zM670 109v-107h-33v107h-41v28h117v-28h-43zM743 25l-10 -23h-35l58 135h35l57 -135h-37l-10 23h-58zM1049 109v-107h-37v107h-39v28h114v-28h-38zM1139 137v-135h-35v135h35zM1327 25l-8 -23h-37l57 135h37l58 -135h-39l-9 23h-59z
M365 29q16 0 26 12t10 27q0 8 -4 20q-9 21 -30 21q-17 0 -28 -11.5t-11 -27.5q0 -15 11 -28t26 -13zM791 51l-17 49l-20 -49h37zM1376 51l-18 49l-19 -49h37z" />
    <glyph glyph-name="_VendorID" horiz-adv-x="1261" vert-adv-y="2007" 
d="M854 791q-106 0 -172 55t-55 131h75q-17 -44 30 -80.5t122 -36.5q63 0 107.5 27t44.5 67q0 70 -160 95q-205 30 -205 155q0 69 59.5 113.5t147.5 44.5q98 0 161.5 -53t51.5 -125h-76q19 41 -24 73.5t-113 32.5q-58 0 -96.5 -24t-38.5 -60q0 -66 143 -88
q108 -15 164.5 -57t56.5 -107q0 -70 -63.5 -116.5t-159.5 -46.5zM582 1040h-332v-237h-72v547h424v-70h-352v-168h332v-72zM1077 311q0 -71 -63 -117.5t-160 -46.5q-104 0 -170.5 54.5t-56.5 130.5h75q-17 -43 30 -78t122 -35q63 0 107.5 26t44.5 64q0 73 -156 97
q-102 13 -155.5 53t-53.5 102q0 69 59.5 113.5t149.5 44.5q98 0 160.5 -53t50.5 -125h-76q19 40 -24 73t-111 33q-57 0 -97 -24.5t-40 -59.5q0 -32 36.5 -54.5t104.5 -31.5q223 -35 223 -166zM602 637h-352v-168h332v-72h-332v-239h-72v549h424v-70zM459 117q-2 -2 -2 -4v-2
h12v-11h-12v-37h-13v37h-6v9l6 2v4q0 7 7 10q0 4 10 4t14 -2l-4 -10q-4 2 -8 2t-4 -2zM768 129q6 0 6 -6v-6h-6q-8 0 -8 6t8 6zM594 121h8v-10h14v-11h-14v-22q0 -1 1 -2t1 -2h4h8v-11q-2 0 -5.5 -1t-6.5 -1q-2 0 -12 5q-4 4 -4 12v22h-4v6l6 5zM729 121h8v-10h15v-11h-15
v-22q0 -2 2 -4h13v-11q-1 0 -6 -1t-7 -1q-7 0 -12 5q-2 2 -2 12v22h-8v6l8 5zM647 113q3 0 15 -4q4 -8 4 -15v-31h-11l-2 5q-1 0 -6 -5q-2 -2 -10 -2l-10 5q-4 4 -4 12q0 7 6 10q4 4 16 4h6v2q0 8 -6 8q-4 0 -12 -4l-6 11q12 4 20 4zM852 113q6 0 14 -4q6 -6 6 -15v-31h-10
l-2 5l-6 -5q-2 -2 -8 -2q-2 0 -12 5q-5 2 -5 12q0 6 7 10q2 4 16 4h8v2q0 8 -8 8q-2 0 -14 -4l-4 11q12 4 18 4zM1077 109q6 -6 6 -15v-31h-14v29q0 4 -2 6q0 2 -6 2l-6 -2q-2 -2 -2 -12v-23h-15v29q0 2 -2 6q0 2 -4 2q-6 0 -8 -2q0 -2 -1 -6t-1 -8v-21h-12v48h10l2 -7
q2 5 4 5q4 2 10 2q12 0 15 -7h2q0 5 4 5l4 2h4q10 0 12 -2zM242 90l6 21h12l-12 -48h-17l-4 17l-4 20l-8 -37h-14l-15 48h15l4 -21l4 -16v8l2 6l4 23h16l5 -23q2 -2 2 -4v-4v-2v-4l2 8q0 1 1 4t1 4zM315 90l7 21h14l-17 -48h-12l-4 17l-4 20l-10 -37h-13l-14 48h12l7 -21
q0 -3 1 -8t1 -8l2 8v6l6 23h14l6 -23v-8q2 0 2 -2v-4q0 6 2 8v8zM391 90l6 21h13l-13 -48h-14l-4 17l-4 20h-2l-11 -37h-12l-12 48h12l4 -21q0 -3 1 -8t1 -8h2q0 6 2 8v6l5 23h16l4 -23q0 -1 1 -2t1 -2v-4v-2q2 -2 2 -4v8q0 1 1 4t1 4zM510 109q7 -7 8 -9q0 -2 1 -6.5
t1 -7.5q0 -9 -6 -18q-7 -7 -18 -7q-3 0 -13 5l-8 8v12q0 14 4 20q10 5 17 5q10 0 14 -2zM569 106q6 -3 6 -12v-31h-14v29v6q-2 2 -8 2q-4 0 -6 -2q-2 -4 -2 -14v-21h-15v48h11l2 -7q5 5 6 5q2 2 8 2q9 0 12 -5zM700 100h-6q-6 0 -6 -2t2 -2l10 -4l9 -4q0 -2 4 -6v-4
q0 -8 -4 -12q-10 -5 -17 -5q-6 0 -8 2q-5 0 -8 3v10q4 -2 8 -2q2 -2 8 -2q8 0 8 4v4h-4q-1 0 -3.5 1t-4.5 1l-6 4q-4 4 -4 6q-2 2 -2 6q0 8 6 11q2 2 14 2q13 0 17 -2l-4 -11q-2 2 -9 2zM774 63h-12v48h12v-48zM809 100q-10 0 -10 -14q0 -12 10 -12h6q2 0 6 4v-12
q-3 -3 -6 -3q-2 -2 -8 -2q-23 0 -23 25q0 9 7 20q10 5 18 5q10 0 14 -2l-4 -11q-1 0 -3 1t-3 1h-4zM932 100q-10 0 -10 -14q0 -12 10 -12h6q2 0 6 4v-12q-3 -3 -6 -3q-2 -2 -8 -2q-23 0 -23 25q0 11 6 20q10 5 19 5q8 0 14 -2l-4 -11q-1 0 -3 1t-3 1h-4zM987 109q7 -4 10 -9
q2 -4 2 -14t-8 -18q-7 -7 -16 -7q-5 0 -10 5q-9 4 -9 8q-4 8 -4 12q0 11 6 20q10 5 17 5q10 0 12 -2zM504 76q2 4 2 10q0 8 -2 12q-2 2 -8 2q-7 0 -7 -2q-2 -4 -2 -12q0 -6 2 -10q0 -2 7 -2q6 0 8 2zM983 76q2 4 2 10q0 8 -2 12q0 2 -8 2q-4 0 -6 -2q-2 -4 -2 -12
q0 -6 2 -10q2 -2 6 -2q8 0 8 2zM651 80v4h-2q-2 0 -5.5 -1t-4.5 -1q-2 0 -2 -4q0 -6 6 -6l6 2zM860 80v4h-6q-2 0 -4.5 -1t-3.5 -1q-2 0 -2 -4q0 -6 6 -6q1 0 3 1t3 1zM428 74q2 0 2 -6q0 -3 -2 -5l-4 -2q-4 0 -8 2v5v6q4 2 8 2t4 -2zM891 76q4 0 6 -2t2 -6q-2 -3 -2 -5
q-2 -2 -6 -2t-4 2l-2 5q0 6 2 6q0 2 4 2z" />
    </font>
</defs>
</svg>
