<?xml version="1.0" standalone="no"?>
<!DOCTYPE svg PUBLIC "-//W3C//DTD SVG 1.1//EN" "http://www.w3.org/Graphics/SVG/1.1/DTD/svg11.dtd" >
<svg xmlns="http://www.w3.org/2000/svg" xmlns:xlink="http://www.w3.org/1999/xlink" version="1.1">
<metadata>
Created by FontForge 20170731 at Sun Jan 23 15:08:57 2022
 By Aleksey,,,
Copyright (c) 2022 by Fontastica. All rights reserved.
</metadata>
<defs>
<font id="KrossNeueGrotesk-Regular" horiz-adv-x="1351" vert-adv-y="2048" >
  <font-face 
    font-family="Kross Neue Grotesk"
    font-weight="400"
    font-stretch="normal"
    units-per-em="2048"
    panose-1="0 0 5 0 0 0 0 0 0 0"
    ascent="1638"
    descent="-410"
    x-height="1047"
    cap-height="1423"
    bbox="-389 -559 2544 2015"
    underline-thickness="102"
    underline-position="-307"
    unicode-range="U+000D-2265"
  />
<missing-glyph horiz-adv-x="1603" vert-adv-y="2007" 
d="M1303 1430v-1436h-1002v1436h1002zM1124 1315h-645l324 -488zM725 713l-295 442v-887zM1174 1155l-293 -442l293 -447v889zM1124 113l-319 485l-324 -485h643z" />
    <glyph glyph-name="f_f.liga" unicode="ff" horiz-adv-x="1794" vert-adv-y="2007" 
d="M473 903v-954h-145v954h-195v144h195v155q0 166 92.5 265.5t247.5 99.5q119 0 213 -66l-66 -133q-49 55 -145 55q-92 0 -144.5 -58.5t-52.5 -162.5v-155h619v155q0 166 92.5 265.5t247.5 99.5q119 0 213 -66l-66 -133q-49 55 -145 55q-92 0 -144.5 -58.5t-52.5 -162.5
v-155h424v-144h-424v-954h-145v954h-619z" />
    <glyph glyph-name="f_t.liga" unicode="ft" horiz-adv-x="1800" vert-adv-y="2007" 
d="M1413 -72q-139 0 -227 90.5t-88 233.5v651h-625v-954h-145v954h-195v144h195v155q0 166 92.5 265.5t247.5 99.5q119 0 213 -66l-66 -133q-49 55 -145 55q-92 0 -144.5 -58.5t-52.5 -162.5v-155h625v335h145v-335h389v-144h-389v-651q0 -83 46 -131.5t126 -48.5
q51 0 93.5 24t86.5 78l86 -117q-111 -129 -268 -129z" />
    <glyph glyph-name="t_t.liga" unicode="tt" horiz-adv-x="1837" vert-adv-y="2007" 
d="M668 -72q-139 0 -227.5 90.5t-88.5 233.5v651h-219v144h219v335h146v-335h637v335h145v-335h389v-144h-389v-651q0 -83 46 -131.5t126 -48.5q51 0 93.5 24t86.5 78l86 -117q-111 -129 -268 -129q-139 0 -227 90.5t-88 233.5v651h-637v-651q0 -83 46 -131.5t126 -48.5
q51 0 93.5 24t86.5 78l86 -117q-111 -129 -268 -129z" />
    <glyph glyph-name=".notdef" horiz-adv-x="1603" vert-adv-y="2007" 
d="M1303 1430v-1436h-1002v1436h1002zM1124 1315h-645l324 -488zM725 713l-295 442v-887zM1174 1155l-293 -442l293 -447v889zM1124 113l-319 485l-324 -485h643z" />
    <glyph glyph-name=".null" horiz-adv-x="0" vert-adv-y="0" 
 />
    <glyph glyph-name="nonmarkingreturn" horiz-adv-x="682" 
 />
    <glyph glyph-name="NULL" horiz-adv-x="122" vert-adv-y="2007" 
 />
    <glyph glyph-name="NULL" horiz-adv-x="122" vert-adv-y="2007" 
 />
    <glyph glyph-name="CR" unicode="&#xd;" horiz-adv-x="122" vert-adv-y="2007" 
 />
    <glyph glyph-name="space" unicode=" " horiz-adv-x="655" vert-adv-y="2007" 
 />
    <glyph glyph-name="exclam" unicode="!" horiz-adv-x="634" vert-adv-y="2007" 
d="M391 1423v-1108h-145v1108h145zM317 -55q-43 0 -72.5 29.5t-29.5 70.5t30.5 70.5t71.5 29.5q42 0 72.5 -29.5t30.5 -70.5t-30 -70.5t-73 -29.5z" />
    <glyph glyph-name="quotedbl" unicode="&#x22;" horiz-adv-x="636" vert-adv-y="2007" 
d="M279 1423v-630h-146v630h146zM504 1423v-630h-146v630h146z" />
    <glyph glyph-name="numbersign" unicode="#" horiz-adv-x="1484" vert-adv-y="2007" 
d="M455 334l-101 -385h-151l100 385h-225l35 143h225l104 397h-227l43 144h221l105 405h151l-104 -405h399l105 405h151l-104 -405h227l-43 -144h-221l-105 -397h226l-35 -143h-225l-101 -385h-151l100 385h-399zM993 874h-399l-105 -397h400z" />
    <glyph glyph-name="dollar" unicode="$" horiz-adv-x="1296" vert-adv-y="2007" 
d="M729 -14v-242h-145v250q-203 25 -328.5 148.5t-128.5 303.5l147 43q-7 -135 76.5 -229.5t233.5 -120.5v500l-90 20q-318 77 -318 336q0 159 111.5 265.5t296.5 123.5v244h145v-248q182 -23 294.5 -135t115.5 -274l-140 -43q1 121 -71 202t-199 103v-479l96 -23
q51 -11 91.5 -24t90 -40.5t82.5 -62.5t55.5 -91.5t22.5 -127.5q0 -169 -119 -277t-319 -122zM541 801l43 -10v446q-121 -13 -189.5 -77t-68.5 -163q0 -80 47.5 -123.5t167.5 -72.5zM799 586l-70 16v-469q134 11 211.5 77.5t77.5 172.5q0 85 -50 131.5t-169 71.5z" />
    <glyph glyph-name="percent" unicode="%" horiz-adv-x="1884" vert-adv-y="2007" 
d="M514 702q-158 0 -269.5 107.5t-111.5 261.5q0 158 110 265.5t271 107.5q163 0 272 -106.5t109 -266.5q0 -155 -110.5 -262t-270.5 -107zM1573 1423l-1124 -1474h-175l1125 1474h174zM514 844q101 0 171.5 66t70.5 161q0 98 -70.5 167t-171.5 69t-172.5 -69t-71.5 -167
q0 -94 72 -160.5t172 -66.5zM1370 -72q-158 0 -269.5 107.5t-111.5 261.5q0 158 110 265.5t271 107.5q163 0 272 -106.5t109 -266.5q0 -155 -110.5 -262t-270.5 -107zM1370 70q101 0 171.5 66t70.5 161q0 98 -70.5 166.5t-171.5 68.5t-172.5 -68.5t-71.5 -166.5
q0 -94 72 -160.5t172 -66.5z" />
    <glyph glyph-name="ampersand" unicode="&#x26;" horiz-adv-x="1601" vert-adv-y="2007" 
d="M1251 256l299 -236l-86 -112l-290 231q-89 -101 -215 -156t-271 -55q-232 0 -376 120.5t-144 313.5q0 129 69 239.5t191 178.5q-100 131 -100 273q0 172 113.5 281.5t293.5 109.5q183 0 297 -113t121 -305l-141 -43q-1 156 -73 238t-206 82q-117 0 -188.5 -68.5
t-71.5 -179.5q0 -116 85 -216.5t312 -281.5l267 -211q51 117 51 258v125h143v-125q0 -197 -80 -348zM688 70q112 0 208.5 40.5t162.5 114.5l-277 224q-168 131 -258 221q-213 -106 -213 -308q0 -133 102.5 -212.5t274.5 -79.5z" />
    <glyph glyph-name="quotesingle" unicode="'" horiz-adv-x="411" vert-adv-y="2007" 
d="M279 1423v-630h-146v630h146z" />
    <glyph glyph-name="parenleft" unicode="(" horiz-adv-x="817" vert-adv-y="2007" 
d="M686 -139l-102 -101q-217 191 -323.5 419t-106.5 505q0 554 434 924l96 -107q-198 -173 -290.5 -370.5t-92.5 -446.5q0 -250 93.5 -450t291.5 -373z" />
    <glyph glyph-name="parenright" unicode=")" horiz-adv-x="817" vert-adv-y="2007" 
d="M233 -240l-102 101q198 173 291.5 373t93.5 450q0 249 -92.5 446.5t-290.5 370.5l96 107q435 -371 435 -924q0 -277 -106.5 -505t-324.5 -419z" />
    <glyph glyph-name="asterisk" unicode="*" horiz-adv-x="954" vert-adv-y="2007" 
d="M549 1008v-273h-143v273l-238 -134l-78 119l242 140l-242 137l78 119l238 -134v271h143v-271l237 134l78 -119l-241 -137l241 -140l-78 -119z" />
    <glyph glyph-name="plus" unicode="+" horiz-adv-x="1310" vert-adv-y="2007" 
d="M727 553v-410h-143v410h-410v143h410v410h143v-410h410v-143h-410z" />
    <glyph glyph-name="comma" unicode="," horiz-adv-x="466" vert-adv-y="2007" 
d="M358 244l-178 -566h-145l174 631h149v-65z" />
    <glyph glyph-name="hyphen" unicode="-" horiz-adv-x="1019" vert-adv-y="2007" 
d="M887 594v-143h-754v143h754z" />
    <glyph glyph-name="period" unicode="." horiz-adv-x="471" vert-adv-y="2007" 
d="M236 -55q-43 0 -73 29.5t-30 70.5t30.5 70.5t72.5 29.5q41 0 71.5 -29.5t30.5 -70.5t-29.5 -70.5t-72.5 -29.5z" />
    <glyph glyph-name="slash" unicode="/" horiz-adv-x="774" vert-adv-y="2007" 
d="M774 1567l-624 -1766h-150l625 1766h149z" />
    <glyph glyph-name="zero" unicode="0" horiz-adv-x="1462" vert-adv-y="2007" 
d="M731 -72q-176 0 -312 95t-211 267.5t-75 395.5t75 395.5t211 267.5t312 95t312 -95t211 -267.5t75 -395.5t-75 -395.5t-211 -267.5t-312 -95zM731 74q203 0 327 168t124 444q0 278 -124 446t-327 168t-326.5 -168t-123.5 -446q0 -276 123.5 -444t326.5 -168z" />
    <glyph glyph-name="one" unicode="1" horiz-adv-x="808" vert-adv-y="2007" 
d="M676 1423v-1474h-148v1272l-395 -240v174l451 268h92z" />
    <glyph glyph-name="two" unicode="2" horiz-adv-x="1282" vert-adv-y="2007" 
d="M1149 92v-143h-1016v100l533 475q96 83 147.5 132.5t94 105t58 106.5t15.5 115q0 145 -93.5 231t-248.5 86q-174 0 -270 -112.5t-76 -296.5l-152 18q-11 235 128.5 385t369.5 150q218 0 352.5 -127.5t134.5 -333.5q0 -70 -17.5 -133t-43 -112t-77 -108t-97 -103
t-125.5 -115l-365 -320h748z" />
    <glyph glyph-name="three" unicode="3" horiz-adv-x="1310" vert-adv-y="2007" 
d="M676 -72q-248 0 -398.5 151.5t-144.5 397.5l148 29q-12 -198 95.5 -316t299.5 -118q163 0 259.5 82.5t96.5 220.5q0 125 -92.5 194.5t-259.5 69.5h-231v141h229q149 0 235 65.5t86 178.5q0 126 -91.5 201t-245.5 75q-177 0 -274.5 -107t-88.5 -292l-147 29
q-5 229 137 371.5t375 142.5q215 0 348 -116t133 -304q0 -99 -45 -178.5t-129 -128.5q101 -51 154 -138t53 -202q0 -199 -139.5 -324t-362.5 -125z" />
    <glyph glyph-name="four" unicode="4" horiz-adv-x="1470" vert-adv-y="2007" 
d="M1079 332v-383h-147v383h-799v125l830 966h116v-948h258v-143h-258zM932 475v684l-588 -684h588z" />
    <glyph glyph-name="five" unicode="5" horiz-adv-x="1308" vert-adv-y="2007" 
d="M666 -72q-248 0 -396.5 154.5t-136.5 400.5l152 29q-22 -197 83.5 -318.5t297.5 -121.5q167 0 265.5 86.5t98.5 232.5q0 287 -342 287h-461l47 745h859v-143h-721l-29 -459h307q232 0 359 -112.5t127 -317.5q0 -206 -141.5 -334.5t-368.5 -128.5z" />
    <glyph glyph-name="six" unicode="6" horiz-adv-x="1345" vert-adv-y="2007" 
d="M702 -72q-272 0 -420.5 184t-148.5 521q0 383 153.5 597t428.5 214q184 0 310 -100t155 -269l-146 -28q-17 120 -102 186.5t-219 66.5q-88 0 -159 -31t-118 -83t-80 -125t-50 -150t-23 -166q72 90 183 140.5t236 50.5q224 0 367 -140.5t143 -361.5q0 -223 -143 -364.5
t-367 -141.5zM702 74q161 0 263 100t102 260q0 158 -102 257.5t-263 99.5q-166 0 -275.5 -103t-109.5 -260q0 -154 109 -254t276 -100z" />
    <glyph glyph-name="seven" unicode="7" horiz-adv-x="1271" vert-adv-y="2007" 
d="M1139 1337l-623 -1388h-162l602 1331h-823v143h1006v-86z" />
    <glyph glyph-name="eight" unicode="8" horiz-adv-x="1349" vert-adv-y="2007" 
d="M678 -72q-245 0 -395 117t-150 307q0 123 62.5 215.5t179.5 145.5q-100 51 -153.5 136t-53.5 195q0 181 139.5 290.5t370.5 109.5q226 0 365 -110t139 -290q0 -110 -53 -195t-152 -136q116 -51 178 -144.5t62 -216.5q0 -190 -148.5 -307t-390.5 -117zM676 786
q163 0 261.5 70.5t98.5 187.5q0 116 -98 186t-260 70q-165 0 -265 -70t-100 -186q-2 -116 98.5 -187t264.5 -71zM676 76q177 0 283 75.5t106 200.5q0 126 -105.5 202.5t-281.5 76.5q-177 0 -285 -77t-108 -202t107 -200.5t284 -75.5z" />
    <glyph glyph-name="nine" unicode="9" horiz-adv-x="1345" vert-adv-y="2007" 
d="M631 -72q-184 0 -310 100t-155 269l145 29q17 -120 102.5 -187t219.5 -67q88 0 159 31t118 83t80 125t50 150t23 166q-72 -90 -183 -140.5t-237 -50.5q-224 0 -367 140.5t-143 361.5q0 223 143 364.5t367 141.5q272 0 420.5 -184t148.5 -521q0 -383 -153 -597t-428 -214z
M643 582q166 0 275.5 102.5t109.5 259.5q0 154 -109 254t-276 100q-161 0 -262.5 -100t-101.5 -260q0 -158 101.5 -257t262.5 -99z" />
    <glyph glyph-name="colon" unicode=":" horiz-adv-x="471" vert-adv-y="2007" 
d="M236 748q-43 0 -73 29.5t-30 70.5t30.5 70.5t72.5 29.5q41 0 71.5 -29.5t30.5 -70.5t-29.5 -70.5t-72.5 -29.5zM236 -55q-43 0 -73 29.5t-30 70.5t30.5 70.5t72.5 29.5q41 0 71.5 -29.5t30.5 -70.5t-29.5 -70.5t-72.5 -29.5z" />
    <glyph glyph-name="semicolon" unicode=";" horiz-adv-x="516" vert-adv-y="2007" 
d="M281 748q-43 0 -73 29.5t-30 70.5t30.5 70.5t72.5 29.5q41 0 71.5 -29.5t30.5 -70.5t-29.5 -70.5t-72.5 -29.5zM358 244l-178 -566h-145l174 631h149v-65z" />
    <glyph glyph-name="less" unicode="&#x3c;" horiz-adv-x="991" vert-adv-y="2007" 
d="M301 625l598 -297v-160l-827 414v86l827 413v-159z" />
    <glyph glyph-name="equal" unicode="=" horiz-adv-x="1310" vert-adv-y="2007" 
d="M1137 901v-143h-963v143h963zM1137 532v-143h-963v143h963z" />
    <glyph glyph-name="greater" unicode="&#x3e;" horiz-adv-x="991" vert-adv-y="2007" 
d="M920 668v-86l-828 -414v160l598 297l-598 297v159z" />
    <glyph glyph-name="question" unicode="?" horiz-adv-x="1167" vert-adv-y="2007" 
d="M641 524v-209h-147v347h73q157 0 260 91.5t103 229.5q0 145 -93.5 231t-248.5 86q-172 0 -268 -115t-76 -300l-152 16q-15 238 124.5 390.5t371.5 152.5q218 0 352.5 -127.5t134.5 -333.5q0 -181 -121 -309t-313 -150zM567 -55q-43 0 -72.5 29.5t-29.5 70.5t30.5 70.5
t71.5 29.5q42 0 72.5 -29.5t30.5 -70.5t-30 -70.5t-73 -29.5z" />
    <glyph glyph-name="at" unicode="@" horiz-adv-x="2119" vert-adv-y="2007" 
d="M1032 -285q-179 0 -338 67t-273 182.5t-180.5 276.5t-66.5 341q0 183 67.5 343.5t185 274t283 179t353.5 65.5q187 0 351 -64.5t280.5 -177t184 -270t67.5 -336.5q0 -231 -95 -367.5t-256 -136.5q-91 0 -158.5 40.5t-95.5 111.5q-62 -66 -145.5 -102t-175.5 -36
q-193 0 -322 132.5t-129 332.5q0 201 128.5 334t322.5 133q179 0 303 -118v98h143v-680q0 -51 33.5 -80t93.5 -29q95 0 151 100t56 269q0 201 -95 363t-263.5 253t-378.5 91q-211 0 -381.5 -93t-266.5 -258t-96 -370q0 -151 55 -285.5t149.5 -231t226.5 -152.5t280 -56
q137 0 282.5 43t211.5 104l78 -127q-86 -70 -249 -117t-321 -47zM1022 246q132 0 216.5 91.5t84.5 235.5q0 141 -84.5 231.5t-216.5 90.5q-135 0 -222 -90.5t-87 -231.5q0 -143 87 -235t222 -92z" />
    <glyph glyph-name="A" unicode="A" horiz-adv-x="1675" vert-adv-y="2007" 
d="M449 350l-187 -401h-160l686 1474h99l686 -1474h-160l-186 401h-778zM1157 494l-319 692l-320 -692h639z" />
    <glyph glyph-name="B" unicode="B" horiz-adv-x="1417" vert-adv-y="2007" 
d="M823 -51h-690v1474h639q212 0 336.5 -106t124.5 -287q0 -101 -42 -186.5t-116 -136.5q99 -48 154 -137t55 -205q0 -183 -129 -299.5t-332 -116.5zM772 1280h-491v-514h536q126 0 200.5 71.5t74.5 192.5q0 119 -84 184.5t-236 65.5zM817 623h-536v-531h542q141 0 227.5 75
t86.5 198q0 118 -87 188t-233 70z" />
    <glyph glyph-name="C" unicode="C" horiz-adv-x="1703" vert-adv-y="2007" 
d="M887 -72q-208 0 -381 100.5t-273 274.5t-100 383t100 383t273 274.5t381 100.5q247 0 435 -123t263 -334l-135 -57q-55 170 -207.5 270t-355.5 100q-125 0 -237.5 -48t-193.5 -129.5t-128 -195.5t-47 -241t47 -241t128 -195.5t193.5 -129.5t237.5 -48q202 0 352 98.5
t209 269.5l137 -51q-75 -213 -263 -337t-435 -124z" />
    <glyph glyph-name="D" unicode="D" horiz-adv-x="1538" vert-adv-y="2007" 
d="M588 -51h-455v1474h455q242 0 427.5 -91.5t287.5 -259t102 -386.5t-102 -386.5t-287.5 -259t-427.5 -91.5zM586 1280h-305v-1188h305q304 0 487.5 162.5t183.5 431.5t-183.5 431.5t-487.5 162.5z" />
    <glyph glyph-name="E" unicode="E" horiz-adv-x="1331" vert-adv-y="2007" 
d="M1198 92v-143h-1065v1474h1065v-143h-917v-518h856v-144h-856v-526h917z" />
    <glyph glyph-name="F" unicode="F" horiz-adv-x="1310" vert-adv-y="2007" 
d="M281 618v-669h-148v1474h1045v-143h-897v-518h835v-144h-835z" />
    <glyph glyph-name="G" unicode="G" horiz-adv-x="1748" vert-adv-y="2007" 
d="M885 -72q-155 0 -294.5 59.5t-239.5 160.5t-159 241.5t-59 296.5t59 296.5t159 241.5t239.5 160.5t294.5 59.5q250 0 437 -123.5t261 -337.5l-135 -53q-58 172 -209 271t-354 99q-167 0 -306 -81t-218.5 -222t-79.5 -311t79.5 -311t218.5 -222t306 -81q232 0 394 151.5
t187 390.5h-721v144h871v-72q0 -214 -94.5 -387.5t-262 -272t-374.5 -98.5z" />
    <glyph glyph-name="H" unicode="H" horiz-adv-x="1452" vert-adv-y="2007" 
d="M281 621v-672h-148v1474h148v-659h890v659h148v-1474h-148v672h-890z" />
    <glyph glyph-name="I" unicode="I" horiz-adv-x="413" vert-adv-y="2007" 
d="M281 1423v-1474h-148v1474h148z" />
    <glyph glyph-name="J" unicode="J" horiz-adv-x="1325" vert-adv-y="2007" 
d="M659 -72q-223 0 -370 145t-160 378l145 45q3 -191 108.5 -306.5t276.5 -115.5q173 0 279 120t106 318v911h148v-911q0 -259 -148.5 -421.5t-384.5 -162.5z" />
    <glyph glyph-name="K" unicode="K" horiz-adv-x="1521" vert-adv-y="2007" 
d="M281 610v-661h-148v1474h148v-661l823 661h225l-911 -739l971 -735h-236z" />
    <glyph glyph-name="L" unicode="L" horiz-adv-x="1280" vert-adv-y="2007" 
d="M1147 92v-143h-1014v1474h148v-1331h866z" />
    <glyph glyph-name="M" unicode="M" horiz-adv-x="1800" vert-adv-y="2007" 
d="M279 1057v-1108h-146v1474h123l645 -1251l643 1251h123v-1474h-145v1108l-570 -1108h-104z" />
    <glyph glyph-name="N" unicode="N" horiz-adv-x="1492" vert-adv-y="2007" 
d="M281 1151v-1202h-148v1474h121l958 -1202v1202h148v-1474h-121z" />
    <glyph glyph-name="O" unicode="O" horiz-adv-x="1759" vert-adv-y="2007" 
d="M881 -72q-155 0 -293.5 59t-238.5 160t-158 241.5t-58 297.5q0 156 58.5 296.5t158.5 241.5t238.5 160.5t292.5 59.5q206 0 377 -100.5t269.5 -274.5t98.5 -383t-98.5 -383t-269.5 -274.5t-377 -100.5zM881 72q166 0 303 81t216 222t79 311q0 169 -79 310.5t-216.5 222.5
t-302.5 81q-166 0 -304 -81t-217 -222t-79 -311t79 -311t217 -222t304 -81z" />
    <glyph glyph-name="P" unicode="P" horiz-adv-x="1374" vert-adv-y="2007" 
d="M281 539v-590h-148v1474h610q218 0 358 -124t140 -318t-140 -318t-358 -124h-462zM743 1280h-462v-598h462q157 0 254 82.5t97 216.5t-97 216.5t-254 82.5z" />
    <glyph glyph-name="Q" unicode="Q" horiz-adv-x="1779" vert-adv-y="2007" 
d="M1341 86l326 -385l-113 -94l-335 399q-153 -78 -338 -78q-155 0 -293.5 59t-238.5 160t-158 241.5t-58 297.5q0 156 58.5 296.5t158.5 241.5t238.5 160.5t292.5 59.5q206 0 377 -100.5t269.5 -274.5t98.5 -383q0 -177 -75 -334t-210 -266zM881 72q166 0 303 81t216 222
t79 311q0 169 -79 310.5t-216.5 222.5t-302.5 81q-166 0 -304 -81t-217 -222t-79 -311t79 -311t217 -222t304 -81z" />
    <glyph glyph-name="R" unicode="R" horiz-adv-x="1435" vert-adv-y="2007" 
d="M281 621v-672h-148v1474h664q206 0 331 -110t125 -291t-125 -291t-331 -110h-39l606 -672h-199l-600 672h-284zM797 1280h-516v-516h516q141 0 225 70t84 188t-84 188t-225 70z" />
    <glyph glyph-name="S" unicode="S" horiz-adv-x="1384" vert-adv-y="2007" 
d="M727 -72q-169 0 -302.5 62.5t-211 176t-84.5 261.5l154 37q-7 -175 116.5 -284t329.5 -109q173 0 273 76t100 208q0 100 -52.5 149t-193.5 81l-328 80q-340 83 -340 360q0 186 139.5 302t362.5 116q224 0 371.5 -121.5t169.5 -323.5l-139 -47q-13 162 -121.5 255
t-282.5 93q-157 0 -252.5 -75.5t-95.5 -198.5q0 -91 54.5 -142t183.5 -79l303 -76q56 -12 100.5 -26.5t98 -44t88.5 -67t59 -98t24 -135.5q0 -195 -143.5 -312.5t-380.5 -117.5z" />
    <glyph glyph-name="T" unicode="T" horiz-adv-x="1540" vert-adv-y="2007" 
d="M846 1280v-1331h-152v1331h-561v143h1274v-143h-561z" />
    <glyph glyph-name="U" unicode="U" horiz-adv-x="1474" vert-adv-y="2007" 
d="M737 -72q-270 0 -437 181.5t-167 474.5v839h148v-839q0 -232 124.5 -371t331.5 -139t332 139t125 371v839h147v-839q0 -293 -167 -474.5t-437 -181.5z" />
    <glyph glyph-name="V" unicode="V" horiz-adv-x="1622" vert-adv-y="2007" 
d="M1516 1423l-650 -1474h-110l-650 1474h156l549 -1228l549 1228h156z" />
    <glyph glyph-name="W" unicode="W" horiz-adv-x="2199" vert-adv-y="2007" 
d="M1100 1145l-395 -1196h-113l-479 1474h155l383 -1179l389 1179h119l389 -1179l383 1179h156l-479 -1474h-113z" />
    <glyph glyph-name="X" unicode="X" horiz-adv-x="1499" vert-adv-y="2007" 
d="M750 575l-484 -626h-184l571 741l-551 733h185l463 -614l462 614h185l-553 -733l573 -741h-184z" />
    <glyph glyph-name="Y" unicode="Y" horiz-adv-x="1597" vert-adv-y="2007" 
d="M872 504v-555h-147v555l-639 919h178l535 -774l534 774h178z" />
    <glyph glyph-name="Z" unicode="Z" horiz-adv-x="1384" vert-adv-y="2007" 
d="M1251 92v-143h-1118v94l899 1237h-870v143h1089v-92l-901 -1239h901z" />
    <glyph glyph-name="bracketleft" unicode="[" horiz-adv-x="894" vert-adv-y="2007" 
d="M741 -76v-143h-516v1786h516v-144h-368v-1499h368z" />
    <glyph glyph-name="backslash" unicode="\" horiz-adv-x="774" vert-adv-y="2007" 
d="M150 1567l624 -1766h-149l-625 1766h150z" />
    <glyph glyph-name="bracketright" unicode="]" horiz-adv-x="894" vert-adv-y="2007" 
d="M670 1567v-1786h-516v143h368v1499h-368v144h516z" />
    <glyph glyph-name="asciicircum" unicode="^" horiz-adv-x="827" vert-adv-y="2007" 
d="M414 1231l-213 -297h-176l348 489h82l348 -489h-176z" />
    <glyph glyph-name="underscore" unicode="_" horiz-adv-x="1085" vert-adv-y="2007" 
d="M1034 -63v-144h-983v144h983z" />
    <glyph glyph-name="grave" unicode="`" vert-adv-y="2007" 
d="M705 1927l262 -381h-168l-267 381h173z" />
    <glyph glyph-name="a" unicode="a" horiz-adv-x="1382" vert-adv-y="2007" 
d="M692 -72q-120 0 -224 43t-177.5 118t-115.5 181t-42 228q0 247 158 408t401 161q121 0 228.5 -46t183.5 -132v158h145v-1098h-145v157q-76 -86 -183.5 -132t-228.5 -46zM692 72q175 0 293.5 122.5t118.5 303.5t-118.5 303.5t-293.5 122.5q-181 0 -297 -120t-116 -306
t116 -306t297 -120z" />
    <glyph glyph-name="b" unicode="b" horiz-adv-x="1382" vert-adv-y="2007" 
d="M690 -72q-121 0 -228 46t-183 132v-157h-146v1577h146v-637q76 86 183 132t228 46q243 0 401 -161t158 -408q0 -122 -42 -228t-115.5 -181t-177.5 -118t-224 -43zM690 72q181 0 297.5 120t116.5 306t-116.5 306t-297.5 120q-175 0 -293 -122.5t-118 -303.5t118 -303.5
t293 -122.5z" />
    <glyph glyph-name="c" unicode="c" horiz-adv-x="1320" vert-adv-y="2007" 
d="M690 -72q-241 0 -399 162t-158 408q0 241 160.5 405t396.5 164q203 0 344.5 -108t188.5 -300l-131 -49q-38 153 -141 233.5t-261 80.5q-175 0 -293 -122.5t-118 -303.5q0 -185 116.5 -305.5t294.5 -120.5q158 0 261 80.5t141 232.5l131 -49q-47 -192 -188.5 -300
t-344.5 -108z" />
    <glyph glyph-name="d" unicode="d" horiz-adv-x="1382" vert-adv-y="2007" 
d="M692 -72q-120 0 -224 43t-177.5 118t-115.5 181t-42 228q0 247 158 408t401 161q121 0 228.5 -46t183.5 -132v637h145v-1577h-145v157q-76 -86 -183.5 -132t-228.5 -46zM692 72q175 0 293.5 122.5t118.5 303.5t-118.5 303.5t-293.5 122.5q-181 0 -297 -120t-116 -306
t116 -306t297 -120z" />
    <glyph glyph-name="e" unicode="e" horiz-adv-x="1359" vert-adv-y="2007" 
d="M684 -72q-152 0 -278.5 75t-199.5 205t-73 286q0 120 43.5 226.5t119 182.5t180.5 120t224 44q227 0 374 -150t153 -389v-71h-948q15 -166 129.5 -275.5t275.5 -109.5q158 0 260.5 80t140.5 233l132 -49q-47 -192 -188.5 -300t-344.5 -108zM289 600h784
q-25 149 -126 236.5t-247 87.5q-149 0 -263 -90.5t-148 -233.5z" />
    <glyph glyph-name="f" unicode="f" horiz-adv-x="1030" vert-adv-y="2007" 
d="M473 903v-954h-145v954h-195v144h195v155q0 166 92.5 265.5t247.5 99.5q121 0 213 -64l-66 -133q-50 53 -145 53q-92 0 -144.5 -58.5t-52.5 -162.5v-155h424v-144h-424z" />
    <glyph glyph-name="g" unicode="g" horiz-adv-x="1349" vert-adv-y="2007" 
d="M698 -440q-219 0 -361.5 97.5t-193.5 283.5l138 53q40 -148 142 -219.5t275 -71.5q169 0 270 98t103 262v101q-73 -76 -174.5 -118t-212.5 -42q-238 0 -394.5 151.5t-156.5 381.5q0 150 71 271t197.5 189t282.5 68q112 0 212.5 -41.5t174.5 -116.5v140h146v-984
q-1 -225 -144.5 -364t-374.5 -139zM684 147q166 0 276.5 111.5t110.5 278.5q0 166 -110 275.5t-277 109.5q-178 0 -291.5 -108t-113.5 -277q0 -171 113.5 -280.5t291.5 -109.5z" />
    <glyph glyph-name="h" unicode="h" horiz-adv-x="1253" vert-adv-y="2007" 
d="M279 518v-569h-146v1577h146v-623q72 79 172.5 121.5t216.5 42.5q202 0 327 -133t125 -348v-637h-145v637q0 155 -81.5 246.5t-219.5 91.5q-181 0 -288 -110t-107 -296z" />
    <glyph glyph-name="i" unicode="i" horiz-adv-x="471" vert-adv-y="2007" 
d="M236 1200q-43 0 -73 29.5t-30 70.5t31 71t72 30t71.5 -30t30.5 -71t-29.5 -70.5t-72.5 -29.5zM309 1047v-1098h-145v1098h145z" />
    <glyph glyph-name="j" unicode="j" horiz-adv-x="485" vert-adv-y="2007" 
d="M250 1200q-43 0 -73 29.5t-30 70.5t31 71t72 30t71.5 -30t30.5 -71t-29.5 -70.5t-72.5 -29.5zM61 -420q-109 0 -188 70l68 129q30 -30 55.5 -42.5t60.5 -12.5q57 0 88 30.5t31 87.5v1205h146v-1205q0 -117 -72.5 -189.5t-188.5 -72.5z" />
    <glyph glyph-name="k" unicode="k" horiz-adv-x="1374" vert-adv-y="2007" 
d="M279 436v-487h-146v1577h146v-942h12l624 463h246l-731 -539l809 -559h-254z" />
    <glyph glyph-name="l" unicode="l" horiz-adv-x="411" vert-adv-y="2007" 
d="M279 1526v-1577h-146v1577h146z" />
    <glyph glyph-name="m" unicode="m" horiz-adv-x="1890" vert-adv-y="2007" 
d="M279 539v-590h-146v1098h146v-121q132 141 331 141q118 0 213 -52t146 -145q63 94 163 145.5t220 51.5q180 0 292.5 -111t112.5 -288v-719h-145v719q0 117 -72 186.5t-194 69.5q-151 0 -240.5 -104t-89.5 -281v-590h-146v719q0 117 -72 186.5t-192 69.5q-149 0 -238 -105
t-89 -280z" />
    <glyph glyph-name="n" unicode="n" horiz-adv-x="1253" vert-adv-y="2007" 
d="M279 518v-569h-146v1098h146v-144q72 79 172.5 121.5t216.5 42.5q202 0 327 -133t125 -348v-637h-145v637q0 155 -81.5 246.5t-219.5 91.5q-181 0 -288 -110t-107 -296z" />
    <glyph glyph-name="o" unicode="o" horiz-adv-x="1402" vert-adv-y="2007" 
d="M700 -72q-120 0 -225 44t-180 119.5t-118.5 182t-43.5 226.5t43.5 225t118.5 180t180 118.5t225 43.5q244 0 407 -162t163 -405q0 -244 -163.5 -408t-406.5 -164zM700 72q183 0 303.5 121.5t120.5 306.5q0 184 -120 304t-304 120q-183 0 -302 -120t-119 -304
q0 -185 120 -306.5t301 -121.5z" />
    <glyph glyph-name="p" unicode="p" horiz-adv-x="1382" vert-adv-y="2007" 
d="M279 106v-505h-146v1446h146v-158q76 86 183 132t228 46q243 0 401 -161t158 -408q0 -122 -42 -228t-115.5 -181t-177.5 -118t-224 -43q-121 0 -228 46t-183 132zM690 72q181 0 297.5 120t116.5 306t-116.5 306t-297.5 120q-175 0 -293 -122.5t-118 -303.5t118 -303.5
t293 -122.5z" />
    <glyph glyph-name="q" unicode="q" horiz-adv-x="1382" vert-adv-y="2007" 
d="M1249 1047v-1446h-145v505q-76 -86 -183.5 -132t-228.5 -46q-120 0 -224 43t-177.5 118t-115.5 181t-42 228q0 247 158 408t401 161q121 0 228.5 -46t183.5 -132v158h145zM692 72q175 0 293.5 122.5t118.5 303.5t-118.5 303.5t-293.5 122.5q-181 0 -297 -120t-116 -306
t116 -306t297 -120z" />
    <glyph glyph-name="r" unicode="r" horiz-adv-x="931" vert-adv-y="2007" 
d="M279 518v-569h-146v1098h146v-144q72 79 172.5 121.5t216.5 42.5q80 0 141 -20l-35 -138q-46 15 -100 15q-181 0 -288 -110t-107 -296z" />
    <glyph glyph-name="s" unicode="s" horiz-adv-x="1157" vert-adv-y="2007" 
d="M606 -72q-209 0 -340 104.5t-137 276.5l143 27q-11 -117 82 -191.5t252 -74.5q127 0 200 50t73 138q0 61 -39 94t-138 56l-256 57q-140 31 -208 98.5t-68 179.5q0 145 111 234.5t290 89.5q175 0 293 -91t144 -249l-144 -33q-9 107 -87 168.5t-206 61.5
q-117 0 -186.5 -49.5t-69.5 -131.5q0 -59 38 -90t136 -53l242 -53q43 -10 77 -21t77 -33.5t71 -52t48 -76.5t20 -106q0 -149 -115 -239.5t-303 -90.5z" />
    <glyph glyph-name="t" unicode="t" horiz-adv-x="1054" vert-adv-y="2007" 
d="M668 -72q-139 0 -227.5 90.5t-88.5 233.5v651h-219v144h219v335h146v-335h389v-144h-389v-651q0 -83 46 -131.5t126 -48.5q96 0 180 102l86 -117q-111 -129 -268 -129z" />
    <glyph glyph-name="u" unicode="u" horiz-adv-x="1253" vert-adv-y="2007" 
d="M586 -72q-202 0 -327.5 133.5t-125.5 348.5v637h146v-637q0 -155 81.5 -246.5t219.5 -91.5q181 0 288 109.5t107 295.5v570h145v-1098h-145v143q-72 -79 -172.5 -121.5t-216.5 -42.5z" />
    <glyph glyph-name="v" unicode="v" horiz-adv-x="1357" vert-adv-y="2007" 
d="M1255 1047l-520 -1098h-112l-521 1098h164l414 -877l412 877h163z" />
    <glyph glyph-name="w" unicode="w" horiz-adv-x="1802" vert-adv-y="2007" 
d="M901 768l-291 -825h-123l-374 1106h155l283 -830l295 828h110l295 -828l283 830h156l-375 -1106h-123z" />
    <glyph glyph-name="x" unicode="x" horiz-adv-x="1277" vert-adv-y="2007" 
d="M639 389l-375 -440h-192l471 549l-471 549h192l375 -441l375 441h192l-471 -549l471 -549h-192z" />
    <glyph glyph-name="y" unicode="y" horiz-adv-x="1374" vert-adv-y="2007" 
d="M1272 1047l-697 -1446h-159l192 399l-506 1047h164l422 -879l424 879h160z" />
    <glyph glyph-name="z" unicode="z" horiz-adv-x="1206" vert-adv-y="2007" 
d="M1073 92v-143h-940v106l701 848h-678v144h899v-107l-701 -848h719z" />
    <glyph glyph-name="braceleft" unicode="{" horiz-adv-x="1013" vert-adv-y="2007" 
d="M860 -76v-143h-176q-133 0 -216 84t-83 219v358q0 74 -41 117t-111 43h-79v143h79q70 0 111 43t41 117v359q0 135 83 219t216 84h176v-144h-176q-70 0 -111 -42.5t-41 -116.5v-359q0 -144 -96 -231q96 -87 96 -232v-358q0 -74 41 -117t111 -43h176z" />
    <glyph glyph-name="bar" unicode="|" horiz-adv-x="598" vert-adv-y="2007" 
d="M373 1567v-1766h-148v1766h148z" />
    <glyph glyph-name="braceright" unicode="}" horiz-adv-x="1013" vert-adv-y="2007" 
d="M330 -219h-176v143h176q70 0 110.5 43t40.5 117v358q0 69 25.5 130t71.5 102q-46 41 -71.5 101.5t-25.5 129.5v359q0 74 -40.5 116.5t-110.5 42.5h-176v144h176q133 0 216 -84t83 -219v-359q0 -74 40.5 -117t110.5 -43h80v-143h-80q-70 0 -110.5 -43t-40.5 -117v-358
q0 -135 -83 -219t-216 -84z" />
    <glyph glyph-name="asciitilde" unicode="~" horiz-adv-x="1048" vert-adv-y="2007" 
d="M713 446q-46 0 -93.5 18.5t-73.5 36t-65 48.5q-33 27 -50.5 39.5t-43 23.5t-49.5 11q-59 0 -82.5 -45.5t-1.5 -122.5h-160q-19 136 50 224.5t194 88.5q48 0 95.5 -18.5t71 -35t64.5 -48.5q48 -39 78.5 -56.5t65.5 -17.5q58 0 80.5 45t3.5 127h157q19 -136 -50 -227
t-191 -91z" />
    <glyph glyph-name="exclamdown" unicode="&#xa1;" horiz-adv-x="634" vert-adv-y="2007" 
d="M317 866q-41 0 -71.5 30t-30.5 71t29.5 70.5t72.5 29.5t73 -29.5t30 -70.5t-31 -71t-72 -30zM391 696v-1108h-145v1108h145z" />
    <glyph glyph-name="cent" unicode="&#xa2;" horiz-adv-x="1300" vert-adv-y="2007" 
d="M745 -70v-247h-145v251q-211 28 -344 185.5t-133 378.5q0 218 134 376t343 187v280h145v-278q170 -19 292.5 -122t150.5 -251l-139 -57q-9 107 -94 186.5t-210 98.5v-842q126 15 209.5 89.5t92.5 178.5l139 -53q-26 -146 -147.5 -245t-293.5 -116zM600 78v840
q-146 -29 -239 -146t-93 -274q0 -161 91.5 -276.5t240.5 -143.5z" />
    <glyph glyph-name="sterling" unicode="&#xa3;" horiz-adv-x="1449" vert-adv-y="2007" 
d="M1317 92v-143h-1163v127l174 10v487h-174v144h174v252q0 211 135 343t350 132q227 0 364.5 -144t122.5 -368l-151 -37q22 183 -70 293t-266 110q-154 0 -246 -89.5t-92 -239.5v-252h608v-144h-608v-481h842z" />
    <glyph glyph-name="yen" unicode="&#xa5;" horiz-adv-x="1433" vert-adv-y="2007" 
d="M791 252v-303h-148v303h-426v143h426v103h-426v143h356l-526 782h176l494 -741l493 741h176l-526 -782h357v-143h-426v-103h426v-143h-426z" />
    <glyph glyph-name="section" unicode="&#xa7;" horiz-adv-x="1202" vert-adv-y="2007" 
d="M596 -338q-223 0 -349.5 120t-109.5 318l148 47q-23 -164 57 -253t252 -89q121 0 193.5 53.5t72.5 141.5q0 57 -32 95.5t-107 72.5l-344 158q-145 66 -209 139.5t-64 173.5q0 91 37.5 164.5t108.5 120.5q-64 80 -64 182q0 151 114.5 244.5t297.5 93.5q207 0 329.5 -120.5
t110.5 -315.5l-149 -50q25 159 -52.5 250.5t-236.5 91.5q-123 0 -194.5 -52.5t-71.5 -141.5q0 -54 31.5 -93t107.5 -75l344 -158q145 -66 209 -139.5t64 -173.5q0 -91 -37.5 -164.5t-108.5 -120.5q64 -80 64 -182q0 -151 -114.5 -244.5t-297.5 -93.5zM823 279
q119 55 119 184q0 59 -40.5 100t-145.5 88l-344 156q-16 5 -33 18l-8 2q-119 -52 -119 -184q0 -59 40.5 -100t145.5 -88l344 -156q16 -5 33 -18q2 0 4.5 -1t3.5 -1z" />
    <glyph glyph-name="dieresis" unicode="&#xa8;" vert-adv-y="2007" 
d="M489 1624q-43 0 -72.5 29.5t-29.5 70.5t30.5 71t71.5 30t72 -30t31 -71t-30 -70.5t-73 -29.5zM858 1624q-43 0 -72.5 29.5t-29.5 70.5t30.5 71t71.5 30t72 -30t31 -71t-30 -70.5t-73 -29.5z" />
    <glyph glyph-name="copyright" unicode="&#xa9;" horiz-adv-x="1748" vert-adv-y="2007" 
d="M874 -72q-211 0 -384 99t-272 272t-99 383q0 159 58.5 300t159 242.5t240.5 160.5t297 59t297.5 -59t241 -160.5t159 -242.5t58.5 -300q0 -157 -58.5 -297t-158.5 -240t-240.5 -158.5t-298.5 -58.5zM874 72q171 0 311 80t220 220.5t80 311.5q0 129 -47 244t-128 197
t-194.5 130t-241.5 48q-170 0 -310 -81t-220 -223t-80 -315q0 -171 80 -311.5t219.5 -220.5t310.5 -80zM891 246q-187 0 -311.5 125.5t-124.5 314.5q0 188 124.5 312t311.5 124q163 0 281 -100.5t124 -245.5l-135 -39q-3 100 -83 171t-187 71q-124 0 -206.5 -83.5
t-82.5 -209.5q0 -128 82.5 -212.5t206.5 -84.5q107 0 187 72.5t83 173.5l135 -43q-15 -149 -131.5 -247.5t-273.5 -98.5z" />
    <glyph glyph-name="ordfeminine" unicode="&#xaa;" horiz-adv-x="1019" vert-adv-y="2007" 
d="M512 -14q-163 0 -264 105.5t-101 262.5t101 263t264 106q98 0 181 -47t130 -129v162h49v-709h-49v162q-47 -82 -130 -129t-181 -47zM512 35q134 0 222.5 93t88.5 226q0 132 -88.5 226t-222.5 94q-139 0 -226 -92t-87 -228t87 -227.5t226 -91.5z" />
    <glyph glyph-name="guillemotleft" unicode="&#xab;" horiz-adv-x="854" vert-adv-y="2007" 
d="M225 537l312 -416h-181l-305 416l305 415h181zM532 537l312 -416h-180l-306 416l306 415h180z" />
    <glyph glyph-name="registered" unicode="&#xae;" horiz-adv-x="1146" vert-adv-y="2007" 
d="M573 530q-189 0 -319.5 131t-130.5 320q0 192 129.5 322.5t320.5 130.5t321 -130.5t130 -322.5q0 -189 -131 -320t-320 -131zM696 920l148 -140q63 85 63 201q0 145 -95.5 241.5t-238.5 96.5t-238 -96.5t-95 -241.5q0 -143 95.5 -238.5t237.5 -95.5q151 0 248 105h-114
l-156 147h-45v-147h-115v481h207q86 0 138 -45.5t52 -120.5q0 -100 -92 -147zM596 1128h-92v-124h90q35 0 57.5 17.5t22.5 45.5t-21 44.5t-57 16.5z" />
    <glyph glyph-name="macron" unicode="&#xaf;" vert-adv-y="2007" 
d="M983 1305v-138h-614v138h614z" />
    <glyph glyph-name="degree" unicode="&#xb0;" horiz-adv-x="935" vert-adv-y="2007" 
d="M469 864q-125 0 -211 84t-86 205q0 125 85 208t212 83q126 0 210.5 -83.5t84.5 -207.5q0 -122 -85.5 -205.5t-209.5 -83.5zM469 1006q63 0 107.5 43t44.5 104q0 65 -43.5 108.5t-108.5 43.5q-64 0 -109 -44.5t-45 -107.5q0 -62 45 -104.5t109 -42.5z" />
    <glyph glyph-name="plusminus" unicode="&#xb1;" horiz-adv-x="1310" vert-adv-y="2007" 
d="M727 604v-389h-143v389h-410v144h410v389h143v-389h410v-144h-410zM1137 92v-143h-963v143h963z" />
    <glyph glyph-name="uni00B2" unicode="&#xb2;" horiz-adv-x="708" vert-adv-y="2007" 
d="M588 39v-39h-467v27l256 225l57 49q48 46 74.5 88.5t26.5 95.5q0 77 -51 122.5t-130 45.5q-85 0 -135.5 -50.5t-50.5 -133.5v-12l-43 6v8q3 98 65.5 160.5t163.5 62.5q98 0 159.5 -56.5t61.5 -152.5q0 -112 -108 -209q-1 -1 -61 -55l-207 -182h389z" />
    <glyph glyph-name="uni00B3" unicode="&#xb3;" horiz-adv-x="722" vert-adv-y="2007" 
d="M371 -10q-107 0 -175.5 63.5t-72.5 167.5l-2 8l43 9v-13q3 -89 59 -142.5t148 -53.5q82 0 135 42.5t53 118.5q0 72 -52.5 108t-133.5 36h-97v39h97q73 0 122.5 34t49.5 99q0 70 -51 108.5t-129 38.5q-85 0 -136.5 -48t-54.5 -130l-2 -10l-41 6v10q6 97 70.5 155t165.5 58
q93 0 156 -49t63 -139q0 -54 -29 -92t-78 -58q123 -42 123 -163q0 -95 -66 -149t-165 -54z" />
    <glyph glyph-name="acute" unicode="&#xb4;" vert-adv-y="2007" 
d="M975 1927l-266 -381h-168l262 381h172z" />
    <glyph glyph-name="paragraph" unicode="&#xb6;" horiz-adv-x="1198" vert-adv-y="2007" 
d="M729 1423v-1474h-147v612h-52q-211 0 -345 123t-134 315q0 197 121 310.5t330 113.5h227zM973 1423v-1474h-148v1474h148z" />
    <glyph glyph-name="periodcentered" unicode="&#xb7;" horiz-adv-x="471" vert-adv-y="2007" 
d="M236 449q-43 0 -73 29.5t-30 70.5t30.5 70.5t72.5 29.5q41 0 71.5 -29.5t30.5 -70.5t-29.5 -70.5t-72.5 -29.5z" />
    <glyph glyph-name="cedilla" unicode="&#xb8;" vert-adv-y="2007" 
d="M831 -541q-94 0 -150 56.5t-56 150.5q0 68 32 124.5t115 135.5l4 129h146l-4 -180q-92 -89 -121 -129.5t-29 -79.5q0 -35 13.5 -49t47.5 -14q19 0 56 12l71 18l43 -131q-77 -27 -107.5 -35t-60.5 -8z" />
    <glyph glyph-name="uni00B9" unicode="&#xb9;" horiz-adv-x="477" vert-adv-y="2007" 
d="M356 684v-684h-43v627l-192 -115v47l209 125h26z" />
    <glyph glyph-name="ordmasculine" unicode="&#xba;" horiz-adv-x="1034" vert-adv-y="2007" 
d="M516 -14q-161 0 -265 107t-104 263q0 155 104.5 261t264.5 106q161 0 266 -106t105 -261q0 -157 -104.5 -263.5t-266.5 -106.5zM516 35q140 0 231 92.5t91 228.5q0 135 -91 226.5t-231 91.5q-138 0 -227.5 -91.5t-89.5 -226.5q0 -137 89 -229t228 -92z" />
    <glyph glyph-name="guillemotright" unicode="&#xbb;" horiz-adv-x="854" vert-adv-y="2007" 
d="M496 537l-306 -416h-180l312 416l-312 415h180zM803 537l-305 -416h-181l312 416l-312 415h181z" />
    <glyph glyph-name="questiondown" unicode="&#xbf;" horiz-adv-x="1167" vert-adv-y="2007" 
d="M600 866q-41 0 -71.5 30t-30.5 71t29.5 70.5t72.5 29.5t72.5 -29.5t29.5 -70.5t-30.5 -71t-71.5 -30zM580 -432q-218 0 -353 127.5t-135 333.5q0 181 121 308.5t313 149.5v209h148v-346h-74q-156 0 -259 -91.5t-103 -229.5q0 -145 93.5 -231.5t248.5 -86.5
q172 0 268 115.5t76 300.5l151 -16q15 -238 -124 -390.5t-371 -152.5z" />
    <glyph glyph-name="Agrave" unicode="&#xc0;" horiz-adv-x="1552" vert-adv-y="2007" 
d="M705 1927l262 -381h-168l-267 381h173zM449 350l-187 -401h-160l686 1474h99l686 -1474h-160l-186 401h-778zM1157 494l-319 692l-320 -692h639z" />
    <glyph glyph-name="Aacute" unicode="&#xc1;" horiz-adv-x="1552" vert-adv-y="2007" 
d="M975 1927l-266 -381h-168l262 381h172zM449 350l-187 -401h-160l686 1474h99l686 -1474h-160l-186 401h-778zM1157 494l-319 692l-320 -692h639z" />
    <glyph glyph-name="Acircumflex" unicode="&#xc2;" horiz-adv-x="1552" vert-adv-y="2007" 
d="M838 1761l-195 -215h-184l338 379h82l338 -379h-185zM449 350l-187 -401h-160l686 1474h99l686 -1474h-160l-186 401h-778zM1157 494l-319 692l-320 -692h639z" />
    <glyph glyph-name="Atilde" unicode="&#xc3;" horiz-adv-x="1552" vert-adv-y="2007" 
d="M930 1556q-34 0 -68.5 13t-52.5 25.5t-45 33.5q-31 25 -47.5 35t-36.5 10q-31 0 -40 -25.5t3 -84.5h-149q-19 106 34 179t150 73q34 0 68.5 -13t52.5 -25.5t45 -33.5q23 -18 33.5 -25.5t24.5 -13.5t28 -6q54 0 37 114h145q19 -107 -34 -181.5t-148 -74.5zM449 350
l-187 -401h-160l686 1474h99l686 -1474h-160l-186 401h-778zM1157 494l-319 692l-320 -692h639z" />
    <glyph glyph-name="Adieresis" unicode="&#xc4;" horiz-adv-x="1552" vert-adv-y="2007" 
d="M653 1614q-43 0 -72.5 29.5t-29.5 70.5t30.5 71t71.5 30t72 -30t31 -71t-30 -70.5t-73 -29.5zM1022 1614q-43 0 -72.5 29.5t-29.5 70.5t30.5 71t71.5 30t71.5 -30t30.5 -71t-29.5 -70.5t-72.5 -29.5zM449 350l-187 -401h-160l686 1474h99l686 -1474h-160l-186 401h-778z
M1157 494l-319 692l-320 -692h639z" />
    <glyph glyph-name="Aring" unicode="&#xc5;" horiz-adv-x="1552" vert-adv-y="2007" 
d="M838 1536q-95 0 -163.5 66.5t-68.5 160.5t68.5 161t163.5 67t163 -67t68 -161t-68 -160.5t-163 -66.5zM838 1675q38 0 65 25.5t27 62.5t-27 62.5t-65 25.5t-65.5 -25.5t-27.5 -62.5t27.5 -62.5t65.5 -25.5zM449 350l-187 -401h-160l686 1474h99l686 -1474h-160l-186 401
h-778zM1157 494l-319 692l-320 -692h639z" />
    <glyph glyph-name="AE" unicode="&#xc6;" horiz-adv-x="1966" vert-adv-y="2007" 
d="M449 350l-187 -401h-160l686 1474h1063v-143h-917v-518h856v-144h-856v-526h917v-143h-1065v401h-337zM786 494v581l-268 -581h268z" />
    <glyph glyph-name="Ccedilla" unicode="&#xc7;" horiz-adv-x="1703" vert-adv-y="2007" 
d="M831 -541q-94 0 -150 56.5t-56 150.5q0 68 32 124.5t115 135.5l2 11q-183 27 -329.5 132.5t-229 267.5t-82.5 349q0 209 100 383t273 274.5t381 100.5q247 0 435 -123t263 -334l-135 -57q-55 170 -207.5 270t-355.5 100q-125 0 -237.5 -48t-193.5 -129.5t-128 -195.5
t-47 -241t47 -241t128 -195.5t193.5 -129.5t237.5 -48q202 0 352 98.5t209 269.5l137 -51q-72 -206 -247 -327.5t-418 -133.5l-2 -53q-92 -89 -121 -129.5t-29 -79.5q0 -35 13.5 -49t47.5 -14q19 0 56 12l71 18l43 -131q-77 -27 -107.5 -35t-60.5 -8z" />
    <glyph glyph-name="Egrave" unicode="&#xc8;" horiz-adv-x="1208" vert-adv-y="2007" 
d="M705 1927l262 -381h-168l-267 381h173zM1198 92v-143h-1065v1474h1065v-143h-917v-518h856v-144h-856v-526h917z" />
    <glyph glyph-name="Eacute" unicode="&#xc9;" horiz-adv-x="1208" vert-adv-y="2007" 
d="M975 1927l-266 -381h-168l262 381h172zM1198 92v-143h-1065v1474h1065v-143h-917v-518h856v-144h-856v-526h917z" />
    <glyph glyph-name="Ecircumflex" unicode="&#xca;" horiz-adv-x="1208" vert-adv-y="2007" 
d="M686 1761l-194 -215h-185l338 379h82l338 -379h-184zM1198 92v-143h-1065v1474h1065v-143h-917v-518h856v-144h-856v-526h917z" />
    <glyph glyph-name="Edieresis" unicode="&#xcb;" horiz-adv-x="1208" vert-adv-y="2007" 
d="M489 1624q-43 0 -72.5 29.5t-29.5 70.5t30.5 71t71.5 30t72 -30t31 -71t-30 -70.5t-73 -29.5zM858 1624q-43 0 -72.5 29.5t-29.5 70.5t30.5 71t71.5 30t72 -30t31 -71t-30 -70.5t-73 -29.5zM1198 92v-143h-1065v1474h1065v-143h-917v-518h856v-144h-856v-526h917z" />
    <glyph glyph-name="Igrave" unicode="&#xcc;" horiz-adv-x="290" vert-adv-y="2007" 
d="M162 1903l262 -381h-168l-266 381h172zM281 1423v-1474h-148v1474h148z" />
    <glyph glyph-name="Iacute" unicode="&#xcd;" horiz-adv-x="290" vert-adv-y="2007" 
d="M477 1927l-266 -381h-168l262 381h172zM281 1423v-1474h-148v1474h148z" />
    <glyph glyph-name="Icircumflex" unicode="&#xce;" horiz-adv-x="290" vert-adv-y="2007" 
d="M207 1761l-195 -215h-184l338 379h82l338 -379h-185zM281 1423v-1474h-148v1474h148z" />
    <glyph glyph-name="Idieresis" unicode="&#xcf;" horiz-adv-x="290" vert-adv-y="2007" 
d="M23 1634q-43 0 -73 30t-30 71t30.5 70.5t72.5 29.5q41 0 71.5 -29.5t30.5 -70.5t-29.5 -71t-72.5 -30zM391 1634q-43 0 -72.5 30t-29.5 71t30.5 70.5t71.5 29.5q42 0 72.5 -29.5t30.5 -70.5t-30 -71t-73 -30zM281 1423v-1474h-148v1474h148z" />
    <glyph glyph-name="Ntilde" unicode="&#xd1;" horiz-adv-x="1370" vert-adv-y="2007" 
d="M797 1546q-34 0 -68.5 13t-52.5 25.5t-45 33.5q-31 25 -47.5 35t-36.5 10q-60 0 -37 -111h-150q-19 106 34.5 179t150.5 73q77 0 166 -71q23 -18 33.5 -25.5t24.5 -13.5t28 -6q54 0 37 114h145q19 -107 -34 -181.5t-148 -74.5zM281 1151v-1202h-148v1474h121l958 -1202
v1202h148v-1474h-121z" />
    <glyph glyph-name="Ograve" unicode="&#xd2;" horiz-adv-x="1636" vert-adv-y="2007" 
d="M834 1927l262 -381h-168l-266 381h172zM881 -72q-155 0 -293.5 59t-238.5 160t-158 241.5t-58 297.5q0 156 58.5 296.5t158.5 241.5t238.5 160.5t292.5 59.5q206 0 377 -100.5t269.5 -274.5t98.5 -383t-98.5 -383t-269.5 -274.5t-377 -100.5zM881 72q166 0 303 81
t216 222t79 311q0 169 -79 310.5t-216.5 222.5t-302.5 81q-166 0 -304 -81t-217 -222t-79 -311t79 -311t217 -222t304 -81z" />
    <glyph glyph-name="Oacute" unicode="&#xd3;" horiz-adv-x="1636" vert-adv-y="2007" 
d="M1067 1925l-266 -381h-168l262 381h172zM881 -72q-155 0 -293.5 59t-238.5 160t-158 241.5t-58 297.5q0 156 58.5 296.5t158.5 241.5t238.5 160.5t292.5 59.5q206 0 377 -100.5t269.5 -274.5t98.5 -383t-98.5 -383t-269.5 -274.5t-377 -100.5zM881 72q166 0 303 81
t216 222t79 311q0 169 -79 310.5t-216.5 222.5t-302.5 81q-166 0 -304 -81t-217 -222t-79 -311t79 -311t217 -222t304 -81z" />
    <glyph glyph-name="Ocircumflex" unicode="&#xd4;" horiz-adv-x="1636" vert-adv-y="2007" 
d="M881 1761l-195 -215h-184l338 379h82l338 -379h-185zM881 -72q-155 0 -293.5 59t-238.5 160t-158 241.5t-58 297.5q0 156 58.5 296.5t158.5 241.5t238.5 160.5t292.5 59.5q206 0 377 -100.5t269.5 -274.5t98.5 -383t-98.5 -383t-269.5 -274.5t-377 -100.5zM881 72
q166 0 303 81t216 222t79 311q0 169 -79 310.5t-216.5 222.5t-302.5 81q-166 0 -304 -81t-217 -222t-79 -311t79 -311t217 -222t304 -81z" />
    <glyph glyph-name="Otilde" unicode="&#xd5;" horiz-adv-x="1636" vert-adv-y="2007" 
d="M1008 1546q-34 0 -68.5 13t-52.5 25.5t-45 33.5q-31 25 -47.5 35t-36.5 10q-60 0 -37 -111h-150q-19 106 34.5 179t150.5 73q77 0 166 -71q23 -18 33.5 -25.5t24.5 -13.5t28 -6q28 0 36.5 27t-0.5 87h146q19 -107 -34 -181.5t-148 -74.5zM881 -72q-155 0 -293.5 59
t-238.5 160t-158 241.5t-58 297.5q0 156 58.5 296.5t158.5 241.5t238.5 160.5t292.5 59.5q206 0 377 -100.5t269.5 -274.5t98.5 -383t-98.5 -383t-269.5 -274.5t-377 -100.5zM881 72q166 0 303 81t216 222t79 311q0 169 -79 310.5t-216.5 222.5t-302.5 81q-166 0 -304 -81
t-217 -222t-79 -311t79 -311t217 -222t304 -81z" />
    <glyph glyph-name="Odieresis" unicode="&#xd6;" horiz-adv-x="1636" vert-adv-y="2007" 
d="M696 1604q-43 0 -72.5 29.5t-29.5 70.5t30.5 70.5t71.5 29.5q42 0 72.5 -29.5t30.5 -70.5t-30 -70.5t-73 -29.5zM1065 1604q-43 0 -72.5 29.5t-29.5 70.5t30.5 70.5t71.5 29.5t71.5 -29.5t30.5 -70.5t-29.5 -70.5t-72.5 -29.5zM881 -72q-155 0 -293.5 59t-238.5 160
t-158 241.5t-58 297.5q0 156 58.5 296.5t158.5 241.5t238.5 160.5t292.5 59.5q206 0 377 -100.5t269.5 -274.5t98.5 -383t-98.5 -383t-269.5 -274.5t-377 -100.5zM881 72q166 0 303 81t216 222t79 311q0 169 -79 310.5t-216.5 222.5t-302.5 81q-166 0 -304 -81t-217 -222
t-79 -311t79 -311t217 -222t304 -81z" />
    <glyph glyph-name="multiply" unicode="&#xd7;" horiz-adv-x="1118" vert-adv-y="2007" 
d="M862 219l-303 303l-303 -303l-102 103l303 303l-303 303l102 102l303 -303l303 303l103 -102l-303 -303l303 -303z" />
    <glyph glyph-name="Oslash" unicode="&#xd8;" horiz-adv-x="1759" vert-adv-y="2007" 
d="M1231 1569l-64 -180q207 -86 333 -275.5t126 -427.5q0 -209 -98.5 -383t-269.5 -274.5t-377 -100.5q-111 0 -219 31l-56 -156h-149l73 209q-181 95 -289 274.5t-108 399.5q0 156 58.5 296.5t158.5 241.5t238.5 160.5t292.5 59.5q65 0 151 -14l49 139h150zM281 686
q0 -172 81 -313.5t218 -220.5l403 1140q-44 8 -102 8q-166 0 -304 -81t-217 -222t-79 -311zM881 72q166 0 303 81t216 222t79 311q0 190 -99 342.5t-262 222.5l-407 -1155q79 -24 170 -24z" />
    <glyph glyph-name="Ugrave" unicode="&#xd9;" vert-adv-y="2007" 
d="M705 1927l262 -381h-168l-267 381h173zM737 -72q-270 0 -437 181.5t-167 474.5v839h148v-839q0 -232 124.5 -371t331.5 -139t332 139t125 371v839h147v-839q0 -293 -167 -474.5t-437 -181.5z" />
    <glyph glyph-name="Uacute" unicode="&#xda;" vert-adv-y="2007" 
d="M975 1927l-266 -381h-168l262 381h172zM737 -72q-270 0 -437 181.5t-167 474.5v839h148v-839q0 -232 124.5 -371t331.5 -139t332 139t125 371v839h147v-839q0 -293 -167 -474.5t-437 -181.5z" />
    <glyph glyph-name="Ucircumflex" unicode="&#xdb;" vert-adv-y="2007" 
d="M737 1761l-194 -215h-185l338 379h82l338 -379h-184zM737 -72q-270 0 -437 181.5t-167 474.5v839h148v-839q0 -232 124.5 -371t331.5 -139t332 139t125 371v839h147v-839q0 -293 -167 -474.5t-437 -181.5z" />
    <glyph glyph-name="Udieresis" unicode="&#xdc;" vert-adv-y="2007" 
d="M545 1634q-43 0 -73 30t-30 71t30.5 70.5t72.5 29.5q41 0 71.5 -29.5t30.5 -70.5t-29.5 -71t-72.5 -30zM913 1634q-43 0 -72.5 30t-29.5 71t30.5 70.5t71.5 29.5q42 0 72.5 -29.5t30.5 -70.5t-30 -71t-73 -30zM737 -72q-270 0 -437 181.5t-167 474.5v839h148v-839
q0 -232 124.5 -371t331.5 -139t332 139t125 371v839h147v-839q0 -293 -167 -474.5t-437 -181.5z" />
    <glyph glyph-name="Yacute" unicode="&#xdd;" horiz-adv-x="1474" vert-adv-y="2007" 
d="M975 1927l-266 -381h-168l262 381h172zM872 504v-555h-147v555l-639 919h178l535 -774l534 774h178z" />
    <glyph glyph-name="germandbls" unicode="&#xdf;" horiz-adv-x="1310" vert-adv-y="1597" 
d="M303 1014v-1516h-145l-6 1473q10 215 150 344t362 129q215 0 348 -116t133 -304q0 -99 -45 -178.5t-129 -128.5q101 -51 154 -138t53 -202q0 -212 -155 -338t-398 -111v146q184 -15 295.5 67.5t111.5 233.5q0 125 -92.5 194.5t-259.5 69.5h-231v141h229q149 0 235 65.5
t86 178.5q0 126 -91.5 201t-245.5 75q-145 0 -240.5 -76t-118.5 -210z" />
    <glyph glyph-name="agrave" unicode="&#xe0;" horiz-adv-x="1259" vert-adv-y="2007" 
d="M705 1559l262 -381h-168l-267 381h173zM692 -72q-120 0 -224 43t-177.5 118t-115.5 181t-42 228q0 247 158 408t401 161q121 0 228.5 -46t183.5 -132v158h145v-1098h-145v157q-76 -86 -183.5 -132t-228.5 -46zM692 72q175 0 293.5 122.5t118.5 303.5t-118.5 303.5
t-293.5 122.5q-181 0 -297 -120t-116 -306t116 -306t297 -120z" />
    <glyph glyph-name="aacute" unicode="&#xe1;" horiz-adv-x="1259" vert-adv-y="2007" 
d="M985 1559l-266 -381h-168l262 381h172zM692 -72q-120 0 -224 43t-177.5 118t-115.5 181t-42 228q0 247 158 408t401 161q121 0 228.5 -46t183.5 -132v158h145v-1098h-145v157q-76 -86 -183.5 -132t-228.5 -46zM692 72q175 0 293.5 122.5t118.5 303.5t-118.5 303.5
t-293.5 122.5q-181 0 -297 -120t-116 -306t116 -306t297 -120z" />
    <glyph glyph-name="acircumflex" unicode="&#xe2;" horiz-adv-x="1259" vert-adv-y="2007" 
d="M692 1395l-194 -215h-185l338 379h82l338 -379h-184zM692 -72q-120 0 -224 43t-177.5 118t-115.5 181t-42 228q0 247 158 408t401 161q121 0 228.5 -46t183.5 -132v158h145v-1098h-145v157q-76 -86 -183.5 -132t-228.5 -46zM692 72q175 0 293.5 122.5t118.5 303.5
t-118.5 303.5t-293.5 122.5q-181 0 -297 -120t-116 -306t116 -306t297 -120z" />
    <glyph glyph-name="atilde" unicode="&#xe3;" horiz-adv-x="1259" vert-adv-y="2007" 
d="M819 1188q-34 0 -68.5 13t-52.5 25.5t-45 33.5q-31 25 -47.5 35t-36.5 10q-60 0 -37 -111h-149q-19 106 34 179t150 73q34 0 68.5 -13t52.5 -25.5t45 -33.5q23 -18 33.5 -25.5t24.5 -13.5t28 -6q54 0 37 115h145q19 -107 -34 -181.5t-148 -74.5zM692 -72q-120 0 -224 43
t-177.5 118t-115.5 181t-42 228q0 247 158 408t401 161q121 0 228.5 -46t183.5 -132v158h145v-1098h-145v157q-76 -86 -183.5 -132t-228.5 -46zM692 72q175 0 293.5 122.5t118.5 303.5t-118.5 303.5t-293.5 122.5q-181 0 -297 -120t-116 -306t116 -306t297 -120z" />
    <glyph glyph-name="adieresis" unicode="&#xe4;" horiz-adv-x="1259" vert-adv-y="2007" 
d="M508 1178q-43 0 -72.5 29.5t-29.5 70.5t30.5 70.5t71.5 29.5t71.5 -29.5t30.5 -70.5t-29.5 -70.5t-72.5 -29.5zM877 1178q-43 0 -73 29.5t-30 70.5t30.5 70.5t72.5 29.5q41 0 71.5 -29.5t30.5 -70.5t-29.5 -70.5t-72.5 -29.5zM692 -72q-120 0 -224 43t-177.5 118
t-115.5 181t-42 228q0 247 158 408t401 161q121 0 228.5 -46t183.5 -132v158h145v-1098h-145v157q-76 -86 -183.5 -132t-228.5 -46zM692 72q175 0 293.5 122.5t118.5 303.5t-118.5 303.5t-293.5 122.5q-181 0 -297 -120t-116 -306t116 -306t297 -120z" />
    <glyph glyph-name="aring" unicode="&#xe5;" horiz-adv-x="1259" vert-adv-y="2007" 
d="M692 1178q-95 0 -163 66.5t-68 160.5t68 160.5t163 66.5t163.5 -66.5t68.5 -160.5t-68.5 -160.5t-163.5 -66.5zM692 1317q38 0 65 25.5t27 62.5t-27 62.5t-65 25.5t-65 -25.5t-27 -62.5t27 -62.5t65 -25.5zM692 -72q-120 0 -224 43t-177.5 118t-115.5 181t-42 228
q0 247 158 408t401 161q121 0 228.5 -46t183.5 -132v158h145v-1098h-145v157q-76 -86 -183.5 -132t-228.5 -46zM692 72q175 0 293.5 122.5t118.5 303.5t-118.5 303.5t-293.5 122.5q-181 0 -297 -120t-116 -306t116 -306t297 -120z" />
    <glyph glyph-name="ae" unicode="&#xe6;" horiz-adv-x="2304" vert-adv-y="2007" 
d="M692 -72q-120 0 -224 43t-177.5 118t-115.5 181t-42 228q0 247 158 408t401 161q121 0 228.5 -46t183.5 -132v158h145v-162q79 87 189 134.5t231 47.5q229 0 377.5 -150.5t148.5 -388.5v-71h-946v-11q0 -155 122 -264.5t282 -109.5q158 0 260.5 80t140.5 233l131 -49
q-47 -192 -188 -300t-344 -108q-116 0 -222 46.5t-182 131.5v-157h-145v157q-76 -86 -183.5 -132t-228.5 -46zM692 72q181 0 297.5 120t116.5 306t-116.5 306t-297.5 120t-297 -120t-116 -306t116 -306t297 -120zM1257 600h785q-25 149 -126 236.5t-247 87.5
q-149 0 -263.5 -90.5t-148.5 -233.5z" />
    <glyph glyph-name="ccedilla" unicode="&#xe7;" horiz-adv-x="1320" vert-adv-y="2007" 
d="M668 -559q-94 0 -150.5 56.5t-56.5 150.5q0 67 31.5 122t117.5 138l2 24q-212 28 -345.5 184.5t-133.5 381.5q0 241 160.5 405t396.5 164q203 0 344.5 -108t188.5 -300l-131 -49q-38 153 -141 233.5t-261 80.5q-175 0 -293 -122.5t-118 -303.5q0 -185 116.5 -305.5
t294.5 -120.5q158 0 261 80.5t141 232.5l131 -49q-44 -178 -168.5 -284.5t-306.5 -121.5h10l-4 -73q-92 -89 -121 -129.5t-29 -79.5q0 -35 14 -49.5t48 -14.5q14 0 55 13l72 18l43 -131q-77 -27 -107.5 -35t-60.5 -8z" />
    <glyph glyph-name="egrave" unicode="&#xe8;" horiz-adv-x="1236" vert-adv-y="2007" 
d="M635 1559l262 -381h-168l-266 381h172zM684 -72q-152 0 -278.5 75t-199.5 205t-73 286q0 120 43.5 226.5t119 182.5t180.5 120t224 44q227 0 374 -150t153 -389v-71h-948q15 -166 129.5 -275.5t275.5 -109.5q158 0 260.5 80t140.5 233l132 -49q-47 -192 -188.5 -300
t-344.5 -108zM289 600h784q-25 149 -126 236.5t-247 87.5q-149 0 -263 -90.5t-148 -233.5z" />
    <glyph glyph-name="eacute" unicode="&#xe9;" horiz-adv-x="1236" vert-adv-y="2007" 
d="M897 1559l-266 -381h-168l262 381h172zM684 -72q-152 0 -278.5 75t-199.5 205t-73 286q0 120 43.5 226.5t119 182.5t180.5 120t224 44q227 0 374 -150t153 -389v-71h-948q15 -166 129.5 -275.5t275.5 -109.5q158 0 260.5 80t140.5 233l132 -49q-47 -192 -188.5 -300
t-344.5 -108zM289 600h784q-25 149 -126 236.5t-247 87.5q-149 0 -263 -90.5t-148 -233.5z" />
    <glyph glyph-name="ecircumflex" unicode="&#xea;" horiz-adv-x="1236" vert-adv-y="2007" 
d="M680 1393l-195 -215h-184l338 378h82l338 -378h-185zM684 -72q-152 0 -278.5 75t-199.5 205t-73 286q0 120 43.5 226.5t119 182.5t180.5 120t224 44q227 0 374 -150t153 -389v-71h-948q15 -166 129.5 -275.5t275.5 -109.5q158 0 260.5 80t140.5 233l132 -49
q-47 -192 -188.5 -300t-344.5 -108zM289 600h784q-25 149 -126 236.5t-247 87.5q-149 0 -263 -90.5t-148 -233.5z" />
    <glyph glyph-name="edieresis" unicode="&#xeb;" horiz-adv-x="1236" vert-adv-y="2007" 
d="M506 1188q-43 0 -73 29.5t-30 70.5t31 71t72 30t71.5 -30t30.5 -71t-29.5 -70.5t-72.5 -29.5zM874 1188q-43 0 -72.5 29.5t-29.5 70.5t30.5 71t71.5 30t72 -30t31 -71t-30 -70.5t-73 -29.5zM684 -72q-152 0 -278.5 75t-199.5 205t-73 286q0 120 43.5 226.5t119 182.5
t180.5 120t224 44q227 0 374 -150t153 -389v-71h-948q15 -166 129.5 -275.5t275.5 -109.5q158 0 260.5 80t140.5 233l132 -49q-47 -192 -188.5 -300t-344.5 -108zM289 600h784q-25 149 -126 236.5t-247 87.5q-149 0 -263 -90.5t-148 -233.5z" />
    <glyph glyph-name="igrave" unicode="&#xec;" horiz-adv-x="348" vert-adv-y="2007" 
d="M190 1569l263 -381h-168l-267 381h172zM309 1047v-1098h-145v1098h145z" />
    <glyph glyph-name="iacute" unicode="&#xed;" horiz-adv-x="348" vert-adv-y="2007" 
d="M420 1559l-266 -381h-168l262 381h172zM309 1047v-1098h-145v1098h145z" />
    <glyph glyph-name="icircumflex" unicode="&#xee;" horiz-adv-x="348" vert-adv-y="2007" 
d="M238 1409l-195 -215h-184l338 379h82l337 -379h-184zM309 1047v-1098h-145v1098h145z" />
    <glyph glyph-name="idieresis" unicode="&#xef;" horiz-adv-x="348" vert-adv-y="2007" 
d="M53 1178q-43 0 -72.5 29.5t-29.5 70.5t30.5 70.5t71.5 29.5q42 0 72.5 -29.5t30.5 -70.5t-30 -70.5t-73 -29.5zM422 1178q-43 0 -73 29.5t-30 70.5t30.5 70.5t72.5 29.5q41 0 71.5 -29.5t30.5 -70.5t-29.5 -70.5t-72.5 -29.5zM309 1047v-1098h-145v1098h145z" />
    <glyph glyph-name="ntilde" unicode="&#xf1;" horiz-adv-x="1130" vert-adv-y="2007" 
d="M754 1188q-34 0 -68.5 13t-52.5 25.5t-45 33.5q-31 25 -47.5 35t-36.5 10q-60 0 -37 -111h-150q-19 106 34.5 179t150.5 73q34 0 68.5 -13t52.5 -25.5t45 -33.5q23 -18 33.5 -25.5t24.5 -13.5t28 -6q54 0 37 115h145q19 -107 -34 -181.5t-148 -74.5zM279 518v-569h-146
v1098h146v-144q72 79 172.5 121.5t216.5 42.5q202 0 327 -133t125 -348v-637h-145v637q0 155 -81.5 246.5t-219.5 91.5q-181 0 -288 -110t-107 -296z" />
    <glyph glyph-name="ograve" unicode="&#xf2;" horiz-adv-x="1280" vert-adv-y="2007" 
d="M655 1559l263 -381h-168l-267 381h172zM700 -72q-120 0 -225 44t-180 119.5t-118.5 182t-43.5 226.5t43.5 225t118.5 180t180 118.5t225 43.5q244 0 407 -162t163 -405q0 -244 -163.5 -408t-406.5 -164zM700 72q183 0 303.5 121.5t120.5 306.5q0 184 -120 304t-304 120
q-183 0 -302 -120t-119 -304q0 -185 120 -306.5t301 -121.5z" />
    <glyph glyph-name="oacute" unicode="&#xf3;" horiz-adv-x="1280" vert-adv-y="2007" 
d="M920 1559l-267 -381h-168l263 381h172zM700 -72q-120 0 -225 44t-180 119.5t-118.5 182t-43.5 226.5t43.5 225t118.5 180t180 118.5t225 43.5q244 0 407 -162t163 -405q0 -244 -163.5 -408t-406.5 -164zM700 72q183 0 303.5 121.5t120.5 306.5q0 184 -120 304t-304 120
q-183 0 -302 -120t-119 -304q0 -185 120 -306.5t301 -121.5z" />
    <glyph glyph-name="ocircumflex" unicode="&#xf4;" horiz-adv-x="1280" vert-adv-y="2007" 
d="M702 1393l-194 -215h-184l338 378h81l338 -378h-184zM700 -72q-120 0 -225 44t-180 119.5t-118.5 182t-43.5 226.5t43.5 225t118.5 180t180 118.5t225 43.5q244 0 407 -162t163 -405q0 -244 -163.5 -408t-406.5 -164zM700 72q183 0 303.5 121.5t120.5 306.5
q0 184 -120 304t-304 120q-183 0 -302 -120t-119 -304q0 -185 120 -306.5t301 -121.5z" />
    <glyph glyph-name="otilde" unicode="&#xf5;" horiz-adv-x="1280" vert-adv-y="2007" 
d="M784 1171q-34 0 -68.5 13t-52.5 25.5t-45 33.5q-22 18 -32 25.5t-23.5 13.5t-27.5 6q-31 0 -40 -26t3 -84h-150q-19 106 34 179t150 73q34 0 68.5 -13t52.5 -25.5t45 -33.5q23 -18 33.5 -25.5t24.5 -13.5t28 -6q54 0 37 114h146q19 -107 -34.5 -181.5t-148.5 -74.5z
M700 -72q-120 0 -225 44t-180 119.5t-118.5 182t-43.5 226.5t43.5 225t118.5 180t180 118.5t225 43.5q244 0 407 -162t163 -405q0 -244 -163.5 -408t-406.5 -164zM700 72q183 0 303.5 121.5t120.5 306.5q0 184 -120 304t-304 120q-183 0 -302 -120t-119 -304
q0 -185 120 -306.5t301 -121.5z" />
    <glyph glyph-name="odieresis" unicode="&#xf6;" horiz-adv-x="1280" vert-adv-y="2007" 
d="M518 1171q-42 0 -72 29.5t-30 71.5q0 41 30.5 70.5t71.5 29.5q42 0 72.5 -29.5t30.5 -70.5t-30 -71t-73 -30zM887 1171q-43 0 -73 30t-30 71t30.5 70.5t72.5 29.5q41 0 71.5 -29.5t30.5 -70.5q0 -42 -29.5 -71.5t-72.5 -29.5zM700 -72q-120 0 -225 44t-180 119.5
t-118.5 182t-43.5 226.5t43.5 225t118.5 180t180 118.5t225 43.5q244 0 407 -162t163 -405q0 -244 -163.5 -408t-406.5 -164zM700 72q183 0 303.5 121.5t120.5 306.5q0 184 -120 304t-304 120q-183 0 -302 -120t-119 -304q0 -185 120 -306.5t301 -121.5z" />
    <glyph glyph-name="divide" unicode="&#xf7;" horiz-adv-x="1310" vert-adv-y="2007" 
d="M655 901q-43 0 -72.5 29.5t-29.5 70.5t30.5 71t71.5 30t72 -30t31 -71t-30 -70.5t-73 -29.5zM1137 696v-143h-963v143h963zM655 147q-43 0 -72.5 29.5t-29.5 71.5q0 41 30.5 70.5t71.5 29.5q42 0 72.5 -29.5t30.5 -70.5t-30 -71t-73 -30z" />
    <glyph glyph-name="oslash" unicode="&#xf8;" horiz-adv-x="1402" vert-adv-y="2007" 
d="M555 -53l-90 -266h-150l113 317q-138 70 -216.5 204.5t-78.5 297.5q0 120 43.5 225t118.5 180t180 118.5t225 43.5q29 0 103 -8l137 387h150l-152 -426q154 -67 243 -207t89 -313q0 -244 -163.5 -408t-406.5 -164q-71 0 -145 19zM473 133l283 789q-8 0 -27 1t-29 1
q-183 0 -302 -120t-119 -304q0 -120 51 -215.5t143 -151.5zM700 72q183 0 303.5 121.5t120.5 306.5q0 130 -62 231t-171 152l-285 -801q45 -10 94 -10z" />
    <glyph glyph-name="ugrave" unicode="&#xf9;" horiz-adv-x="1130" vert-adv-y="2007" 
d="M582 1559l262 -381h-168l-266 381h172zM586 -72q-202 0 -327.5 133.5t-125.5 348.5v637h146v-637q0 -155 81.5 -246.5t219.5 -91.5q181 0 288 109.5t107 295.5v570h145v-1098h-145v143q-72 -79 -172.5 -121.5t-216.5 -42.5z" />
    <glyph glyph-name="uacute" unicode="&#xfa;" horiz-adv-x="1130" vert-adv-y="2007" 
d="M793 1559l-267 -381h-168l263 381h172zM586 -72q-202 0 -327.5 133.5t-125.5 348.5v637h146v-637q0 -155 81.5 -246.5t219.5 -91.5q181 0 288 109.5t107 295.5v570h145v-1098h-145v143q-72 -79 -172.5 -121.5t-216.5 -42.5z" />
    <glyph glyph-name="ucircumflex" unicode="&#xfb;" horiz-adv-x="1130" vert-adv-y="2007" 
d="M594 1395l-195 -215h-184l338 379h82l338 -379h-185zM586 -72q-202 0 -327.5 133.5t-125.5 348.5v637h146v-637q0 -155 81.5 -246.5t219.5 -91.5q181 0 288 109.5t107 295.5v570h145v-1098h-145v143q-72 -79 -172.5 -121.5t-216.5 -42.5z" />
    <glyph glyph-name="udieresis" unicode="&#xfc;" horiz-adv-x="1130" vert-adv-y="2007" 
d="M442 1186q-43 0 -72.5 29.5t-29.5 70.5t30.5 70.5t71.5 29.5q42 0 72.5 -29.5t30.5 -70.5t-30 -70.5t-73 -29.5zM811 1186q-43 0 -72.5 29.5t-29.5 70.5t30.5 70.5t71.5 29.5t71.5 -29.5t30.5 -70.5t-29.5 -70.5t-72.5 -29.5zM586 -72q-202 0 -327.5 133.5t-125.5 348.5
v637h146v-637q0 -155 81.5 -246.5t219.5 -91.5q181 0 288 109.5t107 295.5v570h145v-1098h-145v143q-72 -79 -172.5 -121.5t-216.5 -42.5z" />
    <glyph glyph-name="yacute" unicode="&#xfd;" horiz-adv-x="1251" vert-adv-y="2007" 
d="M905 1569l-266 -381h-168l262 381h172zM1272 1047l-697 -1446h-159l192 399l-506 1047h164l422 -879l424 879h160z" />
    <glyph glyph-name="ydieresis" unicode="&#xff;" horiz-adv-x="1251" vert-adv-y="2007" 
d="M504 1180q-43 0 -73 29.5t-30 70.5t30.5 70.5t72.5 29.5q41 0 71.5 -29.5t30.5 -70.5t-29.5 -70.5t-72.5 -29.5zM872 1180q-43 0 -72.5 29.5t-29.5 70.5t30.5 70.5t71.5 29.5q42 0 72.5 -29.5t30.5 -70.5t-30 -70.5t-73 -29.5zM1272 1047l-697 -1446h-159l192 399
l-506 1047h164l422 -879l424 879h160z" />
    <glyph glyph-name="Cacute" unicode="&#x106;" horiz-adv-x="1581" vert-adv-y="2007" 
d="M975 1927l-266 -381h-168l262 381h172zM887 -72q-208 0 -381 100.5t-273 274.5t-100 383t100 383t273 274.5t381 100.5q247 0 435 -123t263 -334l-135 -57q-55 170 -207.5 270t-355.5 100q-125 0 -237.5 -48t-193.5 -129.5t-128 -195.5t-47 -241t47 -241t128 -195.5
t193.5 -129.5t237.5 -48q202 0 352 98.5t209 269.5l137 -51q-75 -213 -263 -337t-435 -124z" />
    <glyph glyph-name="cacute" unicode="&#x107;" horiz-adv-x="1198" vert-adv-y="2007" 
d="M879 1559l-267 -381h-168l263 381h172zM690 -72q-241 0 -399 162t-158 408q0 241 160.5 405t396.5 164q203 0 344.5 -108t188.5 -300l-131 -49q-38 153 -141 233.5t-261 80.5q-175 0 -293 -122.5t-118 -303.5q0 -185 116.5 -305.5t294.5 -120.5q158 0 261 80.5t141 232.5
l131 -49q-47 -192 -188.5 -300t-344.5 -108z" />
    <glyph glyph-name="Ccircumflex" unicode="&#x108;" horiz-adv-x="1581" vert-adv-y="2007" 
d="M852 1761l-195 -215h-184l338 379h82l338 -379h-184zM887 -72q-208 0 -381 100.5t-273 274.5t-100 383t100 383t273 274.5t381 100.5q247 0 435 -123t263 -334l-135 -57q-55 170 -207.5 270t-355.5 100q-125 0 -237.5 -48t-193.5 -129.5t-128 -195.5t-47 -241t47 -241
t128 -195.5t193.5 -129.5t237.5 -48q202 0 352 98.5t209 269.5l137 -51q-75 -213 -263 -337t-435 -124z" />
    <glyph glyph-name="ccircumflex" unicode="&#x109;" horiz-adv-x="1198" vert-adv-y="2007" 
d="M662 1393l-195 -215h-184l338 378h81l338 -378h-184zM690 -72q-241 0 -399 162t-158 408q0 241 160.5 405t396.5 164q203 0 344.5 -108t188.5 -300l-131 -49q-38 153 -141 233.5t-261 80.5q-175 0 -293 -122.5t-118 -303.5q0 -185 116.5 -305.5t294.5 -120.5
q158 0 261 80.5t141 232.5l131 -49q-47 -192 -188.5 -300t-344.5 -108z" />
    <glyph glyph-name="Cdotaccent" unicode="&#x10a;" horiz-adv-x="1581" vert-adv-y="2007" 
d="M852 1577q-43 0 -72.5 29.5t-29.5 70.5t30.5 71t71.5 30t71.5 -30t30.5 -71t-29.5 -70.5t-72.5 -29.5zM887 -72q-208 0 -381 100.5t-273 274.5t-100 383t100 383t273 274.5t381 100.5q247 0 435 -123t263 -334l-135 -57q-55 170 -207.5 270t-355.5 100q-125 0 -237.5 -48
t-193.5 -129.5t-128 -195.5t-47 -241t47 -241t128 -195.5t193.5 -129.5t237.5 -48q202 0 352 98.5t209 269.5l137 -51q-75 -213 -263 -337t-435 -124z" />
    <glyph glyph-name="cdotaccent" unicode="&#x10b;" horiz-adv-x="1198" vert-adv-y="2007" 
d="M659 1178q-43 0 -72.5 29.5t-29.5 70.5t30.5 70.5t71.5 29.5q42 0 72.5 -29.5t30.5 -70.5t-30 -70.5t-73 -29.5zM690 -72q-241 0 -399 162t-158 408q0 241 160.5 405t396.5 164q203 0 344.5 -108t188.5 -300l-131 -49q-38 153 -141 233.5t-261 80.5q-175 0 -293 -122.5
t-118 -303.5q0 -185 116.5 -305.5t294.5 -120.5q158 0 261 80.5t141 232.5l131 -49q-47 -192 -188.5 -300t-344.5 -108z" />
    <glyph glyph-name="Ccaron" unicode="&#x10c;" horiz-adv-x="1581" vert-adv-y="2007" 
d="M1266 1913l-338 -379h-82l-338 379h184l195 -215l194 215h185zM887 -72q-208 0 -381 100.5t-273 274.5t-100 383t100 383t273 274.5t381 100.5q247 0 435 -123t263 -334l-135 -57q-55 170 -207.5 270t-355.5 100q-125 0 -237.5 -48t-193.5 -129.5t-128 -195.5t-47 -241
t47 -241t128 -195.5t193.5 -129.5t237.5 -48q202 0 352 98.5t209 269.5l137 -51q-75 -213 -263 -337t-435 -124z" />
    <glyph glyph-name="ccaron" unicode="&#x10d;" horiz-adv-x="1198" vert-adv-y="2007" 
d="M1040 1556l-338 -378h-81l-338 378h184l195 -215l194 215h184zM690 -72q-241 0 -399 162t-158 408q0 241 160.5 405t396.5 164q203 0 344.5 -108t188.5 -300l-131 -49q-38 153 -141 233.5t-261 80.5q-175 0 -293 -122.5t-118 -303.5q0 -185 116.5 -305.5t294.5 -120.5
q158 0 261 80.5t141 232.5l131 -49q-47 -192 -188.5 -300t-344.5 -108z" />
    <glyph glyph-name="Ecaron" unicode="&#x11a;" horiz-adv-x="1208" vert-adv-y="2007" 
d="M1040 1925l-338 -379h-81l-338 379h184l195 -215l194 215h184zM1198 92v-143h-1065v1474h1065v-143h-917v-518h856v-144h-856v-526h917z" />
    <glyph glyph-name="ecaron" unicode="&#x11b;" horiz-adv-x="1236" vert-adv-y="2007" 
d="M1059 1567l-338 -379h-82l-338 379h184l195 -215l194 215h185zM684 -72q-152 0 -278.5 75t-199.5 205t-73 286q0 120 43.5 226.5t119 182.5t180.5 120t224 44q227 0 374 -150t153 -389v-71h-948q15 -166 129.5 -275.5t275.5 -109.5q158 0 260.5 80t140.5 233l132 -49
q-47 -192 -188.5 -300t-344.5 -108zM289 600h784q-25 149 -126 236.5t-247 87.5q-149 0 -263 -90.5t-148 -233.5z" />
    <glyph glyph-name="Itilde" unicode="&#x128;" horiz-adv-x="290" vert-adv-y="2007" 
d="M358 1546q-34 0 -68 13t-52 25t-45 34q-31 25 -47.5 35t-36.5 10q-60 0 -37 -111h-150q-19 106 34 179t150 73q77 0 166 -71q23 -18 33.5 -25.5t24.5 -13.5t28 -6q54 0 37 114h146q19 -107 -34.5 -181.5t-148.5 -74.5zM281 1423v-1474h-148v1474h148z" />
    <glyph glyph-name="itilde" unicode="&#x129;" horiz-adv-x="348" vert-adv-y="2007" 
d="M362 1169q-34 0 -68 13t-52 25t-45 34q-31 25 -47.5 35t-36.5 10q-31 0 -40 -26t3 -84h-150q-19 106 34.5 178.5t150.5 72.5q34 0 68 -12.5t52.5 -25t44.5 -33.5q23 -18 33.5 -25.5t24.5 -13.5t28 -6q54 0 37 114h146q19 -107 -34.5 -181.5t-148.5 -74.5zM309 1047v-1098
h-145v1098h145z" />
    <glyph glyph-name="dotlessi" unicode="&#x131;" horiz-adv-x="471" vert-adv-y="2007" 
d="M309 1047v-1098h-145v1098h145z" />
    <glyph glyph-name="Nacute" unicode="&#x143;" horiz-adv-x="1370" vert-adv-y="2007" 
d="M975 1927l-266 -381h-168l262 381h172zM281 1151v-1202h-148v1474h121l958 -1202v1202h148v-1474h-121z" />
    <glyph glyph-name="nacute" unicode="&#x144;" horiz-adv-x="1130" vert-adv-y="2007" 
d="M844 1559l-266 -381h-168l262 381h172zM279 518v-569h-146v1098h146v-144q72 79 172.5 121.5t216.5 42.5q202 0 327 -133t125 -348v-637h-145v637q0 155 -81.5 246.5t-219.5 91.5q-181 0 -288 -110t-107 -296z" />
    <glyph glyph-name="OE" unicode="&#x152;" horiz-adv-x="2684" vert-adv-y="2007" 
d="M881 -72q-155 0 -293.5 59t-238.5 160t-158 241.5t-58 297.5q0 156 58.5 296.5t158.5 241.5t238.5 160.5t292.5 59.5q180 0 337.5 -79t260.5 -220v299h1065v-144h-918v-518h856v-143h-856v-526h918v-144h-1065v258q-103 -140 -261 -219.5t-337 -79.5zM881 72
q166 0 303 81t216 222t79 311q0 169 -79 310.5t-216.5 222.5t-302.5 81q-166 0 -304 -81t-217 -222t-79 -311t79 -311t217 -222t304 -81z" />
    <glyph glyph-name="oe" unicode="&#x153;" horiz-adv-x="2293" vert-adv-y="2007" 
d="M2216 528v-71h-948v-4q15 -164 130 -272.5t275 -108.5q158 0 261 80.5t141 232.5l131 -49q-47 -192 -188.5 -300t-344.5 -108q-147 0 -276.5 76.5t-200.5 204.5v2q-73 -131 -204 -207t-292 -76q-120 0 -225 44t-180 119.5t-118.5 182t-43.5 226.5t43.5 225t118.5 180
t180 118.5t225 43.5q162 0 292.5 -75.5t203.5 -205.5q75 130 207.5 205.5t286.5 75.5q227 0 373.5 -150t152.5 -389zM700 72q183 0 303.5 121.5t120.5 306.5q0 184 -120 304t-304 120q-183 0 -302 -120t-119 -304q0 -185 120 -306.5t301 -121.5zM1690 924
q-149 0 -263.5 -90.5t-148.5 -233.5h784q-25 149 -125.5 236.5t-246.5 87.5z" />
    <glyph glyph-name="Racute" unicode="&#x154;" horiz-adv-x="1312" vert-adv-y="2007" 
d="M936 1927l-266 -381h-168l262 381h172zM281 621v-672h-148v1474h664q206 0 331 -110t125 -291t-125 -291t-331 -110h-39l606 -672h-199l-600 672h-284zM797 1280h-516v-516h516q141 0 225 70t84 188t-84 188t-225 70z" />
    <glyph glyph-name="racute" unicode="&#x155;" horiz-adv-x="804" vert-adv-y="2007" 
d="M647 1559l-266 -381h-168l262 381h172zM279 518v-569h-146v1098h146v-144q72 79 172.5 121.5t216.5 42.5q80 0 141 -20l-35 -138q-46 15 -100 15q-181 0 -288 -110t-107 -296z" />
    <glyph glyph-name="Rcaron" unicode="&#x158;" horiz-adv-x="1312" vert-adv-y="2007" 
d="M1040 1925l-338 -379h-81l-338 379h184l195 -215l194 215h184zM281 621v-672h-148v1474h664q206 0 331 -110t125 -291t-125 -291t-331 -110h-39l606 -672h-199l-600 672h-284zM797 1280h-516v-516h516q141 0 225 70t84 188t-84 188t-225 70z" />
    <glyph glyph-name="rcaron" unicode="&#x159;" horiz-adv-x="804" vert-adv-y="2007" 
d="M836 1561l-338 -379h-82l-338 379h184l195 -215l194 215h185zM279 518v-569h-146v1098h146v-144q72 79 172.5 121.5t216.5 42.5q80 0 141 -20l-35 -138q-46 15 -100 15q-181 0 -288 -110t-107 -296z" />
    <glyph glyph-name="Sacute" unicode="&#x15a;" horiz-adv-x="1261" vert-adv-y="2007" 
d="M975 1927l-266 -381h-168l262 381h172zM727 -72q-169 0 -302.5 62.5t-211 176t-84.5 261.5l154 37q-7 -175 116.5 -284t329.5 -109q173 0 273 76t100 208q0 100 -52.5 149t-193.5 81l-328 80q-340 83 -340 360q0 186 139.5 302t362.5 116q224 0 371.5 -121.5
t169.5 -323.5l-139 -47q-13 162 -121.5 255t-282.5 93q-157 0 -252.5 -75.5t-95.5 -198.5q0 -91 54.5 -142t183.5 -79l303 -76q56 -12 100.5 -26.5t98 -44t88.5 -67t59 -98t24 -135.5q0 -195 -143.5 -312.5t-380.5 -117.5z" />
    <glyph glyph-name="sacute" unicode="&#x15b;" horiz-adv-x="1034" vert-adv-y="2007" 
d="M797 1563l-267 -381h-168l263 381h172zM606 -72q-209 0 -340 104.5t-137 276.5l143 27q-11 -117 82 -191.5t252 -74.5q127 0 200 50t73 138q0 61 -39 94t-138 56l-256 57q-140 31 -208 98.5t-68 179.5q0 145 111 234.5t290 89.5q175 0 293 -91t144 -249l-144 -33
q-9 107 -87 168.5t-206 61.5q-117 0 -186.5 -49.5t-69.5 -131.5q0 -59 38 -90t136 -53l242 -53q43 -10 77 -21t77 -33.5t71 -52t48 -76.5t20 -106q0 -149 -115 -239.5t-303 -90.5z" />
    <glyph glyph-name="Scircumflex" unicode="&#x15c;" horiz-adv-x="1261" vert-adv-y="2007" 
d="M686 1761l-194 -215h-185l338 379h82l338 -379h-184zM727 -72q-169 0 -302.5 62.5t-211 176t-84.5 261.5l154 37q-7 -175 116.5 -284t329.5 -109q173 0 273 76t100 208q0 100 -52.5 149t-193.5 81l-328 80q-340 83 -340 360q0 186 139.5 302t362.5 116
q224 0 371.5 -121.5t169.5 -323.5l-139 -47q-13 162 -121.5 255t-282.5 93q-157 0 -252.5 -75.5t-95.5 -198.5q0 -91 54.5 -142t183.5 -79l303 -76q56 -12 100.5 -26.5t98 -44t88.5 -67t59 -98t24 -135.5q0 -195 -143.5 -312.5t-380.5 -117.5z" />
    <glyph glyph-name="scircumflex" unicode="&#x15d;" horiz-adv-x="1034" vert-adv-y="2007" 
d="M580 1393l-195 -215h-184l338 378h82l337 -378h-184zM606 -72q-209 0 -340 104.5t-137 276.5l143 27q-11 -117 82 -191.5t252 -74.5q127 0 200 50t73 138q0 61 -39 94t-138 56l-256 57q-140 31 -208 98.5t-68 179.5q0 145 111 234.5t290 89.5q175 0 293 -91t144 -249
l-144 -33q-9 107 -87 168.5t-206 61.5q-117 0 -186.5 -49.5t-69.5 -131.5q0 -59 38 -90t136 -53l242 -53q43 -10 77 -21t77 -33.5t71 -52t48 -76.5t20 -106q0 -149 -115 -239.5t-303 -90.5z" />
    <glyph glyph-name="Scedilla" unicode="&#x15e;" horiz-adv-x="1384" vert-adv-y="2007" 
d="M719 -541q-94 0 -150.5 56.5t-56.5 150.5q0 68 32 124.5t115 135.5v4q-231 19 -376 155t-154 343l154 37q-7 -175 116.5 -284t329.5 -109q173 0 273 76t100 208q0 100 -52.5 149t-193.5 81l-328 80q-340 83 -340 360q0 186 139.5 302t362.5 116q224 0 371.5 -121.5
t169.5 -323.5l-139 -47q-13 162 -121.5 255t-282.5 93q-157 0 -252.5 -75.5t-95.5 -198.5q0 -91 54.5 -142t183.5 -79l303 -76q56 -12 100.5 -26.5t98 -44t88.5 -67t59 -98t24 -135.5q0 -176 -119.5 -291t-324.5 -137l-2 -55q-92 -89 -121 -129.5t-29 -79.5q0 -35 14 -49
t48 -14q17 0 55 12l72 18l43 -131q-77 -27 -107.5 -35t-60.5 -8z" />
    <glyph glyph-name="scedilla" unicode="&#x15f;" horiz-adv-x="1157" vert-adv-y="2007" 
d="M606 -541q-94 0 -150.5 56.5t-56.5 150.5q0 67 32 123.5t116 136.5v4q-186 15 -299 117t-119 262l147 56q-25 -129 68 -212t262 -83q127 0 200 50t73 138q0 61 -39 94t-138 56l-256 57q-140 31 -208 98.5t-68 179.5q0 145 111 234.5t290 89.5q175 0 293 -91t144 -249
l-144 -57q0 118 -79 186t-214 68q-117 0 -186.5 -49.5t-69.5 -131.5q0 -59 38 -90t136 -53l242 -53q43 -10 77 -21t77 -33.5t71 -52t48 -76.5t20 -106q0 -129 -89 -216.5t-241 -107.5l-4 -61q-89 -84 -118 -125.5t-29 -81.5q0 -35 13.5 -49t47.5 -14q18 0 55 12l72 18
l43 -131q-77 -27 -107.5 -35t-60.5 -8z" />
    <glyph glyph-name="Scaron" unicode="&#x160;" horiz-adv-x="1261" vert-adv-y="2007" 
d="M1071 1925l-338 -379h-82l-338 379h185l194 -215l195 215h184zM727 -72q-169 0 -302.5 62.5t-211 176t-84.5 261.5l154 37q-7 -175 116.5 -284t329.5 -109q173 0 273 76t100 208q0 100 -52.5 149t-193.5 81l-328 80q-340 83 -340 360q0 186 139.5 302t362.5 116
q224 0 371.5 -121.5t169.5 -323.5l-139 -47q-13 162 -121.5 255t-282.5 93q-157 0 -252.5 -75.5t-95.5 -198.5q0 -91 54.5 -142t183.5 -79l303 -76q56 -12 100.5 -26.5t98 -44t88.5 -67t59 -98t24 -135.5q0 -195 -143.5 -312.5t-380.5 -117.5z" />
    <glyph glyph-name="scaron" unicode="&#x161;" horiz-adv-x="1034" vert-adv-y="2007" 
d="M958 1573l-337 -379h-82l-338 379h184l195 -215l194 215h184zM606 -72q-209 0 -340 104.5t-137 276.5l143 27q-11 -117 82 -191.5t252 -74.5q127 0 200 50t73 138q0 61 -39 94t-138 56l-256 57q-140 31 -208 98.5t-68 179.5q0 145 111 234.5t290 89.5q175 0 293 -91
t144 -249l-144 -33q-9 107 -87 168.5t-206 61.5q-117 0 -186.5 -49.5t-69.5 -131.5q0 -59 38 -90t136 -53l242 -53q43 -10 77 -21t77 -33.5t71 -52t48 -76.5t20 -106q0 -149 -115 -239.5t-303 -90.5z" />
    <glyph glyph-name="Utilde" unicode="&#x168;" vert-adv-y="2007" 
d="M797 1546q-34 0 -68.5 13t-52.5 25.5t-45 33.5q-31 25 -47.5 35t-36.5 10q-60 0 -37 -111h-150q-19 106 34.5 179t150.5 73q77 0 166 -71q23 -18 33.5 -25.5t24.5 -13.5t28 -6q54 0 37 114h145q19 -107 -34 -181.5t-148 -74.5zM737 -72q-270 0 -437 181.5t-167 474.5v839
h148v-839q0 -232 124.5 -371t331.5 -139t332 139t125 371v839h147v-839q0 -293 -167 -474.5t-437 -181.5z" />
    <glyph glyph-name="utilde" unicode="&#x169;" horiz-adv-x="1130" vert-adv-y="2007" 
d="M711 1176q-77 0 -166 71q-31 25 -47.5 35t-36.5 10q-31 0 -40 -26t3 -84h-150q-19 106 34.5 179t150.5 73q34 0 68.5 -13t52.5 -25.5t45 -33.5q23 -18 33.5 -25.5t24.5 -13.5t28 -6q54 0 37 115h145q19 -107 -34 -181.5t-148 -74.5zM586 -72q-202 0 -327.5 133.5
t-125.5 348.5v637h146v-637q0 -155 81.5 -246.5t219.5 -91.5q181 0 288 109.5t107 295.5v570h145v-1098h-145v143q-72 -79 -172.5 -121.5t-216.5 -42.5z" />
    <glyph glyph-name="Uring" unicode="&#x16e;" vert-adv-y="2007" 
d="M737 1561q-95 0 -163 66.5t-68 160.5t68 160.5t163 66.5t163.5 -66.5t68.5 -160.5t-68.5 -160.5t-163.5 -66.5zM737 1700q38 0 65 25.5t27 62.5t-27 62.5t-65 25.5t-65 -25.5t-27 -62.5t27 -62.5t65 -25.5zM737 -72q-270 0 -437 181.5t-167 474.5v839h148v-839
q0 -232 124.5 -371t331.5 -139t332 139t125 371v839h147v-839q0 -293 -167 -474.5t-437 -181.5z" />
    <glyph glyph-name="uring" unicode="&#x16f;" horiz-adv-x="1130" vert-adv-y="2007" 
d="M627 1194q-95 0 -163.5 66.5t-68.5 160.5t68.5 161t163.5 67t163 -67t68 -161t-68 -160.5t-163 -66.5zM627 1333q38 0 65 25.5t27 62.5t-27 62.5t-65 25.5t-65 -25.5t-27 -62.5t27 -62.5t65 -25.5zM586 -72q-202 0 -327.5 133.5t-125.5 348.5v637h146v-637
q0 -155 81.5 -246.5t219.5 -91.5q181 0 288 109.5t107 295.5v570h145v-1098h-145v143q-72 -79 -172.5 -121.5t-216.5 -42.5z" />
    <glyph glyph-name="Wcircumflex" unicode="&#x174;" horiz-adv-x="2076" vert-adv-y="2007" 
d="M1077 1761l-194 -215h-185l338 379h82l338 -379h-184zM1100 1145l-395 -1196h-113l-479 1474h155l383 -1179l389 1179h119l389 -1179l383 1179h156l-479 -1474h-113z" />
    <glyph glyph-name="wcircumflex" unicode="&#x175;" horiz-adv-x="1679" vert-adv-y="2007" 
d="M899 1427l-194 -215h-185l338 379h82l338 -379h-184zM901 768l-291 -825h-123l-374 1106h155l283 -830l295 828h110l295 -828l283 830h156l-375 -1106h-123z" />
    <glyph glyph-name="Ycircumflex" unicode="&#x176;" horiz-adv-x="1474" vert-adv-y="2007" 
d="M799 1761l-195 -215h-184l338 379h82l338 -379h-185zM872 504v-555h-147v555l-639 919h178l535 -774l534 774h178z" />
    <glyph glyph-name="ycircumflex" unicode="&#x177;" horiz-adv-x="1251" vert-adv-y="2007" 
d="M688 1397l-194 -215h-185l338 379h82l338 -379h-184zM1272 1047l-697 -1446h-159l192 399l-506 1047h164l422 -879l424 879h160z" />
    <glyph glyph-name="Ydieresis" unicode="&#x178;" horiz-adv-x="1474" vert-adv-y="2007" 
d="M614 1636q-42 0 -72 30t-30 71t30.5 70.5t71.5 29.5q42 0 72.5 -29.5t30.5 -70.5t-30 -71t-73 -30zM983 1636q-43 0 -72.5 30t-29.5 71t30.5 70.5t71.5 29.5t71.5 -29.5t30.5 -70.5t-29.5 -71t-72.5 -30zM872 504v-555h-147v555l-639 919h178l535 -774l534 774h178z" />
    <glyph glyph-name="Zacute" unicode="&#x179;" horiz-adv-x="1261" vert-adv-y="2007" 
d="M932 1927l-266 -381h-168l262 381h172zM1251 92v-143h-1118v94l899 1237h-870v143h1089v-92l-901 -1239h901z" />
    <glyph glyph-name="zacute" unicode="&#x17a;" horiz-adv-x="1083" vert-adv-y="2007" 
d="M780 1559l-266 -381h-168l262 381h172zM1073 92v-143h-940v106l701 848h-678v144h899v-107l-701 -848h719z" />
    <glyph glyph-name="Zcaron" unicode="&#x17d;" horiz-adv-x="1261" vert-adv-y="2007" 
d="M1040 1925l-338 -379h-81l-338 379h184l195 -215l194 215h184zM1251 92v-143h-1118v94l899 1237h-870v143h1089v-92l-901 -1239h901z" />
    <glyph glyph-name="zcaron" unicode="&#x17e;" horiz-adv-x="1083" vert-adv-y="2007" 
d="M983 1554l-338 -378h-82l-338 378h185l194 -215l195 215h184zM1073 92v-143h-940v106l701 848h-678v144h899v-107l-701 -848h719z" />
    <glyph glyph-name="florin" unicode="&#x192;" horiz-adv-x="1181" vert-adv-y="2007" 
d="M88 -389q-122 0 -194 92l90 129q20 -43 44 -60.5t62 -17.5q57 0 98.5 37t51.5 98l131 725h-269v144h297l56 323q31 167 141 265t268 98q175 0 285 -137l-102 -109q-35 54 -79.5 78t-109.5 24q-101 0 -168.5 -62.5t-89.5 -176.5l-55 -303h444v-144h-473l-131 -745
q-23 -116 -105 -187t-192 -71z" />
    <glyph glyph-name="circumflex" unicode="&#x2c6;" vert-adv-y="2007" 
d="M686 1761l-194 -215h-185l338 379h82l338 -379h-184z" />
    <glyph glyph-name="caron" unicode="&#x2c7;" vert-adv-y="2007" 
d="M1040 1925l-338 -379h-81l-338 379h184l195 -215l194 215h184z" />
    <glyph glyph-name="breve" unicode="&#x2d8;" vert-adv-y="2007" 
d="M676 1098q-146 0 -233.5 100.5t-65.5 245.5h141q-20 -87 26.5 -147t131.5 -60t131.5 60t26.5 147h141q22 -145 -65.5 -245.5t-233.5 -100.5z" />
    <glyph glyph-name="dotaccent" unicode="&#x2d9;" vert-adv-y="2007" 
d="M676 1577q-43 0 -73 29.5t-30 70.5t31 71t72 30t71.5 -30t30.5 -71t-29.5 -70.5t-72.5 -29.5z" />
    <glyph glyph-name="ring" unicode="&#x2da;" vert-adv-y="2007" 
d="M676 1546q-95 0 -163.5 67t-68.5 161t68.5 160.5t163.5 66.5t163 -66.5t68 -160.5t-68 -161t-163 -67zM676 1686q38 0 65 25.5t27 62.5t-27 62.5t-65 25.5t-65 -25.5t-27 -62.5t27 -62.5t65 -25.5z" />
    <glyph glyph-name="ogonek" unicode="&#x2db;" vert-adv-y="2007" 
d="M664 -440q-94 0 -150.5 56.5t-56.5 150.5q0 74 39 135.5t151 165.5l156 -41q-128 -118 -165.5 -165.5t-37.5 -94.5q0 -35 14 -49.5t48 -14.5q18 0 55 12l71 19l43 -131q-78 -28 -108 -35.5t-59 -7.5z" />
    <glyph glyph-name="tilde" unicode="&#x2dc;" vert-adv-y="2007" 
d="M797 1546q-34 0 -68.5 13t-52.5 25.5t-45 33.5q-31 25 -47.5 35t-36.5 10q-60 0 -37 -111h-150q-19 106 34.5 179t150.5 73q77 0 166 -71q23 -18 33.5 -25.5t24.5 -13.5t28 -6q54 0 37 114h145q19 -107 -34 -181.5t-148 -74.5z" />
    <glyph glyph-name="hungarumlaut" unicode="&#x2dd;" vert-adv-y="2007" 
d="M803 1925l-277 -379h-166l258 379h185zM1047 1925l-271 -379h-166l256 379h181z" />
    <glyph glyph-name="Wgrave" unicode="&#x1e80;" horiz-adv-x="2076" vert-adv-y="2007" 
d="M1055 1958l262 -381h-168l-266 381h172zM1100 1145l-395 -1196h-113l-479 1474h155l383 -1179l389 1179h119l389 -1179l383 1179h156l-479 -1474h-113z" />
    <glyph glyph-name="wgrave" unicode="&#x1e81;" horiz-adv-x="1679" vert-adv-y="2007" 
d="M856 1599l262 -380h-168l-266 380h172zM901 768l-291 -825h-123l-374 1106h155l283 -830l295 828h110l295 -828l283 830h156l-375 -1106h-123z" />
    <glyph glyph-name="Wacute" unicode="&#x1e82;" horiz-adv-x="2076" vert-adv-y="2007" 
d="M1317 1958l-266 -381h-168l262 381h172zM1100 1145l-395 -1196h-113l-479 1474h155l383 -1179l389 1179h119l389 -1179l383 1179h156l-479 -1474h-113z" />
    <glyph glyph-name="wacute" unicode="&#x1e83;" horiz-adv-x="1679" vert-adv-y="2007" 
d="M1118 1556l-266 -380h-168l262 380h172zM901 768l-291 -825h-123l-374 1106h155l283 -830l295 828h110l295 -828l283 830h156l-375 -1106h-123z" />
    <glyph glyph-name="Wdieresis" unicode="&#x1e84;" horiz-adv-x="2076" vert-adv-y="2007" 
d="M915 1593q-43 0 -72.5 29.5t-29.5 71.5q0 41 30.5 70.5t71.5 29.5q42 0 72.5 -29.5t30.5 -70.5t-30 -71t-73 -30zM1284 1593q-42 0 -72 29.5t-30 71.5q0 41 30.5 70.5t71.5 29.5t71.5 -29.5t30.5 -70.5q0 -42 -30 -71.5t-72 -29.5zM1100 1145l-395 -1196h-113l-479 1474
h155l383 -1179l389 1179h119l389 -1179l383 1179h156l-479 -1474h-113z" />
    <glyph glyph-name="wdieresis" unicode="&#x1e85;" horiz-adv-x="1679" vert-adv-y="2007" 
d="M717 1223q-43 0 -73 29.5t-30 70.5t30.5 70.5t72.5 29.5q41 0 71.5 -29.5t30.5 -70.5t-29.5 -70.5t-72.5 -29.5zM1085 1223q-43 0 -72.5 29.5t-29.5 70.5t30.5 70.5t71.5 29.5q42 0 72.5 -29.5t30.5 -70.5t-30 -70.5t-73 -29.5zM901 768l-291 -825h-123l-374 1106h155
l283 -830l295 828h110l295 -828l283 830h156l-375 -1106h-123z" />
    <glyph glyph-name="endash" unicode="&#x2013;" horiz-adv-x="1392" vert-adv-y="2007" 
d="M1260 594v-143h-1127v143h1127z" />
    <glyph glyph-name="emdash" unicode="&#x2014;" horiz-adv-x="2252" vert-adv-y="2007" 
d="M2120 594v-143h-1987v143h1987z" />
    <glyph glyph-name="quoteleft" unicode="&#x2018;" horiz-adv-x="569" vert-adv-y="2007" 
d="M453 1423l-174 -630h-150v65l178 565h146z" />
    <glyph glyph-name="quoteright" unicode="&#x2019;" horiz-adv-x="569" vert-adv-y="2007" 
d="M440 1358l-178 -565h-145l174 630h149v-65z" />
    <glyph glyph-name="quotesinglbase" unicode="&#x201a;" horiz-adv-x="569" vert-adv-y="2007" 
d="M440 244l-178 -566h-145l174 631h149v-65z" />
    <glyph glyph-name="quotedblleft" unicode="&#x201c;" horiz-adv-x="856" vert-adv-y="2007" 
d="M453 1423l-174 -630h-150v65l178 565h146zM739 1423l-174 -630h-149v65l178 565h145z" />
    <glyph glyph-name="quotedblright" unicode="&#x201d;" horiz-adv-x="856" vert-adv-y="2007" 
d="M440 1358l-178 -565h-145l174 630h149v-65zM727 1358l-178 -565h-146l175 630h149v-65z" />
    <glyph glyph-name="quotedblbase" unicode="&#x201e;" horiz-adv-x="856" vert-adv-y="2007" 
d="M440 244l-178 -566h-145l174 631h149v-65zM727 244l-178 -566h-146l175 631h149v-65z" />
    <glyph glyph-name="dagger" unicode="&#x2020;" horiz-adv-x="757" vert-adv-y="2007" 
d="M451 1237v-481h-144v481h-225v145h225v185h144v-185h225v-145h-225z" />
    <glyph glyph-name="daggerdbl" unicode="&#x2021;" horiz-adv-x="757" vert-adv-y="2007" 
d="M451 940v-184h-144v184h-225v145h225v152h-225v145h225v185h144v-185h225v-145h-225v-152h225v-145h-225z" />
    <glyph glyph-name="bullet" unicode="&#x2022;" horiz-adv-x="886" vert-adv-y="2007" 
d="M442 250q-132 0 -220.5 85.5t-88.5 213.5q0 124 90.5 212.5t218.5 88.5q129 0 220.5 -88.5t91.5 -212.5q0 -127 -90 -213t-222 -86z" />
    <glyph glyph-name="ellipsis" unicode="&#x2026;" horiz-adv-x="1167" vert-adv-y="2007" 
d="M236 -55q-43 0 -73 29.5t-30 70.5t30.5 70.5t72.5 29.5q41 0 71.5 -29.5t30.5 -70.5t-29.5 -70.5t-72.5 -29.5zM584 -55q-43 0 -73 29.5t-30 70.5t30.5 70.5t72.5 29.5q41 0 71.5 -29.5t30.5 -70.5t-29.5 -70.5t-72.5 -29.5zM932 -55q-43 0 -73 29.5t-30 70.5t30.5 70.5
t72.5 29.5q41 0 71.5 -29.5t30.5 -70.5t-29.5 -70.5t-72.5 -29.5z" />
    <glyph glyph-name="perthousand" unicode="&#x2030;" horiz-adv-x="2662" vert-adv-y="2007" 
d="M514 702q-158 0 -269.5 107.5t-111.5 261.5q0 158 110 265.5t271 107.5q163 0 272 -106.5t109 -266.5q0 -155 -110.5 -262t-270.5 -107zM1577 1423l-1124 -1474h-174l1124 1474h174zM514 844q101 0 171.5 66t70.5 161q0 98 -70.5 167t-171.5 69t-172.5 -69t-71.5 -167
q0 -94 72 -160.5t172 -66.5zM1370 -72q-158 0 -269.5 107.5t-111.5 261.5q0 158 110 265.5t271 107.5q163 0 272 -106.5t109 -266.5q0 -155 -110.5 -262t-270.5 -107zM2148 -72q-158 0 -269.5 107.5t-111.5 261.5q0 158 110 265.5t271 107.5q163 0 272 -106.5t109 -266.5
q0 -155 -110.5 -262t-270.5 -107zM1370 70q101 0 171.5 66t70.5 161q0 98 -70.5 166.5t-171.5 68.5t-172.5 -68.5t-71.5 -166.5q0 -94 72 -160.5t172 -66.5zM2148 70q101 0 171.5 66t70.5 161q0 98 -70.5 166.5t-171.5 68.5t-172 -68.5t-71 -166.5q0 -94 71.5 -160.5
t171.5 -66.5z" />
    <glyph glyph-name="guilsinglleft" unicode="&#x2039;" horiz-adv-x="546" vert-adv-y="2007" 
d="M225 537l312 -416h-181l-305 416l305 415h181z" />
    <glyph glyph-name="guilsinglright" unicode="&#x203a;" horiz-adv-x="546" vert-adv-y="2007" 
d="M496 537l-306 -416h-180l312 416l-312 415h180z" />
    <glyph glyph-name="fraction" unicode="&#x2044;" horiz-adv-x="520" vert-adv-y="2007" 
d="M909 1423l-1124 -1474h-174l1124 1474h174z" />
    <glyph glyph-name="Euro" unicode="&#x20ac;" horiz-adv-x="1769" vert-adv-y="2007" 
d="M1055 -70q-210 0 -360 137t-203 377h-267v144h244q-4 58 -4 98q0 29 2 43v33h-242v143h260q49 250 202 394.5t368 144.5q217 0 371.5 -148.5t195.5 -396.5l-137 -51q-35 213 -149.5 332.5t-280.5 119.5q-154 0 -265 -104t-155 -291h618l-43 -143h-596v-31q-2 -16 -2 -45
q0 -42 6 -98h547l-35 -144h-489q46 -175 154.5 -272.5t259.5 -97.5q168 0 281.5 116.5t148.5 325.5l141 -43q-43 -249 -198 -396t-373 -147z" />
    <glyph glyph-name="uni2116" unicode="&#x2116;" horiz-adv-x="2674" vert-adv-y="2007" 
d="M2058 655q-164 0 -277.5 115t-113.5 281t113.5 279.5t277.5 113.5q166 0 278.5 -113t112.5 -280q0 -169 -112 -282.5t-279 -113.5zM373 1151v-1202h-148v1474h121l959 -1202v1202h147v-1474h-121zM2058 799q104 0 175 72.5t71 179.5q0 106 -71 177.5t-175 71.5
q-101 0 -172 -72.5t-71 -176.5q0 -106 70 -179t173 -73zM2429 547v-144h-741v144h741z" />
    <glyph glyph-name="uni2117" unicode="&#x2117;" horiz-adv-x="1748" vert-adv-y="2007" 
d="M874 -72q-211 0 -384 99t-272 272t-99 383q0 159 58.5 300t159 242.5t240.5 160.5t297 59t297.5 -59t241 -160.5t159 -242.5t58.5 -300q0 -157 -58.5 -297t-158.5 -240t-240.5 -158.5t-298.5 -58.5zM874 72q171 0 311 80t220 220.5t80 311.5q0 129 -47 244t-128 197
t-194.5 130t-241.5 48q-170 0 -310 -81t-220 -223t-80 -315q0 -171 80 -311.5t219.5 -220.5t310.5 -80zM721 516v-283h-143v877h362q148 0 240 -82.5t92 -214.5t-92 -214.5t-240 -82.5h-219zM940 973h-219v-320h219q87 0 137.5 43t50.5 117t-50.5 117t-137.5 43z" />
    <glyph glyph-name="trademark" unicode="&#x2122;" horiz-adv-x="1419" vert-adv-y="2007" 
d="M438 1286v-498h-143v498h-203v137h670l213 -407l213 407h119v-635h-142v289l-145 -284h-92l-146 284v-289h-141v498h-203z" />
    <glyph glyph-name="minus" unicode="&#x2212;" horiz-adv-x="1310" vert-adv-y="2007" 
d="M1137 696v-143h-963v143h963z" />
    <glyph glyph-name="approxequal" unicode="&#x2248;" horiz-adv-x="1310" vert-adv-y="2007" 
d="M891 684q-51 0 -103.5 13.5t-77 24.5t-73.5 36q-56 30 -97.5 44.5t-95.5 14.5q-61 0 -119 -23.5t-75 -54.5l-76 31v90q40 44 115.5 72.5t154.5 28.5q49 0 99.5 -13t78 -25.5t70.5 -35.5q48 -23 67 -31.5t56.5 -18.5t75.5 -10q65 0 127.5 30.5t56.5 60.5l62 -11v-151
q-46 -32 -114 -52t-132 -20zM891 336q-51 0 -103.5 13.5t-77 24.5t-73.5 36q-56 30 -97.5 44.5t-95.5 14.5q-61 0 -119 -23.5t-75 -54.5l-76 31v90q40 44 115 72t155 28q49 0 99 -13t78.5 -25.5t70.5 -34.5q48 -23 67 -31.5t56.5 -18.5t75.5 -10q65 0 127.5 30t56.5 60
l62 -10v-151q-46 -32 -114 -52t-132 -20z" />
    <glyph glyph-name="notequal" unicode="&#x2260;" horiz-adv-x="1310" vert-adv-y="2007" 
d="M573 389l-151 -225h-176l151 225h-223v143h320l149 226h-469v143h565l152 225h176l-152 -225h222v-143h-318l-149 -226h467v-143h-564z" />
    <glyph glyph-name="lessequal" unicode="&#x2264;" horiz-adv-x="970" vert-adv-y="2007" 
d="M879 434v-291h-799v144h770l-778 331v95l807 344v-160l-547 -231z" />
    <glyph glyph-name="greaterequal" unicode="&#x2265;" horiz-adv-x="970" vert-adv-y="2007" 
d="M891 287v-144h-799v291l547 232l-547 231v160l807 -344v-95l-778 -331h770z" />
    <glyph glyph-name="_Fontastica" horiz-adv-x="1615" vert-adv-y="2007" 
d="M391 535v-349h-201q-3 0 -4.5 2t-1.5 4v3v1206h906v-178h-699v-502h699v-186h-699zM1432 1401v-1215h-906v189h699v493h-699v193h699v340h207zM371 -2q-31 0 -51.5 20t-20.5 52q0 30 20.5 49.5t51.5 19.5t52 -19.5t21 -49.5q0 -31 -20.5 -51.5t-52.5 -20.5zM918 -2
q-33 0 -62 22l14 29q6 -7 21.5 -13.5t26.5 -6.5q4 0 9 1l5 1q4 4 4 8q0 6 -4 8q-10 7 -23 10q-10 2 -24 9q-8 0 -15 10q-6 9 -6 20q0 21 16.5 32t37.5 11q27 0 55 -14l-15 -29q-22 15 -40 15q-17 0 -17 -11q0 -8 25 -16q17 -3 24 -8q6 -2 17 -13q6 -9 6 -22
q0 -20 -16.5 -31.5t-38.5 -11.5zM1233 -2q-29 0 -49.5 20.5t-20.5 51.5q0 30 20.5 49.5t51.5 19.5q35 0 53 -24l-20 -25q-13 19 -33 19q-15 0 -26 -10.5t-11 -30.5q0 -13 4 -19q12 -18 33 -18q19 0 33 14l22 -20q-31 -27 -57 -27zM225 49v-47h-35v135h101v-28h-66v-31h60
v-29h-60zM496 82v-80h-35v135h31l63 -82l-2 82h35v-135h-31zM676 109v-107h-33v107h-41v28h117v-28h-43zM750 25l-11 -23h-34l57 135h35l57 -135h-37l-10 23h-57zM1055 109v-107h-37v107h-39v28h115v-28h-39zM1145 137v-135h-35v135h35zM1333 25l-8 -23h-37l58 135h36
l58 -135h-39l-8 23h-60zM371 29q16 0 26.5 12t10.5 27q0 5 -5 20q-9 21 -30 21q-17 0 -28 -11.5t-11 -27.5q0 -15 11 -28t26 -13zM797 51l-17 49l-20 -49h37zM1382 51l-18 49l-18 -49h36z" />
    <glyph glyph-name="_VendorID" horiz-adv-x="1273" vert-adv-y="2007" 
d="M860 791q-106 0 -172 55t-55 131h76q-17 -44 29.5 -80.5t121.5 -36.5q63 0 107.5 27t44.5 67q0 70 -160 95q-205 30 -205 155q0 69 59.5 113.5t147.5 44.5q98 0 161.5 -53t51.5 -125h-76q19 41 -24 73.5t-113 32.5q-58 0 -96.5 -24t-38.5 -60q0 -66 143 -88
q108 -15 164.5 -57t56.5 -107q0 -70 -63.5 -116.5t-159.5 -46.5zM588 1040h-332v-237h-72v547h424v-70h-352v-168h332v-72zM1083 311q0 -71 -63 -117.5t-160 -46.5q-104 0 -170.5 54.5t-56.5 130.5h76q-17 -43 29.5 -78t121.5 -35q63 0 107.5 26t44.5 64q0 73 -156 97
q-102 13 -155.5 53t-53.5 102q0 69 59.5 113.5t149.5 44.5q98 0 160.5 -53t50.5 -125h-76q19 40 -24 73t-111 33q-57 0 -97 -24.5t-40 -59.5q0 -32 36.5 -54.5t104.5 -31.5q223 -35 223 -166zM608 637h-352v-168h332v-72h-332v-239h-72v549h424v-70zM465 117q-2 -2 -2 -4v-2
h12v-11h-12v-37h-12v37h-7v9l7 2v4q0 7 6 10q0 4 10 4t14 -2l-4 -10q-4 2 -8 2t-4 -2zM774 129q6 0 6 -6v-6h-6q-8 0 -8 6t8 6zM600 121h8v-10h15v-11h-15v-22q0 -1 1 -2t1 -2h4h9v-11q-2 0 -6 -1t-7 -1q-2 0 -12 5q-4 4 -4 12v22h-4v6l6 5zM735 121h8v-10h15v-11h-15v-22
q0 -2 2 -4h13v-11q-1 0 -6 -1t-7 -1q-7 0 -12 5q-2 2 -2 12v22h-8v6l8 5zM653 113q3 0 15 -4q4 -8 4 -15v-31h-10l-3 5q-1 0 -6 -5q-2 -2 -10 -2l-10 5q-4 4 -4 12q0 7 6 10q4 4 16 4h6v2q0 8 -6 8q-4 0 -12 -4l-6 11q12 4 20 4zM858 113q6 0 14 -4q7 -7 7 -15v-31h-11l-2 5
l-6 -5q-2 -2 -8 -2q-2 0 -12 5q-4 2 -4 12q0 7 6 10q2 4 16 4h8v2q0 8 -8 8q-2 0 -14 -4l-4 11q12 4 18 4zM1083 109q7 -7 7 -15v-31h-15v29q0 4 -2 6q0 2 -6 2l-6 -2q-2 -2 -2 -12v-23h-15v29q0 2 -2 6q0 2 -4 2q-6 0 -8 -2q0 -2 -1 -6t-1 -8v-21h-12v48h10l2 -7q2 5 4 5
q4 2 10 2q12 0 15 -7h2q0 5 4 5l4 2h4q10 0 12 -2zM248 90l6 21h12l-12 -48h-16l-5 17l-4 20l-8 -37h-14l-14 48h14l4 -21l4 -16v8l2 6l4 23h17l4 -23q2 -2 2 -4v-4v-2v-4l2 8q0 1 1 4t1 4zM322 90l6 21h14l-16 -48h-13l-4 17l-4 20l-10 -37h-12l-15 48h13l6 -21q0 -3 1 -8
t1 -8l2 8v6l6 23h14l6 -23v-8q2 0 2 -2v-4q0 5 3 8v8zM397 90l6 21h13l-13 -48h-14l-4 17l-4 20h-2l-10 -37h-13l-12 48h12l4 -21q0 -3 1 -8t1 -8h3q0 6 2 8v6l4 23h16l4 -23q0 -1 1 -2t1 -2v-4v-2q2 -2 2 -4v8q0 1 1 4t1 4zM516 109q7 -7 8 -9q0 -2 1 -6.5t1 -7.5
q0 -9 -6 -18q-7 -7 -18 -7q-3 0 -13 5l-8 8v12q0 14 4 20q10 5 17 5q10 0 14 -2zM575 106q7 -4 7 -12v-31h-15v29v6q-2 2 -8 2q-4 0 -6 -2q-2 -4 -2 -14v-21h-14v48h10l2 -7q5 5 6 5q2 2 8 2q9 0 12 -5zM707 100h-7q-6 0 -6 -2t2 -2l11 -4l8 -4q0 -2 4 -6v-4q0 -8 -4 -12
q-10 -5 -17 -5q-6 0 -8 2q-5 0 -8 3v10q4 -2 8 -2q2 -2 8 -2q9 0 9 4v4h-5q-1 0 -3.5 1t-4.5 1l-6 4q-4 4 -4 6q-2 2 -2 6q0 8 6 11q2 2 14 2q13 0 17 -2l-4 -11q-2 2 -8 2zM780 63h-12v48h12v-48zM815 100q-10 0 -10 -14q0 -12 10 -12h6q2 0 6 4v-12q-3 -3 -6 -3
q-2 -2 -8 -2q-22 0 -22 25q0 11 6 20q10 5 18 5q10 0 14 -2l-4 -11q-1 0 -3 1t-3 1h-4zM938 100q-10 0 -10 -14q0 -12 10 -12h6q2 0 6 4v-12q-3 -3 -6 -3q-2 -2 -8 -2q-23 0 -23 25q0 9 7 20q10 5 18 5t14 -2l-4 -11q-1 0 -3 1t-3 1h-4zM993 109q9 -4 11 -9q2 -4 2 -14
q0 -9 -9 -18q-7 -7 -16 -7q-5 0 -10 5q-8 4 -8 8q-5 10 -5 12q0 9 7 20q10 5 16 5q10 0 12 -2zM510 76q2 4 2 10q0 8 -2 12q-2 2 -8 2t-6 -2q-2 -4 -2 -12q0 -6 2 -10q0 -2 6 -2t8 2zM989 76q2 4 2 10q0 8 -2 12q0 2 -8 2q-4 0 -6 -2q-2 -4 -2 -12q0 -6 2 -10q2 -2 6 -2
q8 0 8 2zM657 80v4h-2q-2 0 -5.5 -1t-4.5 -1q-2 0 -2 -4q0 -6 6 -6l6 2zM866 80v4h-6q-2 0 -4.5 -1t-3.5 -1q-2 0 -2 -4q0 -6 6 -6q1 0 3 1t3 1zM434 74q2 0 2 -6q0 -3 -2 -5l-4 -2q-4 0 -8 2v5v6q4 2 8 2t4 -2zM897 76q4 0 6 -2t2 -6q-2 -3 -2 -5q-2 -2 -6 -2t-4 2l-2 5
q0 6 2 6q0 2 4 2z" />
    </font>
</defs>
</svg>
