<?xml version="1.0" standalone="no"?>
<!DOCTYPE svg PUBLIC "-//W3C//DTD SVG 1.1//EN" "http://www.w3.org/Graphics/SVG/1.1/DTD/svg11.dtd" >
<svg xmlns="http://www.w3.org/2000/svg" xmlns:xlink="http://www.w3.org/1999/xlink" version="1.1">
<metadata>
Created by FontForge 20170731 at Sun Jan 23 15:08:57 2022
 By Aleksey,,,
Copyright (c) 2022 by Fontastica. All rights reserved.
</metadata>
<defs>
<font id="KrossNeueGrotesk-Book" horiz-adv-x="1339" vert-adv-y="2048" >
  <font-face 
    font-family="Kross Neue Grotesk Book"
    font-weight="400"
    font-stretch="normal"
    units-per-em="2048"
    panose-1="0 0 5 0 0 0 0 0 0 0"
    ascent="1638"
    descent="-410"
    x-height="1036"
    cap-height="1413"
    bbox="-375 -549 2527 2005"
    underline-thickness="102"
    underline-position="-307"
    unicode-range="U+000D-2265"
  />
<missing-glyph horiz-adv-x="1583" vert-adv-y="2007" 
d="M1288 1430v-1436h-993v1436h993zM1151 1343h-719l361 -542zM1184 1214l-330 -501l330 -504h4v1005h-4zM399 1210h-4v-999h4l332 502zM1151 84l-356 539l-361 -539h717z" />
    <glyph glyph-name="f_f.liga" unicode="ff" horiz-adv-x="1781" vert-adv-y="2007" 
d="M457 913v-954h-125v954h-195v123h195v166q0 161 89.5 257.5t240.5 96.5q114 0 200 -57l-55 -113q-54 48 -143 48q-97 0 -152 -61.5t-55 -170.5v-166h639v166q0 161 89 257.5t240 96.5q115 0 201 -57l-55 -113q-54 48 -144 48q-97 0 -151.5 -61.5t-54.5 -170.5v-166h424
v-123h-424v-954h-125v954h-639z" />
    <glyph glyph-name="f_t.liga" unicode="ft" horiz-adv-x="1787" vert-adv-y="2007" 
d="M1407 -61q-135 0 -220 87t-85 226v661h-645v-954h-125v954h-195v123h195v166q0 161 89.5 257.5t240.5 96.5q114 0 200 -57l-55 -113q-54 48 -143 48q-97 0 -152 -61.5t-55 -170.5v-166h645v336h125v-336h389v-123h-389v-661q0 -88 49.5 -139.5t132.5 -51.5q96 0 180 97
l74 -101q-106 -118 -256 -118z" />
    <glyph glyph-name="t_t.liga" unicode="tt" horiz-adv-x="1824" vert-adv-y="2007" 
d="M662 -61q-135 0 -220.5 87t-85.5 226v661h-219v123h219v336h125v-336h658v336h125v-336h389v-123h-389v-661q0 -88 49.5 -139.5t132.5 -51.5q96 0 180 97l74 -101q-106 -118 -256 -118q-135 0 -220 87t-85 226v661h-658v-661q0 -88 50 -139.5t133 -51.5q96 0 180 97
l74 -101q-106 -118 -256 -118z" />
    <glyph glyph-name=".notdef" horiz-adv-x="1583" vert-adv-y="2007" 
d="M1288 1430v-1436h-993v1436h993zM1151 1343h-719l361 -542zM1184 1214l-330 -501l330 -504h4v1005h-4zM399 1210h-4v-999h4l332 502zM1151 84l-356 539l-361 -539h717z" />
    <glyph glyph-name=".null" horiz-adv-x="0" vert-adv-y="0" 
 />
    <glyph glyph-name="nonmarkingreturn" horiz-adv-x="682" 
 />
    <glyph glyph-name="NULL" horiz-adv-x="110" vert-adv-y="2007" 
 />
    <glyph glyph-name="NULL" horiz-adv-x="110" vert-adv-y="2007" 
 />
    <glyph glyph-name="CR" unicode="&#xd;" horiz-adv-x="110" vert-adv-y="2007" 
 />
    <glyph glyph-name="space" unicode=" " horiz-adv-x="643" vert-adv-y="2007" 
 />
    <glyph glyph-name="exclam" unicode="!" horiz-adv-x="622" vert-adv-y="2007" 
d="M375 1413v-1087h-125v1087h125zM311 -45q-38 0 -65 26t-27 64q0 37 27 63.5t65 26.5t65 -26.5t27 -63.5q0 -38 -27 -64t-65 -26z" />
    <glyph glyph-name="quotedbl" unicode="&#x22;" horiz-adv-x="624" vert-adv-y="2007" 
d="M262 1413v-610h-125v610h125zM487 1413v-610h-125v610h125z" />
    <glyph glyph-name="numbersign" unicode="#" horiz-adv-x="1472" vert-adv-y="2007" 
d="M440 344l-100 -385h-131l100 385h-225l31 123h225l109 418h-226l37 123h221l105 405h131l-105 -405h420l105 405h131l-105 -405h226l-37 -123h-222l-108 -418h225l-30 -123h-226l-100 -385h-131l100 385h-420zM999 885h-419l-109 -418h420z" />
    <glyph glyph-name="dollar" unicode="$" horiz-adv-x="1284" vert-adv-y="2007" 
d="M713 -4v-242h-125v248q-199 22 -325 141t-132 295l127 37q-3 -137 87 -231t243 -117v520l-99 23q-309 73 -309 325q0 158 111.5 261.5t296.5 117.5v244h125v-246q178 -20 290.5 -127.5t118.5 -265.5l-118 -37q-3 122 -81.5 203t-209.5 100v-500l104 -24q50 -11 90.5 -24
t88 -39.5t79.5 -60.5t54 -89t22 -123q0 -167 -119.5 -272.5t-318.5 -116.5zM532 791l56 -13v471q-129 -12 -204 -79.5t-75 -172.5q0 -84 49.5 -129.5t173.5 -76.5zM795 596l-82 18v-491q143 8 226 78t83 182q0 89 -52 138t-175 75z" />
    <glyph glyph-name="percent" unicode="%" horiz-adv-x="1871" vert-adv-y="2007" 
d="M508 713q-154 0 -262.5 104.5t-108.5 253.5q0 154 106.5 258.5t264.5 104.5q159 0 265 -104t106 -259q0 -151 -108 -254.5t-263 -103.5zM1546 1413l-1108 -1454h-149l1108 1454h149zM508 834q106 0 179 68.5t73 168.5q0 103 -73 174.5t-179 71.5q-105 0 -179.5 -72
t-74.5 -174q0 -98 75 -167.5t179 -69.5zM1364 -61q-154 0 -262.5 104.5t-108.5 253.5q0 154 106.5 258t264.5 104q160 0 265.5 -103.5t105.5 -258.5q0 -151 -108 -254.5t-263 -103.5zM1364 59q106 0 179 69t73 169q0 103 -73 174.5t-179 71.5q-105 0 -179.5 -72t-74.5 -174
q0 -98 75 -168t179 -70z" />
    <glyph glyph-name="ampersand" unicode="&#x26;" horiz-adv-x="1589" vert-adv-y="2007" 
d="M1233 254l297 -236l-74 -96l-291 232q-86 -103 -211.5 -159t-271.5 -56q-228 0 -369 116.5t-141 306.5q0 128 70 238t194 176q-104 135 -104 277q0 169 111 275t286 106q177 0 287.5 -108t120.5 -292l-121 -37q-4 153 -79 234.5t-210 81.5q-121 0 -195.5 -71t-74.5 -187
q0 -62 22 -117t77.5 -118t120.5 -120.5t181 -150.5l277 -219q57 126 57 274v115h123v-115q0 -195 -82 -350zM682 59q116 0 216.5 44t168.5 124l-285 230q-155 118 -262 225q-225 -107 -225 -320q0 -137 105.5 -220t281.5 -83z" />
    <glyph glyph-name="quotesingle" unicode="'" horiz-adv-x="399" vert-adv-y="2007" 
d="M262 1413v-610h-125v610h125z" />
    <glyph glyph-name="parenleft" unicode="(" horiz-adv-x="804" vert-adv-y="2007" 
d="M666 -139l-88 -86q-213 188 -316.5 412t-103.5 497q0 275 104.5 499t319.5 410l82 -92q-195 -172 -287 -370t-92 -447q0 -251 92.5 -450.5t288.5 -372.5z" />
    <glyph glyph-name="parenright" unicode=")" horiz-adv-x="804" vert-adv-y="2007" 
d="M227 -225l-88 86q196 173 288.5 372.5t92.5 450.5q0 249 -92 447t-287 370l82 92q215 -186 319.5 -410t104.5 -499q0 -273 -103.5 -497t-316.5 -412z" />
    <glyph glyph-name="asterisk" unicode="*" horiz-adv-x="942" vert-adv-y="2007" 
d="M532 1026v-281h-122v281l-244 -137l-68 100l248 144l-248 141l68 100l244 -137v279h122v-279l244 137l68 -100l-248 -141l248 -144l-68 -100z" />
    <glyph glyph-name="plus" unicode="+" horiz-adv-x="1298" vert-adv-y="2007" 
d="M711 563v-409h-123v409h-410v123h410v410h123v-410h409v-123h-409z" />
    <glyph glyph-name="comma" unicode="," horiz-adv-x="454" vert-adv-y="2007" 
d="M342 246l-176 -557h-123l168 610h131v-53z" />
    <glyph glyph-name="hyphen" unicode="-" horiz-adv-x="1007" vert-adv-y="2007" 
d="M870 584v-123h-733v123h733z" />
    <glyph glyph-name="period" unicode="." horiz-adv-x="458" vert-adv-y="2007" 
d="M229 -45q-38 0 -65 26t-27 64q0 37 27 63.5t65 26.5t65.5 -26.5t27.5 -63.5q0 -38 -27 -64t-66 -26z" />
    <glyph glyph-name="slash" unicode="/" horiz-adv-x="761" vert-adv-y="2007" 
d="M754 1556l-619 -1744h-127l619 1744h127z" />
    <glyph glyph-name="zero" unicode="0" horiz-adv-x="1449" vert-adv-y="2007" 
d="M725 -61q-173 0 -307 93t-207.5 263t-73.5 391q0 333 163 540.5t425 207.5t425 -207.5t163 -540.5q0 -221 -73.5 -391t-207.5 -263t-307 -93zM725 63q207 0 334 171t127 452q0 282 -127 453.5t-334 171.5t-334 -171.5t-127 -453.5q0 -281 127 -452t334 -171z" />
    <glyph glyph-name="one" unicode="1" horiz-adv-x="796" vert-adv-y="2007" 
d="M659 1413v-1454h-127v1280l-395 -240v150l443 264h79z" />
    <glyph glyph-name="two" unicode="2" horiz-adv-x="1269" vert-adv-y="2007" 
d="M1133 82v-123h-996v86l529 471q96 83 148 133t95.5 107t59.5 109t16 118q0 149 -96 238.5t-256 89.5q-175 0 -274.5 -112.5t-84.5 -295.5l-129 15q-7 228 129 372t359 144q213 0 345 -125t132 -326q0 -69 -17 -130t-42 -109.5t-76 -107t-96.5 -102t-124.5 -114.5
l-385 -338h764z" />
    <glyph glyph-name="three" unicode="3" horiz-adv-x="1298" vert-adv-y="2007" 
d="M670 -61q-242 0 -389 146t-144 384l127 25q-9 -197 102 -315t304 -118q166 0 266 86t100 228q0 129 -95.5 201.5t-266.5 72.5h-221v121h219q154 0 243 68.5t89 185.5q0 130 -95.5 208.5t-253.5 78.5q-177 0 -277.5 -107t-94.5 -291l-127 25q-1 223 137 359.5t364 136.5
q211 0 341 -113.5t130 -296.5q0 -101 -48.5 -181t-137.5 -126q106 -47 162.5 -134.5t56.5 -205.5q0 -195 -136 -316.5t-355 -121.5z" />
    <glyph glyph-name="four" unicode="4" horiz-adv-x="1458" vert-adv-y="2007" 
d="M1063 342v-383h-127v383h-799v111l824 960h102v-948h258v-123h-258zM936 465v723l-621 -723h621z" />
    <glyph glyph-name="five" unicode="5" horiz-adv-x="1296" vert-adv-y="2007" 
d="M659 -61q-241 0 -386 149t-136 387l129 25q-17 -196 92 -317.5t301 -121.5q171 0 273 89.5t102 240.5q0 297 -352 297h-451l48 725h837v-123h-721l-28 -479h317q227 0 351 -109.5t124 -310.5q0 -202 -138.5 -327t-361.5 -125z" />
    <glyph glyph-name="six" unicode="6" horiz-adv-x="1333" vert-adv-y="2007" 
d="M696 -61q-268 0 -413.5 181t-145.5 513q0 378 151 589.5t421 211.5q178 0 299.5 -94.5t152.5 -256.5l-125 -24q-20 119 -107 185.5t-222 66.5q-94 0 -169 -34.5t-123.5 -91t-81.5 -136t-49 -161.5t-20 -175q69 100 184 156.5t248 56.5q220 0 360 -137.5t140 -354.5
q0 -218 -139.5 -356.5t-360.5 -138.5zM696 63q165 0 270 104t105 267t-104.5 265t-270.5 102q-170 0 -282.5 -106t-112.5 -267q0 -158 112.5 -261.5t282.5 -103.5z" />
    <glyph glyph-name="seven" unicode="7" horiz-adv-x="1259" vert-adv-y="2007" 
d="M1122 1339l-618 -1380h-139l602 1331h-830v123h985v-74z" />
    <glyph glyph-name="eight" unicode="8" horiz-adv-x="1337" vert-adv-y="2007" 
d="M672 -61q-240 0 -387.5 113.5t-147.5 299.5q0 124 66.5 217.5t189.5 143.5q-106 48 -163.5 133t-57.5 198q0 177 137 283.5t363 106.5q221 0 357 -107.5t136 -282.5q0 -114 -56.5 -199t-162.5 -132q121 -47 187.5 -141.5t66.5 -219.5q0 -186 -145.5 -299.5t-382.5 -113.5
zM670 776q167 0 268.5 73.5t101.5 194.5q0 120 -100.5 193.5t-267.5 73.5q-170 0 -272.5 -73.5t-102.5 -193.5q-2 -120 101 -194t272 -74zM670 66q181 0 290 78.5t109 207.5q0 131 -108 210t-289 79t-292.5 -80t-111.5 -209t110.5 -207.5t291.5 -78.5z" />
    <glyph glyph-name="nine" unicode="9" horiz-adv-x="1333" vert-adv-y="2007" 
d="M625 -61q-178 0 -300 94.5t-153 255.5l125 24q20 -119 107.5 -185.5t222.5 -66.5q94 0 169 34.5t123 91t81.5 136t49 161.5t19.5 175q-69 -100 -184 -156.5t-248 -56.5q-220 0 -360 137.5t-140 354.5q0 219 139.5 357.5t360.5 138.5q268 0 413.5 -181.5t145.5 -513.5
q0 -378 -150.5 -589t-420.5 -211zM637 571q170 0 282.5 106t112.5 267q0 158 -112.5 261.5t-282.5 103.5q-165 0 -270 -104t-105 -267t104.5 -265t270.5 -102z" />
    <glyph glyph-name="colon" unicode=":" horiz-adv-x="458" vert-adv-y="2007" 
d="M229 758q-38 0 -65 26t-27 64q0 37 27 63.5t65 26.5t65.5 -26.5t27.5 -63.5q0 -38 -27 -64t-66 -26zM229 -45q-38 0 -65 26t-27 64q0 37 27 63.5t65 26.5t65.5 -26.5t27.5 -63.5q0 -38 -27 -64t-66 -26z" />
    <glyph glyph-name="semicolon" unicode=";" horiz-adv-x="503" vert-adv-y="2007" 
d="M274 758q-38 0 -65 26t-27 64q0 37 27 63.5t65 26.5t65.5 -26.5t27.5 -63.5q0 -38 -27 -64t-66 -26zM342 246l-176 -557h-123l168 610h131v-53z" />
    <glyph glyph-name="less" unicode="&#x3c;" horiz-adv-x="978" vert-adv-y="2007" 
d="M272 625l611 -303v-138l-807 404v74l807 403v-137z" />
    <glyph glyph-name="equal" unicode="=" horiz-adv-x="1298" vert-adv-y="2007" 
d="M1120 891v-123h-942v123h942zM1120 522v-123h-942v123h942z" />
    <glyph glyph-name="greater" unicode="&#x3e;" horiz-adv-x="978" vert-adv-y="2007" 
d="M903 662v-74l-807 -404v138l611 303l-611 303v137z" />
    <glyph glyph-name="question" unicode="?" horiz-adv-x="1155" vert-adv-y="2007" 
d="M625 532v-206h-127v325h63q160 0 266.5 95t106.5 237q0 149 -96 238.5t-256 89.5q-173 0 -272.5 -115t-84.5 -299l-129 14q-12 230 124 376.5t362 146.5q213 0 345 -125t132 -326q0 -180 -121 -305.5t-313 -145.5zM561 -45q-38 0 -65 26t-27 64q0 37 27 63.5t65 26.5
t65 -26.5t27 -63.5q0 -38 -27 -64t-65 -26z" />
    <glyph glyph-name="at" unicode="@" horiz-adv-x="2107" vert-adv-y="2007" 
d="M1026 -274q-177 0 -334 66.5t-270 180t-178.5 272.5t-65.5 337q0 241 113.5 436t315 305.5t450.5 110.5q185 0 347 -63.5t277 -174.5t181.5 -266.5t66.5 -333.5q0 -226 -92 -360t-248 -134q-93 0 -160 43t-90 117q-61 -69 -145.5 -107t-179.5 -38q-189 0 -315 129.5
t-126 324.5q0 196 126 326.5t315 130.5q92 0 173 -35t140 -98v113h123v-670q0 -55 37 -87t100 -32q99 0 158 102.5t59 276.5q0 204 -96 368t-267 256.5t-384 92.5q-214 0 -386.5 -94t-270 -261.5t-97.5 -375.5q0 -154 55.5 -290.5t151.5 -234t229.5 -154.5t284.5 -57
q134 0 277 41t215 101l65 -109q-87 -67 -245 -111t-310 -44zM1016 236q136 0 223.5 94.5t87.5 242.5q0 145 -87.5 238.5t-223.5 93.5q-140 0 -230 -93.5t-90 -238.5q0 -147 90.5 -242t229.5 -95z" />
    <glyph glyph-name="A" unicode="A" horiz-adv-x="1662" vert-adv-y="2007" 
d="M436 360l-186 -401h-137l675 1454h86l676 -1454h-137l-186 401h-791zM1167 483l-336 727l-335 -727h671z" />
    <glyph glyph-name="B" unicode="B" horiz-adv-x="1404" vert-adv-y="2007" 
d="M817 -41h-680v1454h629q207 0 329 -103t122 -280q0 -104 -45.5 -191t-124.5 -134q104 -43 162.5 -132.5t58.5 -207.5q0 -180 -126.5 -293t-324.5 -113zM766 1290h-502v-534h547q130 0 207.5 74.5t77.5 199.5q0 123 -86.5 191.5t-243.5 68.5zM811 633h-547v-551h553
q146 0 235 77.5t89 205.5q0 122 -90 195t-240 73z" />
    <glyph glyph-name="C" unicode="C" horiz-adv-x="1691" vert-adv-y="2007" 
d="M881 -61q-153 0 -291 58.5t-237.5 158t-157.5 238t-58 292.5t58 292.5t157.5 238.5t237.5 158.5t291 58.5q240 0 425 -118.5t261 -322.5l-117 -49q-58 169 -212 268t-357 99q-128 0 -242 -49t-196.5 -132t-130.5 -199t-48 -245t48 -245t130.5 -199t196.5 -132t242 -49
q202 0 353.5 98.5t213.5 268.5l119 -45q-76 -205 -261 -324.5t-425 -119.5z" />
    <glyph glyph-name="D" unicode="D" horiz-adv-x="1525" vert-adv-y="2007" 
d="M582 -41h-445v1454h445q239 0 422.5 -90.5t284 -255.5t100.5 -381t-100.5 -381t-284 -255.5t-422.5 -90.5zM580 1290h-316v-1208h316q309 0 495.5 165t186.5 439t-186.5 439t-495.5 165z" />
    <glyph glyph-name="E" unicode="E" horiz-adv-x="1318" vert-adv-y="2007" 
d="M1182 82v-123h-1045v1454h1045v-123h-918v-538h856v-123h-856v-547h918z" />
    <glyph glyph-name="F" unicode="F" horiz-adv-x="1298" vert-adv-y="2007" 
d="M264 629v-670h-127v1454h1024v-123h-897v-538h836v-123h-836z" />
    <glyph glyph-name="G" unicode="G" horiz-adv-x="1736" vert-adv-y="2007" 
d="M879 -61q-153 0 -291 58.5t-236.5 158t-156.5 238t-58 292.5t58 292.5t156.5 238.5t236.5 158.5t291 58.5q243 0 427 -119t259 -326l-117 -45q-62 171 -213.5 269t-355.5 98q-128 0 -242 -49t-195.5 -132t-129.5 -199t-48 -245t48 -245t129.5 -199t195.5 -132t242 -49
q239 0 404 158t187 406h-720v123h849v-62q0 -212 -93 -383t-258 -267.5t-369 -96.5z" />
    <glyph glyph-name="H" unicode="H" horiz-adv-x="1439" vert-adv-y="2007" 
d="M264 631v-672h-127v1454h127v-659h912v659h127v-1454h-127v672h-912z" />
    <glyph glyph-name="I" unicode="I" horiz-adv-x="401" vert-adv-y="2007" 
d="M264 1413v-1454h-127v1454h127z" />
    <glyph glyph-name="J" unicode="J" horiz-adv-x="1312" vert-adv-y="2007" 
d="M653 -61q-217 0 -360 138.5t-160 364.5l125 39q7 -190 115 -304t280 -114q179 0 287.5 123.5t108.5 325.5v901h127v-901q0 -255 -145.5 -414t-377.5 -159z" />
    <glyph glyph-name="K" unicode="K" horiz-adv-x="1488" vert-adv-y="2007" 
d="M264 625v-666h-127v1454h127v-665h8l830 665h192l-899 -729l957 -725h-201l-879 666h-8z" />
    <glyph glyph-name="L" unicode="L" horiz-adv-x="1267" vert-adv-y="2007" 
d="M1130 82v-123h-993v1454h127v-1331h866z" />
    <glyph glyph-name="M" unicode="M" horiz-adv-x="1787" vert-adv-y="2007" 
d="M262 1096v-1137h-125v1454h107l651 -1263l649 1263h107v-1454h-125v1137l-586 -1137h-92z" />
    <glyph glyph-name="N" unicode="N" horiz-adv-x="1480" vert-adv-y="2007" 
d="M264 1180v-1221h-127v1454h107l973 -1220v1220h126v-1454h-106z" />
    <glyph glyph-name="O" unicode="O" horiz-adv-x="1746" vert-adv-y="2007" 
d="M874 -61q-153 0 -289.5 58t-234.5 157.5t-155.5 238t-57.5 293.5q0 154 57.5 292.5t155.5 238.5t234.5 158.5t289.5 58.5q152 0 288.5 -58.5t234.5 -158.5t155.5 -238.5t57.5 -292.5q0 -207 -97.5 -378.5t-266.5 -270t-372 -98.5zM874 61q168 0 308 82.5t220.5 226.5
t80.5 316t-81 316t-221 226.5t-307 82.5q-169 0 -309.5 -82.5t-220.5 -226t-80 -316.5t80 -316.5t220.5 -226t309.5 -82.5z" />
    <glyph glyph-name="P" unicode="P" horiz-adv-x="1361" vert-adv-y="2007" 
d="M264 549v-590h-127v1454h600q214 0 351 -121t137 -311t-137 -311t-351 -121h-473zM737 1290h-473v-618h473q161 0 261 86t100 223t-100 223t-261 86z" />
    <glyph glyph-name="Q" unicode="Q" horiz-adv-x="1767" vert-adv-y="2007" 
d="M1321 88l326 -385l-97 -82l-336 397q-152 -79 -340 -79q-153 0 -289.5 58t-234.5 157.5t-155.5 238t-57.5 293.5q0 154 57.5 292.5t155.5 238.5t234.5 158.5t289.5 58.5q152 0 288.5 -58.5t234.5 -158.5t155.5 -238.5t57.5 -292.5q0 -178 -76 -335t-213 -263zM874 61
q168 0 308 82.5t220.5 226.5t80.5 316t-81 316t-221 226.5t-307 82.5q-169 0 -309.5 -82.5t-220.5 -226t-80 -316.5t80 -316.5t220.5 -226t309.5 -82.5z" />
    <glyph glyph-name="R" unicode="R" horiz-adv-x="1423" vert-adv-y="2007" 
d="M264 631v-672h-127v1454h654q201 0 323.5 -107t122.5 -284t-122.5 -284t-323.5 -107h-62l606 -672h-172l-600 672h-299zM791 1290h-527v-536h527q146 0 232.5 72.5t86.5 195.5t-86.5 195.5t-232.5 72.5z" />
    <glyph glyph-name="S" unicode="S" horiz-adv-x="1372" vert-adv-y="2007" 
d="M721 -61q-250 0 -412.5 132.5t-175.5 348.5l133 33q-3 -175 124 -283.5t333 -108.5q177 0 280 79.5t103 215.5q0 103 -54 154.5t-200 85.5l-328 80q-331 79 -331 350q0 182 136 295t355 113q217 0 361 -116t169 -312l-120 -39q-17 160 -127 252t-285 92
q-161 0 -259.5 -78.5t-98.5 -206.5q0 -95 56.5 -148.5t188.5 -82.5l303 -76q56 -12 100 -26.5t96 -43t86 -65t57.5 -95t23.5 -131.5q0 -190 -141 -304.5t-373 -114.5z" />
    <glyph glyph-name="T" unicode="T" horiz-adv-x="1527" vert-adv-y="2007" 
d="M829 1290v-1331h-131v1331h-561v123h1254v-123h-562z" />
    <glyph glyph-name="U" unicode="U" horiz-adv-x="1462" vert-adv-y="2007" 
d="M731 -61q-266 0 -430 178t-164 467v829h127v-829q0 -236 127.5 -378.5t339.5 -142.5t339.5 142.5t127.5 378.5v829h127v-829q0 -289 -164 -467t-430 -178z" />
    <glyph glyph-name="V" unicode="V" horiz-adv-x="1609" vert-adv-y="2007" 
d="M1493 1413l-639 -1454h-98l-639 1454h133l555 -1243l555 1243h133z" />
    <glyph glyph-name="W" unicode="W" horiz-adv-x="2187" vert-adv-y="2007" 
d="M1094 1180l-404 -1221h-96l-473 1454h133l391 -1204l397 1204h103l397 -1204l391 1204h133l-473 -1454h-96z" />
    <glyph glyph-name="X" unicode="X" horiz-adv-x="1486" vert-adv-y="2007" 
d="M743 592l-487 -633h-160l563 731l-542 723h159l467 -620l467 620h160l-545 -723l566 -731h-160z" />
    <glyph glyph-name="Y" unicode="Y" horiz-adv-x="1585" vert-adv-y="2007" 
d="M856 508v-549h-127v549l-629 905h152l541 -782l540 782h152z" />
    <glyph glyph-name="Z" unicode="Z" horiz-adv-x="1372" vert-adv-y="2007" 
d="M1235 82v-123h-1098v80l910 1251h-881v123h1069v-78l-911 -1253h911z" />
    <glyph glyph-name="bracketleft" unicode="[" horiz-adv-x="882" vert-adv-y="2007" 
d="M725 -86v-123h-496v1765h496v-122h-369v-1520h369z" />
    <glyph glyph-name="backslash" unicode="\" horiz-adv-x="761" vert-adv-y="2007" 
d="M135 1556l619 -1744h-127l-619 1744h127z" />
    <glyph glyph-name="bracketright" unicode="]" horiz-adv-x="882" vert-adv-y="2007" 
d="M653 1556v-1765h-495v123h368v1520h-368v122h495z" />
    <glyph glyph-name="asciicircum" unicode="^" horiz-adv-x="815" vert-adv-y="2007" 
d="M408 1249l-220 -305h-149l334 469h69l334 -469h-149z" />
    <glyph glyph-name="underscore" unicode="_" horiz-adv-x="1073" vert-adv-y="2007" 
d="M1018 -74v-123h-963v123h963z" />
    <glyph glyph-name="grave" unicode="`" vert-adv-y="2007" 
d="M692 1917l248 -361h-141l-252 361h145z" />
    <glyph glyph-name="a" unicode="a" horiz-adv-x="1370" vert-adv-y="2007" 
d="M686 -61q-238 0 -393.5 158t-155.5 401t155.5 401t393.5 158q126 0 236.5 -51.5t185.5 -143.5v174h125v-1077h-125v174q-75 -92 -185.5 -143t-236.5 -51zM686 61q180 0 301 125.5t121 311.5t-121 311t-301 125q-185 0 -304.5 -123t-119.5 -313t119.5 -313.5t304.5 -123.5
z" />
    <glyph glyph-name="b" unicode="b" horiz-adv-x="1370" vert-adv-y="2007" 
d="M684 -61q-126 0 -236.5 51t-185.5 143v-174h-125v1557h125v-654q75 92 185.5 143.5t236.5 51.5q238 0 393.5 -158t155.5 -401t-155.5 -401t-393.5 -158zM684 61q185 0 304.5 123.5t119.5 313.5t-119.5 313t-304.5 123q-180 0 -301 -125t-121 -311t121 -311.5t301 -125.5z
" />
    <glyph glyph-name="c" unicode="c" horiz-adv-x="1308" vert-adv-y="2007" 
d="M678 -61q-154 2 -277.5 74.5t-193.5 200t-70 284.5q0 155 71.5 283t197 202t278.5 74q196 -3 330 -105.5t184 -285.5l-113 -41q-40 150 -143 228.5t-260 80.5q-179 0 -299.5 -125t-120.5 -311q0 -189 118.5 -312t301.5 -125q157 2 260 81t143 229l113 -41
q-50 -185 -185.5 -287.5t-334.5 -103.5z" />
    <glyph glyph-name="d" unicode="d" horiz-adv-x="1370" vert-adv-y="2007" 
d="M686 -61q-238 0 -393.5 158t-155.5 401t155.5 401t393.5 158q126 0 236.5 -51.5t185.5 -143.5v654h125v-1557h-125v174q-75 -92 -185.5 -143t-236.5 -51zM686 61q180 0 301 125.5t121 311.5t-121 311t-301 125q-185 0 -304.5 -123t-119.5 -313t119.5 -313.5t304.5 -123.5
z" />
    <glyph glyph-name="e" unicode="e" horiz-adv-x="1347" vert-adv-y="2007" 
d="M678 -61q-149 0 -273.5 73.5t-196 201t-71.5 280.5q0 239 160.5 401t396.5 162q223 0 366.5 -147t149.5 -382v-61h-948q11 -173 130 -289.5t286 -116.5q158 0 262.5 79.5t144.5 230.5l113 -41q-49 -186 -186 -288.5t-334 -102.5zM270 590h809q-23 157 -127.5 250.5
t-257.5 93.5q-156 0 -274.5 -96.5t-149.5 -247.5z" />
    <glyph glyph-name="f" unicode="f" horiz-adv-x="1017" vert-adv-y="2007" 
d="M457 913v-954h-125v954h-195v123h195v166q0 161 89.5 257.5t240.5 96.5q114 0 200 -57l-55 -113q-54 48 -143 48q-97 0 -152 -61.5t-55 -170.5v-166h424v-123h-424z" />
    <glyph glyph-name="g" unicode="g" horiz-adv-x="1337" vert-adv-y="2007" 
d="M692 -430q-213 0 -351.5 93t-190.5 271l118 46q41 -146 145.5 -216.5t278.5 -70.5q172 0 277 101t106 269v127q-72 -84 -175.5 -130t-221.5 -46q-233 0 -387 148.5t-154 374.5q0 224 153 371t388 147q118 0 221.5 -45.5t175.5 -128.5v155h125v-973q-1 -221 -141.5 -357
t-366.5 -136zM678 137q170 0 283.5 114t113.5 286q0 170 -112.5 282.5t-284.5 112.5q-182 0 -299 -111t-117 -284q0 -175 117 -287.5t299 -112.5z" />
    <glyph glyph-name="h" unicode="h" horiz-adv-x="1241" vert-adv-y="2007" 
d="M262 518v-559h-125v1557h125v-639q71 87 174 133.5t226 46.5q198 0 320 -130t122 -341v-627h-125v627q0 159 -85 253.5t-226 94.5q-185 0 -295.5 -113t-110.5 -303z" />
    <glyph glyph-name="i" unicode="i" horiz-adv-x="458" vert-adv-y="2007" 
d="M229 1210q-38 0 -65 26t-27 64q0 37 27 64t65 27t65.5 -27t27.5 -64q0 -38 -27 -64t-66 -26zM293 1036v-1077h-125v1077h125z" />
    <glyph glyph-name="j" unicode="j" horiz-adv-x="473" vert-adv-y="2007" 
d="M244 1210q-38 0 -65 26t-27 64q0 37 27 64t65 27t65 -27t27 -64q0 -38 -27 -64t-65 -26zM55 -410q-100 0 -176 62l58 110q52 -49 114 -49q61 0 95 33.5t34 95.5v1194h125v-1194q0 -112 -69.5 -182t-180.5 -70z" />
    <glyph glyph-name="k" unicode="k" horiz-adv-x="1353" vert-adv-y="2007" 
d="M262 451v-492h-125v1557h125v-943h27l624 463h215l-722 -528l806 -549h-229l-713 492h-8z" />
    <glyph glyph-name="l" unicode="l" horiz-adv-x="399" vert-adv-y="2007" 
d="M262 1516v-1557h-125v1557h125z" />
    <glyph glyph-name="m" unicode="m" horiz-adv-x="1878" vert-adv-y="2007" 
d="M262 539v-580h-125v1077h125v-139q62 77 150.5 118.5t191.5 41.5q121 0 216 -55t141 -152q62 99 162 153t223 54q175 0 285 -108t110 -281v-709h-125v709q0 121 -75.5 193.5t-201.5 72.5q-155 0 -247.5 -107.5t-92.5 -287.5v-580h-125v709q0 121 -74.5 193.5t-199.5 72.5
q-154 0 -246 -107.5t-92 -287.5z" />
    <glyph glyph-name="n" unicode="n" horiz-adv-x="1241" vert-adv-y="2007" 
d="M262 518v-559h-125v1077h125v-159q71 87 174 133.5t226 46.5q198 0 320 -130t122 -341v-627h-125v627q0 159 -85 253.5t-226 94.5q-185 0 -295.5 -113t-110.5 -303z" />
    <glyph glyph-name="o" unicode="o" horiz-adv-x="1390" vert-adv-y="2007" 
d="M694 -61q-117 0 -220.5 43t-177 117.5t-116.5 178.5t-43 222q0 117 43 220.5t116.5 177t177 116.5t220.5 43q239 0 399 -159t160 -398t-160 -400t-399 -161zM694 61q187 0 310.5 125t123.5 314t-122.5 311.5t-311.5 122.5q-187 0 -309.5 -123t-122.5 -311
q0 -189 123 -314t309 -125z" />
    <glyph glyph-name="p" unicode="p" horiz-adv-x="1370" vert-adv-y="2007" 
d="M262 133v-522h-125v1425h125v-174q75 92 185.5 143.5t236.5 51.5q238 0 393.5 -158t155.5 -401t-155.5 -401t-393.5 -158q-126 0 -236.5 51t-185.5 143zM684 61q185 0 304.5 123.5t119.5 313.5t-119.5 313t-304.5 123q-180 0 -301 -125t-121 -311t121 -311.5t301 -125.5z
" />
    <glyph glyph-name="q" unicode="q" horiz-adv-x="1370" vert-adv-y="2007" 
d="M1233 1036v-1425h-125v522q-75 -92 -185.5 -143t-236.5 -51q-238 0 -393.5 158t-155.5 401t155.5 401t393.5 158q126 0 236.5 -51.5t185.5 -143.5v174h125zM686 61q180 0 301 125.5t121 311.5t-121 311t-301 125q-185 0 -304.5 -123t-119.5 -313t119.5 -313.5
t304.5 -123.5z" />
    <glyph glyph-name="r" unicode="r" horiz-adv-x="919" vert-adv-y="2007" 
d="M262 518v-559h-125v1077h125v-159q71 87 174 133.5t226 46.5q59 0 129 -17l-31 -118q-44 12 -92 12q-185 0 -295.5 -113t-110.5 -303z" />
    <glyph glyph-name="s" unicode="s" horiz-adv-x="1144" vert-adv-y="2007" 
d="M600 -61q-203 0 -330.5 99t-136.5 265l123 27q-7 -120 88.5 -195.5t255.5 -75.5q132 0 207.5 53.5t75.5 145.5q0 66 -41.5 101.5t-143.5 58.5l-256 57q-137 31 -202.5 96t-65.5 172q0 139 109 226.5t282 87.5q169 0 282.5 -86.5t141.5 -237.5l-123 -28q-12 107 -92 168
t-209 61q-121 0 -193.5 -52.5t-72.5 -138.5q0 -63 40 -96.5t142 -56.5l242 -53q43 -10 76 -20.5t74.5 -32.5t69 -50t46.5 -73.5t19 -102.5q0 -144 -112 -231.5t-296 -87.5z" />
    <glyph glyph-name="t" unicode="t" horiz-adv-x="1042" vert-adv-y="2007" 
d="M662 -61q-135 0 -220.5 87t-85.5 226v661h-219v123h219v336h125v-336h389v-123h-389v-661q0 -88 50 -139.5t133 -51.5q96 0 180 97l74 -101q-106 -118 -256 -118z" />
    <glyph glyph-name="u" unicode="u" horiz-adv-x="1241" vert-adv-y="2007" 
d="M580 -61q-198 0 -320.5 130t-122.5 341v626h125v-626q0 -159 85 -254t226 -95q185 0 295.5 113t110.5 303v559h125v-1077h-125v160q-71 -87 -174 -133.5t-225 -46.5z" />
    <glyph glyph-name="v" unicode="v" horiz-adv-x="1345" vert-adv-y="2007" 
d="M1233 1036l-510 -1077h-100l-510 1077h141l420 -891l418 891h141z" />
    <glyph glyph-name="w" unicode="w" horiz-adv-x="1789" vert-adv-y="2007" 
d="M895 799l-299 -846h-107l-368 1085h133l291 -850l303 848h94l303 -848l291 850h133l-369 -1085h-106z" />
    <glyph glyph-name="x" unicode="x" horiz-adv-x="1265" vert-adv-y="2007" 
d="M633 406l-379 -447h-166l463 539l-463 538h166l379 -446l379 446h166l-463 -538l463 -539h-166z" />
    <glyph glyph-name="y" unicode="y" horiz-adv-x="1361" vert-adv-y="2007" 
d="M1249 1036l-686 -1425h-137l188 389l-501 1036h141l428 -893l430 893h137z" />
    <glyph glyph-name="z" unicode="z" horiz-adv-x="1193" vert-adv-y="2007" 
d="M1057 82v-123h-920v92l713 862h-690v123h878v-92l-712 -862h731z" />
    <glyph glyph-name="braceleft" unicode="{" horiz-adv-x="1001" vert-adv-y="2007" 
d="M844 -86v-123h-166q-129 0 -209 81t-80 212v358q0 78 -44 124t-118 46h-69v123h69q74 0 118 46t44 124v359q0 130 80 211t209 81h166v-122h-166q-74 0 -118 -46t-44 -124v-359q0 -149 -102 -231q102 -82 102 -232v-358q0 -78 44 -124t118 -46h166z" />
    <glyph glyph-name="bar" unicode="|" horiz-adv-x="585" vert-adv-y="2007" 
d="M356 1556v-1744h-127v1744h127z" />
    <glyph glyph-name="braceright" unicode="}" horiz-adv-x="1001" vert-adv-y="2007" 
d="M324 -209h-166v123h166q74 0 117.5 46t43.5 124v358q0 71 27 131.5t76 100.5q-103 83 -103 231v359q0 78 -43.5 124t-117.5 46h-166v122h166q129 0 208.5 -80.5t79.5 -211.5v-359q0 -78 44 -124t118 -46h70v-123h-70q-74 0 -118 -46t-44 -124v-358q0 -131 -79.5 -212
t-208.5 -81z" />
    <glyph glyph-name="asciitilde" unicode="~" horiz-adv-x="1036" vert-adv-y="2007" 
d="M707 457q-45 0 -90.5 17.5t-71.5 35t-64 47.5q-34 27 -51.5 40t-44.5 24.5t-53 11.5q-62 0 -88.5 -46t-7.5 -122h-140q-13 129 53 211t183 82q46 0 92.5 -18.5t69 -34t63.5 -48.5q48 -39 80.5 -57t69.5 -18q60 0 85.5 45t10.5 127h137q14 -129 -52 -213t-181 -84z" />
    <glyph glyph-name="exclamdown" unicode="&#xa1;" horiz-adv-x="622" vert-adv-y="2007" 
d="M311 877q-38 0 -65 26.5t-27 63.5q0 38 27 64t65 26t65 -26t27 -64q0 -37 -27 -63.5t-65 -26.5zM375 686v-1087h-125v1087h125z" />
    <glyph glyph-name="cent" unicode="&#xa2;" horiz-adv-x="1288" vert-adv-y="2007" 
d="M729 -59v-248h-125v250q-211 25 -344 180t-133 375q0 216 135 372.5t342 182.5v278h125v-276q168 -17 289.5 -116t150.5 -243l-118 -49q-13 110 -103.5 189t-218.5 94v-867q129 14 218 87.5t102 179.5l118 -45q-28 -141 -148.5 -235.5t-289.5 -108.5zM604 66v864
q-154 -26 -253 -147t-99 -285q0 -168 97.5 -287.5t254.5 -144.5z" />
    <glyph glyph-name="sterling" unicode="&#xa3;" horiz-adv-x="1437" vert-adv-y="2007" 
d="M1300 82v-123h-1142v107l174 10v508h-174v123h174v262q0 207 132 336t343 129q221 0 355 -138.5t122 -355.5l-129 -31q17 181 -78.5 290.5t-269.5 109.5q-158 0 -253 -93t-95 -247v-262h608v-123h-608v-502h841z" />
    <glyph glyph-name="yen" unicode="&#xa5;" horiz-adv-x="1421" vert-adv-y="2007" 
d="M774 262v-303h-127v303h-426v123h426v123h-426v123h365l-527 782h152l500 -749l499 749h152l-526 -782h364v-123h-426v-123h426v-123h-426z" />
    <glyph glyph-name="section" unicode="&#xa7;" horiz-adv-x="1189" vert-adv-y="2007" 
d="M590 -328q-217 0 -339.5 115t-109.5 305l125 41q-19 -161 65.5 -249.5t256.5 -88.5q126 0 201 56t75 149q0 60 -33.5 101.5t-111.5 76.5l-344 158q-141 65 -203.5 135.5t-62.5 167.5q0 92 39.5 165.5t111.5 117.5q-70 76 -70 184q0 146 111.5 237t290.5 91
q201 0 320 -115.5t110 -302.5l-127 -43q19 157 -61.5 247.5t-239.5 90.5q-126 0 -201.5 -55.5t-75.5 -149.5q0 -58 33.5 -98.5t112.5 -79.5l344 -158q141 -65 203.5 -135.5t62.5 -167.5q0 -92 -39.5 -165.5t-111.5 -117.5q69 -75 69 -184q0 -146 -111 -237t-290 -91z
M815 266q131 57 131 197q0 62 -42.5 106t-149.5 93l-344 155q-10 3 -33 17l-12 6q-129 -56 -129 -197q0 -62 42.5 -106t149.5 -93l344 -155q11 -3 33 -17q8 -4 10 -6z" />
    <glyph glyph-name="dieresis" unicode="&#xa8;" vert-adv-y="2007" 
d="M483 1634q-38 0 -65 26t-27 64q0 37 27 64t65 27t65 -27t27 -64q0 -38 -27 -64t-65 -26zM852 1634q-38 0 -65 26t-27 64q0 37 27 64t65 27t65 -27t27 -64q0 -38 -27 -64t-65 -26z" />
    <glyph glyph-name="copyright" unicode="&#xa9;" horiz-adv-x="1736" vert-adv-y="2007" 
d="M868 -61q-156 0 -294 57.5t-237 156t-156.5 236.5t-57.5 293q0 157 57.5 296t156.5 239t237 158.5t294 58.5q208 0 379 -99t269 -271.5t98 -381.5q0 -207 -98 -377.5t-269 -268t-379 -97.5zM868 61q173 0 315.5 82t224 224.5t81.5 316.5q0 175 -81.5 319.5t-224 227
t-315.5 82.5t-315.5 -82.5t-223.5 -227t-81 -319.5q0 -174 81 -316.5t223.5 -224.5t315.5 -82zM885 256q-183 0 -304.5 122.5t-121.5 307.5q0 183 121.5 304.5t304.5 121.5q156 0 271 -95t124 -233l-115 -32q-9 99 -90.5 168t-189.5 69q-129 0 -214 -86t-85 -217
q0 -132 85 -219.5t214 -87.5q107 0 189 70.5t91 171.5l115 -37q-19 -141 -131.5 -234.5t-263.5 -93.5z" />
    <glyph glyph-name="ordfeminine" unicode="&#xaa;" horiz-adv-x="1007" vert-adv-y="2007" 
d="M506 -14q-163 0 -264 105.5t-101 262.5t101 263t264 106q98 0 181 -47t130 -129v162h49v-709h-49v162q-47 -82 -130 -129t-181 -47zM506 35q134 0 222.5 93t88.5 226q0 132 -88.5 226t-222.5 94q-139 0 -226 -92t-87 -228t87 -227.5t226 -91.5z" />
    <glyph glyph-name="guillemotleft" unicode="&#xab;" horiz-adv-x="841" vert-adv-y="2007" 
d="M207 537l303 -406h-154l-299 406l299 405h154zM514 537l303 -406h-153l-299 406l299 405h153z" />
    <glyph glyph-name="registered" unicode="&#xae;" horiz-adv-x="1134" vert-adv-y="2007" 
d="M567 530q-189 0 -319.5 131t-130.5 320q0 192 129.5 322.5t320.5 130.5t321 -130.5t130 -322.5q0 -189 -131 -320t-320 -131zM690 920l148 -140q63 85 63 201q0 145 -95.5 241.5t-238.5 96.5t-238.5 -96.5t-95.5 -241.5q0 -143 95.5 -238.5t238.5 -95.5q151 0 248 105
h-115l-155 147h-45v-147h-115v481h207q86 0 138 -45.5t52 -120.5q0 -100 -92 -147zM590 1128h-92v-124h90q35 0 57.5 17.5t22.5 45.5t-21 44.5t-57 16.5z" />
    <glyph glyph-name="macron" unicode="&#xaf;" vert-adv-y="2007" 
d="M967 1294v-116h-594v116h594z" />
    <glyph glyph-name="degree" unicode="&#xb0;" horiz-adv-x="923" vert-adv-y="2007" 
d="M463 874q-120 0 -203.5 81t-83.5 198q0 120 82 200.5t205 80.5q122 0 203.5 -80.5t81.5 -200.5q0 -117 -82.5 -198t-202.5 -81zM463 995q68 0 115 46t47 112q0 69 -46.5 115.5t-115.5 46.5q-68 0 -116 -47.5t-48 -114.5q0 -66 48 -112t116 -46z" />
    <glyph glyph-name="plusminus" unicode="&#xb1;" horiz-adv-x="1298" vert-adv-y="2007" 
d="M711 614v-389h-123v389h-410v123h410v389h123v-389h409v-123h-409zM1120 82v-123h-942v123h942z" />
    <glyph glyph-name="uni00B2" unicode="&#xb2;" horiz-adv-x="696" vert-adv-y="2007" 
d="M582 39v-39h-467v27l256 225l57 49q48 46 74 88.5t26 95.5q0 77 -50.5 122.5t-129.5 45.5q-85 0 -135.5 -50.5t-50.5 -133.5v-12l-43 6v8q3 98 65.5 160.5t163.5 62.5q98 0 159.5 -56.5t61.5 -152.5q0 -112 -108 -209q-12 -12 -35 -31.5t-27 -23.5l-206 -182h389z" />
    <glyph glyph-name="uni00B3" unicode="&#xb3;" horiz-adv-x="710" vert-adv-y="2007" 
d="M365 -10q-107 0 -175.5 63.5t-72.5 167.5l-2 8l43 9v-13q3 -89 59 -142.5t148 -53.5q82 0 135 42.5t53 118.5q0 72 -52.5 108t-133.5 36h-97v39h97q73 0 122.5 34t49.5 99q0 70 -51.5 108.5t-129.5 38.5q-85 0 -136 -48t-54 -130l-2 -10l-41 6v10q6 97 70 155t165 58
q93 0 156.5 -49.5t63.5 -138.5q0 -54 -29 -92t-78 -58q123 -42 123 -163q0 -95 -66 -149t-165 -54z" />
    <glyph glyph-name="acute" unicode="&#xb4;" vert-adv-y="2007" 
d="M948 1917l-252 -361h-141l248 361h145z" />
    <glyph glyph-name="paragraph" unicode="&#xb6;" horiz-adv-x="1185" vert-adv-y="2007" 
d="M713 1413v-1454h-127v612h-62q-206 0 -337.5 119.5t-131.5 308.5q0 192 118.5 303t322.5 111h217zM956 1413v-1454h-127v1454h127z" />
    <glyph glyph-name="periodcentered" unicode="&#xb7;" horiz-adv-x="458" vert-adv-y="2007" 
d="M229 459q-38 0 -65 26t-27 64q0 37 27 63.5t65 26.5t65.5 -26.5t27.5 -63.5q0 -38 -27 -64t-66 -26z" />
    <glyph glyph-name="cedilla" unicode="&#xb8;" vert-adv-y="2007" 
d="M825 -530q-89 0 -142.5 53.5t-53.5 142.5q0 65 31.5 120t115.5 136l4 123h125l-4 -166q-90 -87 -119.5 -129.5t-29.5 -83.5q0 -39 16.5 -56.5t54.5 -17.5q17 0 58 13q38 11 63 16l37 -113q-108 -38 -156 -38z" />
    <glyph glyph-name="uni00B9" unicode="&#xb9;" horiz-adv-x="464" vert-adv-y="2007" 
d="M350 684v-684h-43v627l-192 -115v47l209 125h26z" />
    <glyph glyph-name="ordmasculine" unicode="&#xba;" horiz-adv-x="1021" vert-adv-y="2007" 
d="M510 -14q-161 0 -265 107t-104 263q0 155 104.5 261t264.5 106q161 0 266 -106t105 -261q0 -157 -104.5 -263.5t-266.5 -106.5zM510 35q140 0 230.5 92.5t90.5 228.5q0 135 -90.5 226.5t-230.5 91.5q-138 0 -227.5 -91.5t-89.5 -226.5q0 -137 89 -229t228 -92z" />
    <glyph glyph-name="guillemotright" unicode="&#xbb;" horiz-adv-x="841" vert-adv-y="2007" 
d="M477 537l-299 -406h-153l303 406l-303 405h153zM784 537l-299 -406h-153l303 406l-303 405h153z" />
    <glyph glyph-name="questiondown" unicode="&#xbf;" horiz-adv-x="1155" vert-adv-y="2007" 
d="M594 877q-38 0 -65 26.5t-27 63.5q0 38 27 64t65 26t65 -26t27 -64q0 -37 -27 -63.5t-65 -26.5zM573 -422q-213 0 -345 125t-132 326q0 180 121 305t313 145v207h127v-326h-63q-160 0 -266.5 -94.5t-106.5 -236.5q0 -149 96 -238.5t256 -89.5q173 0 272.5 115t84.5 299
l129 -15q12 -230 -124 -376t-362 -146z" />
    <glyph glyph-name="Agrave" unicode="&#xc0;" horiz-adv-x="1552" vert-adv-y="2007" 
d="M692 1917l248 -361h-141l-252 361h145zM436 360l-186 -401h-137l675 1454h86l676 -1454h-137l-186 401h-791zM1167 483l-336 727l-335 -727h671z" />
    <glyph glyph-name="Aacute" unicode="&#xc1;" horiz-adv-x="1552" vert-adv-y="2007" 
d="M948 1917l-252 -361h-141l248 361h145zM436 360l-186 -401h-137l675 1454h86l676 -1454h-137l-186 401h-791zM1167 483l-336 727l-335 -727h671z" />
    <glyph glyph-name="Acircumflex" unicode="&#xc2;" horiz-adv-x="1552" vert-adv-y="2007" 
d="M831 1776l-198 -220h-158l320 359h73l320 -359h-158zM436 360l-186 -401h-137l675 1454h86l676 -1454h-137l-186 401h-791zM1167 483l-336 727l-335 -727h671z" />
    <glyph glyph-name="Atilde" unicode="&#xc3;" horiz-adv-x="1552" vert-adv-y="2007" 
d="M924 1567q-73 0 -160 69q-22 18 -32.5 26t-26 14.5t-31.5 6.5q-70 0 -49 -110h-129q-13 100 37 165.5t139 65.5q32 0 64.5 -12t50.5 -24t44 -33q23 -18 34 -26t27 -14.5t32 -6.5q64 0 49 114h125q14 -100 -36 -167.5t-138 -67.5zM436 360l-186 -401h-137l675 1454h86
l676 -1454h-137l-186 401h-791zM1167 483l-336 727l-335 -727h671z" />
    <glyph glyph-name="Adieresis" unicode="&#xc4;" horiz-adv-x="1552" vert-adv-y="2007" 
d="M647 1624q-38 0 -65 26t-27 64q0 37 27 63.5t65 26.5t65 -26.5t27 -63.5q0 -38 -27 -64t-65 -26zM1016 1624q-38 0 -65 26t-27 64q0 37 27 63.5t65 26.5t65 -26.5t27 -63.5q0 -38 -27 -64t-65 -26zM436 360l-186 -401h-137l675 1454h86l676 -1454h-137l-186 401h-791z
M1167 483l-336 727l-335 -727h671z" />
    <glyph glyph-name="Aring" unicode="&#xc5;" horiz-adv-x="1552" vert-adv-y="2007" 
d="M831 1546q-92 0 -156.5 63.5t-64.5 153.5t64.5 153.5t156.5 63.5t157 -64t65 -153t-65 -153t-157 -64zM831 1665q43 0 73 29t30 69t-30.5 69.5t-72.5 29.5t-72 -29.5t-30 -69.5t30 -69t72 -29zM436 360l-186 -401h-137l675 1454h86l676 -1454h-137l-186 401h-791z
M1167 483l-336 727l-335 -727h671z" />
    <glyph glyph-name="AE" unicode="&#xc6;" horiz-adv-x="1953" vert-adv-y="2007" 
d="M436 360l-186 -401h-137l675 1454h1047v-123h-917v-538h856v-123h-856v-547h917v-123h-1044v401h-355zM791 483v641l-295 -641h295z" />
    <glyph glyph-name="Ccedilla" unicode="&#xc7;" horiz-adv-x="1691" vert-adv-y="2007" 
d="M825 -530q-89 0 -142.5 53.5t-53.5 142.5q0 65 31.5 120t115.5 136l2 23q-182 25 -328.5 129.5t-229.5 265t-83 346.5q0 154 58 292.5t157.5 238.5t237.5 158.5t291 58.5q240 0 425 -118.5t261 -322.5l-117 -49q-58 169 -212 268t-357 99q-128 0 -242 -49t-196.5 -132
t-130.5 -199t-48 -245t48 -245t130.5 -199t196.5 -132t242 -49q202 0 353.5 98.5t213.5 268.5l119 -45q-73 -201 -248.5 -318t-415.5 -126l-2 -60q-90 -87 -119.5 -129.5t-29.5 -83.5q0 -39 16.5 -56.5t54.5 -17.5q17 0 58 13q38 11 63 16l37 -113q-108 -38 -156 -38z" />
    <glyph glyph-name="Egrave" unicode="&#xc8;" horiz-adv-x="1208" vert-adv-y="2007" 
d="M692 1917l248 -361h-141l-252 361h145zM1182 82v-123h-1045v1454h1045v-123h-918v-538h856v-123h-856v-547h918z" />
    <glyph glyph-name="Eacute" unicode="&#xc9;" horiz-adv-x="1208" vert-adv-y="2007" 
d="M948 1917l-252 -361h-141l248 361h145zM1182 82v-123h-1045v1454h1045v-123h-918v-538h856v-123h-856v-547h918z" />
    <glyph glyph-name="Ecircumflex" unicode="&#xca;" horiz-adv-x="1208" vert-adv-y="2007" 
d="M680 1776l-199 -220h-157l319 359h74l319 -359h-157zM1182 82v-123h-1045v1454h1045v-123h-918v-538h856v-123h-856v-547h918z" />
    <glyph glyph-name="Edieresis" unicode="&#xcb;" horiz-adv-x="1208" vert-adv-y="2007" 
d="M483 1634q-38 0 -65 26t-27 64q0 37 27 64t65 27t65 -27t27 -64q0 -38 -27 -64t-65 -26zM852 1634q-38 0 -65 26t-27 64q0 37 27 64t65 27t65 -27t27 -64q0 -38 -27 -64t-65 -26zM1182 82v-123h-1045v1454h1045v-123h-918v-538h856v-123h-856v-547h918z" />
    <glyph glyph-name="Igrave" unicode="&#xcc;" horiz-adv-x="290" vert-adv-y="2007" 
d="M150 1892l247 -360h-141l-252 360h146zM264 1413v-1454h-127v1454h127z" />
    <glyph glyph-name="Iacute" unicode="&#xcd;" horiz-adv-x="290" vert-adv-y="2007" 
d="M451 1917l-252 -361h-142l248 361h146zM264 1413v-1454h-127v1454h127z" />
    <glyph glyph-name="Icircumflex" unicode="&#xce;" horiz-adv-x="290" vert-adv-y="2007" 
d="M201 1776l-199 -220h-158l320 359h74l319 -359h-158zM264 1413v-1454h-127v1454h127z" />
    <glyph glyph-name="Idieresis" unicode="&#xcf;" horiz-adv-x="290" vert-adv-y="2007" 
d="M16 1645q-38 0 -65 26t-27 64q0 37 27 63.5t65 26.5t65.5 -26.5t27.5 -63.5q0 -38 -27 -64t-66 -26zM385 1645q-38 0 -65 26t-27 64q0 37 27 63.5t65 26.5t65 -26.5t27 -63.5q0 -38 -27 -64t-65 -26zM264 1413v-1454h-127v1454h127z" />
    <glyph glyph-name="Ntilde" unicode="&#xd1;" horiz-adv-x="1370" vert-adv-y="2007" 
d="M791 1556q-32 0 -65 12.5t-51 24.5t-44 33q-22 18 -32.5 26t-26 14.5t-31.5 6.5q-70 0 -49 -110h-130q-13 100 37.5 165.5t139.5 65.5q32 0 64.5 -12.5t50 -24.5t44.5 -33q23 -18 34 -26t27 -14.5t32 -6.5q64 0 49 115h125q14 -100 -36 -168t-138 -68zM264 1180v-1221
h-127v1454h107l973 -1220v1220h126v-1454h-106z" />
    <glyph glyph-name="Ograve" unicode="&#xd2;" horiz-adv-x="1636" vert-adv-y="2007" 
d="M821 1917l248 -361h-141l-252 361h145zM874 -61q-153 0 -289.5 58t-234.5 157.5t-155.5 238t-57.5 293.5q0 154 57.5 292.5t155.5 238.5t234.5 158.5t289.5 58.5q152 0 288.5 -58.5t234.5 -158.5t155.5 -238.5t57.5 -292.5q0 -207 -97.5 -378.5t-266.5 -270t-372 -98.5z
M874 61q168 0 308 82.5t220.5 226.5t80.5 316t-81 316t-221 226.5t-307 82.5q-169 0 -309.5 -82.5t-220.5 -226t-80 -316.5t80 -316.5t220.5 -226t309.5 -82.5z" />
    <glyph glyph-name="Oacute" unicode="&#xd3;" horiz-adv-x="1636" vert-adv-y="2007" 
d="M1040 1915l-252 -361h-141l248 361h145zM874 -61q-153 0 -289.5 58t-234.5 157.5t-155.5 238t-57.5 293.5q0 154 57.5 292.5t155.5 238.5t234.5 158.5t289.5 58.5q152 0 288.5 -58.5t234.5 -158.5t155.5 -238.5t57.5 -292.5q0 -207 -97.5 -378.5t-266.5 -270t-372 -98.5z
M874 61q168 0 308 82.5t220.5 226.5t80.5 316t-81 316t-221 226.5t-307 82.5q-169 0 -309.5 -82.5t-220.5 -226t-80 -316.5t80 -316.5t220.5 -226t309.5 -82.5z" />
    <glyph glyph-name="Ocircumflex" unicode="&#xd4;" horiz-adv-x="1636" vert-adv-y="2007" 
d="M874 1776l-198 -220h-158l320 359h73l320 -359h-158zM874 -61q-153 0 -289.5 58t-234.5 157.5t-155.5 238t-57.5 293.5q0 154 57.5 292.5t155.5 238.5t234.5 158.5t289.5 58.5q152 0 288.5 -58.5t234.5 -158.5t155.5 -238.5t57.5 -292.5q0 -207 -97.5 -378.5t-266.5 -270
t-372 -98.5zM874 61q168 0 308 82.5t220.5 226.5t80.5 316t-81 316t-221 226.5t-307 82.5q-169 0 -309.5 -82.5t-220.5 -226t-80 -316.5t80 -316.5t220.5 -226t309.5 -82.5z" />
    <glyph glyph-name="Otilde" unicode="&#xd5;" horiz-adv-x="1636" vert-adv-y="2007" 
d="M1001 1556q-32 0 -64.5 12.5t-50 24.5t-44.5 33q-22 18 -32.5 26t-26 14.5t-31.5 6.5q-71 0 -50 -110h-129q-13 100 37.5 165.5t139.5 65.5q32 0 64.5 -12.5t50 -24.5t44.5 -33q24 -19 34.5 -26t26 -14t31.5 -7q65 0 50 115h125q14 -100 -36.5 -168t-138.5 -68zM874 -61
q-153 0 -289.5 58t-234.5 157.5t-155.5 238t-57.5 293.5q0 154 57.5 292.5t155.5 238.5t234.5 158.5t289.5 58.5q152 0 288.5 -58.5t234.5 -158.5t155.5 -238.5t57.5 -292.5q0 -207 -97.5 -378.5t-266.5 -270t-372 -98.5zM874 61q168 0 308 82.5t220.5 226.5t80.5 316
t-81 316t-221 226.5t-307 82.5q-169 0 -309.5 -82.5t-220.5 -226t-80 -316.5t80 -316.5t220.5 -226t309.5 -82.5z" />
    <glyph glyph-name="Odieresis" unicode="&#xd6;" horiz-adv-x="1636" vert-adv-y="2007" 
d="M690 1614q-38 0 -65 26t-27 64q0 37 27 63.5t65 26.5t65 -26.5t27 -63.5q0 -38 -27 -64t-65 -26zM1059 1614q-38 0 -65 26t-27 64q0 37 27 63.5t65 26.5t65 -26.5t27 -63.5q0 -38 -27 -64t-65 -26zM874 -61q-153 0 -289.5 58t-234.5 157.5t-155.5 238t-57.5 293.5
q0 154 57.5 292.5t155.5 238.5t234.5 158.5t289.5 58.5q152 0 288.5 -58.5t234.5 -158.5t155.5 -238.5t57.5 -292.5q0 -207 -97.5 -378.5t-266.5 -270t-372 -98.5zM874 61q168 0 308 82.5t220.5 226.5t80.5 316t-81 316t-221 226.5t-307 82.5q-169 0 -309.5 -82.5
t-220.5 -226t-80 -316.5t80 -316.5t220.5 -226t309.5 -82.5z" />
    <glyph glyph-name="multiply" unicode="&#xd7;" horiz-adv-x="1105" vert-adv-y="2007" 
d="M856 233l-303 304l-303 -304l-88 89l303 303l-303 303l88 88l303 -303l303 303l88 -88l-303 -303l303 -303z" />
    <glyph glyph-name="Oslash" unicode="&#xd8;" horiz-adv-x="1746" vert-adv-y="2007" 
d="M1210 1559l-63 -177q208 -83 335.5 -271.5t127.5 -424.5q0 -207 -97.5 -378.5t-266.5 -270t-372 -98.5q-122 0 -225 34l-57 -159h-127l72 204q-182 92 -291 270.5t-109 397.5q0 154 57.5 292.5t155.5 238.5t234.5 158.5t289.5 58.5q75 0 158 -17l51 142h127zM264 686
q0 -179 85.5 -325.5t230.5 -225.5l411 1165q-68 11 -117 11q-169 0 -309.5 -82.5t-220.5 -226t-80 -316.5zM874 61q168 0 308 82.5t220.5 226.5t80.5 316q0 197 -103.5 353.5t-273.5 226.5l-416 -1176q92 -29 184 -29z" />
    <glyph glyph-name="Ugrave" unicode="&#xd9;" horiz-adv-x="1351" vert-adv-y="2007" 
d="M692 1917l248 -361h-141l-252 361h145zM731 -61q-266 0 -430 178t-164 467v829h127v-829q0 -236 127.5 -378.5t339.5 -142.5t339.5 142.5t127.5 378.5v829h127v-829q0 -289 -164 -467t-430 -178z" />
    <glyph glyph-name="Uacute" unicode="&#xda;" horiz-adv-x="1351" vert-adv-y="2007" 
d="M948 1917l-252 -361h-141l248 361h145zM731 -61q-266 0 -430 178t-164 467v829h127v-829q0 -236 127.5 -378.5t339.5 -142.5t339.5 142.5t127.5 378.5v829h127v-829q0 -289 -164 -467t-430 -178z" />
    <glyph glyph-name="Ucircumflex" unicode="&#xdb;" horiz-adv-x="1351" vert-adv-y="2007" 
d="M731 1776l-199 -220h-157l319 359h74l319 -359h-157zM731 -61q-266 0 -430 178t-164 467v829h127v-829q0 -236 127.5 -378.5t339.5 -142.5t339.5 142.5t127.5 378.5v829h127v-829q0 -289 -164 -467t-430 -178z" />
    <glyph glyph-name="Udieresis" unicode="&#xdc;" horiz-adv-x="1351" vert-adv-y="2007" 
d="M539 1645q-39 0 -66 26t-27 64q0 37 27.5 63.5t65.5 26.5t65 -26.5t27 -63.5q0 -38 -27 -64t-65 -26zM907 1645q-38 0 -65 26t-27 64q0 37 27 63.5t65 26.5t65 -26.5t27 -63.5q0 -38 -27 -64t-65 -26zM731 -61q-266 0 -430 178t-164 467v829h127v-829
q0 -236 127.5 -378.5t339.5 -142.5t339.5 142.5t127.5 378.5v829h127v-829q0 -289 -164 -467t-430 -178z" />
    <glyph glyph-name="Yacute" unicode="&#xdd;" horiz-adv-x="1474" vert-adv-y="2007" 
d="M948 1917l-252 -361h-141l248 361h145zM856 508v-549h-127v549l-629 905h152l541 -782l540 782h152z" />
    <glyph glyph-name="germandbls" unicode="&#xdf;" horiz-adv-x="1298" vert-adv-y="1597" 
d="M287 1014v-1506h-125l-6 1463q10 211 147 337t354 126q211 0 341 -113.5t130 -296.5q0 -101 -48.5 -181t-137.5 -126q106 -47 162.5 -134.5t56.5 -205.5q0 -205 -148.5 -327.5t-383.5 -110.5v124q184 -12 295.5 73.5t111.5 238.5q0 129 -95.5 201.5t-266.5 72.5h-221v121
h219q154 0 243 68.5t89 185.5q0 130 -95.5 208.5t-253.5 78.5q-148 0 -245.5 -79t-122.5 -218z" />
    <glyph glyph-name="agrave" unicode="&#xe0;" horiz-adv-x="1259" vert-adv-y="2007" 
d="M692 1548l248 -360h-141l-252 360h145zM686 -61q-238 0 -393.5 158t-155.5 401t155.5 401t393.5 158q126 0 236.5 -51.5t185.5 -143.5v174h125v-1077h-125v174q-75 -92 -185.5 -143t-236.5 -51zM686 61q180 0 301 125.5t121 311.5t-121 311t-301 125q-185 0 -304.5 -123
t-119.5 -313t119.5 -313.5t304.5 -123.5z" />
    <glyph glyph-name="aacute" unicode="&#xe1;" horiz-adv-x="1259" vert-adv-y="2007" 
d="M958 1548l-251 -360h-142l248 360h145zM686 -61q-238 0 -393.5 158t-155.5 401t155.5 401t393.5 158q126 0 236.5 -51.5t185.5 -143.5v174h125v-1077h-125v174q-75 -92 -185.5 -143t-236.5 -51zM686 61q180 0 301 125.5t121 311.5t-121 311t-301 125q-185 0 -304.5 -123
t-119.5 -313t119.5 -313.5t304.5 -123.5z" />
    <glyph glyph-name="acircumflex" unicode="&#xe2;" horiz-adv-x="1259" vert-adv-y="2007" 
d="M686 1409l-199 -219h-157l319 358h74l319 -358h-157zM686 -61q-238 0 -393.5 158t-155.5 401t155.5 401t393.5 158q126 0 236.5 -51.5t185.5 -143.5v174h125v-1077h-125v174q-75 -92 -185.5 -143t-236.5 -51zM686 61q180 0 301 125.5t121 311.5t-121 311t-301 125
q-185 0 -304.5 -123t-119.5 -313t119.5 -313.5t304.5 -123.5z" />
    <glyph glyph-name="atilde" unicode="&#xe3;" horiz-adv-x="1259" vert-adv-y="2007" 
d="M813 1198q-32 0 -65 12.5t-51 24.5t-44 33q-22 18 -32.5 26t-26 14.5t-31.5 6.5q-70 0 -49 -111h-129q-14 100 36.5 166t139.5 66q32 0 65 -12.5t51 -24.5t44 -33q24 -19 34.5 -26t26 -14t31.5 -7q64 0 49 115h125q14 -100 -36 -168t-138 -68zM686 -61q-238 0 -393.5 158
t-155.5 401t155.5 401t393.5 158q126 0 236.5 -51.5t185.5 -143.5v174h125v-1077h-125v174q-75 -92 -185.5 -143t-236.5 -51zM686 61q180 0 301 125.5t121 311.5t-121 311t-301 125q-185 0 -304.5 -123t-119.5 -313t119.5 -313.5t304.5 -123.5z" />
    <glyph glyph-name="adieresis" unicode="&#xe4;" horiz-adv-x="1259" vert-adv-y="2007" 
d="M502 1188q-38 0 -65 26t-27 64q0 37 27 63.5t65 26.5t65 -26.5t27 -63.5q0 -38 -27 -64t-65 -26zM870 1188q-38 0 -65 26t-27 64q0 37 27 63.5t65 26.5t65.5 -26.5t27.5 -63.5q0 -38 -27 -64t-66 -26zM686 -61q-238 0 -393.5 158t-155.5 401t155.5 401t393.5 158
q126 0 236.5 -51.5t185.5 -143.5v174h125v-1077h-125v174q-75 -92 -185.5 -143t-236.5 -51zM686 61q180 0 301 125.5t121 311.5t-121 311t-301 125q-185 0 -304.5 -123t-119.5 -313t119.5 -313.5t304.5 -123.5z" />
    <glyph glyph-name="aring" unicode="&#xe5;" horiz-adv-x="1259" vert-adv-y="2007" 
d="M686 1188q-92 0 -156.5 63.5t-64.5 153.5t64.5 153.5t156.5 63.5t156.5 -63.5t64.5 -153.5t-64.5 -153.5t-156.5 -63.5zM686 1307q42 0 72 29t30 69t-30 69t-72 29t-72 -29t-30 -69t30 -69t72 -29zM686 -61q-238 0 -393.5 158t-155.5 401t155.5 401t393.5 158
q126 0 236.5 -51.5t185.5 -143.5v174h125v-1077h-125v174q-75 -92 -185.5 -143t-236.5 -51zM686 61q180 0 301 125.5t121 311.5t-121 311t-301 125q-185 0 -304.5 -123t-119.5 -313t119.5 -313.5t304.5 -123.5z" />
    <glyph glyph-name="ae" unicode="&#xe6;" horiz-adv-x="2291" vert-adv-y="2007" 
d="M686 -61q-238 0 -393.5 158t-155.5 401t155.5 401t393.5 158q126 0 236.5 -51.5t185.5 -143.5v174h125v-178q78 94 191 146.5t239 52.5q223 0 366.5 -147t149.5 -382v-61h-946v-21q13 -163 133 -274t281 -111q158 0 262.5 79.5t144.5 230.5l113 -41q-49 -186 -186 -288.5
t-334 -102.5q-120 0 -229.5 51t-184.5 143v-174h-125v174q-75 -92 -185.5 -143t-236.5 -51zM686 61q169 0 289 115t131 285v33q0 24 2 36q-12 174 -132.5 289t-289.5 115q-185 0 -304.5 -123t-119.5 -313t119.5 -313.5t304.5 -123.5zM1239 590h809q-23 157 -127.5 250.5
t-257.5 93.5q-156 0 -274.5 -96.5t-149.5 -247.5z" />
    <glyph glyph-name="ccedilla" unicode="&#xe7;" horiz-adv-x="1308" vert-adv-y="2007" 
d="M662 -549q-89 0 -143 54t-54 143q0 65 31 118.5t118 137.5l2 39q-212 25 -345.5 178.5t-133.5 376.5q0 155 71.5 283t197 202t278.5 74q196 -3 330 -105.5t184 -285.5l-113 -41q-40 150 -143 228.5t-260 80.5q-179 0 -299.5 -125t-120.5 -311q0 -189 118.5 -312
t301.5 -125q157 2 260 81t143 229l113 -41q-46 -172 -168 -274t-301 -115h12l-4 -80q-90 -87 -119.5 -129.5t-29.5 -83.5q0 -39 16.5 -56.5t54.5 -17.5q21 0 58 12q50 14 63 17l37 -113q-70 -25 -98.5 -32t-56.5 -7z" />
    <glyph glyph-name="egrave" unicode="&#xe8;" horiz-adv-x="1236" vert-adv-y="2007" 
d="M623 1548l247 -360h-141l-252 360h146zM678 -61q-149 0 -273.5 73.5t-196 201t-71.5 280.5q0 239 160.5 401t396.5 162q223 0 366.5 -147t149.5 -382v-61h-948q11 -173 130 -289.5t286 -116.5q158 0 262.5 79.5t144.5 230.5l113 -41q-49 -186 -186 -288.5t-334 -102.5z
M270 590h809q-23 157 -127.5 250.5t-257.5 93.5q-156 0 -274.5 -96.5t-149.5 -247.5z" />
    <glyph glyph-name="eacute" unicode="&#xe9;" horiz-adv-x="1236" vert-adv-y="2007" 
d="M870 1548l-252 -360h-141l248 360h145zM678 -61q-149 0 -273.5 73.5t-196 201t-71.5 280.5q0 239 160.5 401t396.5 162q223 0 366.5 -147t149.5 -382v-61h-948q11 -173 130 -289.5t286 -116.5q158 0 262.5 79.5t144.5 230.5l113 -41q-49 -186 -186 -288.5t-334 -102.5z
M270 590h809q-23 157 -127.5 250.5t-257.5 93.5q-156 0 -274.5 -96.5t-149.5 -247.5z" />
    <glyph glyph-name="ecircumflex" unicode="&#xea;" horiz-adv-x="1236" vert-adv-y="2007" 
d="M674 1407l-199 -219h-158l320 358h74l319 -358h-158zM678 -61q-149 0 -273.5 73.5t-196 201t-71.5 280.5q0 239 160.5 401t396.5 162q223 0 366.5 -147t149.5 -382v-61h-948q11 -173 130 -289.5t286 -116.5q158 0 262.5 79.5t144.5 230.5l113 -41q-49 -186 -186 -288.5
t-334 -102.5zM270 590h809q-23 157 -127.5 250.5t-257.5 93.5q-156 0 -274.5 -96.5t-149.5 -247.5z" />
    <glyph glyph-name="edieresis" unicode="&#xeb;" horiz-adv-x="1236" vert-adv-y="2007" 
d="M500 1198q-38 0 -65 26t-27 64q0 37 27 63.5t65 26.5t65 -26.5t27 -63.5q0 -38 -27 -64t-65 -26zM868 1198q-38 0 -65 26t-27 64q0 37 27 63.5t65 26.5t65.5 -26.5t27.5 -63.5q0 -38 -27 -64t-66 -26zM678 -61q-149 0 -273.5 73.5t-196 201t-71.5 280.5q0 239 160.5 401
t396.5 162q223 0 366.5 -147t149.5 -382v-61h-948q11 -173 130 -289.5t286 -116.5q158 0 262.5 79.5t144.5 230.5l113 -41q-49 -186 -186 -288.5t-334 -102.5zM270 590h809q-23 157 -127.5 250.5t-257.5 93.5q-156 0 -274.5 -96.5t-149.5 -247.5z" />
    <glyph glyph-name="igrave" unicode="&#xec;" horiz-adv-x="348" vert-adv-y="2007" 
d="M178 1559l248 -361h-141l-252 361h145zM293 1036v-1077h-125v1077h125z" />
    <glyph glyph-name="iacute" unicode="&#xed;" horiz-adv-x="348" vert-adv-y="2007" 
d="M393 1548l-252 -360h-141l248 360h145zM293 1036v-1077h-125v1077h125z" />
    <glyph glyph-name="icircumflex" unicode="&#xee;" horiz-adv-x="348" vert-adv-y="2007" 
d="M231 1423l-198 -219h-158l320 359h73l320 -359h-158zM293 1036v-1077h-125v1077h125z" />
    <glyph glyph-name="idieresis" unicode="&#xef;" horiz-adv-x="348" vert-adv-y="2007" 
d="M47 1188q-38 0 -65 26t-27 64q0 37 27 63.5t65 26.5t65 -26.5t27 -63.5q0 -38 -27 -64t-65 -26zM416 1188q-38 0 -65 26t-27 64q0 37 27 63.5t65 26.5t65 -26.5t27 -63.5q0 -38 -27 -64t-65 -26zM293 1036v-1077h-125v1077h125z" />
    <glyph glyph-name="ntilde" unicode="&#xf1;" horiz-adv-x="1130" vert-adv-y="2007" 
d="M748 1198q-32 0 -65 12.5t-51 24.5t-44 33q-22 18 -32.5 26t-26 14.5t-31.5 6.5q-70 0 -49 -111h-130q-13 100 37.5 166t139.5 66q32 0 64.5 -12.5t50 -24.5t44.5 -33q23 -18 34 -26t27 -14.5t32 -6.5q64 0 49 115h125q14 -100 -36 -168t-138 -68zM262 518v-559h-125
v1077h125v-159q71 87 174 133.5t226 46.5q198 0 320 -130t122 -341v-627h-125v627q0 159 -85 253.5t-226 94.5q-185 0 -295.5 -113t-110.5 -303z" />
    <glyph glyph-name="ograve" unicode="&#xf2;" horiz-adv-x="1280" vert-adv-y="2007" 
d="M643 1548l248 -360h-141l-252 360h145zM694 -61q-117 0 -220.5 43t-177 117.5t-116.5 178.5t-43 222q0 117 43 220.5t116.5 177t177 116.5t220.5 43q239 0 399 -159t160 -398t-160 -400t-399 -161zM694 61q187 0 310.5 125t123.5 314t-122.5 311.5t-311.5 122.5
q-187 0 -309.5 -123t-122.5 -311q0 -189 123 -314t309 -125z" />
    <glyph glyph-name="oacute" unicode="&#xf3;" horiz-adv-x="1280" vert-adv-y="2007" 
d="M893 1548l-252 -360h-141l248 360h145zM694 -61q-117 0 -220.5 43t-177 117.5t-116.5 178.5t-43 222q0 117 43 220.5t116.5 177t177 116.5t220.5 43q239 0 399 -159t160 -398t-160 -400t-399 -161zM694 61q187 0 310.5 125t123.5 314t-122.5 311.5t-311.5 122.5
q-187 0 -309.5 -123t-122.5 -311q0 -189 123 -314t309 -125z" />
    <glyph glyph-name="ocircumflex" unicode="&#xf4;" horiz-adv-x="1280" vert-adv-y="2007" 
d="M696 1407l-198 -219h-158l319 358h74l320 -358h-158zM694 -61q-117 0 -220.5 43t-177 117.5t-116.5 178.5t-43 222q0 117 43 220.5t116.5 177t177 116.5t220.5 43q239 0 399 -159t160 -398t-160 -400t-399 -161zM694 61q187 0 310.5 125t123.5 314t-122.5 311.5
t-311.5 122.5q-187 0 -309.5 -123t-122.5 -311q0 -189 123 -314t309 -125z" />
    <glyph glyph-name="otilde" unicode="&#xf5;" horiz-adv-x="1280" vert-adv-y="2007" 
d="M778 1182q-73 0 -160 69q-22 18 -32.5 26t-26 14.5t-31.5 6.5q-70 0 -49 -110h-129q-13 100 37 165.5t139 65.5q73 0 160 -69q24 -19 34.5 -26t26 -14t31.5 -7q64 0 49 114h125q14 -100 -36 -167.5t-138 -67.5zM694 -61q-117 0 -220.5 43t-177 117.5t-116.5 178.5
t-43 222q0 117 43 220.5t116.5 177t177 116.5t220.5 43q239 0 399 -159t160 -398t-160 -400t-399 -161zM694 61q187 0 310.5 125t123.5 314t-122.5 311.5t-311.5 122.5q-187 0 -309.5 -123t-122.5 -311q0 -189 123 -314t309 -125z" />
    <glyph glyph-name="odieresis" unicode="&#xf6;" horiz-adv-x="1280" vert-adv-y="2007" 
d="M512 1182q-38 0 -65 26t-27 64q0 37 27 63.5t65 26.5t65 -26.5t27 -63.5q0 -38 -27 -64t-65 -26zM881 1182q-39 0 -66 26t-27 64q0 37 27.5 63.5t65.5 26.5t65 -26.5t27 -63.5q0 -38 -27 -64t-65 -26zM694 -61q-117 0 -220.5 43t-177 117.5t-116.5 178.5t-43 222
q0 117 43 220.5t116.5 177t177 116.5t220.5 43q239 0 399 -159t160 -398t-160 -400t-399 -161zM694 61q187 0 310.5 125t123.5 314t-122.5 311.5t-311.5 122.5q-187 0 -309.5 -123t-122.5 -311q0 -189 123 -314t309 -125z" />
    <glyph glyph-name="divide" unicode="&#xf7;" horiz-adv-x="1298" vert-adv-y="2007" 
d="M649 911q-38 0 -65 26t-27 64q0 37 27 64t65 27t65 -27t27 -64q0 -38 -27 -64t-65 -26zM1120 686v-123h-942v123h942zM649 158q-38 0 -65 26t-27 64q0 37 27 63.5t65 26.5t65 -26.5t27 -63.5q0 -38 -27 -64t-65 -26z" />
    <glyph glyph-name="oslash" unicode="&#xf8;" horiz-adv-x="1390" vert-adv-y="2007" 
d="M543 -41l-92 -268h-127l110 311q-138 69 -217.5 202t-79.5 296q0 117 43 220.5t116.5 177t177 116.5t220.5 43q47 0 109 -10l139 389h127l-149 -422q154 -65 243.5 -203t89.5 -311q0 -239 -160 -400t-399 -161q-81 0 -151 20zM473 119l291 811q-40 4 -70 4
q-187 0 -309.5 -123t-122.5 -311q0 -125 55.5 -225.5t155.5 -155.5zM694 61q187 0 310.5 125t123.5 314q0 135 -66 240.5t-183 156.5l-293 -821q52 -15 108 -15z" />
    <glyph glyph-name="ugrave" unicode="&#xf9;" horiz-adv-x="1130" vert-adv-y="2007" 
d="M569 1548l248 -360h-141l-252 360h145zM580 -61q-198 0 -320.5 130t-122.5 341v626h125v-626q0 -159 85 -254t226 -95q185 0 295.5 113t110.5 303v559h125v-1077h-125v160q-71 -87 -174 -133.5t-225 -46.5z" />
    <glyph glyph-name="uacute" unicode="&#xfa;" horiz-adv-x="1130" vert-adv-y="2007" 
d="M766 1548l-252 -360h-141l248 360h145zM580 -61q-198 0 -320.5 130t-122.5 341v626h125v-626q0 -159 85 -254t226 -95q185 0 295.5 113t110.5 303v559h125v-1077h-125v160q-71 -87 -174 -133.5t-225 -46.5z" />
    <glyph glyph-name="ucircumflex" unicode="&#xfb;" horiz-adv-x="1130" vert-adv-y="2007" 
d="M588 1409l-199 -219h-158l320 358h74l319 -358h-158zM580 -61q-198 0 -320.5 130t-122.5 341v626h125v-626q0 -159 85 -254t226 -95q185 0 295.5 113t110.5 303v559h125v-1077h-125v160q-71 -87 -174 -133.5t-225 -46.5z" />
    <glyph glyph-name="udieresis" unicode="&#xfc;" horiz-adv-x="1130" vert-adv-y="2007" 
d="M436 1196q-38 0 -65 26t-27 64q0 37 27 63.5t65 26.5t65 -26.5t27 -63.5q0 -38 -27 -64t-65 -26zM805 1196q-38 0 -65 26t-27 64q0 37 27 63.5t65 26.5t65 -26.5t27 -63.5q0 -38 -27 -64t-65 -26zM580 -61q-198 0 -320.5 130t-122.5 341v626h125v-626q0 -159 85 -254
t226 -95q185 0 295.5 113t110.5 303v559h125v-1077h-125v160q-71 -87 -174 -133.5t-225 -46.5z" />
    <glyph glyph-name="yacute" unicode="&#xfd;" horiz-adv-x="1251" vert-adv-y="2007" 
d="M879 1559l-252 -361h-142l248 361h146zM1249 1036l-686 -1425h-137l188 389l-501 1036h141l428 -893l430 893h137z" />
    <glyph glyph-name="ydieresis" unicode="&#xff;" horiz-adv-x="1251" vert-adv-y="2007" 
d="M498 1190q-38 0 -65 26t-27 64q0 37 27 63.5t65 26.5t65 -26.5t27 -63.5q0 -38 -27 -64t-65 -26zM866 1190q-38 0 -65 26t-27 64q0 37 27 63.5t65 26.5t65 -26.5t27 -63.5q0 -38 -27 -64t-65 -26zM1249 1036l-686 -1425h-137l188 389l-501 1036h141l428 -893l430 893h137
z" />
    <glyph glyph-name="Cacute" unicode="&#x106;" horiz-adv-x="1581" vert-adv-y="2007" 
d="M948 1917l-252 -361h-141l248 361h145zM881 -61q-153 0 -291 58.5t-237.5 158t-157.5 238t-58 292.5t58 292.5t157.5 238.5t237.5 158.5t291 58.5q240 0 425 -118.5t261 -322.5l-117 -49q-58 169 -212 268t-357 99q-128 0 -242 -49t-196.5 -132t-130.5 -199t-48 -245
t48 -245t130.5 -199t196.5 -132t242 -49q202 0 353.5 98.5t213.5 268.5l119 -45q-76 -205 -261 -324.5t-425 -119.5z" />
    <glyph glyph-name="cacute" unicode="&#x107;" horiz-adv-x="1198" vert-adv-y="2007" 
d="M852 1548l-252 -360h-141l248 360h145zM678 -61q-154 2 -277.5 74.5t-193.5 200t-70 284.5q0 155 71.5 283t197 202t278.5 74q196 -3 330 -105.5t184 -285.5l-113 -41q-40 150 -143 228.5t-260 80.5q-179 0 -299.5 -125t-120.5 -311q0 -189 118.5 -312t301.5 -125
q157 2 260 81t143 229l113 -41q-50 -185 -185.5 -287.5t-334.5 -103.5z" />
    <glyph glyph-name="Ccircumflex" unicode="&#x108;" horiz-adv-x="1581" vert-adv-y="2007" 
d="M846 1776l-199 -220h-158l320 359h74l319 -359h-158zM881 -61q-153 0 -291 58.5t-237.5 158t-157.5 238t-58 292.5t58 292.5t157.5 238.5t237.5 158.5t291 58.5q240 0 425 -118.5t261 -322.5l-117 -49q-58 169 -212 268t-357 99q-128 0 -242 -49t-196.5 -132t-130.5 -199
t-48 -245t48 -245t130.5 -199t196.5 -132t242 -49q202 0 353.5 98.5t213.5 268.5l119 -45q-76 -205 -261 -324.5t-425 -119.5z" />
    <glyph glyph-name="ccircumflex" unicode="&#x109;" horiz-adv-x="1198" vert-adv-y="2007" 
d="M655 1407l-198 -219h-158l319 358h74l320 -358h-158zM678 -61q-154 2 -277.5 74.5t-193.5 200t-70 284.5q0 155 71.5 283t197 202t278.5 74q196 -3 330 -105.5t184 -285.5l-113 -41q-40 150 -143 228.5t-260 80.5q-179 0 -299.5 -125t-120.5 -311q0 -189 118.5 -312
t301.5 -125q157 2 260 81t143 229l113 -41q-50 -185 -185.5 -287.5t-334.5 -103.5z" />
    <glyph glyph-name="Cdotaccent" unicode="&#x10a;" horiz-adv-x="1581" vert-adv-y="2007" 
d="M846 1587q-38 0 -65 26t-27 64q0 37 27 63.5t65 26.5t65 -26.5t27 -63.5q0 -38 -27 -64t-65 -26zM881 -61q-153 0 -291 58.5t-237.5 158t-157.5 238t-58 292.5t58 292.5t157.5 238.5t237.5 158.5t291 58.5q240 0 425 -118.5t261 -322.5l-117 -49q-58 169 -212 268
t-357 99q-128 0 -242 -49t-196.5 -132t-130.5 -199t-48 -245t48 -245t130.5 -199t196.5 -132t242 -49q202 0 353.5 98.5t213.5 268.5l119 -45q-76 -205 -261 -324.5t-425 -119.5z" />
    <glyph glyph-name="cdotaccent" unicode="&#x10b;" horiz-adv-x="1198" vert-adv-y="2007" 
d="M653 1188q-38 0 -65 26t-27 64q0 37 27 63.5t65 26.5t65 -26.5t27 -63.5q0 -38 -27 -64t-65 -26zM678 -61q-154 2 -277.5 74.5t-193.5 200t-70 284.5q0 155 71.5 283t197 202t278.5 74q196 -3 330 -105.5t184 -285.5l-113 -41q-40 150 -143 228.5t-260 80.5
q-179 0 -299.5 -125t-120.5 -311q0 -189 118.5 -312t301.5 -125q157 2 260 81t143 229l113 -41q-50 -185 -185.5 -287.5t-334.5 -103.5z" />
    <glyph glyph-name="Ccaron" unicode="&#x10c;" horiz-adv-x="1581" vert-adv-y="2007" 
d="M1237 1903l-319 -359h-74l-320 359h158l199 -220l198 220h158zM881 -61q-153 0 -291 58.5t-237.5 158t-157.5 238t-58 292.5t58 292.5t157.5 238.5t237.5 158.5t291 58.5q240 0 425 -118.5t261 -322.5l-117 -49q-58 169 -212 268t-357 99q-128 0 -242 -49t-196.5 -132
t-130.5 -199t-48 -245t48 -245t130.5 -199t196.5 -132t242 -49q202 0 353.5 98.5t213.5 268.5l119 -45q-76 -205 -261 -324.5t-425 -119.5z" />
    <glyph glyph-name="ccaron" unicode="&#x10d;" horiz-adv-x="1198" vert-adv-y="2007" 
d="M1012 1546l-320 -358h-74l-319 358h158l198 -219l199 219h158zM678 -61q-154 2 -277.5 74.5t-193.5 200t-70 284.5q0 155 71.5 283t197 202t278.5 74q196 -3 330 -105.5t184 -285.5l-113 -41q-40 150 -143 228.5t-260 80.5q-179 0 -299.5 -125t-120.5 -311
q0 -189 118.5 -312t301.5 -125q157 2 260 81t143 229l113 -41q-50 -185 -185.5 -287.5t-334.5 -103.5z" />
    <glyph glyph-name="Ecaron" unicode="&#x11a;" horiz-adv-x="1208" vert-adv-y="2007" 
d="M1012 1915l-320 -359h-74l-319 359h158l198 -219l199 219h158zM1182 82v-123h-1045v1454h1045v-123h-918v-538h856v-123h-856v-547h918z" />
    <glyph glyph-name="ecaron" unicode="&#x11b;" horiz-adv-x="1236" vert-adv-y="2007" 
d="M1030 1556l-319 -358h-74l-320 358h158l199 -219l198 219h158zM678 -61q-149 0 -273.5 73.5t-196 201t-71.5 280.5q0 239 160.5 401t396.5 162q223 0 366.5 -147t149.5 -382v-61h-948q11 -173 130 -289.5t286 -116.5q158 0 262.5 79.5t144.5 230.5l113 -41
q-49 -186 -186 -288.5t-334 -102.5zM270 590h809q-23 157 -127.5 250.5t-257.5 93.5q-156 0 -274.5 -96.5t-149.5 -247.5z" />
    <glyph glyph-name="Itilde" unicode="&#x128;" horiz-adv-x="290" vert-adv-y="2007" 
d="M352 1556q-32 0 -64.5 12.5t-50 24.5t-44.5 33q-31 26 -49.5 36.5t-41.5 10.5q-70 0 -49 -110h-129q-13 100 37 165.5t139 65.5q32 0 65 -12.5t51 -24.5t44 -33q24 -19 34.5 -26t26 -14t31.5 -7q64 0 49 115h125q14 -100 -36 -168t-138 -68zM264 1413v-1454h-127v1454
h127z" />
    <glyph glyph-name="itilde" unicode="&#x129;" horiz-adv-x="348" vert-adv-y="2007" 
d="M356 1180q-32 0 -64.5 12t-50.5 24t-44 33q-31 26 -49.5 36.5t-41.5 10.5q-70 0 -49 -110h-129q-13 100 37 165.5t139 65.5q73 0 160 -69q2 -2 7 -5q47 -37 70 -42q8 -1 15 -1q65 0 50 115h124q14 -100 -36 -167.5t-138 -67.5zM293 1036v-1077h-125v1077h125z" />
    <glyph glyph-name="dotlessi" unicode="&#x131;" horiz-adv-x="458" vert-adv-y="2007" 
d="M293 1036v-1077h-125v1077h125z" />
    <glyph glyph-name="Nacute" unicode="&#x143;" horiz-adv-x="1370" vert-adv-y="2007" 
d="M948 1917l-252 -361h-141l248 361h145zM264 1180v-1221h-127v1454h107l973 -1220v1220h126v-1454h-106z" />
    <glyph glyph-name="nacute" unicode="&#x144;" horiz-adv-x="1130" vert-adv-y="2007" 
d="M817 1548l-252 -360h-141l248 360h145zM262 518v-559h-125v1077h125v-159q71 87 174 133.5t226 46.5q198 0 320 -130t122 -341v-627h-125v627q0 159 -85 253.5t-226 94.5q-185 0 -295.5 -113t-110.5 -303z" />
    <glyph glyph-name="OE" unicode="&#x152;" horiz-adv-x="2672" vert-adv-y="2007" 
d="M874 -61q-153 0 -289.5 58t-234.5 157.5t-155.5 238t-57.5 293.5q0 154 57.5 292.5t155.5 238.5t234.5 158.5t289.5 58.5q186 0 347.5 -85.5t261.5 -236.5v322h1044v-123h-917v-539h856v-123h-856v-547h917v-122h-1044v280q-100 -150 -262 -235.5t-347 -85.5zM874 61
q168 0 308 82.5t220.5 226.5t80.5 316t-81 316t-221 226.5t-307 82.5q-169 0 -309.5 -82.5t-220.5 -226t-80 -316.5t80 -316.5t220.5 -226t309.5 -82.5z" />
    <glyph glyph-name="oe" unicode="&#x153;" horiz-adv-x="2281" vert-adv-y="2007" 
d="M694 -61q-117 0 -220.5 43t-177 117.5t-116.5 178.5t-43 222q0 117 43 220.5t116.5 177t177 116.5t220.5 43q162 0 294.5 -78t201.5 -213q71 134 204 212.5t289 78.5q223 0 367 -147t150 -382v-61h-949v-4q10 -171 130 -286.5t286 -115.5q158 0 263 79.5t145 230.5
l112 -41q-49 -186 -186 -288.5t-334 -102.5q-150 0 -279.5 79t-197.5 211q-72 -135 -204 -212.5t-292 -77.5zM694 61q178 0 299 113.5t133 288.5v31q0 24 2 36q-12 178 -133.5 291t-300.5 113q-187 0 -309.5 -123t-122.5 -311q0 -189 123 -314t309 -125zM1260 590h808
q-23 157 -127.5 250.5t-257.5 93.5q-156 0 -274 -96.5t-149 -247.5z" />
    <glyph glyph-name="Racute" unicode="&#x154;" horiz-adv-x="1312" vert-adv-y="2007" 
d="M909 1917l-252 -361h-141l248 361h145zM264 631v-672h-127v1454h654q201 0 323.5 -107t122.5 -284t-122.5 -284t-323.5 -107h-62l606 -672h-172l-600 672h-299zM791 1290h-527v-536h527q146 0 232.5 72.5t86.5 195.5t-86.5 195.5t-232.5 72.5z" />
    <glyph glyph-name="racute" unicode="&#x155;" horiz-adv-x="804" vert-adv-y="2007" 
d="M621 1548l-252 -360h-142l248 360h146zM262 518v-559h-125v1077h125v-159q71 87 174 133.5t226 46.5q59 0 129 -17l-31 -118q-44 12 -92 12q-185 0 -295.5 -113t-110.5 -303z" />
    <glyph glyph-name="Rcaron" unicode="&#x158;" horiz-adv-x="1312" vert-adv-y="2007" 
d="M1012 1915l-320 -359h-74l-319 359h158l198 -219l199 219h158zM264 631v-672h-127v1454h654q201 0 323.5 -107t122.5 -284t-122.5 -284t-323.5 -107h-62l606 -672h-172l-600 672h-299zM791 1290h-527v-536h527q146 0 232.5 72.5t86.5 195.5t-86.5 195.5t-232.5 72.5z" />
    <glyph glyph-name="rcaron" unicode="&#x159;" horiz-adv-x="804" vert-adv-y="2007" 
d="M807 1550l-320 -358h-73l-320 358h158l199 -219l198 219h158zM262 518v-559h-125v1077h125v-159q71 87 174 133.5t226 46.5q59 0 129 -17l-31 -118q-44 12 -92 12q-185 0 -295.5 -113t-110.5 -303z" />
    <glyph glyph-name="Sacute" unicode="&#x15a;" horiz-adv-x="1261" vert-adv-y="2007" 
d="M948 1917l-252 -361h-141l248 361h145zM721 -61q-250 0 -412.5 132.5t-175.5 348.5l133 33q-3 -175 124 -283.5t333 -108.5q177 0 280 79.5t103 215.5q0 103 -54 154.5t-200 85.5l-328 80q-331 79 -331 350q0 182 136 295t355 113q217 0 361 -116t169 -312l-120 -39
q-17 160 -127 252t-285 92q-161 0 -259.5 -78.5t-98.5 -206.5q0 -95 56.5 -148.5t188.5 -82.5l303 -76q56 -12 100 -26.5t96 -43t86 -65t57.5 -95t23.5 -131.5q0 -190 -141 -304.5t-373 -114.5z" />
    <glyph glyph-name="sacute" unicode="&#x15b;" horiz-adv-x="1034" vert-adv-y="2007" 
d="M770 1552l-252 -360h-141l248 360h145zM600 -61q-203 0 -330.5 99t-136.5 265l123 27q-7 -120 88.5 -195.5t255.5 -75.5q132 0 207.5 53.5t75.5 145.5q0 66 -41.5 101.5t-143.5 58.5l-256 57q-137 31 -202.5 96t-65.5 172q0 139 109 226.5t282 87.5q169 0 282.5 -86.5
t141.5 -237.5l-123 -28q-12 107 -92 168t-209 61q-121 0 -193.5 -52.5t-72.5 -138.5q0 -63 40 -96.5t142 -56.5l242 -53q43 -10 76 -20.5t74.5 -32.5t69 -50t46.5 -73.5t19 -102.5q0 -144 -112 -231.5t-296 -87.5z" />
    <glyph glyph-name="Scircumflex" unicode="&#x15c;" horiz-adv-x="1261" vert-adv-y="2007" 
d="M680 1776l-199 -220h-157l319 359h74l319 -359h-157zM721 -61q-250 0 -412.5 132.5t-175.5 348.5l133 33q-3 -175 124 -283.5t333 -108.5q177 0 280 79.5t103 215.5q0 103 -54 154.5t-200 85.5l-328 80q-331 79 -331 350q0 182 136 295t355 113q217 0 361 -116t169 -312
l-120 -39q-17 160 -127 252t-285 92q-161 0 -259.5 -78.5t-98.5 -206.5q0 -95 56.5 -148.5t188.5 -82.5l303 -76q56 -12 100 -26.5t96 -43t86 -65t57.5 -95t23.5 -131.5q0 -190 -141 -304.5t-373 -114.5z" />
    <glyph glyph-name="scircumflex" unicode="&#x15d;" horiz-adv-x="1034" vert-adv-y="2007" 
d="M573 1407l-198 -219h-158l320 358h73l320 -358h-158zM600 -61q-203 0 -330.5 99t-136.5 265l123 27q-7 -120 88.5 -195.5t255.5 -75.5q132 0 207.5 53.5t75.5 145.5q0 66 -41.5 101.5t-143.5 58.5l-256 57q-137 31 -202.5 96t-65.5 172q0 139 109 226.5t282 87.5
q169 0 282.5 -86.5t141.5 -237.5l-123 -28q-12 107 -92 168t-209 61q-121 0 -193.5 -52.5t-72.5 -138.5q0 -63 40 -96.5t142 -56.5l242 -53q43 -10 76 -20.5t74.5 -32.5t69 -50t46.5 -73.5t19 -102.5q0 -144 -112 -231.5t-296 -87.5z" />
    <glyph glyph-name="Scedilla" unicode="&#x15e;" horiz-adv-x="1372" vert-adv-y="2007" 
d="M713 -530q-89 0 -143 53.5t-54 142.5q0 65 31.5 119.5t116.5 136.5l2 19q-229 15 -375 146t-158 333l133 33q-3 -175 124 -283.5t333 -108.5q177 0 280 79.5t103 215.5q0 103 -54 154.5t-200 85.5l-328 80q-331 79 -331 350q0 182 136 295t355 113q217 0 361 -116
t169 -312l-120 -39q-17 160 -127 252t-285 92q-161 0 -259.5 -78.5t-98.5 -206.5q0 -95 56.5 -148.5t188.5 -82.5l303 -76q56 -12 100 -26.5t96 -43t86 -65t57.5 -95t23.5 -131.5q0 -174 -119.5 -286t-324.5 -131l-3 -62q-90 -87 -119.5 -129.5t-29.5 -83.5q0 -39 17 -56.5
t55 -17.5q16 0 57 13q38 11 63 16l37 -113q-108 -38 -155 -38z" />
    <glyph glyph-name="scedilla" unicode="&#x15f;" horiz-adv-x="1144" vert-adv-y="2007" 
d="M600 -530q-89 0 -143 53.5t-54 142.5q0 65 31.5 119.5t116.5 136.5l2 19q-185 12 -298 109.5t-122 252.5l125 45q-17 -127 79.5 -208t262.5 -81q132 0 207.5 53.5t75.5 145.5q0 66 -41.5 101.5t-143.5 58.5l-256 57q-136 29 -202 95t-66 173q0 139 109 226.5t282 87.5
q169 0 282.5 -86.5t141.5 -237.5l-121 -49q-6 117 -87 183.5t-216 66.5q-121 0 -193.5 -52.5t-72.5 -138.5q0 -63 40 -96.5t142 -56.5l242 -53q43 -10 76 -20.5t74.5 -32.5t69 -50t46.5 -73.5t19 -102.5q0 -127 -89.5 -211.5t-240.5 -103.5l-4 -66q-87 -83 -117.5 -126
t-30.5 -85q0 -39 17 -56.5t55 -17.5q16 0 57 13q35 10 64 16l37 -113q-108 -38 -156 -38z" />
    <glyph glyph-name="Scaron" unicode="&#x160;" horiz-adv-x="1261" vert-adv-y="2007" 
d="M1042 1915l-319 -359h-74l-319 359h157l199 -219l199 219h157zM721 -61q-250 0 -412.5 132.5t-175.5 348.5l133 33q-3 -175 124 -283.5t333 -108.5q177 0 280 79.5t103 215.5q0 103 -54 154.5t-200 85.5l-328 80q-331 79 -331 350q0 182 136 295t355 113q217 0 361 -116
t169 -312l-120 -39q-17 160 -127 252t-285 92q-161 0 -259.5 -78.5t-98.5 -206.5q0 -95 56.5 -148.5t188.5 -82.5l303 -76q56 -12 100 -26.5t96 -43t86 -65t57.5 -95t23.5 -131.5q0 -190 -141 -304.5t-373 -114.5z" />
    <glyph glyph-name="scaron" unicode="&#x161;" horiz-adv-x="1034" vert-adv-y="2007" 
d="M930 1563l-320 -359h-73l-320 359h158l198 -220l199 220h158zM600 -61q-203 0 -330.5 99t-136.5 265l123 27q-7 -120 88.5 -195.5t255.5 -75.5q132 0 207.5 53.5t75.5 145.5q0 66 -41.5 101.5t-143.5 58.5l-256 57q-137 31 -202.5 96t-65.5 172q0 139 109 226.5t282 87.5
q169 0 282.5 -86.5t141.5 -237.5l-123 -28q-12 107 -92 168t-209 61q-121 0 -193.5 -52.5t-72.5 -138.5q0 -63 40 -96.5t142 -56.5l242 -53q43 -10 76 -20.5t74.5 -32.5t69 -50t46.5 -73.5t19 -102.5q0 -144 -112 -231.5t-296 -87.5z" />
    <glyph glyph-name="Utilde" unicode="&#x168;" horiz-adv-x="1351" vert-adv-y="2007" 
d="M791 1556q-32 0 -65 12.5t-51 24.5t-44 33q-22 18 -32.5 26t-26 14.5t-31.5 6.5q-70 0 -49 -110h-130q-13 100 37.5 165.5t139.5 65.5q32 0 64.5 -12.5t50 -24.5t44.5 -33q23 -18 34 -26t27 -14.5t32 -6.5q64 0 49 115h125q14 -100 -36 -168t-138 -68zM731 -61
q-266 0 -430 178t-164 467v829h127v-829q0 -236 127.5 -378.5t339.5 -142.5t339.5 142.5t127.5 378.5v829h127v-829q0 -289 -164 -467t-430 -178z" />
    <glyph glyph-name="utilde" unicode="&#x169;" horiz-adv-x="1130" vert-adv-y="2007" 
d="M705 1186q-73 0 -160 69q-23 19 -33 26.5t-25.5 14.5t-31.5 7q-70 0 -49 -111h-130q-13 100 37.5 165.5t139.5 65.5q32 0 64.5 -12t50.5 -24t44 -33q23 -18 34 -26t27 -14.5t32 -6.5q64 0 49 114h125q14 -100 -36 -167.5t-138 -67.5zM580 -61q-198 0 -320.5 130
t-122.5 341v626h125v-626q0 -159 85 -254t226 -95q185 0 295.5 113t110.5 303v559h125v-1077h-125v160q-71 -87 -174 -133.5t-225 -46.5z" />
    <glyph glyph-name="Uring" unicode="&#x16e;" horiz-adv-x="1351" vert-adv-y="2007" 
d="M731 1571q-92 0 -156.5 63.5t-64.5 153.5t64.5 153.5t156.5 63.5t156.5 -63.5t64.5 -153.5t-64.5 -153.5t-156.5 -63.5zM731 1690q43 0 73 29t30 69t-30 69t-73 29q-42 0 -72 -29t-30 -69t30 -69t72 -29zM731 -61q-266 0 -430 178t-164 467v829h127v-829
q0 -236 127.5 -378.5t339.5 -142.5t339.5 142.5t127.5 378.5v829h127v-829q0 -289 -164 -467t-430 -178z" />
    <glyph glyph-name="uring" unicode="&#x16f;" horiz-adv-x="1130" vert-adv-y="2007" 
d="M621 1204q-92 0 -157 64t-65 153t65 153t157 64t156.5 -63.5t64.5 -153.5t-64.5 -153.5t-156.5 -63.5zM621 1323q42 0 72 29t30 69t-30 69.5t-72 29.5t-72.5 -29.5t-30.5 -69.5t30 -69t73 -29zM580 -61q-198 0 -320.5 130t-122.5 341v626h125v-626q0 -159 85 -254
t226 -95q185 0 295.5 113t110.5 303v559h125v-1077h-125v160q-71 -87 -174 -133.5t-225 -46.5z" />
    <glyph glyph-name="Wcircumflex" unicode="&#x174;" horiz-adv-x="2076" vert-adv-y="2007" 
d="M1071 1776l-199 -220h-157l319 359h74l319 -359h-157zM1094 1180l-404 -1221h-96l-473 1454h133l391 -1204l397 1204h103l397 -1204l391 1204h133l-473 -1454h-96z" />
    <glyph glyph-name="wcircumflex" unicode="&#x175;" horiz-adv-x="1679" vert-adv-y="2007" 
d="M893 1442l-199 -219h-157l319 358h74l319 -358h-157zM895 799l-299 -846h-107l-368 1085h133l291 -850l303 848h94l303 -848l291 850h133l-369 -1085h-106z" />
    <glyph glyph-name="Ycircumflex" unicode="&#x176;" horiz-adv-x="1474" vert-adv-y="2007" 
d="M793 1776l-199 -220h-158l320 359h73l320 -359h-158zM856 508v-549h-127v549l-629 905h152l541 -782l540 782h152z" />
    <glyph glyph-name="ycircumflex" unicode="&#x177;" horiz-adv-x="1251" vert-adv-y="2007" 
d="M682 1411l-199 -219h-157l319 358h74l319 -358h-157zM1249 1036l-686 -1425h-137l188 389l-501 1036h141l428 -893l430 893h137z" />
    <glyph glyph-name="Ydieresis" unicode="&#x178;" horiz-adv-x="1474" vert-adv-y="2007" 
d="M608 1647q-38 0 -65 26t-27 64q0 37 27 63.5t65 26.5t65 -26.5t27 -63.5q0 -38 -27 -64t-65 -26zM977 1647q-38 0 -65 26t-27 64q0 37 27 63.5t65 26.5t65 -26.5t27 -63.5q0 -38 -27 -64t-65 -26zM856 508v-549h-127v549l-629 905h152l541 -782l540 782h152z" />
    <glyph glyph-name="Zacute" unicode="&#x179;" horiz-adv-x="1261" vert-adv-y="2007" 
d="M905 1917l-252 -361h-141l248 361h145zM1235 82v-123h-1098v80l910 1251h-881v123h1069v-78l-911 -1253h911z" />
    <glyph glyph-name="zacute" unicode="&#x17a;" horiz-adv-x="1083" vert-adv-y="2007" 
d="M754 1548l-252 -360h-142l248 360h146zM1057 82v-123h-920v92l713 862h-690v123h878v-92l-712 -862h731z" />
    <glyph glyph-name="Zcaron" unicode="&#x17d;" horiz-adv-x="1261" vert-adv-y="2007" 
d="M1012 1915l-320 -359h-74l-319 359h158l198 -219l199 219h158zM1235 82v-123h-1098v80l910 1251h-881v123h1069v-78l-911 -1253h911z" />
    <glyph glyph-name="zcaron" unicode="&#x17e;" horiz-adv-x="1083" vert-adv-y="2007" 
d="M954 1544l-319 -358h-74l-319 358h157l199 -219l199 219h157zM1057 82v-123h-920v92l713 862h-690v123h878v-92l-712 -862h731z" />
    <glyph glyph-name="florin" unicode="&#x192;" horiz-adv-x="1169" vert-adv-y="2007" 
d="M82 -379q-112 0 -182 82l75 109q39 -68 109 -68q62 0 106 39.5t54 103.5l133 738h-271v123h295l58 331q31 164 138 259.5t261 95.5q167 0 270 -127l-86 -93q-69 97 -190 97q-105 0 -175.5 -65.5t-92.5 -182.5l-58 -315h447v-123h-471l-133 -754q-22 -112 -101 -181
t-186 -69z" />
    <glyph glyph-name="circumflex" unicode="&#x2c6;" vert-adv-y="2007" 
d="M680 1776l-199 -220h-157l319 359h74l319 -359h-157z" />
    <glyph glyph-name="caron" unicode="&#x2c7;" vert-adv-y="2007" 
d="M1012 1915l-320 -359h-74l-319 359h158l198 -219l199 219h158z" />
    <glyph glyph-name="breve" unicode="&#x2d8;" vert-adv-y="2007" 
d="M670 1108q-139 0 -223.5 94.5t-67.5 231.5h121q-15 -89 34 -148t136 -59t136 59t34 148h121q17 -137 -67.5 -231.5t-223.5 -94.5z" />
    <glyph glyph-name="dotaccent" unicode="&#x2d9;" vert-adv-y="2007" 
d="M670 1587q-38 0 -65 26t-27 64q0 37 27 63.5t65 26.5t65 -26.5t27 -63.5q0 -38 -27 -64t-65 -26z" />
    <glyph glyph-name="ring" unicode="&#x2da;" vert-adv-y="2007" 
d="M670 1556q-92 0 -156.5 64t-64.5 154t64.5 153.5t156.5 63.5t156.5 -63.5t64.5 -153.5t-64.5 -154t-156.5 -64zM670 1675q42 0 72 29.5t30 69.5t-30 69t-72 29q-43 0 -73 -29t-30 -69t30.5 -69.5t72.5 -29.5z" />
    <glyph glyph-name="ogonek" unicode="&#x2db;" vert-adv-y="2007" 
d="M657 -430q-89 0 -142.5 54t-53.5 143q0 70 37.5 128.5t144.5 159.5l133 -35q-120 -109 -156 -156.5t-36 -96.5q0 -39 16.5 -56.5t54.5 -17.5q21 0 58 12q38 11 63 16l37 -112q-111 -39 -156 -39z" />
    <glyph glyph-name="tilde" unicode="&#x2dc;" vert-adv-y="2007" 
d="M791 1556q-32 0 -65 12.5t-51 24.5t-44 33q-22 18 -32.5 26t-26 14.5t-31.5 6.5q-70 0 -49 -110h-130q-13 100 37.5 165.5t139.5 65.5q32 0 64.5 -12.5t50 -24.5t44.5 -33q23 -18 34 -26t27 -14.5t32 -6.5q64 0 49 115h125q14 -100 -36 -168t-138 -68z" />
    <glyph glyph-name="hungarumlaut" unicode="&#x2dd;" vert-adv-y="2007" 
d="M776 1915l-262 -359h-141l245 359h158zM1020 1915l-256 -359h-141l243 359h154z" />
    <glyph glyph-name="Wgrave" unicode="&#x1e80;" horiz-adv-x="2076" vert-adv-y="2007" 
d="M1042 1948l248 -361h-141l-252 361h145zM1094 1180l-404 -1221h-96l-473 1454h133l391 -1204l397 1204h103l397 -1204l391 1204h133l-473 -1454h-96z" />
    <glyph glyph-name="wgrave" unicode="&#x1e81;" horiz-adv-x="1679" vert-adv-y="2007" 
d="M844 1589l248 -360h-142l-252 360h146zM895 799l-299 -846h-107l-368 1085h133l291 -850l303 848h94l303 -848l291 850h133l-369 -1085h-106z" />
    <glyph glyph-name="Wacute" unicode="&#x1e82;" horiz-adv-x="2076" vert-adv-y="2007" 
d="M1290 1948l-252 -361h-141l248 361h145zM1094 1180l-404 -1221h-96l-473 1454h133l391 -1204l397 1204h103l397 -1204l391 1204h133l-473 -1454h-96z" />
    <glyph glyph-name="wacute" unicode="&#x1e83;" horiz-adv-x="1679" vert-adv-y="2007" 
d="M1092 1546l-252 -360h-142l248 360h146zM895 799l-299 -846h-107l-368 1085h133l291 -850l303 848h94l303 -848l291 850h133l-369 -1085h-106z" />
    <glyph glyph-name="Wdieresis" unicode="&#x1e84;" horiz-adv-x="2076" vert-adv-y="2007" 
d="M909 1604q-38 0 -65 26t-27 64q0 37 27 63.5t65 26.5t65 -26.5t27 -63.5q0 -38 -27 -64t-65 -26zM1278 1604q-38 0 -65 26t-27 64q0 37 27 63.5t65 26.5t65 -26.5t27 -63.5q0 -38 -27 -64t-65 -26zM1094 1180l-404 -1221h-96l-473 1454h133l391 -1204l397 1204h103
l397 -1204l391 1204h133l-473 -1454h-96z" />
    <glyph glyph-name="wdieresis" unicode="&#x1e85;" horiz-adv-x="1679" vert-adv-y="2007" 
d="M711 1233q-39 0 -66 26t-27 64q0 37 27.5 63.5t65.5 26.5t65 -26.5t27 -63.5q0 -38 -27 -64t-65 -26zM1079 1233q-38 0 -65 26t-27 64q0 37 27 63.5t65 26.5t65 -26.5t27 -63.5q0 -38 -27 -64t-65 -26zM895 799l-299 -846h-107l-368 1085h133l291 -850l303 848h94
l303 -848l291 850h133l-369 -1085h-106z" />
    <glyph glyph-name="endash" unicode="&#x2013;" horiz-adv-x="1380" vert-adv-y="2007" 
d="M1243 584v-123h-1106v123h1106z" />
    <glyph glyph-name="emdash" unicode="&#x2014;" horiz-adv-x="2240" vert-adv-y="2007" 
d="M2103 584v-123h-1966v123h1966z" />
    <glyph glyph-name="quoteleft" unicode="&#x2018;" horiz-adv-x="557" vert-adv-y="2007" 
d="M432 1413l-168 -610h-131v53l176 557h123z" />
    <glyph glyph-name="quoteright" unicode="&#x2019;" horiz-adv-x="557" vert-adv-y="2007" 
d="M424 1360l-176 -557h-123l168 610h131v-53z" />
    <glyph glyph-name="quotesinglbase" unicode="&#x201a;" horiz-adv-x="557" vert-adv-y="2007" 
d="M424 246l-176 -557h-123l168 610h131v-53z" />
    <glyph glyph-name="quotedblleft" unicode="&#x201c;" horiz-adv-x="843" vert-adv-y="2007" 
d="M432 1413l-168 -610h-131v53l176 557h123zM719 1413l-168 -610h-131v53l176 557h123z" />
    <glyph glyph-name="quotedblright" unicode="&#x201d;" horiz-adv-x="843" vert-adv-y="2007" 
d="M424 1360l-176 -557h-123l168 610h131v-53zM711 1360l-176 -557h-123l168 610h131v-53z" />
    <glyph glyph-name="quotedblbase" unicode="&#x201e;" horiz-adv-x="843" vert-adv-y="2007" 
d="M424 246l-176 -557h-123l168 610h131v-53zM711 246l-176 -557h-123l168 610h131v-53z" />
    <glyph glyph-name="dagger" unicode="&#x2020;" horiz-adv-x="745" vert-adv-y="2007" 
d="M434 1247v-481h-123v481h-225v125h225v184h123v-184h225v-125h-225z" />
    <glyph glyph-name="daggerdbl" unicode="&#x2021;" horiz-adv-x="745" vert-adv-y="2007" 
d="M434 950v-184h-123v184h-225v125h225v172h-225v125h225v184h123v-184h225v-125h-225v-172h225v-125h-225z" />
    <glyph glyph-name="bullet" unicode="&#x2022;" horiz-adv-x="874" vert-adv-y="2007" 
d="M436 260q-128 0 -213.5 82.5t-85.5 206.5q0 120 87.5 205.5t211.5 85.5t212.5 -85.5t88.5 -205.5q0 -123 -86 -206t-215 -83z" />
    <glyph glyph-name="ellipsis" unicode="&#x2026;" horiz-adv-x="1155" vert-adv-y="2007" 
d="M229 -45q-38 0 -65 26t-27 64q0 37 27 63.5t65 26.5t65.5 -26.5t27.5 -63.5q0 -38 -27 -64t-66 -26zM578 -45q-39 0 -66 26t-27 64q0 37 27.5 63.5t65.5 26.5t65 -26.5t27 -63.5q0 -38 -27 -64t-65 -26zM926 -45q-38 0 -65 26t-27 64q0 37 27 63.5t65 26.5t65 -26.5
t27 -63.5q0 -38 -27 -64t-65 -26z" />
    <glyph glyph-name="perthousand" unicode="&#x2030;" horiz-adv-x="2650" vert-adv-y="2007" 
d="M508 713q-154 0 -262.5 104.5t-108.5 253.5q0 154 106.5 258.5t264.5 104.5q159 0 265 -104t106 -259q0 -151 -108 -254.5t-263 -103.5zM1550 1413l-1108 -1454h-149l1108 1454h149zM508 834q106 0 179 68.5t73 168.5q0 103 -73 174.5t-179 71.5q-105 0 -179.5 -72
t-74.5 -174q0 -98 75 -167.5t179 -69.5zM1364 -61q-154 0 -262.5 104.5t-108.5 253.5q0 154 106.5 258t264.5 104q160 0 265.5 -103.5t105.5 -258.5q0 -151 -108 -254.5t-263 -103.5zM2142 -61q-154 0 -262 104.5t-108 253.5q0 154 106 258t264 104q160 0 265.5 -103.5
t105.5 -258.5q0 -151 -108 -254.5t-263 -103.5zM1364 59q106 0 179 69t73 169q0 103 -73 174.5t-179 71.5q-105 0 -179.5 -72t-74.5 -174q0 -98 75 -168t179 -70zM2142 59q106 0 179 69t73 169q0 103 -73 174.5t-179 71.5q-105 0 -179.5 -72t-74.5 -174q0 -98 75 -168
t179 -70z" />
    <glyph glyph-name="guilsinglleft" unicode="&#x2039;" horiz-adv-x="534" vert-adv-y="2007" 
d="M207 537l303 -406h-154l-299 406l299 405h154z" />
    <glyph glyph-name="guilsinglright" unicode="&#x203a;" horiz-adv-x="534" vert-adv-y="2007" 
d="M477 537l-299 -406h-153l303 406l-303 405h153z" />
    <glyph glyph-name="fraction" unicode="&#x2044;" horiz-adv-x="507" vert-adv-y="2007" 
d="M883 1413l-1108 -1454h-150l1108 1454h150z" />
    <glyph glyph-name="Euro" unicode="&#x20ac;" horiz-adv-x="1757" vert-adv-y="2007" 
d="M1049 -59q-209 0 -356.5 137t-198.5 377h-265v123h246q-6 46 -6 108q0 14 1 43t1 43h-242v123h258q47 250 197.5 394.5t364.5 144.5q211 0 362.5 -144t192.5 -385l-117 -43q-38 212 -154 330.5t-284 118.5q-161 0 -275.5 -110.5t-157.5 -305.5h617l-37 -123h-598
q0 -13 -1 -42t-1 -44q0 -50 6 -108h545l-31 -123h-493q44 -185 156.5 -288.5t269.5 -103.5q168 0 284 116t154 325l121 -37q-44 -243 -195 -384.5t-364 -141.5z" />
    <glyph glyph-name="uni2116" unicode="&#x2116;" horiz-adv-x="2662" vert-adv-y="2007" 
d="M2052 666q-160 0 -270.5 111.5t-110.5 273.5q0 161 110.5 272t270.5 111q163 0 272 -110t109 -273q0 -164 -109 -274.5t-272 -110.5zM356 1180v-1221h-127v1454h107l973 -1220v1220h127v-1454h-107zM2052 788q109 0 182.5 75.5t73.5 187.5q0 110 -73.5 185t-182.5 75
q-106 0 -180 -75.5t-74 -184.5q0 -110 74 -186.5t180 -76.5zM2413 537v-123h-721v123h721z" />
    <glyph glyph-name="uni2117" unicode="&#x2117;" horiz-adv-x="1736" vert-adv-y="2007" 
d="M868 -61q-156 0 -294 57.5t-237 156t-156.5 236.5t-57.5 293q0 157 57.5 296t156.5 239t237 158.5t294 58.5q208 0 379 -99t269 -271.5t98 -381.5q0 -207 -98 -377.5t-269 -268t-379 -97.5zM868 61q173 0 315.5 82t224 224.5t81.5 316.5q0 175 -81.5 319.5t-224 227
t-315.5 82.5t-315.5 -82.5t-223.5 -227t-81 -319.5q0 -174 81 -316.5t223.5 -224.5t315.5 -82zM705 526v-282h-123v856h352q143 0 232 -80t89 -207t-89 -207t-232 -80h-229zM934 983h-229v-340h229q91 0 145 46t54 124t-54 124t-145 46z" />
    <glyph glyph-name="trademark" unicode="&#x2122;" horiz-adv-x="1406" vert-adv-y="2007" 
d="M422 1296v-497h-123v497h-203v117h529v-117h-203zM766 1118v-319h-121v614h105l219 -420l219 420h102v-614h-121v319l-161 -315h-80z" />
    <glyph glyph-name="minus" unicode="&#x2212;" horiz-adv-x="1298" vert-adv-y="2007" 
d="M1120 686v-123h-942v123h942z" />
    <glyph glyph-name="approxequal" unicode="&#x2248;" horiz-adv-x="1298" vert-adv-y="2007" 
d="M885 694q-51 0 -101.5 13t-76 24t-72.5 35q-38 21 -61.5 31.5t-60 20t-75.5 9.5q-59 0 -117 -21.5t-81 -53.5l-62 24v80q38 41 111 67.5t149 26.5q48 0 97 -12t77.5 -25t69.5 -34q91 -44 131 -54q35 -8 72 -8q64 0 125 28t69 60l41 -6v-137q-46 -31 -110.5 -49.5
t-124.5 -18.5zM885 346q-51 0 -101.5 13t-76 24t-72.5 35q-38 21 -61.5 31.5t-60 20t-75.5 9.5q-59 0 -117 -22t-81 -54l-62 25v80q38 41 111 67.5t149 26.5q48 0 97 -12.5t77 -25t70 -34.5q48 -23 67.5 -32t58.5 -19t77 -10q64 0 125 28t69 60l41 -6v-137
q-46 -31 -110.5 -49.5t-124.5 -18.5z" />
    <glyph glyph-name="notequal" unicode="&#x2260;" horiz-adv-x="1298" vert-adv-y="2007" 
d="M561 399l-151 -225h-152l152 225h-232v123h316l161 246h-477v123h561l152 225h151l-151 -225h229v-123h-313l-162 -246h475v-123h-559z" />
    <glyph glyph-name="lessequal" unicode="&#x2264;" horiz-adv-x="958" vert-adv-y="2007" 
d="M299 666l563 -238v-137l-786 334v82l786 333v-137zM862 276v-122h-778v122h778z" />
    <glyph glyph-name="greaterequal" unicode="&#x2265;" horiz-adv-x="958" vert-adv-y="2007" 
d="M883 707v-82l-787 -334v137l563 238l-563 237v137zM874 276v-122h-778v122h778z" />
    <glyph glyph-name="_Fontastica" horiz-adv-x="1603" vert-adv-y="2007" 
d="M385 535v-349h-201q-3 0 -4.5 2t-1.5 4v3v1206h905v-178h-698v-502h698v-186h-698zM1425 1401v-1215h-905v189h699v493h-699v193h699v340h206zM365 -2q-31 0 -51.5 20t-20.5 52q0 30 20.5 49.5t51.5 19.5t52 -19.5t21 -49.5q0 -31 -20.5 -51.5t-52.5 -20.5zM911 -2
q-32 0 -61 22l14 29q6 -7 21 -13.5t26 -6.5q3 0 9 1l6 1q4 4 4 8q0 6 -4 8q-10 7 -23 10q-10 2 -24 9q-8 0 -15 10q-6 9 -6 20q0 21 16 32t37 11q28 0 56 -14l-15 -29q-22 15 -41 15q-16 0 -16 -11q0 -8 25 -16q17 -3 24 -8q6 -2 17 -13q6 -9 6 -22q0 -20 -17 -31.5
t-39 -11.5zM1227 -2q-29 0 -49.5 20.5t-20.5 51.5q0 30 20.5 49.5t51.5 19.5q35 0 53 -24l-20 -25q-13 19 -33 19q-15 0 -26 -10.5t-11 -30.5q0 -13 4 -19q12 -18 33 -18q19 0 33 14l22 -20q-31 -27 -57 -27zM219 49v-47h-35v135h101v-28h-66v-31h60v-29h-60zM489 82v-80
h-34v135h30l64 -82l-2 82h35v-135h-31zM670 109v-107h-33v107h-41v28h117v-28h-43zM743 25l-10 -23h-35l58 135h35l57 -135h-37l-10 23h-58zM1049 109v-107h-37v107h-39v28h114v-28h-38zM1139 137v-135h-35v135h35zM1327 25l-8 -23h-37l57 135h37l58 -135h-39l-9 23h-59z
M365 29q16 0 26 12t10 27q0 8 -4 20q-9 21 -30 21q-17 0 -28 -11.5t-11 -27.5q0 -15 11 -28t26 -13zM791 51l-17 49l-20 -49h37zM1376 51l-18 49l-19 -49h37z" />
    <glyph glyph-name="_VendorID" horiz-adv-x="1261" vert-adv-y="2007" 
d="M854 791q-106 0 -172 55t-55 131h75q-17 -44 30 -80.5t122 -36.5q63 0 107.5 27t44.5 67q0 70 -160 95q-205 30 -205 155q0 69 59.5 113.5t147.5 44.5q98 0 161.5 -53t51.5 -125h-76q19 41 -24 73.5t-113 32.5q-58 0 -96.5 -24t-38.5 -60q0 -66 143 -88
q108 -15 164.5 -57t56.5 -107q0 -70 -63.5 -116.5t-159.5 -46.5zM582 1040h-332v-237h-72v547h424v-70h-352v-168h332v-72zM1077 311q0 -71 -63 -117.5t-160 -46.5q-104 0 -170.5 54.5t-56.5 130.5h75q-17 -43 30 -78t122 -35q63 0 107.5 26t44.5 64q0 73 -156 97
q-102 13 -155.5 53t-53.5 102q0 69 59.5 113.5t149.5 44.5q98 0 160.5 -53t50.5 -125h-76q19 40 -24 73t-111 33q-57 0 -97 -24.5t-40 -59.5q0 -32 36.5 -54.5t104.5 -31.5q223 -35 223 -166zM602 637h-352v-168h332v-72h-332v-239h-72v549h424v-70zM459 117q-2 -2 -2 -4v-2
h12v-11h-12v-37h-13v37h-6v9l6 2v4q0 7 7 10q0 4 10 4t14 -2l-4 -10q-4 2 -8 2t-4 -2zM768 129q6 0 6 -6v-6h-6q-8 0 -8 6t8 6zM594 121h8v-10h14v-11h-14v-22q0 -1 1 -2t1 -2h4h8v-11q-2 0 -5.5 -1t-6.5 -1q-2 0 -12 5q-4 4 -4 12v22h-4v6l6 5zM729 121h8v-10h15v-11h-15
v-22q0 -2 2 -4h13v-11q-1 0 -6 -1t-7 -1q-7 0 -12 5q-2 2 -2 12v22h-8v6l8 5zM647 113q3 0 15 -4q4 -8 4 -15v-31h-11l-2 5q-1 0 -6 -5q-2 -2 -10 -2l-10 5q-4 4 -4 12q0 7 6 10q4 4 16 4h6v2q0 8 -6 8q-4 0 -12 -4l-6 11q12 4 20 4zM852 113q6 0 14 -4q6 -6 6 -15v-31h-10
l-2 5l-6 -5q-2 -2 -8 -2q-2 0 -12 5q-5 2 -5 12q0 6 7 10q2 4 16 4h8v2q0 8 -8 8q-2 0 -14 -4l-4 11q12 4 18 4zM1077 109q6 -6 6 -15v-31h-14v29q0 4 -2 6q0 2 -6 2l-6 -2q-2 -2 -2 -12v-23h-15v29q0 2 -2 6q0 2 -4 2q-6 0 -8 -2q0 -2 -1 -6t-1 -8v-21h-12v48h10l2 -7
q2 5 4 5q4 2 10 2q12 0 15 -7h2q0 5 4 5l4 2h4q10 0 12 -2zM242 90l6 21h12l-12 -48h-17l-4 17l-4 20l-8 -37h-14l-15 48h15l4 -21l4 -16v8l2 6l4 23h16l5 -23q2 -2 2 -4v-4v-2v-4l2 8q0 1 1 4t1 4zM315 90l7 21h14l-17 -48h-12l-4 17l-4 20l-10 -37h-13l-14 48h12l7 -21
q0 -3 1 -8t1 -8l2 8v6l6 23h14l6 -23v-8q2 0 2 -2v-4q0 6 2 8v8zM391 90l6 21h13l-13 -48h-14l-4 17l-4 20h-2l-11 -37h-12l-12 48h12l4 -21q0 -3 1 -8t1 -8h2q0 6 2 8v6l5 23h16l4 -23q0 -1 1 -2t1 -2v-4v-2q2 -2 2 -4v8q0 1 1 4t1 4zM510 109q7 -7 8 -9q0 -2 1 -6.5
t1 -7.5q0 -9 -6 -18q-7 -7 -18 -7q-3 0 -13 5l-8 8v12q0 14 4 20q10 5 17 5q10 0 14 -2zM569 106q6 -3 6 -12v-31h-14v29v6q-2 2 -8 2q-4 0 -6 -2q-2 -4 -2 -14v-21h-15v48h11l2 -7q5 5 6 5q2 2 8 2q9 0 12 -5zM700 100h-6q-6 0 -6 -2t2 -2l10 -4l9 -4q0 -2 4 -6v-4
q0 -8 -4 -12q-10 -5 -17 -5q-6 0 -8 2q-5 0 -8 3v10q4 -2 8 -2q2 -2 8 -2q8 0 8 4v4h-4q-1 0 -3.5 1t-4.5 1l-6 4q-4 4 -4 6q-2 2 -2 6q0 8 6 11q2 2 14 2q13 0 17 -2l-4 -11q-2 2 -9 2zM774 63h-12v48h12v-48zM809 100q-10 0 -10 -14q0 -12 10 -12h6q2 0 6 4v-12
q-3 -3 -6 -3q-2 -2 -8 -2q-23 0 -23 25q0 9 7 20q10 5 18 5q10 0 14 -2l-4 -11q-1 0 -3 1t-3 1h-4zM932 100q-10 0 -10 -14q0 -12 10 -12h6q2 0 6 4v-12q-3 -3 -6 -3q-2 -2 -8 -2q-23 0 -23 25q0 11 6 20q10 5 19 5q8 0 14 -2l-4 -11q-1 0 -3 1t-3 1h-4zM987 109q7 -4 10 -9
q2 -4 2 -14t-8 -18q-7 -7 -16 -7q-5 0 -10 5q-9 4 -9 8q-4 8 -4 12q0 11 6 20q10 5 17 5q10 0 12 -2zM504 76q2 4 2 10q0 8 -2 12q-2 2 -8 2q-7 0 -7 -2q-2 -4 -2 -12q0 -6 2 -10q0 -2 7 -2q6 0 8 2zM983 76q2 4 2 10q0 8 -2 12q0 2 -8 2q-4 0 -6 -2q-2 -4 -2 -12
q0 -6 2 -10q2 -2 6 -2q8 0 8 2zM651 80v4h-2q-2 0 -5.5 -1t-4.5 -1q-2 0 -2 -4q0 -6 6 -6l6 2zM860 80v4h-6q-2 0 -4.5 -1t-3.5 -1q-2 0 -2 -4q0 -6 6 -6q1 0 3 1t3 1zM428 74q2 0 2 -6q0 -3 -2 -5l-4 -2q-4 0 -8 2v5v6q4 2 8 2t4 -2zM891 76q4 0 6 -2t2 -6q-2 -3 -2 -5
q-2 -2 -6 -2t-4 2l-2 5q0 6 2 6q0 2 4 2z" />
    </font>
</defs>
</svg>
