<?xml version="1.0" standalone="no"?>
<!DOCTYPE svg PUBLIC "-//W3C//DTD SVG 1.1//EN" "http://www.w3.org/Graphics/SVG/1.1/DTD/svg11.dtd" >
<svg xmlns="http://www.w3.org/2000/svg" xmlns:xlink="http://www.w3.org/1999/xlink" version="1.1">
<metadata>
Created by FontForge 20170731 at Sun Jan 23 15:08:58 2022
 By Aleksey,,,
Copyright (c) 2022 by Fontastica. All rights reserved.
</metadata>
<defs>
<font id="KrossNeueGrotesk-Bold" horiz-adv-x="1409" vert-adv-y="2048" >
  <font-face 
    font-family="Kross Neue Grotesk Bold"
    font-weight="700"
    font-stretch="normal"
    units-per-em="2048"
    panose-1="0 0 8 0 0 0 0 0 0 0"
    ascent="1638"
    descent="-410"
    x-height="1077"
    cap-height="1454"
    bbox="-422 -590 2603 2107"
    underline-thickness="102"
    underline-position="-307"
    unicode-range="U+000D-2265"
  />
<missing-glyph horiz-adv-x="1671" vert-adv-y="2007" 
d="M1341 1430v-1436h-1011v1436h1011zM1122 1286h-573l287 -434zM1184 1096l-252 -383l252 -385v768zM741 713l-254 381v-764zM1122 141l-284 430l-287 -430h571z" />
    <glyph glyph-name="f_f.liga" unicode="ff" horiz-adv-x="1851" vert-adv-y="2007" 
d="M532 872v-954h-206v954h-195v205h195v125q0 179 101.5 287t268.5 108q145 0 252 -84l-100 -206q-30 86 -150 86q-80 0 -123 -49.5t-43 -141.5v-125h558v125q0 179 101.5 287t268.5 108q145 0 252 -84l-100 -206q-30 86 -150 86q-80 0 -123 -49.5t-43 -141.5v-125h424
v-205h-424v-954h-206v954h-558z" />
    <glyph glyph-name="f_t.liga" unicode="ft" horiz-adv-x="1857" vert-adv-y="2007" 
d="M1442 -102q-152 0 -249 98.5t-97 255.5v620h-564v-954h-206v954h-195v205h195v125q0 179 101.5 287t268.5 108q145 0 252 -84l-100 -206q-30 86 -150 86q-80 0 -123 -49.5t-43 -141.5v-125h564v336h207v-336h389v-205h-389v-620q0 -70 37.5 -110t103.5 -40q50 0 90 27
t90 94l127 -166q-125 -159 -309 -159z" />
    <glyph glyph-name="t_t.liga" unicode="tt" horiz-adv-x="1894" vert-adv-y="2007" 
d="M696 -102q-152 0 -249 98.5t-97 255.5v620h-219v205h219v336h207v-336h576v336h206v-336h390v-205h-390v-620q0 -70 38 -110t104 -40q50 0 90 27t90 94l127 -166q-125 -159 -309 -159q-152 0 -249 98.5t-97 255.5v620h-576v-620q0 -70 37.5 -110t103.5 -40q51 0 91 27
t90 94l127 -166q-125 -159 -310 -159z" />
    <glyph glyph-name=".notdef" horiz-adv-x="1671" vert-adv-y="2007" 
d="M1341 1430v-1436h-1011v1436h1011zM1122 1286h-573l287 -434zM1184 1096l-252 -383l252 -385v768zM741 713l-254 381v-764zM1122 141l-284 430l-287 -430h571z" />
    <glyph glyph-name=".null" horiz-adv-x="0" vert-adv-y="0" 
 />
    <glyph glyph-name="nonmarkingreturn" horiz-adv-x="682" 
 />
    <glyph glyph-name="NULL" horiz-adv-x="180" vert-adv-y="2007" 
 />
    <glyph glyph-name="NULL" horiz-adv-x="180" vert-adv-y="2007" 
 />
    <glyph glyph-name="CR" unicode="&#xd;" horiz-adv-x="180" vert-adv-y="2007" 
 />
    <glyph glyph-name="space" unicode=" " horiz-adv-x="712" vert-adv-y="2007" 
 />
    <glyph glyph-name="exclam" unicode="!" horiz-adv-x="692" vert-adv-y="2007" 
d="M451 1454v-1169h-207v1169h207zM346 -86q-55 0 -94 38.5t-39 92.5t39.5 92.5t93.5 38.5t93.5 -38.5t39.5 -92.5t-39 -92.5t-94 -38.5z" />
    <glyph glyph-name="quotedbl" unicode="&#x22;" horiz-adv-x="694" vert-adv-y="2007" 
d="M338 1454v-692h-207v692h207zM563 1454v-692h-207v692h207z" />
    <glyph glyph-name="numbersign" unicode="#" horiz-adv-x="1542" vert-adv-y="2007" 
d="M508 303l-100 -385h-215l100 385h-225l49 205h225l90 336h-229l61 205h219l105 405h215l-105 -405h336l105 405h215l-105 -405h230l-62 -205h-219l-90 -336h225l-49 -205h-225l-101 -385h-215l101 385h-336zM983 844h-336l-90 -336h336z" />
    <glyph glyph-name="dollar" unicode="$" horiz-adv-x="1353" vert-adv-y="2007" 
d="M788 -43v-244h-206v254q-210 34 -335.5 171.5t-121.5 330.5l215 63q-25 -130 41 -225t201 -129v436l-66 15q-342 83 -342 366q0 165 111.5 278t296.5 138v248h206v-252q190 -32 302 -157.5t108 -301.5l-205 -63q15 116 -39.5 198t-165.5 111v-416l72 -16
q185 -40 276 -132.5t91 -244.5q0 -174 -119.5 -290t-319.5 -138zM578 831l4 -2v373q-94 -19 -145.5 -72.5t-51.5 -132.5q0 -68 41.5 -104t151.5 -62zM821 555l-33 8v-395q107 15 167.5 72t60.5 143q0 73 -43.5 111.5t-151.5 60.5z" />
    <glyph glyph-name="percent" unicode="%" horiz-adv-x="1941" vert-adv-y="2007" 
d="M543 672q-170 0 -291 116.5t-121 282.5q0 170 119.5 287t292.5 117q175 0 293 -116t118 -288q0 -167 -119.5 -283t-291.5 -116zM1663 1454l-1171 -1536h-250l1171 1536h250zM543 874q89 0 150 57t61 140q0 86 -61 145.5t-150 59.5t-151 -59.5t-62 -145.5
q0 -82 62.5 -139.5t150.5 -57.5zM1399 -102q-170 0 -291 116.5t-121 282.5q0 170 119.5 286.5t292.5 116.5q175 0 293 -115.5t118 -287.5q0 -167 -119.5 -283t-291.5 -116zM1399 100q89 0 150 57t61 140q0 86 -61 145.5t-150 59.5t-151 -59.5t-62 -145.5q0 -82 62.5 -139.5
t150.5 -57.5z" />
    <glyph glyph-name="ampersand" unicode="&#x26;" horiz-adv-x="1658" vert-adv-y="2007" 
d="M1319 264l303 -237l-123 -162l-293 233q-94 -97 -220 -148.5t-269 -51.5q-245 0 -398 128.5t-153 335.5q0 128 65.5 241t180.5 185q-86 128 -86 265q0 185 123 303.5t315 118.5q202 0 325 -129t123 -342l-202 -62q7 164 -56 247t-192 83q-104 0 -167 -59.5t-63 -157.5
q0 -56 20 -105t72.5 -107.5t115.5 -113.5t178 -147l233 -187q35 92 35 209v156h205v-156q0 -190 -72 -340zM717 100q196 0 325 123l-249 201q-150 116 -246 209q-176 -99 -176 -271q0 -120 93.5 -191t252.5 -71z" />
    <glyph glyph-name="quotesingle" unicode="'" horiz-adv-x="468" vert-adv-y="2007" 
d="M338 1454v-692h-207v692h207z" />
    <glyph glyph-name="parenleft" unicode="(" horiz-adv-x="874" vert-adv-y="2007" 
d="M760 -137l-146 -144q-462 392 -462 965q0 583 466 967l138 -152q-206 -175 -301 -370t-95 -445q0 -252 96.5 -450t303.5 -371z" />
    <glyph glyph-name="parenright" unicode=")" horiz-adv-x="874" vert-adv-y="2007" 
d="M260 -281l-145 144q207 173 303 371t96 450q0 250 -94.5 445t-300.5 370l137 152q467 -385 467 -967q0 -572 -463 -965z" />
    <glyph glyph-name="asterisk" unicode="*" horiz-adv-x="1011" vert-adv-y="2007" 
d="M608 954v-249h-205v249l-217 -120l-110 170l223 129l-223 127l110 170l217 -121v247h205v-247l217 121l111 -170l-223 -127l223 -129l-111 -170z" />
    <glyph glyph-name="plus" unicode="+" horiz-adv-x="1368" vert-adv-y="2007" 
d="M786 522v-409h-204v409h-410v205h410v410h204v-410h410v-205h-410z" />
    <glyph glyph-name="comma" unicode="," horiz-adv-x="524" vert-adv-y="2007" 
d="M418 240l-187 -592h-208l192 692h203v-100z" />
    <glyph glyph-name="hyphen" unicode="-" horiz-adv-x="1077" vert-adv-y="2007" 
d="M946 625v-205h-815v205h815z" />
    <glyph glyph-name="period" unicode="." horiz-adv-x="528" vert-adv-y="2007" 
d="M264 -86q-55 0 -94 38.5t-39 92.5t39.5 92.5t93.5 38.5t93.5 -38.5t39.5 -92.5t-39 -92.5t-94 -38.5z" />
    <glyph glyph-name="slash" unicode="/" horiz-adv-x="831" vert-adv-y="2007" 
d="M846 1597l-645 -1826h-215l645 1826h215z" />
    <glyph glyph-name="zero" unicode="0" horiz-adv-x="1519" vert-adv-y="2007" 
d="M760 -102q-184 0 -327.5 99t-222.5 278.5t-79 410.5t79 410.5t222.5 279t327.5 99.5t327.5 -99.5t222.5 -279t79 -410.5t-79 -410.5t-222.5 -278.5t-327.5 -99zM760 104q189 0 304.5 159t115.5 423q0 265 -115.5 424.5t-304.5 159.5t-304.5 -159.5t-115.5 -424.5
q0 -264 115.5 -423t304.5 -159z" />
    <glyph glyph-name="one" unicode="1" horiz-adv-x="866" vert-adv-y="2007" 
d="M735 1454v-1536h-209v1247l-395 -239v248l473 280h131z" />
    <glyph glyph-name="two" unicode="2" horiz-adv-x="1339" vert-adv-y="2007" 
d="M1208 123v-205h-1077v145l543 484q96 83 146 130.5t90.5 100t54.5 99t14 106.5q0 132 -84 209.5t-227 77.5q-170 0 -257 -114.5t-53 -299.5l-217 27q-14 170 48.5 305t188 211t290.5 76q230 0 374 -137t144 -355q0 -61 -11 -115.5t-36.5 -106t-53 -93t-75.5 -92.5
t-88.5 -89.5t-106.5 -97.5l-303 -266h696z" />
    <glyph glyph-name="three" unicode="3" horiz-adv-x="1368" vert-adv-y="2007" 
d="M705 -102q-255 0 -413 152.5t-161 400.5l209 55q-13 -184 86 -294t279 -110q151 0 238 73.5t87 199.5q0 111 -83.5 172t-237.5 61h-187v203h185q136 0 213 57t77 156q0 113 -83 179.5t-224 66.5q-163 0 -251 -98.5t-79 -270.5l-210 53q3 232 153 376.5t389 144.5
q227 0 369.5 -125.5t142.5 -325.5q0 -192 -147 -305q180 -117 180 -342q0 -212 -148.5 -345.5t-383.5 -133.5z" />
    <glyph glyph-name="four" unicode="4" horiz-adv-x="1527" vert-adv-y="2007" 
d="M1139 301v-383h-209v383h-799v168l846 985h162v-948h258v-205h-258zM930 506v571l-490 -571h490z" />
    <glyph glyph-name="five" unicode="5" horiz-adv-x="1366" vert-adv-y="2007" 
d="M694 -102q-266 0 -425 172t-136 440l217 41q-37 -200 59.5 -324.5t284.5 -124.5q155 0 244.5 77.5t89.5 211.5q0 131 -75 193.5t-236 62.5h-494l51 807h918v-205h-723l-25 -397h275q244 0 380 -121.5t136 -339.5q0 -219 -150.5 -356t-390.5 -137z" />
    <glyph glyph-name="six" unicode="6" horiz-adv-x="1402" vert-adv-y="2007" 
d="M731 -102q-285 0 -442.5 193t-157.5 542q0 395 162 618.5t450 223.5q203 0 340 -115.5t160 -308.5l-207 -41q-6 123 -84.5 191.5t-210.5 68.5q-327 0 -391 -441q77 66 176 102t205 36q236 0 388.5 -150t152.5 -383q0 -235 -152.5 -385.5t-388.5 -150.5zM731 104
q149 0 241.5 91t92.5 239q0 146 -92.5 236t-241.5 90q-154 0 -254 -93.5t-100 -238.5q0 -141 99.5 -232.5t254.5 -91.5z" />
    <glyph glyph-name="seven" unicode="7" horiz-adv-x="1329" vert-adv-y="2007" 
d="M1198 1331l-633 -1413h-229l602 1331h-807v205h1067v-123z" />
    <glyph glyph-name="eight" unicode="8" horiz-adv-x="1406" vert-adv-y="2007" 
d="M707 -102q-257 0 -416.5 125t-159.5 329q0 117 54 210t155 153q-174 117 -174 329q0 194 149 312.5t392 118.5q238 0 386 -119.5t148 -311.5q0 -103 -44.5 -187.5t-127.5 -141.5q100 -59 153.5 -152.5t53.5 -210.5q0 -202 -157.5 -328t-411.5 -126zM705 817
q150 0 239.5 62t89.5 165q0 102 -88.5 164t-238.5 62q-153 0 -243.5 -62t-90.5 -164q-2 -101 90 -164t242 -63zM705 106q163 0 260.5 67.5t97.5 178.5q0 113 -96 180.5t-260 67.5t-263.5 -68.5t-99.5 -179.5t98.5 -178.5t262.5 -67.5z" />
    <glyph glyph-name="nine" unicode="9" horiz-adv-x="1402" vert-adv-y="2007" 
d="M659 -102q-203 0 -339.5 115.5t-159.5 308.5l207 40q6 -123 84.5 -191.5t210.5 -68.5q327 0 391 441q-76 -66 -175.5 -101.5t-205.5 -35.5q-236 0 -388.5 149.5t-152.5 382.5q0 235 152.5 386t388.5 151q285 0 442.5 -193.5t157.5 -542.5q0 -395 -162.5 -618t-450.5 -223
zM672 612q154 0 254 93.5t100 238.5q0 141 -99.5 232.5t-254.5 91.5q-149 0 -241.5 -91t-92.5 -239q0 -146 92.5 -236t241.5 -90z" />
    <glyph glyph-name="colon" unicode=":" horiz-adv-x="528" vert-adv-y="2007" 
d="M264 717q-55 0 -94 38.5t-39 92.5t39.5 92.5t93.5 38.5t93.5 -38.5t39.5 -92.5t-39 -92.5t-94 -38.5zM264 -86q-55 0 -94 38.5t-39 92.5t39.5 92.5t93.5 38.5t93.5 -38.5t39.5 -92.5t-39 -92.5t-94 -38.5z" />
    <glyph glyph-name="semicolon" unicode=";" horiz-adv-x="573" vert-adv-y="2007" 
d="M309 717q-55 0 -94 38.5t-39 92.5t39.5 92.5t93.5 38.5t93.5 -38.5t39.5 -92.5t-39 -92.5t-94 -38.5zM418 240l-187 -592h-208l192 692h203v-100z" />
    <glyph glyph-name="less" unicode="&#x3c;" horiz-adv-x="1048" vert-adv-y="2007" 
d="M399 625l559 -279v-227l-888 444v123l888 444v-227z" />
    <glyph glyph-name="equal" unicode="=" horiz-adv-x="1368" vert-adv-y="2007" 
d="M1196 932v-205h-1024v205h1024zM1196 563v-205h-1024v205h1024z" />
    <glyph glyph-name="greater" unicode="&#x3e;" horiz-adv-x="1048" vert-adv-y="2007" 
d="M979 686v-123l-889 -444v227l559 279l-559 278v227z" />
    <glyph glyph-name="question" unicode="?" horiz-adv-x="1224" vert-adv-y="2007" 
d="M700 498v-213h-208v407h104q145 0 238.5 82.5t93.5 208.5q0 132 -84.5 209.5t-227.5 77.5q-168 0 -254.5 -116.5t-52.5 -303.5l-217 22q-13 129 20 241t102.5 191.5t173.5 125t228 45.5q230 0 374.5 -137t144.5 -355q0 -187 -121 -320.5t-314 -164.5zM596 -86
q-55 0 -94 38.5t-39 92.5t39.5 92.5t93.5 38.5t93.5 -38.5t39.5 -92.5t-39 -92.5t-94 -38.5z" />
    <glyph glyph-name="at" unicode="@" horiz-adv-x="2177" vert-adv-y="2007" 
d="M1061 -315q-185 0 -350 69.5t-283 188.5t-187 285.5t-69 353.5q0 189 70.5 355t192 284t292.5 186t365 68q154 0 295 -43t252.5 -122.5t194 -187t127 -243t44.5 -283.5q0 -245 -103 -390t-278 -145q-86 0 -154.5 35t-107.5 97q-133 -117 -313 -117q-206 0 -344 141.5
t-138 353.5q0 213 138 355.5t344 142.5q148 0 272 -84v64h205v-711q0 -37 24.5 -57.5t71.5 -20.5q80 0 128 91t48 247q0 193 -90.5 347.5t-252 241.5t-363.5 87q-203 0 -366 -88.5t-255 -246.5t-92 -355q0 -145 52.5 -274t142.5 -221.5t216.5 -146t268.5 -53.5
q153 0 306 51.5t191 118.5l113 -186q-82 -79 -258 -133.5t-350 -54.5zM1051 276q120 0 195 82.5t75 214.5q0 129 -75 210t-195 81q-123 0 -201 -81t-78 -210q0 -131 78 -214t201 -83z" />
    <glyph glyph-name="A" unicode="A" horiz-adv-x="1732" vert-adv-y="2007" 
d="M498 319l-187 -401h-229l715 1536h139l715 -1536h-230l-186 401h-737zM1139 524l-273 588l-272 -588h545z" />
    <glyph glyph-name="B" unicode="B" horiz-adv-x="1474" vert-adv-y="2007" 
d="M852 -82h-721v1536h670q224 0 357.5 -115t133.5 -309q0 -95 -35 -178.5t-98 -140.5q88 -56 136 -146t48 -200q0 -195 -138 -321t-353 -126zM801 1249h-461v-452h506q114 0 179 62t65 171q0 105 -75 162t-214 57zM846 592h-506v-469h512q129 0 206 66t77 176
q0 104 -78 165.5t-211 61.5z" />
    <glyph glyph-name="C" unicode="C" horiz-adv-x="1761" vert-adv-y="2007" 
d="M915 -102q-161 0 -306.5 61.5t-250 167t-166 251.5t-61.5 308t61.5 308.5t166 251.5t250 167t306.5 62q264 0 464 -137t274 -367l-195 -82q-43 173 -191.5 277t-351.5 104q-159 0 -291.5 -77t-208 -211t-75.5 -296t75.5 -296t208 -211t291.5 -77q202 0 348 101.5
t193 277.5l197 -73q-72 -233 -273 -371.5t-465 -138.5z" />
    <glyph glyph-name="D" unicode="D" horiz-adv-x="1595" vert-adv-y="2007" 
d="M616 -82h-485v1536h485q250 0 443 -96t299 -270.5t106 -401.5t-106 -401.5t-299 -270.5t-443 -96zM614 1249h-274v-1126h274q292 0 466.5 153.5t174.5 409.5t-174.5 409.5t-466.5 153.5z" />
    <glyph glyph-name="E" unicode="E" horiz-adv-x="1388" vert-adv-y="2007" 
d="M1257 123v-205h-1126v1536h1126v-205h-917v-456h856v-205h-856v-465h917z" />
    <glyph glyph-name="F" unicode="F" horiz-adv-x="1368" vert-adv-y="2007" 
d="M340 588v-670h-209v1536h1106v-205h-897v-456h836v-205h-836z" />
    <glyph glyph-name="G" unicode="G" horiz-adv-x="1806" vert-adv-y="2007" 
d="M913 -102q-161 0 -306 61.5t-249 167t-165.5 251.5t-61.5 308t61.5 308.5t165.5 251.5t249 167t306 62q268 0 468 -138t270 -372l-195 -76q-47 176 -193.5 278.5t-349.5 102.5q-120 0 -226 -45t-182 -122.5t-120.5 -186t-44.5 -230.5t44.5 -230.5t120.5 -186t182 -122.5
t226 -45q212 0 363.5 134t183.5 348h-717v204h932v-102q0 -222 -99 -402.5t-273.5 -283t-389.5 -102.5z" />
    <glyph glyph-name="H" unicode="H" horiz-adv-x="1509" vert-adv-y="2007" 
d="M340 590v-672h-209v1536h209v-659h829v659h209v-1536h-209v672h-829z" />
    <glyph glyph-name="I" unicode="I" horiz-adv-x="471" vert-adv-y="2007" 
d="M340 1454v-1536h-209v1536h209z" />
    <glyph glyph-name="J" unicode="J" horiz-adv-x="1382" vert-adv-y="2007" 
d="M688 -102q-242 0 -398.5 160t-162.5 415l207 64q-9 -195 88.5 -314t265.5 -119q161 0 257.5 111t96.5 297v942h209v-942q0 -272 -157 -443t-406 -171z" />
    <glyph glyph-name="K" unicode="K" horiz-adv-x="1640" vert-adv-y="2007" 
d="M340 549v-631h-209v1536h209v-629l782 629h322l-948 -770l1013 -766h-338z" />
    <glyph glyph-name="L" unicode="L" horiz-adv-x="1337" vert-adv-y="2007" 
d="M1206 123v-205h-1075v1536h209v-1331h866z" />
    <glyph glyph-name="M" unicode="M" horiz-adv-x="1857" vert-adv-y="2007" 
d="M338 930v-1012h-207v1536h172l627 -1214l624 1214h172v-1536h-206v1012l-521 -1012h-141z" />
    <glyph glyph-name="N" unicode="N" horiz-adv-x="1550" vert-adv-y="2007" 
d="M340 1063v-1145h-209v1536h166l913 -1145v1145h209v-1536h-166z" />
    <glyph glyph-name="O" unicode="O" horiz-adv-x="1816" vert-adv-y="2007" 
d="M909 -102q-161 0 -305 61.5t-248 166.5t-164.5 251t-60.5 309q0 162 61 308.5t165 251.5t248 167t304 62t304 -62t247.5 -167t164.5 -251.5t61 -308.5t-61 -308t-164.5 -251.5t-247.5 -167t-304 -61.5zM909 102q157 0 287.5 76.5t205.5 211t75 296.5t-75 296t-205.5 211
t-287.5 77q-119 0 -224.5 -45t-181 -123t-119.5 -186t-44 -230t44 -230t119.5 -186t181 -123t224.5 -45z" />
    <glyph glyph-name="P" unicode="P" horiz-adv-x="1431" vert-adv-y="2007" 
d="M340 508v-590h-209v1536h641q230 0 379 -133.5t149 -339.5t-149 -339.5t-379 -133.5h-432zM772 1249h-432v-536h432q145 0 232.5 73.5t87.5 194.5t-87.5 194.5t-232.5 73.5z" />
    <glyph glyph-name="Q" unicode="Q" horiz-adv-x="1837" vert-adv-y="2007" 
d="M1413 82l326 -385l-160 -133l-340 403q-153 -69 -330 -69q-161 0 -305 61.5t-248 166.5t-164.5 251t-60.5 309q0 162 61 308.5t165 251.5t248 167t304 62t304 -62t247.5 -167t164.5 -251.5t61 -308.5q0 -174 -71.5 -331.5t-201.5 -272.5zM909 102q157 0 287.5 76.5
t205.5 211t75 296.5t-75 296t-205.5 211t-287.5 77q-119 0 -224.5 -45t-181 -123t-119.5 -186t-44 -230t44 -230t119.5 -186t181 -123t224.5 -45z" />
    <glyph glyph-name="R" unicode="R" horiz-adv-x="1492" vert-adv-y="2007" 
d="M340 590v-672h-209v1536h694q218 0 353 -119.5t135 -312.5t-135 -312.5t-353 -119.5h31l606 -672h-282l-600 672h-240zM825 1249h-485v-454h485q129 0 204 61.5t75 165.5t-75 165.5t-204 61.5z" />
    <glyph glyph-name="S" unicode="S" horiz-adv-x="1441" vert-adv-y="2007" 
d="M756 -102q-183 0 -325.5 69.5t-222.5 196t-81 289.5l219 51q-26 -177 90 -289.5t322 -112.5q161 0 251.5 67.5t90.5 186.5q0 88 -45 129t-176 70l-330 80q-363 89 -363 391q0 198 149 323.5t384 125.5q243 0 400.5 -136t172.5 -360l-200 -70q-1 168 -102 264.5t-273 96.5
q-144 0 -231 -67t-87 -177q0 -80 48 -122.5t165 -67.5l303 -76q58 -13 104.5 -28.5t104 -47t96 -72.5t65 -106.5t26.5 -147.5q0 -207 -153 -333.5t-402 -126.5z" />
    <glyph glyph-name="T" unicode="T" horiz-adv-x="1597" vert-adv-y="2007" 
d="M905 1249v-1331h-213v1331h-561v205h1335v-205h-561z" />
    <glyph glyph-name="U" unicode="U" horiz-adv-x="1531" vert-adv-y="2007" 
d="M766 -102q-283 0 -459 190t-176 496v870h209v-870q0 -220 115.5 -350t310.5 -130t310.5 130t115.5 350v870h209v-870q0 -306 -176 -496t-459 -190z" />
    <glyph glyph-name="V" unicode="V" horiz-adv-x="1679" vert-adv-y="2007" 
d="M1591 1454l-676 -1536h-151l-676 1536h223l529 -1184l528 1184h223z" />
    <glyph glyph-name="W" unicode="W" horiz-adv-x="2256" vert-adv-y="2007" 
d="M1128 1049l-372 -1131h-158l-500 1536h221l361 -1112l367 1112h163l367 -1112l360 1112h222l-500 -1536h-158z" />
    <glyph glyph-name="X" unicode="X" horiz-adv-x="1556" vert-adv-y="2007" 
d="M778 524l-469 -606h-260l594 772l-573 764h260l448 -594l449 594h260l-576 -764l598 -772h-262z" />
    <glyph glyph-name="Y" unicode="Y" horiz-adv-x="1654" vert-adv-y="2007" 
d="M932 494v-576h-209v576l-668 960h254l518 -752l519 752h253z" />
    <glyph glyph-name="Z" unicode="Z" horiz-adv-x="1441" vert-adv-y="2007" 
d="M1311 123v-205h-1180v135l870 1196h-841v205h1151v-133l-873 -1198h873z" />
    <glyph glyph-name="bracketleft" unicode="[" horiz-adv-x="952" vert-adv-y="2007" 
d="M801 -45v-205h-578v1847h578v-204h-369v-1438h369z" />
    <glyph glyph-name="backslash" unicode="\" horiz-adv-x="831" vert-adv-y="2007" 
d="M201 1597l645 -1826h-215l-645 1826h215z" />
    <glyph glyph-name="bracketright" unicode="]" horiz-adv-x="952" vert-adv-y="2007" 
d="M729 1597v-1847h-577v205h368v1438h-368v204h577z" />
    <glyph glyph-name="asciicircum" unicode="^" horiz-adv-x="884" vert-adv-y="2007" 
d="M442 1178l-196 -275h-252l391 551h115l391 -551h-252z" />
    <glyph glyph-name="underscore" unicode="_" horiz-adv-x="1142" vert-adv-y="2007" 
d="M1094 -33v-205h-1045v205h1045z" />
    <glyph glyph-name="grave" unicode="`" vert-adv-y="2007" 
d="M750 2019l305 -442h-244l-309 442h248z" />
    <glyph glyph-name="a" unicode="a" horiz-adv-x="1439" vert-adv-y="2007" 
d="M721 -102q-255 0 -422.5 170.5t-167.5 429.5t167.5 429.5t422.5 170.5q222 0 381 -137v116h207v-1159h-207v117q-159 -137 -381 -137zM721 102q163 0 272 113.5t109 282.5t-109 282t-272 113q-169 0 -276 -111t-107 -284q0 -174 107.5 -285t275.5 -111z" />
    <glyph glyph-name="b" unicode="b" horiz-adv-x="1439" vert-adv-y="2007" 
d="M719 -102q-222 0 -381 137v-117h-207v1638h207v-595q159 137 381 137q255 0 422.5 -170.5t167.5 -429.5t-167.5 -429.5t-422.5 -170.5zM719 102q168 0 275.5 111t107.5 285q0 173 -107 284t-276 111q-163 0 -272 -113t-109 -282t109 -282.5t272 -113.5z" />
    <glyph glyph-name="c" unicode="c" horiz-adv-x="1378" vert-adv-y="2007" 
d="M719 -102q-253 0 -420.5 171t-167.5 429q0 167 77 304.5t212.5 216.5t298.5 79q213 0 362.5 -113t200.5 -313l-192 -70q-71 291 -371 291q-163 0 -272 -113t-109 -282q0 -172 107.5 -284t273.5 -112q300 0 371 291l192 -69q-51 -200 -200.5 -313t-362.5 -113z" />
    <glyph glyph-name="d" unicode="d" horiz-adv-x="1439" vert-adv-y="2007" 
d="M721 -102q-255 0 -422.5 170.5t-167.5 429.5t167.5 429.5t422.5 170.5q222 0 381 -137v595h207v-1638h-207v117q-159 -137 -381 -137zM721 102q163 0 272 113.5t109 282.5t-109 282t-272 113q-169 0 -276 -111t-107 -284q0 -174 107.5 -285t275.5 -111z" />
    <glyph glyph-name="e" unicode="e" horiz-adv-x="1417" vert-adv-y="2007" 
d="M713 -102q-161 0 -294.5 79t-210.5 216t-77 301q0 168 78.5 307t215.5 218t304 79q241 0 399 -160t158 -410v-102h-944q25 -142 128.5 -233t242.5 -91q140 0 232 66.5t130 196.5l193 -70q-57 -188 -203.5 -292.5t-351.5 -104.5zM358 631h707q-31 122 -120.5 192
t-215.5 70q-128 0 -229.5 -72t-141.5 -190z" />
    <glyph glyph-name="f" unicode="f" horiz-adv-x="1087" vert-adv-y="2007" 
d="M532 872v-954h-206v954h-195v205h195v125q0 179 101.5 287t268.5 108q145 0 252 -84l-100 -206q-30 86 -150 86q-80 0 -123 -49.5t-43 -141.5v-125h424v-205h-424z" />
    <glyph glyph-name="g" unicode="g" horiz-adv-x="1406" vert-adv-y="2007" 
d="M727 -471q-237 0 -391 111.5t-201 318.5l197 76q32 -155 127.5 -228t267.5 -73q157 0 249 88.5t93 240.5v31q-152 -121 -356 -121q-165 0 -298 73t-208.5 202t-75.5 289q0 241 165.5 400t416.5 159q204 0 356 -121v102h207v-1014q-2 -238 -154 -386t-395 -148zM713 178
q154 0 255 102t101 257q0 154 -100.5 254t-255.5 100q-166 0 -270.5 -98.5t-104.5 -255.5q0 -158 104.5 -258.5t270.5 -100.5z" />
    <glyph glyph-name="h" unicode="h" horiz-adv-x="1310" vert-adv-y="2007" 
d="M338 518v-600h-207v1638h207v-581q148 123 358 123q215 0 349.5 -142.5t134.5 -369.5v-668h-207v668q0 143 -72.5 225t-198.5 82q-169 0 -266.5 -101t-97.5 -274z" />
    <glyph glyph-name="i" unicode="i" horiz-adv-x="528" vert-adv-y="2007" 
d="M264 1169q-55 0 -94 38.5t-39 92.5t39.5 93t93.5 39t93.5 -39t39.5 -93t-39 -92.5t-94 -38.5zM369 1077v-1159h-207v1159h207z" />
    <glyph glyph-name="j" unicode="j" horiz-adv-x="542" vert-adv-y="2007" 
d="M279 1169q-55 0 -94.5 38.5t-39.5 92.5t40 93t94 39t93.5 -39t39.5 -93t-39 -92.5t-94 -38.5zM90 -451q-132 0 -227 95l98 188q25 -51 51.5 -64.5t73.5 -13.5q88 0 88 88v1235h207v-1235q0 -129 -81.5 -211t-209.5 -82z" />
    <glyph glyph-name="k" unicode="k" horiz-adv-x="1497" vert-adv-y="2007" 
d="M338 377v-459h-207v1638h207v-921l596 442h350l-772 -569l858 -590h-366z" />
    <glyph glyph-name="l" unicode="l" horiz-adv-x="468" vert-adv-y="2007" 
d="M338 1556v-1638h-207v1638h207z" />
    <glyph glyph-name="m" unicode="m" horiz-adv-x="1947" vert-adv-y="2007" 
d="M338 539v-621h-207v1159h207v-82q131 103 301 103q113 0 207.5 -45.5t152.5 -128.5q68 83 167 128.5t214 45.5q192 0 314.5 -120.5t122.5 -309.5v-750h-207v750q0 104 -63.5 164.5t-172.5 60.5q-138 0 -218.5 -95t-80.5 -259v-621h-207v750q0 104 -63 164.5t-170 60.5
q-137 0 -217 -95.5t-80 -258.5z" />
    <glyph glyph-name="n" unicode="n" horiz-adv-x="1310" vert-adv-y="2007" 
d="M338 518v-600h-207v1159h207v-102q148 123 358 123q215 0 349.5 -142.5t134.5 -369.5v-668h-207v668q0 143 -72.5 225t-198.5 82q-169 0 -266.5 -101t-97.5 -274z" />
    <glyph glyph-name="o" unicode="o" horiz-adv-x="1460" vert-adv-y="2007" 
d="M729 -102q-126 0 -237 46.5t-190 126t-125 191.5t-46 238t46 237t125 190t190 125t237 46t237.5 -46t191 -125t125.5 -190t46 -237t-46.5 -238t-126 -191.5t-190.5 -126t-237 -46.5zM729 102q170 0 281.5 113t111.5 285t-110.5 282.5t-282.5 110.5q-170 0 -280.5 -110.5
t-110.5 -282.5t111 -285t280 -113z" />
    <glyph glyph-name="p" unicode="p" horiz-adv-x="1439" vert-adv-y="2007" 
d="M338 35v-465h-207v1507h207v-116q159 137 381 137q255 0 422.5 -170.5t167.5 -429.5t-167.5 -429.5t-422.5 -170.5q-222 0 -381 137zM719 102q168 0 275.5 111t107.5 285q0 173 -107 284t-276 111q-163 0 -272 -113t-109 -282t109 -282.5t272 -113.5z" />
    <glyph glyph-name="q" unicode="q" horiz-adv-x="1439" vert-adv-y="2007" 
d="M1309 1077v-1507h-207v465q-159 -137 -381 -137q-255 0 -422.5 170.5t-167.5 429.5t167.5 429.5t422.5 170.5q222 0 381 -137v116h207zM721 102q163 0 272 113.5t109 282.5t-109 282t-272 113q-169 0 -276 -111t-107 -284q0 -174 107.5 -285t275.5 -111z" />
    <glyph glyph-name="r" unicode="r" horiz-adv-x="991" vert-adv-y="2007" 
d="M338 518v-600h-207v1159h207v-102q148 123 358 123q96 0 181 -31l-54 -199q-55 25 -121 25q-169 0 -266.5 -101t-97.5 -274z" />
    <glyph glyph-name="s" unicode="s" horiz-adv-x="1214" vert-adv-y="2007" 
d="M635 -102q-228 0 -369.5 119.5t-138.5 312.5l211 43q-29 -119 54.5 -196t242.5 -77q115 0 178.5 42t63.5 116q0 48 -32 73.5t-120 45.5l-256 57q-152 34 -226.5 110t-74.5 199q0 157 120.5 256t311.5 99q194 0 321.5 -105.5t147.5 -285.5l-207 -43q2 107 -68 168t-194 61
q-102 0 -163.5 -41t-61.5 -109q0 -46 31 -69.5t118 -42.5l242 -53q45 -11 80.5 -22.5t82.5 -37t78 -58t53.5 -85t22.5 -117.5q0 -161 -124 -260.5t-324 -99.5z" />
    <glyph glyph-name="t" unicode="t" horiz-adv-x="1112" vert-adv-y="2007" 
d="M696 -102q-152 0 -249 99.5t-97 254.5v620h-219v205h219v336h207v-336h389v-205h-389v-620q0 -70 37.5 -110t103.5 -40q50 0 92 28.5t89 94.5l125 -170q-124 -157 -308 -157z" />
    <glyph glyph-name="u" unicode="u" horiz-adv-x="1310" vert-adv-y="2007" 
d="M614 -102q-215 0 -349 142.5t-134 369.5v667h207v-667q0 -143 72 -225.5t198 -82.5q169 0 267 101t98 274v600h207v-1159h-207v102q-146 -122 -359 -122z" />
    <glyph glyph-name="v" unicode="v" horiz-adv-x="1415" vert-adv-y="2007" 
d="M1333 1077l-551 -1159h-149l-551 1159h233l394 -835l391 835h233z" />
    <glyph glyph-name="w" unicode="w" horiz-adv-x="1859" vert-adv-y="2007" 
d="M930 676l-268 -764h-168l-396 1167h221l261 -766l272 764h156l272 -764l260 766h221l-395 -1167h-168z" />
    <glyph glyph-name="x" unicode="x" horiz-adv-x="1335" vert-adv-y="2007" 
d="M668 342l-361 -424h-274l497 580l-497 579h274l361 -424l360 424h275l-498 -579l498 -580h-275z" />
    <glyph glyph-name="y" unicode="y" horiz-adv-x="1431" vert-adv-y="2007" 
d="M1350 1077l-727 -1507h-228l207 430l-520 1077h231l404 -837l405 837h228z" />
    <glyph glyph-name="z" unicode="z" horiz-adv-x="1263" vert-adv-y="2007" 
d="M1133 123v-205h-1002v148l666 806h-643v205h960v-147l-665 -807h684z" />
    <glyph glyph-name="braceleft" unicode="{" horiz-adv-x="1071" vert-adv-y="2007" 
d="M920 -45v-205h-207q-146 0 -238 93t-92 241v358q0 61 -32 95t-89 34h-110v205h110q57 0 89 34t32 95v359q0 148 92 240.5t238 92.5h207v-204h-207q-57 0 -89 -34t-32 -95v-359q0 -137 -84 -231q84 -94 84 -232v-358q0 -61 32 -95t89 -34h207z" />
    <glyph glyph-name="bar" unicode="|" horiz-adv-x="655" vert-adv-y="2007" 
d="M432 1597v-1826h-209v1826h209z" />
    <glyph glyph-name="braceright" unicode="}" horiz-adv-x="1071" vert-adv-y="2007" 
d="M358 -250h-206v205h206q57 0 89 34t32 95v358q0 138 84 232q-84 94 -84 231v359q0 61 -32 95t-89 34h-206v204h206q146 0 238 -92.5t92 -240.5v-359q0 -61 32 -95t89 -34h111v-205h-111q-57 0 -89 -34t-32 -95v-358q0 -148 -92 -241t-238 -93z" />
    <glyph glyph-name="asciitilde" unicode="~" horiz-adv-x="1105" vert-adv-y="2007" 
d="M741 416q-51 0 -103 20t-79 38t-67 50q-33 27 -48.5 38t-36 20.5t-40.5 9.5q-49 0 -60.5 -42.5t19.5 -125.5h-230q-31 159 47.5 267t223.5 108q41 0 77.5 -9t71.5 -30t51 -32.5t49 -37.5q46 -38 71.5 -52.5t53.5 -14.5q94 0 45 172h224q31 -159 -47.5 -269t-221.5 -110z
" />
    <glyph glyph-name="exclamdown" unicode="&#xa1;" horiz-adv-x="692" vert-adv-y="2007" 
d="M346 836q-54 0 -93.5 38.5t-39.5 92.5t39 92.5t94 38.5t94 -38.5t39 -92.5t-39.5 -92.5t-93.5 -38.5zM451 727v-1169h-207v1169h207z" />
    <glyph glyph-name="cent" unicode="&#xa2;" horiz-adv-x="1357" vert-adv-y="2007" 
d="M805 -96v-252h-207v256q-212 37 -344.5 200.5t-132.5 389.5q0 222 133 385.5t344 203.5v285h207v-282q177 -26 300.5 -141.5t145.5 -276.5l-204 -84q9 102 -59 183.5t-183 109.5v-768q115 23 181.5 99t57.5 177l205 -78q-20 -159 -142 -270.5t-302 -136.5zM598 117v762
q-122 -37 -196 -141.5t-74 -239.5q0 -139 73.5 -242.5t196.5 -138.5z" />
    <glyph glyph-name="sterling" unicode="&#xa3;" horiz-adv-x="1507" vert-adv-y="2007" 
d="M1376 123v-205h-1224v186l174 11v428h-174v205h174v221q0 223 144.5 364.5t371.5 141.5q248 0 395 -161.5t121 -406.5l-217 -53q35 189 -46.5 301.5t-252.5 112.5q-141 0 -224 -80.5t-83 -218.5v-221h608v-205h-608v-420h841z" />
    <glyph glyph-name="yen" unicode="&#xa5;" horiz-adv-x="1490" vert-adv-y="2007" 
d="M850 221v-303h-209v303h-426v205h426v41h-426v205h330l-527 782h250l477 -717l478 717h250l-527 -782h330v-205h-426v-41h426v-205h-426z" />
    <glyph glyph-name="section" unicode="&#xa7;" horiz-adv-x="1259" vert-adv-y="2007" 
d="M625 -369q-243 0 -378.5 136.5t-109.5 355.5l215 70q-38 -175 31.5 -266t239.5 -91q108 0 171.5 45t63.5 119q0 48 -27 79t-94 60l-344 158q-152 71 -221.5 152t-69.5 190q0 182 134 291q-52 79 -52 176q0 163 124 266t319 103q149 0 261 -62t167 -174t41 -254l-219 -72
q41 167 -25 262t-223 95q-110 0 -173 -44.5t-63 -119.5q0 -45 27 -76t94 -63l344 -158q152 -71 221.5 -152t69.5 -190q0 -183 -133 -291q51 -77 51 -176q0 -163 -123.5 -266t-318.5 -103zM852 313q88 45 88 150q0 48 -36 83t-132 77l-344 155q-7 2 -29 15q-88 -46 -88 -150
q0 -48 36 -83t132 -77l344 -155q24 -12 29 -15z" />
    <glyph glyph-name="dieresis" unicode="&#xa8;" vert-adv-y="2007" 
d="M518 1655q-55 0 -94 38.5t-39 92.5t39.5 92.5t93.5 38.5t93.5 -38.5t39.5 -92.5t-39 -92.5t-94 -38.5zM887 1655q-55 0 -94 38.5t-39 92.5t39.5 92.5t93.5 38.5t93.5 -38.5t39.5 -92.5t-39 -92.5t-94 -38.5z" />
    <glyph glyph-name="copyright" unicode="&#xa9;" horiz-adv-x="1806" vert-adv-y="2007" 
d="M903 -72q-158 0 -298.5 58.5t-240.5 158.5t-158.5 240t-58.5 297q0 159 58.5 300t159 242.5t241 160.5t297.5 59t297.5 -59t241 -160.5t159 -242.5t58.5 -300q0 -157 -58.5 -297t-158.5 -240t-240.5 -158.5t-298.5 -58.5zM903 72q171 0 310.5 80t219.5 220.5t80 311.5
q0 173 -80 315t-220 223t-310 81t-310 -81t-220 -223t-80 -315q0 -171 80 -311.5t219.5 -220.5t310.5 -80zM920 246q-188 0 -312.5 125.5t-124.5 314.5q0 187 124.5 311.5t312.5 124.5q163 0 281 -100.5t124 -245.5l-135 -39q-3 100 -83 171t-187 71q-124 0 -206.5 -83.5
t-82.5 -209.5q0 -128 82.5 -212.5t206.5 -84.5q107 0 187 72.5t83 173.5l135 -43q-15 -149 -131.5 -247.5t-273.5 -98.5z" />
    <glyph glyph-name="ordfeminine" unicode="&#xaa;" horiz-adv-x="1077" vert-adv-y="2007" 
d="M541 -14q-163 0 -264 105.5t-101 262.5t101 263t264 106q98 0 181 -47t130 -129v162h49v-709h-49v162q-47 -82 -130 -129t-181 -47zM541 35q134 0 222.5 93t88.5 226q0 132 -88.5 226t-222.5 94q-139 0 -226.5 -92t-87.5 -228t87.5 -227.5t226.5 -91.5z" />
    <glyph glyph-name="guillemotleft" unicode="&#xab;" horiz-adv-x="911" vert-adv-y="2007" 
d="M293 537l334 -447h-258l-328 447l328 446h258zM600 537l334 -447h-258l-328 447l328 446h258z" />
    <glyph glyph-name="registered" unicode="&#xae;" horiz-adv-x="1204" vert-adv-y="2007" 
d="M602 530q-189 0 -319.5 131t-130.5 320q0 192 129.5 322.5t320.5 130.5t321 -130.5t130 -322.5q0 -189 -131 -320t-320 -131zM725 920l147 -140q64 86 64 201q0 145 -95.5 241.5t-238.5 96.5t-238.5 -96.5t-95.5 -241.5q0 -143 96 -238.5t238 -95.5q151 0 248 105h-115
l-155 147h-45v-147h-115v481h207q86 0 138 -45.5t52 -120.5q0 -100 -92 -147zM625 1128h-93v-124h91q35 0 57 17.5t22 45.5t-20.5 44.5t-56.5 16.5z" />
    <glyph glyph-name="macron" unicode="&#xaf;" vert-adv-y="2007" 
d="M1042 1397v-199h-675v199h675z" />
    <glyph glyph-name="degree" unicode="&#xb0;" horiz-adv-x="993" vert-adv-y="2007" 
d="M498 834q-137 0 -232.5 93t-95.5 226q0 137 94.5 229.5t233.5 92.5q138 0 231.5 -92.5t93.5 -229.5q0 -134 -94.5 -226.5t-230.5 -92.5zM498 1036q51 0 85.5 33.5t34.5 83.5q0 53 -34 87t-86 34t-87.5 -35t-35.5 -86q0 -50 35.5 -83.5t87.5 -33.5z" />
    <glyph glyph-name="plusminus" unicode="&#xb1;" horiz-adv-x="1368" vert-adv-y="2007" 
d="M786 573v-389h-204v389h-410v205h410v389h204v-389h410v-205h-410zM1196 123v-205h-1024v205h1024z" />
    <glyph glyph-name="uni00B2" unicode="&#xb2;" horiz-adv-x="765" vert-adv-y="2007" 
d="M616 39v-39h-466v27l256 225l57 49q48 46 74 88.5t26 95.5q0 77 -50.5 122.5t-129.5 45.5q-85 0 -135.5 -50.5t-50.5 -133.5v-12l-43 6v8q3 98 65.5 160.5t163.5 62.5q98 0 159.5 -56.5t61.5 -152.5q0 -112 -108 -209q-12 -12 -35 -31.5t-27 -23.5l-207 -182h389z" />
    <glyph glyph-name="uni00B3" unicode="&#xb3;" horiz-adv-x="780" vert-adv-y="2007" 
d="M399 -10q-107 0 -174.5 63.5t-72.5 167.5l-2 8l43 9v-13q3 -90 58.5 -143t147.5 -53q82 0 135.5 42.5t53.5 118.5q0 72 -53 108t-134 36h-96v39h96q73 0 122.5 34t49.5 99q0 70 -51 108.5t-129 38.5q-85 0 -136 -48t-54 -130l-2 -10l-41 6v10q6 97 70 155t165 58
q93 0 156 -49t63 -139q0 -54 -28.5 -92.5t-77.5 -57.5q123 -42 123 -163q0 -95 -66.5 -149t-165.5 -54z" />
    <glyph glyph-name="acute" unicode="&#xb4;" vert-adv-y="2007" 
d="M1063 2019l-309 -442h-244l305 442h248z" />
    <glyph glyph-name="paragraph" unicode="&#xb6;" horiz-adv-x="1255" vert-adv-y="2007" 
d="M788 1454v-1536h-208v612h-21q-223 0 -366.5 132.5t-143.5 336.5q0 209 130 332t351 123h258zM1032 1454v-1536h-209v1536h209z" />
    <glyph glyph-name="periodcentered" unicode="&#xb7;" horiz-adv-x="528" vert-adv-y="2007" 
d="M264 418q-55 0 -94 38.5t-39 92.5t39.5 92.5t93.5 38.5t93.5 -38.5t39.5 -92.5t-39 -92.5t-94 -38.5z" />
    <glyph glyph-name="cedilla" unicode="&#xb8;" vert-adv-y="2007" 
d="M860 -571q-106 0 -171.5 65.5t-65.5 171.5q0 72 32.5 132.5t114.5 142.5l4 145h207l-4 -225q-93 -89 -121.5 -126t-28.5 -69q0 -23 5 -28t26 -5q7 0 47 11l101 26l61 -186q-96 -35 -134 -45t-73 -10z" />
    <glyph glyph-name="uni00B9" unicode="&#xb9;" horiz-adv-x="534" vert-adv-y="2007" 
d="M385 684v-684h-43v627l-192 -115v47l208 125h27z" />
    <glyph glyph-name="ordmasculine" unicode="&#xba;" horiz-adv-x="1091" vert-adv-y="2007" 
d="M545 -14q-161 0 -265 107t-104 263q0 155 104.5 261t264.5 106q161 0 265.5 -105.5t104.5 -261.5q0 -157 -104 -263.5t-266 -106.5zM545 35q140 0 230.5 92.5t90.5 228.5q0 135 -90.5 226.5t-230.5 91.5q-138 0 -228 -91.5t-90 -226.5q0 -137 89.5 -229t228.5 -92z" />
    <glyph glyph-name="guillemotright" unicode="&#xbb;" horiz-adv-x="911" vert-adv-y="2007" 
d="M563 537l-327 -447h-259l334 447l-334 446h259zM870 537l-327 -447h-258l333 447l-333 446h258z" />
    <glyph glyph-name="questiondown" unicode="&#xbf;" horiz-adv-x="1224" vert-adv-y="2007" 
d="M629 836q-54 0 -93.5 38.5t-39.5 92.5t39 92.5t94 38.5t94 -38.5t39 -92.5t-39.5 -92.5t-93.5 -38.5zM608 -463q-230 0 -374 137t-144 355q0 187 120.5 320.5t313.5 164.5v213h209v-408h-104q-145 0 -238.5 -82t-93.5 -208q0 -132 84 -209.5t227 -77.5q168 0 254.5 116.5
t52.5 303.5l218 -23q17 -172 -45 -309.5t-188 -215t-292 -77.5z" />
    <glyph glyph-name="Agrave" unicode="&#xc0;" horiz-adv-x="1552" vert-adv-y="2007" 
d="M750 2019l305 -442h-244l-309 442h248zM498 319l-187 -401h-229l715 1536h139l715 -1536h-230l-186 401h-737zM1139 524l-273 588l-272 -588h545z" />
    <glyph glyph-name="Aacute" unicode="&#xc1;" horiz-adv-x="1552" vert-adv-y="2007" 
d="M1063 2019l-309 -442h-244l305 442h248zM498 319l-187 -401h-229l715 1536h139l715 -1536h-230l-186 401h-737zM1139 524l-273 588l-272 -588h545z" />
    <glyph glyph-name="Acircumflex" unicode="&#xc2;" horiz-adv-x="1552" vert-adv-y="2007" 
d="M866 1778l-180 -201h-266l391 440h111l391 -440h-266zM498 319l-187 -401h-229l715 1536h139l715 -1536h-230l-186 401h-737zM1139 524l-273 588l-272 -588h545z" />
    <glyph glyph-name="Atilde" unicode="&#xc3;" horiz-adv-x="1552" vert-adv-y="2007" 
d="M958 1587q-86 0 -184 78q-46 39 -65 39q-9 0 -12 -8t0 -32.5t14 -70.5h-213q-32 129 30 221.5t179 92.5q86 0 184 -78q33 -26 44.5 -32.5t22.5 -6.5q23 0 0 115h207q32 -130 -29.5 -224t-177.5 -94zM498 319l-187 -401h-229l715 1536h139l715 -1536h-230l-186 401h-737z
M1139 524l-273 588l-272 -588h545z" />
    <glyph glyph-name="Adieresis" unicode="&#xc4;" horiz-adv-x="1552" vert-adv-y="2007" 
d="M682 1645q-55 0 -94 38.5t-39 92.5t39.5 92.5t93.5 38.5t93.5 -38.5t39.5 -92.5t-39 -92.5t-94 -38.5zM1051 1645q-55 0 -94 38.5t-39 92.5t39.5 92.5t93.5 38.5t93.5 -38.5t39.5 -92.5t-39 -92.5t-94 -38.5zM498 319l-187 -401h-229l715 1536h139l715 -1536h-230
l-186 401h-737zM1139 524l-273 588l-272 -588h545z" />
    <glyph glyph-name="Aring" unicode="&#xc5;" horiz-adv-x="1552" vert-adv-y="2007" 
d="M866 1567q-107 0 -184.5 76t-77.5 182t77.5 182t184.5 76t184.5 -76t77.5 -182t-77.5 -182t-184.5 -76zM866 1718q47 0 80 30.5t33 76.5q0 45 -32.5 75.5t-80.5 30.5t-80 -30t-32 -76t32.5 -76.5t79.5 -30.5zM498 319l-187 -401h-229l715 1536h139l715 -1536h-230
l-186 401h-737zM1139 524l-273 588l-272 -588h545z" />
    <glyph glyph-name="AE" unicode="&#xc6;" horiz-adv-x="2023" vert-adv-y="2007" 
d="M498 319l-187 -401h-229l715 1536h1114v-205h-918v-456h856v-205h-856v-465h918v-205h-1127v401h-286zM784 524v410l-190 -410h190z" />
    <glyph glyph-name="Ccedilla" unicode="&#xc7;" horiz-adv-x="1761" vert-adv-y="2007" 
d="M860 -571q-106 0 -171.5 65.5t-65.5 171.5q0 66 27.5 123t94.5 127q-269 59 -441.5 274t-172.5 496q0 162 61.5 308.5t166 251.5t250 167t306.5 62q264 0 464 -137t274 -367l-195 -82q-43 173 -191.5 277t-351.5 104q-159 0 -291.5 -77t-208 -211t-75.5 -296t75.5 -296
t208 -211t291.5 -77q202 0 348 101.5t193 277.5l197 -73q-67 -220 -246 -354t-430 -154v-39q-93 -89 -121.5 -126t-28.5 -69q0 -23 5 -28t26 -5q7 0 47 11l101 26l61 -186q-96 -35 -134 -45t-73 -10z" />
    <glyph glyph-name="Egrave" unicode="&#xc8;" horiz-adv-x="1208" vert-adv-y="2007" 
d="M750 2019l305 -442h-244l-309 442h248zM1257 123v-205h-1126v1536h1126v-205h-917v-456h856v-205h-856v-465h917z" />
    <glyph glyph-name="Eacute" unicode="&#xc9;" horiz-adv-x="1208" vert-adv-y="2007" 
d="M1063 2019l-309 -442h-244l305 442h248zM1257 123v-205h-1126v1536h1126v-205h-917v-456h856v-205h-856v-465h917z" />
    <glyph glyph-name="Ecircumflex" unicode="&#xca;" horiz-adv-x="1208" vert-adv-y="2007" 
d="M715 1778l-180 -201h-267l391 440h111l391 -440h-266zM1257 123v-205h-1126v1536h1126v-205h-917v-456h856v-205h-856v-465h917z" />
    <glyph glyph-name="Edieresis" unicode="&#xcb;" horiz-adv-x="1208" vert-adv-y="2007" 
d="M518 1655q-55 0 -94 38.5t-39 92.5t39.5 92.5t93.5 38.5t93.5 -38.5t39.5 -92.5t-39 -92.5t-94 -38.5zM887 1655q-55 0 -94 38.5t-39 92.5t39.5 92.5t93.5 38.5t93.5 -38.5t39.5 -92.5t-39 -92.5t-94 -38.5zM1257 123v-205h-1126v1536h1126v-205h-917v-456h856v-205h-856
v-465h917z" />
    <glyph glyph-name="Igrave" unicode="&#xcc;" horiz-adv-x="290" vert-adv-y="2007" 
d="M207 1995l305 -443h-244l-309 443h248zM340 1454v-1536h-209v1536h209z" />
    <glyph glyph-name="Iacute" unicode="&#xcd;" horiz-adv-x="290" vert-adv-y="2007" 
d="M565 2019l-309 -442h-244l305 442h248zM340 1454v-1536h-209v1536h209z" />
    <glyph glyph-name="Icircumflex" unicode="&#xce;" horiz-adv-x="290" vert-adv-y="2007" 
d="M236 1778l-181 -201h-266l391 440h111l391 -440h-266zM340 1454v-1536h-209v1536h209z" />
    <glyph glyph-name="Idieresis" unicode="&#xcf;" horiz-adv-x="290" vert-adv-y="2007" 
d="M51 1665q-55 0 -94 38.5t-39 92.5t39.5 92.5t93.5 38.5t93.5 -38.5t39.5 -92.5t-39 -92.5t-94 -38.5zM420 1665q-55 0 -94 38.5t-39 92.5t39.5 92.5t93.5 38.5t93.5 -38.5t39.5 -92.5t-39 -92.5t-94 -38.5zM340 1454v-1536h-209v1536h209z" />
    <glyph glyph-name="Ntilde" unicode="&#xd1;" horiz-adv-x="1370" vert-adv-y="2007" 
d="M825 1577q-86 0 -184 78q-46 39 -66 39q-17 0 -11 -42q3 -24 14 -69h-213q-32 129 29.5 221t178.5 92q88 0 185 -77q33 -26 44.5 -32.5t22.5 -6.5q23 0 0 114h207q32 -130 -29.5 -223.5t-177.5 -93.5zM340 1063v-1145h-209v1536h166l913 -1145v1145h209v-1536h-166z" />
    <glyph glyph-name="Ograve" unicode="&#xd2;" horiz-adv-x="1636" vert-adv-y="2007" 
d="M879 2019l305 -442h-244l-309 442h248zM909 -102q-161 0 -305 61.5t-248 166.5t-164.5 251t-60.5 309q0 162 61 308.5t165 251.5t248 167t304 62t304 -62t247.5 -167t164.5 -251.5t61 -308.5t-61 -308t-164.5 -251.5t-247.5 -167t-304 -61.5zM909 102q157 0 287.5 76.5
t205.5 211t75 296.5t-75 296t-205.5 211t-287.5 77q-119 0 -224.5 -45t-181 -123t-119.5 -186t-44 -230t44 -230t119.5 -186t181 -123t224.5 -45z" />
    <glyph glyph-name="Oacute" unicode="&#xd3;" horiz-adv-x="1636" vert-adv-y="2007" 
d="M1155 2017l-309 -442h-244l305 442h248zM909 -102q-161 0 -305 61.5t-248 166.5t-164.5 251t-60.5 309q0 162 61 308.5t165 251.5t248 167t304 62t304 -62t247.5 -167t164.5 -251.5t61 -308.5t-61 -308t-164.5 -251.5t-247.5 -167t-304 -61.5zM909 102q157 0 287.5 76.5
t205.5 211t75 296.5t-75 296t-205.5 211t-287.5 77q-119 0 -224.5 -45t-181 -123t-119.5 -186t-44 -230t44 -230t119.5 -186t181 -123t224.5 -45z" />
    <glyph glyph-name="Ocircumflex" unicode="&#xd4;" horiz-adv-x="1636" vert-adv-y="2007" 
d="M909 1778l-180 -201h-266l391 440h111l391 -440h-266zM909 -102q-161 0 -305 61.5t-248 166.5t-164.5 251t-60.5 309q0 162 61 308.5t165 251.5t248 167t304 62t304 -62t247.5 -167t164.5 -251.5t61 -308.5t-61 -308t-164.5 -251.5t-247.5 -167t-304 -61.5zM909 102
q157 0 287.5 76.5t205.5 211t75 296.5t-75 296t-205.5 211t-287.5 77q-119 0 -224.5 -45t-181 -123t-119.5 -186t-44 -230t44 -230t119.5 -186t181 -123t224.5 -45z" />
    <glyph glyph-name="Otilde" unicode="&#xd5;" horiz-adv-x="1636" vert-adv-y="2007" 
d="M1036 1577q-86 0 -184 78q-46 39 -66 39q-9 0 -12 -8t0 -32.5t14 -70.5h-213q-32 129 30 221t179 92q88 0 185 -77q33 -26 44.5 -32.5t22.5 -6.5q23 0 0 114h207q32 -130 -29.5 -223.5t-177.5 -93.5zM909 -102q-161 0 -305 61.5t-248 166.5t-164.5 251t-60.5 309
q0 162 61 308.5t165 251.5t248 167t304 62t304 -62t247.5 -167t164.5 -251.5t61 -308.5t-61 -308t-164.5 -251.5t-247.5 -167t-304 -61.5zM909 102q157 0 287.5 76.5t205.5 211t75 296.5t-75 296t-205.5 211t-287.5 77q-119 0 -224.5 -45t-181 -123t-119.5 -186t-44 -230
t44 -230t119.5 -186t181 -123t224.5 -45z" />
    <glyph glyph-name="Odieresis" unicode="&#xd6;" horiz-adv-x="1636" vert-adv-y="2007" 
d="M725 1634q-55 0 -94 38.5t-39 92.5t39.5 92.5t93.5 38.5t93.5 -38.5t39.5 -92.5t-39 -92.5t-94 -38.5zM1094 1634q-55 0 -94 38.5t-39 92.5t39.5 92.5t93.5 38.5t93.5 -38.5t39.5 -92.5t-39 -92.5t-94 -38.5zM909 -102q-161 0 -305 61.5t-248 166.5t-164.5 251t-60.5 309
q0 162 61 308.5t165 251.5t248 167t304 62t304 -62t247.5 -167t164.5 -251.5t61 -308.5t-61 -308t-164.5 -251.5t-247.5 -167t-304 -61.5zM909 102q157 0 287.5 76.5t205.5 211t75 296.5t-75 296t-205.5 211t-287.5 77q-119 0 -224.5 -45t-181 -123t-119.5 -186t-44 -230
t44 -230t119.5 -186t181 -123t224.5 -45z" />
    <glyph glyph-name="multiply" unicode="&#xd7;" horiz-adv-x="1175" vert-adv-y="2007" 
d="M891 176l-303 303l-303 -303l-146 146l303 303l-303 303l146 145l303 -303l303 303l145 -145l-303 -303l303 -303z" />
    <glyph glyph-name="Oslash" unicode="&#xd8;" horiz-adv-x="1816" vert-adv-y="2007" 
d="M1303 1599l-70 -194q205 -93 329 -286.5t124 -432.5q0 -162 -61 -308t-164.5 -251.5t-247.5 -167t-304 -61.5q-103 0 -198 24l-54 -149h-215l80 225q-180 103 -285.5 285t-105.5 403q0 162 61 308.5t165 251.5t248 167t304 62q52 0 131 -11l47 135h216zM340 686
q0 -154 67 -282t185 -207l379 1069q-40 4 -62 4q-119 0 -224.5 -45t-181 -123t-119.5 -186t-44 -230zM909 102q157 0 287.5 76.5t205.5 211t75 296.5q0 172 -85 312t-227 212l-387 -1093q65 -15 131 -15z" />
    <glyph glyph-name="Ugrave" unicode="&#xd9;" horiz-adv-x="1351" vert-adv-y="2007" 
d="M750 2019l305 -442h-244l-309 442h248zM766 -102q-283 0 -459 190t-176 496v870h209v-870q0 -220 115.5 -350t310.5 -130t310.5 130t115.5 350v870h209v-870q0 -306 -176 -496t-459 -190z" />
    <glyph glyph-name="Uacute" unicode="&#xda;" horiz-adv-x="1351" vert-adv-y="2007" 
d="M1063 2019l-309 -442h-244l305 442h248zM766 -102q-283 0 -459 190t-176 496v870h209v-870q0 -220 115.5 -350t310.5 -130t310.5 130t115.5 350v870h209v-870q0 -306 -176 -496t-459 -190z" />
    <glyph glyph-name="Ucircumflex" unicode="&#xdb;" horiz-adv-x="1351" vert-adv-y="2007" 
d="M766 1778l-180 -201h-267l392 440h110l391 -440h-266zM766 -102q-283 0 -459 190t-176 496v870h209v-870q0 -220 115.5 -350t310.5 -130t310.5 130t115.5 350v870h209v-870q0 -306 -176 -496t-459 -190z" />
    <glyph glyph-name="Udieresis" unicode="&#xdc;" horiz-adv-x="1351" vert-adv-y="2007" 
d="M573 1665q-55 0 -94 38.5t-39 92.5t39.5 92.5t93.5 38.5t94 -38.5t40 -92.5t-39.5 -92.5t-94.5 -38.5zM942 1665q-55 0 -94 38.5t-39 92.5t39.5 92.5t93.5 38.5t93.5 -38.5t39.5 -92.5t-39 -92.5t-94 -38.5zM766 -102q-283 0 -459 190t-176 496v870h209v-870
q0 -220 115.5 -350t310.5 -130t310.5 130t115.5 350v870h209v-870q0 -306 -176 -496t-459 -190z" />
    <glyph glyph-name="Yacute" unicode="&#xdd;" horiz-adv-x="1474" vert-adv-y="2007" 
d="M1063 2019l-309 -442h-244l305 442h248zM932 494v-576h-209v576l-668 960h254l518 -752l519 752h253z" />
    <glyph glyph-name="germandbls" unicode="&#xdf;" horiz-adv-x="1368" vert-adv-y="1597" 
d="M362 1012v-1544h-206l-6 1503q10 228 159 366t383 138q227 0 369.5 -125.5t142.5 -325.5q0 -192 -147 -305q180 -117 180 -342q0 -153 -79 -268t-219.5 -170.5t-315.5 -38.5v209q184 -25 295.5 49t111.5 217q0 111 -83.5 172t-237.5 61h-263v203h261q136 0 213 57t77 156
q0 113 -83 179.5t-224 66.5q-132 0 -219 -68.5t-109 -189.5z" />
    <glyph glyph-name="agrave" unicode="&#xe0;" horiz-adv-x="1259" vert-adv-y="2007" 
d="M750 1651l305 -443h-244l-309 443h248zM721 -102q-255 0 -422.5 170.5t-167.5 429.5t167.5 429.5t422.5 170.5q222 0 381 -137v116h207v-1159h-207v117q-159 -137 -381 -137zM721 102q163 0 272 113.5t109 282.5t-109 282t-272 113q-169 0 -276 -111t-107 -284
q0 -174 107.5 -285t275.5 -111z" />
    <glyph glyph-name="aacute" unicode="&#xe1;" horiz-adv-x="1259" vert-adv-y="2007" 
d="M1073 1651l-309 -443h-244l305 443h248zM721 -102q-255 0 -422.5 170.5t-167.5 429.5t167.5 429.5t422.5 170.5q222 0 381 -137v116h207v-1159h-207v117q-159 -137 -381 -137zM721 102q163 0 272 113.5t109 282.5t-109 282t-272 113q-169 0 -276 -111t-107 -284
q0 -174 107.5 -285t275.5 -111z" />
    <glyph glyph-name="acircumflex" unicode="&#xe2;" horiz-adv-x="1259" vert-adv-y="2007" 
d="M721 1411l-180 -201h-267l392 441h110l391 -441h-266zM721 -102q-255 0 -422.5 170.5t-167.5 429.5t167.5 429.5t422.5 170.5q222 0 381 -137v116h207v-1159h-207v117q-159 -137 -381 -137zM721 102q163 0 272 113.5t109 282.5t-109 282t-272 113q-169 0 -276 -111
t-107 -284q0 -174 107.5 -285t275.5 -111z" />
    <glyph glyph-name="atilde" unicode="&#xe3;" horiz-adv-x="1259" vert-adv-y="2007" 
d="M848 1219q-87 0 -184 77q-46 39 -66 39q-9 0 -12 -7.5t0 -32t14 -70.5h-213q-32 129 30 221t179 92q86 0 184 -78q50 -39 68 -39q23 0 0 115h207q32 -130 -29.5 -223.5t-177.5 -93.5zM721 -102q-255 0 -422.5 170.5t-167.5 429.5t167.5 429.5t422.5 170.5q222 0 381 -137
v116h207v-1159h-207v117q-159 -137 -381 -137zM721 102q163 0 272 113.5t109 282.5t-109 282t-272 113q-169 0 -276 -111t-107 -284q0 -174 107.5 -285t275.5 -111z" />
    <glyph glyph-name="adieresis" unicode="&#xe4;" horiz-adv-x="1259" vert-adv-y="2007" 
d="M537 1208q-55 0 -94.5 38.5t-39.5 92.5t40 92.5t94 38.5t93.5 -38.5t39.5 -92.5t-39 -92.5t-94 -38.5zM905 1208q-55 0 -94 38.5t-39 92.5t39.5 92.5t93.5 38.5t93.5 -38.5t39.5 -92.5t-39 -92.5t-94 -38.5zM721 -102q-255 0 -422.5 170.5t-167.5 429.5t167.5 429.5
t422.5 170.5q222 0 381 -137v116h207v-1159h-207v117q-159 -137 -381 -137zM721 102q163 0 272 113.5t109 282.5t-109 282t-272 113q-169 0 -276 -111t-107 -284q0 -174 107.5 -285t275.5 -111z" />
    <glyph glyph-name="aring" unicode="&#xe5;" horiz-adv-x="1259" vert-adv-y="2007" 
d="M721 1208q-107 0 -184.5 76t-77.5 182t77.5 182t184.5 76t184.5 -76t77.5 -182t-77.5 -182t-184.5 -76zM721 1360q48 0 80.5 30.5t32.5 75.5q0 46 -33 76.5t-80 30.5t-80 -30.5t-33 -76.5q0 -45 32.5 -75.5t80.5 -30.5zM721 -102q-255 0 -422.5 170.5t-167.5 429.5
t167.5 429.5t422.5 170.5q222 0 381 -137v116h207v-1159h-207v117q-159 -137 -381 -137zM721 102q163 0 272 113.5t109 282.5t-109 282t-272 113q-169 0 -276 -111t-107 -284q0 -174 107.5 -285t275.5 -111z" />
    <glyph glyph-name="ae" unicode="&#xe6;" horiz-adv-x="2361" vert-adv-y="2007" 
d="M2255 528v-102h-944q25 -142 128 -233t242 -91q140 0 232.5 66.5t130.5 196.5l192 -70q-57 -188 -203.5 -292.5t-351.5 -104.5q-211 0 -372 135v-115h-207v117q-159 -137 -381 -137q-255 0 -422.5 170.5t-167.5 429.5t167.5 429.5t422.5 170.5q222 0 381 -137v116h207
v-119q165 140 389 140q241 0 399 -160t158 -410zM1100 461v49q0 17 2 25v6q-17 155 -123 253.5t-258 98.5q-169 0 -276 -111t-107 -284q0 -174 107.5 -285t275.5 -111q154 0 266.5 104.5t112.5 254.5zM1327 631h707q-31 122 -120.5 192t-215.5 70q-128 0 -229.5 -72
t-141.5 -190z" />
    <glyph glyph-name="ccedilla" unicode="&#xe7;" horiz-adv-x="1378" vert-adv-y="2007" 
d="M696 -590q-106 0 -171.5 66t-65.5 172q0 69 30.5 126.5t108.5 135.5q-207 40 -337 202t-130 386q0 167 77 304.5t212.5 216.5t298.5 79q213 0 362.5 -113t200.5 -313l-192 -70q-71 291 -371 291q-163 0 -272 -113t-109 -282q0 -172 107.5 -284t273.5 -112q300 0 371 291
l192 -69q-44 -176 -167 -285.5t-302 -134.5h2l-2 -62q-93 -89 -121 -125.5t-28 -68.5q0 -23 4.5 -28t25.5 -5q11 0 47 10l101 27l61 -187q-96 -35 -134 -45t-73 -10z" />
    <glyph glyph-name="egrave" unicode="&#xe8;" horiz-adv-x="1236" vert-adv-y="2007" 
d="M680 1651l305 -443h-244l-309 443h248zM713 -102q-161 0 -294.5 79t-210.5 216t-77 301q0 168 78.5 307t215.5 218t304 79q241 0 399 -160t158 -410v-102h-944q25 -142 128.5 -233t242.5 -91q140 0 232 66.5t130 196.5l193 -70q-57 -188 -203.5 -292.5t-351.5 -104.5z
M358 631h707q-31 122 -120.5 192t-215.5 70q-128 0 -229.5 -72t-141.5 -190z" />
    <glyph glyph-name="eacute" unicode="&#xe9;" horiz-adv-x="1236" vert-adv-y="2007" 
d="M985 1651l-309 -443h-244l305 443h248zM713 -102q-161 0 -294.5 79t-210.5 216t-77 301q0 168 78.5 307t215.5 218t304 79q241 0 399 -160t158 -410v-102h-944q25 -142 128.5 -233t242.5 -91q140 0 232 66.5t130 196.5l193 -70q-57 -188 -203.5 -292.5t-351.5 -104.5z
M358 631h707q-31 122 -120.5 192t-215.5 70q-128 0 -229.5 -72t-141.5 -190z" />
    <glyph glyph-name="ecircumflex" unicode="&#xea;" horiz-adv-x="1236" vert-adv-y="2007" 
d="M709 1409l-181 -201h-266l391 441h111l391 -441h-266zM713 -102q-161 0 -294.5 79t-210.5 216t-77 301q0 168 78.5 307t215.5 218t304 79q241 0 399 -160t158 -410v-102h-944q25 -142 128.5 -233t242.5 -91q140 0 232 66.5t130 196.5l193 -70q-57 -188 -203.5 -292.5
t-351.5 -104.5zM358 631h707q-31 122 -120.5 192t-215.5 70q-128 0 -229.5 -72t-141.5 -190z" />
    <glyph glyph-name="edieresis" unicode="&#xeb;" horiz-adv-x="1236" vert-adv-y="2007" 
d="M535 1219q-55 0 -94.5 38.5t-39.5 92.5t40 92.5t94 38.5t93.5 -38.5t39.5 -92.5t-39 -92.5t-94 -38.5zM903 1219q-55 0 -94 38.5t-39 92.5t39.5 92.5t93.5 38.5t93.5 -38.5t39.5 -92.5t-39 -92.5t-94 -38.5zM713 -102q-161 0 -294.5 79t-210.5 216t-77 301
q0 168 78.5 307t215.5 218t304 79q241 0 399 -160t158 -410v-102h-944q25 -142 128.5 -233t242.5 -91q140 0 232 66.5t130 196.5l193 -70q-57 -188 -203.5 -292.5t-351.5 -104.5zM358 631h707q-31 122 -120.5 192t-215.5 70q-128 0 -229.5 -72t-141.5 -190z" />
    <glyph glyph-name="igrave" unicode="&#xec;" horiz-adv-x="348" vert-adv-y="2007" 
d="M236 1661l305 -442h-244l-309 442h248zM369 1077v-1159h-207v1159h207z" />
    <glyph glyph-name="iacute" unicode="&#xed;" horiz-adv-x="348" vert-adv-y="2007" 
d="M508 1651l-309 -443h-244l305 443h248zM369 1077v-1159h-207v1159h207z" />
    <glyph glyph-name="icircumflex" unicode="&#xee;" horiz-adv-x="348" vert-adv-y="2007" 
d="M266 1425l-180 -200h-266l391 440h111l391 -440h-267zM369 1077v-1159h-207v1159h207z" />
    <glyph glyph-name="idieresis" unicode="&#xef;" horiz-adv-x="348" vert-adv-y="2007" 
d="M82 1208q-55 0 -94 38.5t-39 92.5t39.5 92.5t93.5 38.5t93.5 -38.5t39.5 -92.5t-39 -92.5t-94 -38.5zM451 1208q-55 0 -94.5 38.5t-39.5 92.5t40 92.5t94 38.5t93.5 -38.5t39.5 -92.5t-39 -92.5t-94 -38.5zM369 1077v-1159h-207v1159h207z" />
    <glyph glyph-name="ntilde" unicode="&#xf1;" horiz-adv-x="1130" vert-adv-y="2007" 
d="M782 1219q-87 0 -184 77q-46 39 -66 39q-17 0 -12 -38l15 -72h-213q-32 129 29.5 221t178.5 92q87 0 185 -78q33 -26 44.5 -32.5t22.5 -6.5q23 0 0 115h207q32 -130 -29.5 -223.5t-177.5 -93.5zM338 518v-600h-207v1159h207v-102q148 123 358 123q215 0 349.5 -142.5
t134.5 -369.5v-668h-207v668q0 143 -72.5 225t-198.5 82q-169 0 -266.5 -101t-97.5 -274z" />
    <glyph glyph-name="ograve" unicode="&#xf2;" horiz-adv-x="1280" vert-adv-y="2007" 
d="M700 1651l306 -443h-244l-309 443h247zM729 -102q-126 0 -237 46.5t-190 126t-125 191.5t-46 238t46 237t125 190t190 125t237 46t237.5 -46t191 -125t125.5 -190t46 -237t-46.5 -238t-126 -191.5t-190.5 -126t-237 -46.5zM729 102q170 0 281.5 113t111.5 285
t-110.5 282.5t-282.5 110.5q-170 0 -280.5 -110.5t-110.5 -282.5t111 -285t280 -113z" />
    <glyph glyph-name="oacute" unicode="&#xf3;" horiz-adv-x="1280" vert-adv-y="2007" 
d="M1008 1651l-310 -443h-243l305 443h248zM729 -102q-126 0 -237 46.5t-190 126t-125 191.5t-46 238t46 237t125 190t190 125t237 46t237.5 -46t191 -125t125.5 -190t46 -237t-46.5 -238t-126 -191.5t-190.5 -126t-237 -46.5zM729 102q170 0 281.5 113t111.5 285
t-110.5 282.5t-282.5 110.5q-170 0 -280.5 -110.5t-110.5 -282.5t111 -285t280 -113z" />
    <glyph glyph-name="ocircumflex" unicode="&#xf4;" horiz-adv-x="1280" vert-adv-y="2007" 
d="M731 1409l-180 -201h-266l391 441h110l392 -441h-267zM729 -102q-126 0 -237 46.5t-190 126t-125 191.5t-46 238t46 237t125 190t190 125t237 46t237.5 -46t191 -125t125.5 -190t46 -237t-46.5 -238t-126 -191.5t-190.5 -126t-237 -46.5zM729 102q170 0 281.5 113
t111.5 285t-110.5 282.5t-282.5 110.5q-170 0 -280.5 -110.5t-110.5 -282.5t111 -285t280 -113z" />
    <glyph glyph-name="otilde" unicode="&#xf5;" horiz-adv-x="1280" vert-adv-y="2007" 
d="M813 1202q-86 0 -184 78q-46 39 -66 39q-9 0 -12 -8t0 -32.5t14 -70.5h-213q-32 129 30 221.5t179 92.5q86 0 184 -78q50 -39 68 -39q23 0 0 115h207q32 -130 -29.5 -224t-177.5 -94zM729 -102q-126 0 -237 46.5t-190 126t-125 191.5t-46 238t46 237t125 190t190 125
t237 46t237.5 -46t191 -125t125.5 -190t46 -237t-46.5 -238t-126 -191.5t-190.5 -126t-237 -46.5zM729 102q170 0 281.5 113t111.5 285t-110.5 282.5t-282.5 110.5q-170 0 -280.5 -110.5t-110.5 -282.5t111 -285t280 -113z" />
    <glyph glyph-name="odieresis" unicode="&#xf6;" horiz-adv-x="1280" vert-adv-y="2007" 
d="M547 1202q-55 0 -94 38.5t-39 92.5t39.5 92.5t93.5 38.5t93.5 -38.5t39.5 -92.5t-39 -92.5t-94 -38.5zM915 1202q-55 0 -94 38.5t-39 92.5t39.5 92.5t93.5 38.5t94 -38.5t40 -92.5t-39.5 -92.5t-94.5 -38.5zM729 -102q-126 0 -237 46.5t-190 126t-125 191.5t-46 238
t46 237t125 190t190 125t237 46t237.5 -46t191 -125t125.5 -190t46 -237t-46.5 -238t-126 -191.5t-190.5 -126t-237 -46.5zM729 102q170 0 281.5 113t111.5 285t-110.5 282.5t-282.5 110.5q-170 0 -280.5 -110.5t-110.5 -282.5t111 -285t280 -113z" />
    <glyph glyph-name="divide" unicode="&#xf7;" horiz-adv-x="1368" vert-adv-y="2007" 
d="M684 870q-55 0 -94 38.5t-39 92.5t39.5 93t93.5 39t93.5 -39t39.5 -93t-39 -92.5t-94 -38.5zM1196 727v-205h-1024v205h1024zM684 117q-55 0 -94 38.5t-39 92.5t39.5 92.5t93.5 38.5t93.5 -38.5t39.5 -92.5t-39 -92.5t-94 -38.5z" />
    <glyph glyph-name="oslash" unicode="&#xf8;" horiz-adv-x="1460" vert-adv-y="2007" 
d="M604 -90l-88 -260h-215l119 334q-135 76 -212 214t-77 302q0 126 46 237t125 190t190 125t237 46q39 0 82 -6l135 385h215l-155 -441q151 -75 237 -218t86 -318q0 -126 -46.5 -238t-126 -191.5t-190.5 -126t-237 -46.5q-63 0 -125 12zM485 180l256 713h-12
q-170 0 -280.5 -110.5t-110.5 -282.5q0 -207 147 -320zM729 102q170 0 281.5 113t111.5 285q0 112 -48.5 200.5t-137.5 139.5l-260 -734q32 -4 53 -4z" />
    <glyph glyph-name="ugrave" unicode="&#xf9;" horiz-adv-x="1130" vert-adv-y="2007" 
d="M627 1651l305 -443h-244l-309 443h248zM614 -102q-215 0 -349 142.5t-134 369.5v667h207v-667q0 -143 72 -225.5t198 -82.5q169 0 267 101t98 274v600h207v-1159h-207v102q-146 -122 -359 -122z" />
    <glyph glyph-name="uacute" unicode="&#xfa;" horiz-adv-x="1130" vert-adv-y="2007" 
d="M881 1651l-310 -443h-243l305 443h248zM614 -102q-215 0 -349 142.5t-134 369.5v667h207v-667q0 -143 72 -225.5t198 -82.5q169 0 267 101t98 274v600h207v-1159h-207v102q-146 -122 -359 -122z" />
    <glyph glyph-name="ucircumflex" unicode="&#xfb;" horiz-adv-x="1130" vert-adv-y="2007" 
d="M623 1411l-181 -201h-266l391 441h111l391 -441h-266zM614 -102q-215 0 -349 142.5t-134 369.5v667h207v-667q0 -143 72 -225.5t198 -82.5q169 0 267 101t98 274v600h207v-1159h-207v102q-146 -122 -359 -122z" />
    <glyph glyph-name="udieresis" unicode="&#xfc;" horiz-adv-x="1130" vert-adv-y="2007" 
d="M471 1217q-55 0 -94 38.5t-39 92.5t39.5 92.5t93.5 38.5t93.5 -38.5t39.5 -92.5t-39 -92.5t-94 -38.5zM840 1217q-55 0 -94 38.5t-39 92.5t39.5 92.5t93.5 38.5t93.5 -38.5t39.5 -92.5t-39 -92.5t-94 -38.5zM614 -102q-215 0 -349 142.5t-134 369.5v667h207v-667
q0 -143 72 -225.5t198 -82.5q169 0 267 101t98 274v600h207v-1159h-207v102q-146 -122 -359 -122z" />
    <glyph glyph-name="yacute" unicode="&#xfd;" horiz-adv-x="1251" vert-adv-y="2007" 
d="M993 1661l-309 -442h-244l305 442h248zM1350 1077l-727 -1507h-228l207 430l-520 1077h231l404 -837l405 837h228z" />
    <glyph glyph-name="ydieresis" unicode="&#xff;" horiz-adv-x="1251" vert-adv-y="2007" 
d="M532 1210q-55 0 -94 38.5t-39 92.5t39.5 93t93.5 39t94 -39t40 -93t-39.5 -92.5t-94.5 -38.5zM901 1210q-55 0 -94 38.5t-39 92.5t39.5 93t93.5 39t93.5 -39t39.5 -93t-39 -92.5t-94 -38.5zM1350 1077l-727 -1507h-228l207 430l-520 1077h231l404 -837l405 837h228z" />
    <glyph glyph-name="Cacute" unicode="&#x106;" horiz-adv-x="1581" vert-adv-y="2007" 
d="M1063 2019l-309 -442h-244l305 442h248zM915 -102q-161 0 -306.5 61.5t-250 167t-166 251.5t-61.5 308t61.5 308.5t166 251.5t250 167t306.5 62q264 0 464 -137t274 -367l-195 -82q-43 173 -191.5 277t-351.5 104q-159 0 -291.5 -77t-208 -211t-75.5 -296t75.5 -296
t208 -211t291.5 -77q202 0 348 101.5t193 277.5l197 -73q-72 -233 -273 -371.5t-465 -138.5z" />
    <glyph glyph-name="cacute" unicode="&#x107;" horiz-adv-x="1198" vert-adv-y="2007" 
d="M967 1651l-310 -443h-243l305 443h248zM719 -102q-253 0 -420.5 171t-167.5 429q0 167 77 304.5t212.5 216.5t298.5 79q213 0 362.5 -113t200.5 -313l-192 -70q-71 291 -371 291q-163 0 -272 -113t-109 -282q0 -172 107.5 -284t273.5 -112q300 0 371 291l192 -69
q-51 -200 -200.5 -313t-362.5 -113z" />
    <glyph glyph-name="Ccircumflex" unicode="&#x108;" horiz-adv-x="1581" vert-adv-y="2007" 
d="M881 1778l-181 -201h-266l391 440h111l391 -440h-266zM915 -102q-161 0 -306.5 61.5t-250 167t-166 251.5t-61.5 308t61.5 308.5t166 251.5t250 167t306.5 62q264 0 464 -137t274 -367l-195 -82q-43 173 -191.5 277t-351.5 104q-159 0 -291.5 -77t-208 -211t-75.5 -296
t75.5 -296t208 -211t291.5 -77q202 0 348 101.5t193 277.5l197 -73q-72 -233 -273 -371.5t-465 -138.5z" />
    <glyph glyph-name="ccircumflex" unicode="&#x109;" horiz-adv-x="1198" vert-adv-y="2007" 
d="M690 1409l-180 -201h-266l391 441h110l392 -441h-267zM719 -102q-253 0 -420.5 171t-167.5 429q0 167 77 304.5t212.5 216.5t298.5 79q213 0 362.5 -113t200.5 -313l-192 -70q-71 291 -371 291q-163 0 -272 -113t-109 -282q0 -172 107.5 -284t273.5 -112q300 0 371 291
l192 -69q-51 -200 -200.5 -313t-362.5 -113z" />
    <glyph glyph-name="Cdotaccent" unicode="&#x10a;" horiz-adv-x="1581" vert-adv-y="2007" 
d="M881 1608q-55 0 -94 38.5t-39 92.5t39.5 92.5t93.5 38.5t93.5 -38.5t39.5 -92.5t-39 -92.5t-94 -38.5zM915 -102q-161 0 -306.5 61.5t-250 167t-166 251.5t-61.5 308t61.5 308.5t166 251.5t250 167t306.5 62q264 0 464 -137t274 -367l-195 -82q-43 173 -191.5 277
t-351.5 104q-159 0 -291.5 -77t-208 -211t-75.5 -296t75.5 -296t208 -211t291.5 -77q202 0 348 101.5t193 277.5l197 -73q-72 -233 -273 -371.5t-465 -138.5z" />
    <glyph glyph-name="cdotaccent" unicode="&#x10b;" horiz-adv-x="1198" vert-adv-y="2007" 
d="M688 1208q-55 0 -94 38.5t-39 92.5t39.5 92.5t93.5 38.5t93.5 -38.5t39.5 -92.5t-39 -92.5t-94 -38.5zM719 -102q-253 0 -420.5 171t-167.5 429q0 167 77 304.5t212.5 216.5t298.5 79q213 0 362.5 -113t200.5 -313l-192 -70q-71 291 -371 291q-163 0 -272 -113t-109 -282
q0 -172 107.5 -284t273.5 -112q300 0 371 291l192 -69q-51 -200 -200.5 -313t-362.5 -113z" />
    <glyph glyph-name="Ccaron" unicode="&#x10c;" horiz-adv-x="1581" vert-adv-y="2007" 
d="M1362 2005l-391 -440h-111l-391 440h266l180 -201l181 201h266zM915 -102q-161 0 -306.5 61.5t-250 167t-166 251.5t-61.5 308t61.5 308.5t166 251.5t250 167t306.5 62q264 0 464 -137t274 -367l-195 -82q-43 173 -191.5 277t-351.5 104q-159 0 -291.5 -77t-208 -211
t-75.5 -296t75.5 -296t208 -211t291.5 -77q202 0 348 101.5t193 277.5l197 -73q-72 -233 -273 -371.5t-465 -138.5z" />
    <glyph glyph-name="ccaron" unicode="&#x10d;" horiz-adv-x="1198" vert-adv-y="2007" 
d="M1137 1649l-392 -441h-110l-391 441h266l180 -201l180 201h267zM719 -102q-253 0 -420.5 171t-167.5 429q0 167 77 304.5t212.5 216.5t298.5 79q213 0 362.5 -113t200.5 -313l-192 -70q-71 291 -371 291q-163 0 -272 -113t-109 -282q0 -172 107.5 -284t273.5 -112
q300 0 371 291l192 -69q-51 -200 -200.5 -313t-362.5 -113z" />
    <glyph glyph-name="Ecaron" unicode="&#x11a;" horiz-adv-x="1208" vert-adv-y="2007" 
d="M1137 2017l-392 -440h-110l-391 440h266l180 -200l180 200h267zM1257 123v-205h-1126v1536h1126v-205h-917v-456h856v-205h-856v-465h917z" />
    <glyph glyph-name="ecaron" unicode="&#x11b;" horiz-adv-x="1236" vert-adv-y="2007" 
d="M1155 1659l-391 -440h-111l-391 440h266l181 -201l180 201h266zM713 -102q-161 0 -294.5 79t-210.5 216t-77 301q0 168 78.5 307t215.5 218t304 79q241 0 399 -160t158 -410v-102h-944q25 -142 128.5 -233t242.5 -91q140 0 232 66.5t130 196.5l193 -70
q-57 -188 -203.5 -292.5t-351.5 -104.5zM358 631h707q-31 122 -120.5 192t-215.5 70q-128 0 -229.5 -72t-141.5 -190z" />
    <glyph glyph-name="Itilde" unicode="&#x128;" horiz-adv-x="290" vert-adv-y="2007" 
d="M387 1577q-86 0 -184 78q-46 39 -66 39q-9 0 -12 -8t0 -32.5t14 -70.5h-213q-32 129 30 221t179 92q87 0 184 -77q50 -39 68 -39q23 0 0 114h207q32 -130 -29.5 -223.5t-177.5 -93.5zM340 1454v-1536h-209v1536h209z" />
    <glyph glyph-name="itilde" unicode="&#x129;" horiz-adv-x="348" vert-adv-y="2007" 
d="M391 1200q-86 0 -184 78q-46 39 -66 39q-9 0 -12 -8t0 -32.5t14 -70.5h-213q-32 129 30 221.5t179 92.5q87 0 185 -78q33 -26 44.5 -32.5t22.5 -6.5q23 0 0 115h207q32 -130 -29.5 -224t-177.5 -94zM369 1077v-1159h-207v1159h207z" />
    <glyph glyph-name="dotlessi" unicode="&#x131;" horiz-adv-x="528" vert-adv-y="2007" 
d="M369 1077v-1159h-207v1159h207z" />
    <glyph glyph-name="Nacute" unicode="&#x143;" horiz-adv-x="1370" vert-adv-y="2007" 
d="M1063 2019l-309 -442h-244l305 442h248zM340 1063v-1145h-209v1536h166l913 -1145v1145h209v-1536h-166z" />
    <glyph glyph-name="nacute" unicode="&#x144;" horiz-adv-x="1130" vert-adv-y="2007" 
d="M932 1651l-309 -443h-244l305 443h248zM338 518v-600h-207v1159h207v-102q148 123 358 123q215 0 349.5 -142.5t134.5 -369.5v-668h-207v668q0 143 -72.5 225t-198.5 82q-169 0 -266.5 -101t-97.5 -274z" />
    <glyph glyph-name="OE" unicode="&#x152;" horiz-adv-x="2742" vert-adv-y="2007" 
d="M909 -102q-161 0 -305 61.5t-248 166.5t-164.5 251t-60.5 309q0 162 61 308.5t165 251.5t248 167t304 62q164 0 312 -64t256 -180v244h1126v-205h-917v-457h856v-205h-856v-465h917v-204h-1126v202q-107 -116 -256 -179.5t-312 -63.5zM909 102q157 0 287.5 76.5
t205.5 211t75 296.5t-75 296t-205.5 211t-287.5 77q-119 0 -224.5 -45t-181 -123t-119.5 -186t-44 -230t44 -230t119.5 -186t181 -123t224.5 -45z" />
    <glyph glyph-name="oe" unicode="&#x153;" horiz-adv-x="2351" vert-adv-y="2007" 
d="M2277 528v-102h-944q25 -142 128.5 -233t242.5 -91q140 0 232 66.5t130 196.5l193 -70q-57 -188 -203.5 -292.5t-351.5 -104.5q-148 0 -273.5 68t-205.5 186v-2q-84 -119 -214 -185.5t-282 -66.5q-126 0 -237 46.5t-190 126t-125 191.5t-46 238t46 237t125 190t190 125
t237 46q155 0 285.5 -67t210.5 -187v-6q81 122 210.5 191t284.5 69q241 0 399 -160t158 -410zM729 102q169 0 280 113t111 285t-110.5 282.5t-280.5 110.5t-280.5 -110.5t-110.5 -282.5t111 -285t280 -113zM1350 631h706q-31 122 -120.5 192t-215.5 70q-128 0 -229 -72
t-141 -190z" />
    <glyph glyph-name="Racute" unicode="&#x154;" horiz-adv-x="1312" vert-adv-y="2007" 
d="M1024 2019l-309 -442h-244l305 442h248zM340 590v-672h-209v1536h694q218 0 353 -119.5t135 -312.5t-135 -312.5t-353 -119.5h31l606 -672h-282l-600 672h-240zM825 1249h-485v-454h485q129 0 204 61.5t75 165.5t-75 165.5t-204 61.5z" />
    <glyph glyph-name="racute" unicode="&#x155;" horiz-adv-x="804" vert-adv-y="2007" 
d="M735 1651l-309 -443h-244l305 443h248zM338 518v-600h-207v1159h207v-102q148 123 358 123q96 0 181 -31l-54 -199q-55 25 -121 25q-169 0 -266.5 -101t-97.5 -274z" />
    <glyph glyph-name="Rcaron" unicode="&#x158;" horiz-adv-x="1312" vert-adv-y="2007" 
d="M1137 2017l-392 -440h-110l-391 440h266l180 -200l180 200h267zM340 590v-672h-209v1536h694q218 0 353 -119.5t135 -312.5t-135 -312.5t-353 -119.5h31l606 -672h-282l-600 672h-240zM825 1249h-485v-454h485q129 0 204 61.5t75 165.5t-75 165.5t-204 61.5z" />
    <glyph glyph-name="rcaron" unicode="&#x159;" horiz-adv-x="804" vert-adv-y="2007" 
d="M932 1653l-391 -441h-111l-391 441h266l180 -201l181 201h266zM338 518v-600h-207v1159h207v-102q148 123 358 123q96 0 181 -31l-54 -199q-55 25 -121 25q-169 0 -266.5 -101t-97.5 -274z" />
    <glyph glyph-name="Sacute" unicode="&#x15a;" horiz-adv-x="1261" vert-adv-y="2007" 
d="M1063 2019l-309 -442h-244l305 442h248zM756 -102q-183 0 -325.5 69.5t-222.5 196t-81 289.5l219 51q-26 -177 90 -289.5t322 -112.5q161 0 251.5 67.5t90.5 186.5q0 88 -45 129t-176 70l-330 80q-363 89 -363 391q0 198 149 323.5t384 125.5q243 0 400.5 -136
t172.5 -360l-200 -70q-1 168 -102 264.5t-273 96.5q-144 0 -231 -67t-87 -177q0 -80 48 -122.5t165 -67.5l303 -76q58 -13 104.5 -28.5t104 -47t96 -72.5t65 -106.5t26.5 -147.5q0 -207 -153 -333.5t-402 -126.5z" />
    <glyph glyph-name="sacute" unicode="&#x15b;" horiz-adv-x="1034" vert-adv-y="2007" 
d="M885 1655l-310 -443h-243l305 443h248zM635 -102q-228 0 -369.5 119.5t-138.5 312.5l211 43q-29 -119 54.5 -196t242.5 -77q115 0 178.5 42t63.5 116q0 48 -32 73.5t-120 45.5l-256 57q-152 34 -226.5 110t-74.5 199q0 157 120.5 256t311.5 99q194 0 321.5 -105.5
t147.5 -285.5l-207 -43q2 107 -68 168t-194 61q-102 0 -163.5 -41t-61.5 -109q0 -46 31 -69.5t118 -42.5l242 -53q45 -11 80.5 -22.5t82.5 -37t78 -58t53.5 -85t22.5 -117.5q0 -161 -124 -260.5t-324 -99.5z" />
    <glyph glyph-name="Scircumflex" unicode="&#x15c;" horiz-adv-x="1261" vert-adv-y="2007" 
d="M715 1778l-180 -201h-267l391 440h111l391 -440h-266zM756 -102q-183 0 -325.5 69.5t-222.5 196t-81 289.5l219 51q-26 -177 90 -289.5t322 -112.5q161 0 251.5 67.5t90.5 186.5q0 88 -45 129t-176 70l-330 80q-363 89 -363 391q0 198 149 323.5t384 125.5
q243 0 400.5 -136t172.5 -360l-200 -70q-1 168 -102 264.5t-273 96.5q-144 0 -231 -67t-87 -177q0 -80 48 -122.5t165 -67.5l303 -76q58 -13 104.5 -28.5t104 -47t96 -72.5t65 -106.5t26.5 -147.5q0 -207 -153 -333.5t-402 -126.5z" />
    <glyph glyph-name="scircumflex" unicode="&#x15d;" horiz-adv-x="1034" vert-adv-y="2007" 
d="M608 1409l-180 -201h-266l391 441h111l391 -441h-267zM635 -102q-228 0 -369.5 119.5t-138.5 312.5l211 43q-29 -119 54.5 -196t242.5 -77q115 0 178.5 42t63.5 116q0 48 -32 73.5t-120 45.5l-256 57q-152 34 -226.5 110t-74.5 199q0 157 120.5 256t311.5 99
q194 0 321.5 -105.5t147.5 -285.5l-207 -43q2 107 -68 168t-194 61q-102 0 -163.5 -41t-61.5 -109q0 -46 31 -69.5t118 -42.5l242 -53q45 -11 80.5 -22.5t82.5 -37t78 -58t53.5 -85t22.5 -117.5q0 -161 -124 -260.5t-324 -99.5z" />
    <glyph glyph-name="Scedilla" unicode="&#x15e;" horiz-adv-x="1441" vert-adv-y="2007" 
d="M748 -571q-106 0 -172 65.5t-66 171.5q0 65 26.5 119.5t90.5 120.5q-227 35 -363.5 184t-136.5 363l219 51q-26 -177 90 -289.5t322 -112.5q161 0 251.5 67.5t90.5 186.5q0 88 -45 129t-176 70l-330 80q-363 89 -363 391q0 198 149 323.5t384 125.5q243 0 400.5 -136
t172.5 -360l-200 -70q-1 168 -102 264.5t-273 96.5q-144 0 -231 -67t-87 -177q0 -80 48 -122.5t165 -67.5l303 -76q58 -13 104.5 -28.5t104 -47t96 -72.5t65 -106.5t26.5 -147.5q0 -182 -120 -304t-325 -150l-2 -43q-93 -88 -121 -125t-28 -70q0 -23 4.5 -28t25.5 -5
q8 0 48 11l100 26l61 -186q-97 -35 -134 -45t-72 -10z" />
    <glyph glyph-name="scedilla" unicode="&#x15f;" horiz-adv-x="1214" vert-adv-y="2007" 
d="M752 -92l-2 -49q-91 -85 -119.5 -122t-28.5 -71q0 -23 5 -28t26 -5q7 0 47 11l100 26l62 -186q-96 -35 -134 -45t-73 -10q-106 0 -172 65.5t-66 171.5q0 65 26.5 120t90.5 122q-179 31 -284.5 144.5t-102.5 277.5l211 43q-29 -119 54.5 -196t242.5 -77q115 0 178.5 42
t63.5 116q0 48 -32 73.5t-120 45.5l-256 57q-152 34 -226.5 110t-74.5 199q0 157 120.5 256t311.5 99q194 0 321.5 -105.5t147.5 -285.5l-207 -43q2 107 -68 168t-194 61q-102 0 -163.5 -41t-61.5 -109q0 -46 31 -69.5t118 -42.5l242 -53q45 -11 80.5 -22.5t82.5 -37t78 -58
t53.5 -85t22.5 -117.5q0 -135 -89.5 -228.5t-241.5 -121.5z" />
    <glyph glyph-name="Scaron" unicode="&#x160;" horiz-adv-x="1261" vert-adv-y="2007" 
d="M1167 2017l-391 -440h-110l-392 440h267l180 -200l180 200h266zM756 -102q-183 0 -325.5 69.5t-222.5 196t-81 289.5l219 51q-26 -177 90 -289.5t322 -112.5q161 0 251.5 67.5t90.5 186.5q0 88 -45 129t-176 70l-330 80q-363 89 -363 391q0 198 149 323.5t384 125.5
q243 0 400.5 -136t172.5 -360l-200 -70q-1 168 -102 264.5t-273 96.5q-144 0 -231 -67t-87 -177q0 -80 48 -122.5t165 -67.5l303 -76q58 -13 104.5 -28.5t104 -47t96 -72.5t65 -106.5t26.5 -147.5q0 -207 -153 -333.5t-402 -126.5z" />
    <glyph glyph-name="scaron" unicode="&#x161;" horiz-adv-x="1034" vert-adv-y="2007" 
d="M1055 1665l-391 -440h-111l-391 440h266l180 -201l180 201h267zM635 -102q-228 0 -369.5 119.5t-138.5 312.5l211 43q-29 -119 54.5 -196t242.5 -77q115 0 178.5 42t63.5 116q0 48 -32 73.5t-120 45.5l-256 57q-152 34 -226.5 110t-74.5 199q0 157 120.5 256t311.5 99
q194 0 321.5 -105.5t147.5 -285.5l-207 -43q2 107 -68 168t-194 61q-102 0 -163.5 -41t-61.5 -109q0 -46 31 -69.5t118 -42.5l242 -53q45 -11 80.5 -22.5t82.5 -37t78 -58t53.5 -85t22.5 -117.5q0 -161 -124 -260.5t-324 -99.5z" />
    <glyph glyph-name="Utilde" unicode="&#x168;" horiz-adv-x="1351" vert-adv-y="2007" 
d="M825 1577q-86 0 -184 78q-46 39 -66 39q-17 0 -11 -42q3 -24 14 -69h-213q-32 129 29.5 221t178.5 92q88 0 185 -77q33 -26 44.5 -32.5t22.5 -6.5q23 0 0 114h207q32 -130 -29.5 -223.5t-177.5 -93.5zM766 -102q-283 0 -459 190t-176 496v870h209v-870q0 -220 115.5 -350
t310.5 -130t310.5 130t115.5 350v870h209v-870q0 -306 -176 -496t-459 -190z" />
    <glyph glyph-name="utilde" unicode="&#x169;" horiz-adv-x="1130" vert-adv-y="2007" 
d="M739 1206q-86 0 -184 78q-46 39 -66 39q-17 0 -11 -42q3 -24 14 -69h-213q-32 129 29.5 221.5t178.5 92.5q87 0 185 -78q33 -26 44.5 -32.5t22.5 -6.5q23 0 0 115h207q32 -130 -29.5 -224t-177.5 -94zM614 -102q-215 0 -349 142.5t-134 369.5v667h207v-667
q0 -143 72 -225.5t198 -82.5q169 0 267 101t98 274v600h207v-1159h-207v102q-146 -122 -359 -122z" />
    <glyph glyph-name="Uring" unicode="&#x16e;" horiz-adv-x="1351" vert-adv-y="2007" 
d="M766 1591q-107 0 -184.5 76t-77.5 182t77.5 182t184.5 76t184.5 -76t77.5 -182t-77.5 -182t-184.5 -76zM766 1743q48 0 80.5 30.5t32.5 75.5q0 46 -33 76.5t-80 30.5t-80 -30.5t-33 -76.5q0 -45 32.5 -75.5t80.5 -30.5zM766 -102q-283 0 -459 190t-176 496v870h209v-870
q0 -220 115.5 -350t310.5 -130t310.5 130t115.5 350v870h209v-870q0 -306 -176 -496t-459 -190z" />
    <glyph glyph-name="uring" unicode="&#x16f;" horiz-adv-x="1130" vert-adv-y="2007" 
d="M655 1225q-107 0 -184.5 76t-77.5 182t77.5 182t184.5 76t185 -76t78 -182t-78 -182t-185 -76zM655 1376q47 0 80 30.5t33 76.5q0 45 -32.5 75.5t-80.5 30.5t-80 -30t-32 -76t32.5 -76.5t79.5 -30.5zM614 -102q-215 0 -349 142.5t-134 369.5v667h207v-667
q0 -143 72 -225.5t198 -82.5q169 0 267 101t98 274v600h207v-1159h-207v102q-146 -122 -359 -122z" />
    <glyph glyph-name="Wcircumflex" unicode="&#x174;" horiz-adv-x="2076" vert-adv-y="2007" 
d="M1106 1778l-180 -201h-267l392 440h110l391 -440h-266zM1128 1049l-372 -1131h-158l-500 1536h221l361 -1112l367 1112h163l367 -1112l360 1112h222l-500 -1536h-158z" />
    <glyph glyph-name="wcircumflex" unicode="&#x175;" horiz-adv-x="1679" vert-adv-y="2007" 
d="M928 1444l-180 -201h-267l391 440h111l391 -440h-266zM930 676l-268 -764h-168l-396 1167h221l261 -766l272 764h156l272 -764l260 766h221l-395 -1167h-168z" />
    <glyph glyph-name="Ycircumflex" unicode="&#x176;" horiz-adv-x="1474" vert-adv-y="2007" 
d="M827 1778l-180 -201h-266l391 440h111l391 -440h-266zM932 494v-576h-209v576l-668 960h254l518 -752l519 752h253z" />
    <glyph glyph-name="ycircumflex" unicode="&#x177;" horiz-adv-x="1251" vert-adv-y="2007" 
d="M717 1413l-180 -201h-267l392 441h110l391 -441h-266zM1350 1077l-727 -1507h-228l207 430l-520 1077h231l404 -837l405 837h228z" />
    <glyph glyph-name="Ydieresis" unicode="&#x178;" horiz-adv-x="1474" vert-adv-y="2007" 
d="M643 1667q-55 0 -94 38.5t-39 92.5t39.5 92.5t93.5 38.5t93.5 -38.5t39.5 -92.5t-39 -92.5t-94 -38.5zM1012 1667q-55 0 -94 38.5t-39 92.5t39.5 92.5t93.5 38.5t93.5 -38.5t39.5 -92.5t-39 -92.5t-94 -38.5zM932 494v-576h-209v576l-668 960h254l518 -752l519 752h253z
" />
    <glyph glyph-name="Zacute" unicode="&#x179;" horiz-adv-x="1261" vert-adv-y="2007" 
d="M1020 2019l-309 -442h-244l305 442h248zM1311 123v-205h-1180v135l870 1196h-841v205h1151v-133l-873 -1198h873z" />
    <glyph glyph-name="zacute" unicode="&#x17a;" horiz-adv-x="1083" vert-adv-y="2007" 
d="M868 1651l-309 -443h-244l306 443h247zM1133 123v-205h-1002v148l666 806h-643v205h960v-147l-665 -807h684z" />
    <glyph glyph-name="Zcaron" unicode="&#x17d;" horiz-adv-x="1261" vert-adv-y="2007" 
d="M1137 2017l-392 -440h-110l-391 440h266l180 -200l180 200h267zM1311 123v-205h-1180v135l870 1196h-841v205h1151v-133l-873 -1198h873z" />
    <glyph glyph-name="zcaron" unicode="&#x17e;" horiz-adv-x="1083" vert-adv-y="2007" 
d="M1079 1647l-391 -441h-110l-392 441h267l180 -201l180 201h266zM1133 123v-205h-1002v148l666 806h-643v205h960v-147l-665 -807h684z" />
    <glyph glyph-name="florin" unicode="&#x192;" horiz-adv-x="1239" vert-adv-y="2007" 
d="M117 -420q-151 0 -232 123l133 193q27 -69 45.5 -90t55.5 -21q46 0 78 30t41 81l124 688h-262v204h301l52 299q32 178 151.5 283t288.5 105q203 0 326 -170l-150 -158q-35 68 -75.5 95.5t-106.5 27.5q-91 0 -150 -55.5t-78 -159.5l-49 -267h439v-204h-478l-127 -721
q-26 -127 -116 -205t-211 -78z" />
    <glyph glyph-name="circumflex" unicode="&#x2c6;" vert-adv-y="2007" 
d="M715 1778l-180 -201h-267l391 440h111l391 -440h-266z" />
    <glyph glyph-name="caron" unicode="&#x2c7;" vert-adv-y="2007" 
d="M1137 2017l-392 -440h-110l-391 440h266l180 -200l180 200h267z" />
    <glyph glyph-name="breve" unicode="&#x2d8;" vert-adv-y="2007" 
d="M705 1128q-110 0 -193.5 55t-119.5 149.5t-13 203.5h211q-36 -86 -1 -146.5t116 -60.5t115.5 60.5t-1.5 146.5h211q23 -109 -13 -203.5t-119 -149.5t-193 -55z" />
    <glyph glyph-name="dotaccent" unicode="&#x2d9;" vert-adv-y="2007" 
d="M705 1608q-55 0 -94.5 38.5t-39.5 92.5t40 92.5t94 38.5t93.5 -38.5t39.5 -92.5t-39 -92.5t-94 -38.5z" />
    <glyph glyph-name="ring" unicode="&#x2da;" vert-adv-y="2007" 
d="M705 1577q-107 0 -185 76t-78 182t78 182t185 76t184.5 -76t77.5 -182t-77.5 -182t-184.5 -76zM705 1729q48 0 80 30t32 76t-32.5 76.5t-79.5 30.5t-80 -30.5t-33 -76.5q0 -45 32.5 -75.5t80.5 -30.5z" />
    <glyph glyph-name="ogonek" unicode="&#x2db;" vert-adv-y="2007" 
d="M692 -471q-106 0 -171.5 66t-65.5 172q0 82 43.5 150t169.5 185l225 -61q-153 -139 -193.5 -186t-40.5 -88q0 -23 5 -28t26 -5q11 0 47 10l101 27l61 -187q-96 -35 -134 -45t-73 -10z" />
    <glyph glyph-name="tilde" unicode="&#x2dc;" vert-adv-y="2007" 
d="M825 1577q-86 0 -184 78q-46 39 -66 39q-17 0 -11 -42q3 -24 14 -69h-213q-32 129 29.5 221t178.5 92q88 0 185 -77q33 -26 44.5 -32.5t22.5 -6.5q23 0 0 114h207q32 -130 -29.5 -223.5t-177.5 -93.5z" />
    <glyph glyph-name="hungarumlaut" unicode="&#x2dd;" vert-adv-y="2007" 
d="M860 2019l-309 -442h-244l305 442h248zM1155 2019l-309 -442h-244l305 442h248z" />
    <glyph glyph-name="Wgrave" unicode="&#x1e80;" horiz-adv-x="2076" vert-adv-y="2007" 
d="M1100 2050l305 -442h-244l-309 442h248zM1128 1049l-372 -1131h-158l-500 1536h221l361 -1112l367 1112h163l367 -1112l360 1112h222l-500 -1536h-158z" />
    <glyph glyph-name="wgrave" unicode="&#x1e81;" horiz-adv-x="1679" vert-adv-y="2007" 
d="M901 1692l305 -443h-243l-310 443h248zM930 676l-268 -764h-168l-396 1167h221l261 -766l272 764h156l272 -764l260 766h221l-395 -1167h-168z" />
    <glyph glyph-name="Wacute" unicode="&#x1e82;" horiz-adv-x="2076" vert-adv-y="2007" 
d="M1405 2050l-309 -442h-244l305 442h248zM1128 1049l-372 -1131h-158l-500 1536h221l361 -1112l367 1112h163l367 -1112l360 1112h222l-500 -1536h-158z" />
    <glyph glyph-name="wacute" unicode="&#x1e83;" horiz-adv-x="1679" vert-adv-y="2007" 
d="M1206 1649l-309 -443h-244l305 443h248zM930 676l-268 -764h-168l-396 1167h221l261 -766l272 764h156l272 -764l260 766h221l-395 -1167h-168z" />
    <glyph glyph-name="Wdieresis" unicode="&#x1e84;" horiz-adv-x="2076" vert-adv-y="2007" 
d="M944 1624q-55 0 -94 38.5t-39 92.5t39.5 92.5t93.5 38.5t93.5 -38.5t39.5 -92.5t-39 -92.5t-94 -38.5zM1313 1624q-55 0 -94 38.5t-39 92.5t39.5 92.5t93.5 38.5t93.5 -38.5t39.5 -92.5t-39 -92.5t-94 -38.5zM1128 1049l-372 -1131h-158l-500 1536h221l361 -1112
l367 1112h163l367 -1112l360 1112h222l-500 -1536h-158z" />
    <glyph glyph-name="wdieresis" unicode="&#x1e85;" horiz-adv-x="1679" vert-adv-y="2007" 
d="M745 1253q-55 0 -94 38.5t-39 92.5t39.5 93t93.5 39t94 -39t40 -93t-39.5 -92.5t-94.5 -38.5zM1114 1253q-55 0 -94 38.5t-39 92.5t39.5 93t93.5 39t93.5 -39t39.5 -93t-39 -92.5t-94 -38.5zM930 676l-268 -764h-168l-396 1167h221l261 -766l272 764h156l272 -764
l260 766h221l-395 -1167h-168z" />
    <glyph glyph-name="endash" unicode="&#x2013;" horiz-adv-x="1449" vert-adv-y="2007" 
d="M1319 625v-205h-1188v205h1188z" />
    <glyph glyph-name="emdash" unicode="&#x2014;" horiz-adv-x="2310" vert-adv-y="2007" 
d="M2179 625v-205h-2048v205h2048z" />
    <glyph glyph-name="quoteleft" unicode="&#x2018;" horiz-adv-x="626" vert-adv-y="2007" 
d="M522 1454l-192 -692h-203v100l186 592h209z" />
    <glyph glyph-name="quoteright" unicode="&#x2019;" horiz-adv-x="626" vert-adv-y="2007" 
d="M500 1354l-187 -592h-209l193 692h203v-100z" />
    <glyph glyph-name="quotesinglbase" unicode="&#x201a;" horiz-adv-x="626" vert-adv-y="2007" 
d="M500 240l-187 -592h-209l193 692h203v-100z" />
    <glyph glyph-name="quotedblleft" unicode="&#x201c;" horiz-adv-x="913" vert-adv-y="2007" 
d="M522 1454l-192 -692h-203v100l186 592h209zM809 1454l-193 -692h-202v100l186 592h209z" />
    <glyph glyph-name="quotedblright" unicode="&#x201d;" horiz-adv-x="913" vert-adv-y="2007" 
d="M500 1354l-187 -592h-209l193 692h203v-100zM786 1354l-186 -592h-209l193 692h202v-100z" />
    <glyph glyph-name="quotedblbase" unicode="&#x201e;" horiz-adv-x="913" vert-adv-y="2007" 
d="M500 240l-187 -592h-209l193 692h203v-100zM786 240l-186 -592h-209l193 692h202v-100z" />
    <glyph glyph-name="dagger" unicode="&#x2020;" horiz-adv-x="815" vert-adv-y="2007" 
d="M510 1206v-481h-205v481h-225v207h225v184h205v-184h225v-207h-225z" />
    <glyph glyph-name="daggerdbl" unicode="&#x2021;" horiz-adv-x="815" vert-adv-y="2007" 
d="M510 909v-184h-205v184h-225v207h225v90h-225v207h225v184h205v-184h225v-207h-225v-90h225v-207h-225z" />
    <glyph glyph-name="bullet" unicode="&#x2022;" horiz-adv-x="944" vert-adv-y="2007" 
d="M471 219q-145 0 -242.5 95t-97.5 235q0 136 100 234t240 98q141 0 241.5 -97.5t100.5 -234.5q0 -140 -98.5 -235t-243.5 -95z" />
    <glyph glyph-name="ellipsis" unicode="&#x2026;" horiz-adv-x="1224" vert-adv-y="2007" 
d="M264 -86q-55 0 -94 38.5t-39 92.5t39.5 92.5t93.5 38.5t93.5 -38.5t39.5 -92.5t-39 -92.5t-94 -38.5zM612 -86q-55 0 -94 38.5t-39 92.5t39.5 92.5t93.5 38.5t93.5 -38.5t39.5 -92.5t-39 -92.5t-94 -38.5zM961 -86q-55 0 -94.5 38.5t-39.5 92.5t40 92.5t94 38.5
t93.5 -38.5t39.5 -92.5t-39 -92.5t-94 -38.5z" />
    <glyph glyph-name="perthousand" unicode="&#x2030;" horiz-adv-x="2719" vert-adv-y="2007" 
d="M543 672q-170 0 -291 116.5t-121 282.5q0 170 119.5 287t292.5 117q175 0 293 -116t118 -288q0 -167 -119.5 -283t-291.5 -116zM1667 1454l-1171 -1536h-250l1171 1536h250zM543 874q89 0 150 57t61 140q0 86 -61 145.5t-150 59.5t-151 -59.5t-62 -145.5
q0 -82 62.5 -139.5t150.5 -57.5zM1399 -102q-170 0 -291 116.5t-121 282.5q0 170 119.5 286.5t292.5 116.5q137 0 242 -73.5t147 -194.5q42 120 148 194t241 74q175 0 293.5 -115.5t118.5 -287.5q0 -167 -120 -283t-292 -116q-134 0 -240.5 74.5t-148.5 193.5
q-42 -120 -148 -194t-241 -74zM1399 100q89 0 150 57t61 140q0 86 -61 145.5t-150 59.5t-151 -59.5t-62 -145.5q0 -82 62.5 -139.5t150.5 -57.5zM2177 100q89 0 150 57t61 140q0 86 -61 145.5t-150 59.5t-151 -59.5t-62 -145.5q0 -82 62.5 -139.5t150.5 -57.5z" />
    <glyph glyph-name="guilsinglleft" unicode="&#x2039;" horiz-adv-x="604" vert-adv-y="2007" 
d="M293 537l334 -447h-258l-328 447l328 446h258z" />
    <glyph glyph-name="guilsinglright" unicode="&#x203a;" horiz-adv-x="604" vert-adv-y="2007" 
d="M563 537l-327 -447h-259l334 447l-334 446h259z" />
    <glyph glyph-name="fraction" unicode="&#x2044;" horiz-adv-x="577" vert-adv-y="2007" 
d="M999 1454l-1171 -1536h-250l1172 1536h249z" />
    <glyph glyph-name="Euro" unicode="&#x20ac;" horiz-adv-x="1826" vert-adv-y="2007" 
d="M1083 -100q-216 0 -372 137t-215 377h-273v204h242q-2 20 -2 68q0 29 2 45h-242v205h266q56 250 214.5 394.5t379.5 144.5q233 0 399 -164t204 -432l-197 -74q-28 219 -136 342t-270 123q-135 0 -234.5 -87t-146.5 -247h621l-61 -205h-588v-2q-2 -14 -2 -43q0 -43 4 -68
h557l-49 -204h-473q47 -148 144.5 -229t227.5 -81q163 0 270 118.5t136 332.5l201 -59q-38 -269 -205 -432.5t-402 -163.5z" />
    <glyph glyph-name="uni2116" unicode="&#x2116;" horiz-adv-x="2732" vert-adv-y="2007" 
d="M2087 625q-177 0 -299.5 123.5t-122.5 302.5q0 178 122.5 301t299.5 123q179 0 300.5 -122t121.5 -302q0 -182 -121 -304t-301 -122zM432 1063v-1145h-209v1536h166l914 -1145v1145h208v-1536h-165zM2087 829q92 0 153.5 63.5t61.5 158.5q0 94 -61.5 156.5t-153.5 62.5
q-89 0 -151 -63.5t-62 -155.5q0 -94 61 -158t152 -64zM2488 578v-205h-802v205h802z" />
    <glyph glyph-name="uni2117" unicode="&#x2117;" horiz-adv-x="1806" vert-adv-y="2007" 
d="M903 -72q-158 0 -298.5 58.5t-240.5 158.5t-158.5 240t-58.5 297q0 159 58.5 300t159 242.5t241 160.5t297.5 59t297.5 -59t241 -160.5t159 -242.5t58.5 -300q0 -157 -58.5 -297t-158.5 -240t-240.5 -158.5t-298.5 -58.5zM903 72q171 0 310.5 80t219.5 220.5t80 311.5
q0 173 -80 315t-220 223t-310 81t-310 -81t-220 -223t-80 -315q0 -171 80 -311.5t219.5 -220.5t310.5 -80zM750 516v-283h-144v877h363q148 0 239.5 -82.5t91.5 -214.5t-91.5 -214.5t-239.5 -82.5h-219zM969 973h-219v-320h219q87 0 137.5 43t50.5 117t-50.5 117t-137.5 43z
" />
    <glyph glyph-name="trademark" unicode="&#x2122;" horiz-adv-x="1476" vert-adv-y="2007" 
d="M498 1255v-497h-205v497h-203v199h719l195 -373l194 373h168v-696h-203v192l-96 -188h-129l-96 188v-192h-203v497h-141z" />
    <glyph glyph-name="minus" unicode="&#x2212;" horiz-adv-x="1368" vert-adv-y="2007" 
d="M1196 727v-205h-1024v205h1024z" />
    <glyph glyph-name="approxequal" unicode="&#x2248;" horiz-adv-x="1368" vert-adv-y="2007" 
d="M920 653q-55 0 -111.5 15t-81.5 26t-76 37q-54 29 -91.5 42t-86.5 13q-76 0 -136 -35q-52 -29 -28 -53l15 -10l-152 62v120q41 54 125.5 87.5t175.5 33.5q53 0 107.5 -14.5t81.5 -27t73 -36.5q43 -21 64 -30t54 -17t67 -8q28 0 66 11t63.5 23.5t23.5 18.5l35 37l88 -14
v-195q-50 -38 -126.5 -62t-149.5 -24zM920 305q-55 0 -111.5 15t-81.5 26t-76 37q-54 29 -91.5 42t-86.5 13q-76 0 -136 -35q-52 -29 -28 -53q6 -5 15 -10l-152 61v121q41 54 125.5 87.5t175.5 33.5q53 0 107.5 -14.5t81.5 -27t73 -36.5q43 -21 64 -30t54 -17t67 -8
q28 0 66 11t63.5 23.5t23.5 18.5l35 37l88 -14v-195q-50 -38 -126.5 -62t-149.5 -24z" />
    <glyph glyph-name="notequal" unicode="&#x2260;" horiz-adv-x="1368" vert-adv-y="2007" 
d="M618 358l-151 -225h-250l152 225h-197v205h334l108 164h-442v205h580l151 225h250l-152 -225h195v-205h-332l-108 -164h440v-205h-578z" />
    <glyph glyph-name="lessequal" unicode="&#x2264;" horiz-adv-x="1028" vert-adv-y="2007" 
d="M938 455v-342h-860v204h649l-657 281v135l868 371v-227l-500 -211z" />
    <glyph glyph-name="greaterequal" unicode="&#x2265;" horiz-adv-x="1028" vert-adv-y="2007" 
d="M950 317v-204h-860v342l500 211l-500 211v227l868 -371v-135l-657 -281h649z" />
    <glyph glyph-name="_Fontastica" horiz-adv-x="1673" vert-adv-y="2007" 
d="M420 535v-349h-201q-3 0 -4.5 2t-1.5 4v3v1206h905v-178h-698v-502h698v-186h-698zM1460 1401v-1215h-905v189h698v493h-698v193h698v340h207zM399 -2q-31 0 -51 20t-20 52q0 31 20 50t51 19t52.5 -19.5t21.5 -49.5q0 -31 -21 -51.5t-53 -20.5zM946 -2q-32 0 -61 22
l14 29q6 -7 21 -13.5t26 -6.5q4 0 10 1l5 1q4 4 4 8q0 6 -4 8q-10 7 -23 10q-12 2 -25 9q-7 0 -14 10q-6 9 -6 20q0 21 16 32t37 11q27 0 55 -14l-14 -29q-23 15 -41 15q-16 0 -16 -11q0 -8 24 -16q19 -4 25 -8q5 -2 16 -13q6 -9 6 -22q0 -20 -16.5 -31.5t-38.5 -11.5z
M1262 -2q-29 0 -49.5 20.5t-20.5 51.5q0 30 20.5 49.5t51.5 19.5q35 0 53 -24l-21 -25q-13 19 -32 19q-15 0 -26 -10.5t-11 -30.5q0 -13 4 -19q12 -18 33 -18q18 0 32 14l23 -20q-31 -27 -57 -27zM254 49v-47h-35v135h100v-28h-65v-31h59v-29h-59zM524 82v-80h-35v135h31
l64 -82l-2 82h34v-135h-30zM705 109v-107h-33v107h-41v28h117v-28h-43zM778 25l-10 -23h-35l58 135h34l58 -135h-37l-10 23h-58zM1083 109v-107h-36v107h-39v28h114v-28h-39zM1174 137v-135h-35v135h35zM1362 25l-8 -23h-37l57 135h37l57 -135h-38l-9 23h-59zM399 29
q16 0 26.5 12t10.5 27q0 8 -4 20q-9 21 -31 21q-17 0 -28 -11.5t-11 -27.5q0 -15 11 -28t26 -13zM825 51l-16 49l-21 -49h37zM1411 51l-18 49l-19 -49h37z" />
    <glyph glyph-name="_VendorID" horiz-adv-x="1331" vert-adv-y="2007" 
d="M889 791q-106 0 -172 55t-55 131h75q-17 -44 30 -80.5t122 -36.5q63 0 107 27t44 67q0 70 -159 95q-205 30 -205 155q0 69 59.5 113.5t147.5 44.5q98 0 161.5 -53t51.5 -125h-76q19 41 -24 73.5t-113 32.5q-58 0 -96.5 -24t-38.5 -60q0 -66 143 -88q108 -15 164.5 -57
t56.5 -107q0 -70 -63.5 -116.5t-159.5 -46.5zM616 1040h-331v-237h-72v547h424v-70h-352v-168h331v-72zM1112 311q0 -71 -63 -117.5t-160 -46.5q-104 0 -170.5 54.5t-56.5 130.5h75q-17 -43 30 -78t122 -35q63 0 107 26t44 64q0 73 -155 97q-102 13 -155.5 53t-53.5 102
q0 69 59.5 113.5t149.5 44.5q98 0 160.5 -53t50.5 -125h-76q19 40 -24 73t-111 33q-57 0 -97 -24.5t-40 -59.5q0 -32 36.5 -54.5t104.5 -31.5q223 -35 223 -166zM637 637h-352v-168h331v-72h-331v-239h-72v549h424v-70zM494 117q-2 -2 -2 -4v-2h12v-11h-12v-37h-13v37h-6v9
l6 2v4q0 7 6 10q0 4 11 4q10 0 14 -2l-4 -10q-4 2 -8 2t-4 -2zM803 129q6 0 6 -6v-6h-6q-8 0 -8 6t8 6zM629 121h8v-10h14v-11h-14v-22q0 -1 1 -2t1 -2h4h8v-11q-2 0 -5.5 -1t-6.5 -1q-2 0 -12 5q-4 4 -4 12v22h-5v6l7 5zM764 121h8v-10h14v-11h-14v-22q0 -2 2 -4h12v-11
q-1 0 -5.5 -1t-6.5 -1q-7 0 -12 5q-2 2 -2 12v22h-8v6l8 5zM682 113q2 0 14 -4q4 -8 4 -15v-31h-10l-2 5q-1 0 -6 -5q-2 -2 -10 -2l-10 5q-5 5 -5 12q0 6 7 10q4 4 16 4h6v2q0 8 -6 8q-4 0 -12 -4l-6 11q12 4 20 4zM887 113q6 0 14 -4q6 -6 6 -15v-31h-10l-2 5l-6 -5
q-2 -2 -8 -2q-3 0 -13 5q-4 2 -4 12q0 7 6 10q2 4 17 4h8v2q0 8 -8 8q-3 0 -15 -4l-4 11q12 4 19 4zM1112 109q6 -6 6 -15v-31h-14v29q0 4 -2 6q0 2 -6 2l-6 -2q-3 -3 -3 -12v-23h-14v29q0 2 -2 6q0 2 -4 2q-6 0 -8 -2q0 -2 -1 -6t-1 -8v-21h-13v48h11l2 -7q3 5 4 5
q4 2 10 2q11 0 14 -7h2q0 5 5 5l4 2h4q10 0 12 -2zM276 90l7 21h12l-12 -48h-17l-4 17l-4 20l-8 -37h-14l-15 48h15l4 -21l4 -16v8l2 6l4 23h16l4 -23q2 -2 2 -4v-4v-2v-4l2 8q0 1 1 4t1 4zM350 90l6 21h15l-17 -48h-12l-4 17l-4 20l-10 -37h-13l-14 48h12l6 -21q0 -3 1 -8
t1 -8l2 8v6l7 23h14l6 -23v-8q2 0 2 -2v-4q0 6 2 8v8zM426 90l6 21h12l-12 -48h-14l-4 17l-4 20h-2l-11 -37h-12l-12 48h12l4 -21q0 -3 1 -8t1 -8h2q0 6 2 8v6l4 23h17l4 -23q0 -1 1 -2t1 -2v-4v-2q2 -2 2 -4v8q0 1 1 4t1 4zM545 109q7 -7 8 -9q0 -2 1 -6.5t1 -7.5
q0 -9 -6 -18q-7 -7 -19 -7q-2 0 -12 5l-8 8v12q0 14 4 20q10 5 16 5q11 0 15 -2zM604 106q6 -3 6 -12v-31h-14v29v6q-2 2 -8 2q-4 0 -6 -2q-2 -4 -2 -14v-21h-15v48h10l3 -7q5 5 6 5q2 2 8 2q10 0 12 -5zM735 100h-6q-6 0 -6 -2t2 -2l10 -4l8 -4q0 -1 5 -6v-4q0 -7 -5 -12
q-10 -5 -16 -5t-8 2q-5 0 -8 3v10q4 -2 8 -2q2 -2 8 -2q8 0 8 4v4h-4q-1 0 -3.5 1t-4.5 1l-6 4q-4 4 -4 6q-2 2 -2 6q0 8 6 11q2 2 14 2q13 0 17 -2l-5 -11q-2 2 -8 2zM809 63h-12v48h12v-48zM844 100q-10 0 -10 -14q0 -12 10 -12h6q2 0 6 4v-12q-3 -3 -6 -3q-2 -2 -8 -2
q-23 0 -23 25q0 11 6 20q10 5 19 5q10 0 14 -2l-4 -11q-1 0 -3 1t-3 1h-4zM967 100q-11 0 -11 -14q0 -12 11 -12h6q2 0 6 4v-12q-3 -3 -6 -3q-2 -2 -8 -2q-23 0 -23 25q0 11 6 20q10 5 19 5q8 0 14 -2l-4 -11q-1 0 -3 1t-3 1h-4zM1022 109q7 -4 10 -9q2 -4 2 -14t-8 -18
q-7 -7 -16 -7q-6 0 -11 5q-8 4 -8 8q-4 8 -4 12q0 11 6 20q10 5 17 5q10 0 12 -2zM539 76q2 4 2 10q0 8 -2 12q-2 2 -9 2q-6 0 -6 -2q-2 -4 -2 -12q0 -6 2 -10q0 -2 6 -2q7 0 9 2zM1018 76q2 4 2 10q0 8 -2 12q0 2 -8 2q-4 0 -6 -2q-3 -6 -3 -12q0 -4 3 -10q2 -2 6 -2
q8 0 8 2zM686 80v4h-2q-2 0 -5.5 -1t-4.5 -1q-2 0 -2 -4q0 -6 6 -6l6 2zM895 80v4h-6q-2 0 -4.5 -1t-3.5 -1q-2 0 -2 -4q0 -6 6 -6q1 0 3 1t3 1zM463 74q2 0 2 -6q0 -3 -2 -5l-4 -2q-4 0 -8 2v5v6q4 2 8 2t4 -2zM926 76q4 0 6 -2t2 -6q-2 -3 -2 -5q-2 -2 -6 -2t-4 2l-2 5
q0 6 2 6q0 2 4 2z" />
    </font>
</defs>
</svg>
